<svg width="18" height="12" viewBox="0 0 18 12" fill="none" xmlns="http://www.w3.org/2000/svg">
<path fill-rule="evenodd" clip-rule="evenodd" d="M16.3635 0.666687H15.3742C14.8278 0.666687 14.3849 1.1144 14.3849 1.66669V10.3334C14.3849 10.8856 14.8278 11.3334 15.3742 11.3334H16.3635C16.9099 11.3334 17.3528 10.8856 17.3528 10.3334V1.66669C17.3528 1.1144 16.9099 0.666687 16.3635 0.666687ZM10.7573 3.00002H11.7466C12.293 3.00002 12.736 3.44774 12.736 4.00002V10.3334C12.736 10.8856 12.293 11.3334 11.7466 11.3334H10.7573C10.2109 11.3334 9.76794 10.8856 9.76794 10.3334V4.00002C9.76794 3.44774 10.2109 3.00002 10.7573 3.00002ZM7.12974 5.33335H6.1404C5.594 5.33335 5.15106 5.78107 5.15106 6.33335V10.3334C5.15106 10.8856 5.594 11.3334 6.1404 11.3334H7.12974C7.67614 11.3334 8.11908 10.8856 8.11908 10.3334V6.33335C8.11908 5.78107 7.67614 5.33335 7.12974 5.33335ZM2.51284 7.33335H1.52351C0.977117 7.33335 0.53418 7.78107 0.53418 8.33335V10.3334C0.53418 10.8856 0.977117 11.3334 1.52351 11.3334H2.51284C3.05923 11.3334 3.50217 10.8856 3.50217 10.3334V8.33335C3.50217 7.78107 3.05923 7.33335 2.51284 7.33335Z" fill="white"/>
</svg>
