<svg width="18" height="12" viewBox="0 0 18 12" fill="none" xmlns="http://www.w3.org/2000/svg">
<path fill-rule="evenodd" clip-rule="evenodd" d="M16.6666 0.666656H15.6666C15.1143 0.666656 14.6666 1.11437 14.6666 1.66666V10.3333C14.6666 10.8856 15.1143 11.3333 15.6666 11.3333H16.6666C17.2189 11.3333 17.6666 10.8856 17.6666 10.3333V1.66666C17.6666 1.11437 17.2189 0.666656 16.6666 0.666656ZM11 2.99999H12C12.5522 2.99999 13 3.44771 13 3.99999V10.3333C13 10.8856 12.5522 11.3333 12 11.3333H11C10.4477 11.3333 9.99996 10.8856 9.99996 10.3333V3.99999C9.99996 3.44771 10.4477 2.99999 11 2.99999ZM7.33329 5.33332H6.33329C5.78101 5.33332 5.33329 5.78104 5.33329 6.33332V10.3333C5.33329 10.8856 5.78101 11.3333 6.33329 11.3333H7.33329C7.88558 11.3333 8.33329 10.8856 8.33329 10.3333V6.33332C8.33329 5.78104 7.88558 5.33332 7.33329 5.33332ZM2.66663 7.33332H1.66663C1.11434 7.33332 0.666626 7.78104 0.666626 8.33332V10.3333C0.666626 10.8856 1.11434 11.3333 1.66663 11.3333H2.66663C3.21891 11.3333 3.66663 10.8856 3.66663 10.3333V8.33332C3.66663 7.78104 3.21891 7.33332 2.66663 7.33332Z" fill="white"/>
</svg>
