<svg width="18" height="12" viewBox="0 0 18 12" fill="none" xmlns="http://www.w3.org/2000/svg">
<path fill-rule="evenodd" clip-rule="evenodd" d="M16.6665 0.666687H15.6665C15.1142 0.666687 14.6665 1.1144 14.6665 1.66669V10.3334C14.6665 10.8856 15.1142 11.3334 15.6665 11.3334H16.6665C17.2188 11.3334 17.6665 10.8856 17.6665 10.3334V1.66669C17.6665 1.1144 17.2188 0.666687 16.6665 0.666687ZM10.9998 3.00002H11.9998C12.5521 3.00002 12.9998 3.44774 12.9998 4.00002V10.3334C12.9998 10.8856 12.5521 11.3334 11.9998 11.3334H10.9998C10.4476 11.3334 9.99984 10.8856 9.99984 10.3334V4.00002C9.99984 3.44774 10.4476 3.00002 10.9998 3.00002ZM7.33317 5.33335H6.33317C5.78089 5.33335 5.33317 5.78107 5.33317 6.33335V10.3334C5.33317 10.8856 5.78089 11.3334 6.33317 11.3334H7.33317C7.88546 11.3334 8.33317 10.8856 8.33317 10.3334V6.33335C8.33317 5.78107 7.88546 5.33335 7.33317 5.33335ZM2.6665 7.33335H1.6665C1.11422 7.33335 0.666504 7.78107 0.666504 8.33335V10.3334C0.666504 10.8856 1.11422 11.3334 1.6665 11.3334H2.6665C3.21879 11.3334 3.6665 10.8856 3.6665 10.3334V8.33335C3.6665 7.78107 3.21879 7.33335 2.6665 7.33335Z" fill="white"/>
</svg>
