<svg width="17" height="12" viewBox="0 0 17 12" fill="none" xmlns="http://www.w3.org/2000/svg">
<path fill-rule="evenodd" clip-rule="evenodd" d="M15.8862 0.666626H14.9048C14.3629 0.666626 13.9235 1.11434 13.9235 1.66663V10.3333C13.9235 10.8856 14.3629 11.3333 14.9048 11.3333H15.8862C16.4281 11.3333 16.8675 10.8856 16.8675 10.3333V1.66663C16.8675 1.11434 16.4281 0.666626 15.8862 0.666626ZM10.3253 2.99996H11.3066C11.8486 2.99996 12.2879 3.44768 12.2879 3.99996V10.3333C12.2879 10.8856 11.8486 11.3333 11.3066 11.3333H10.3253C9.78329 11.3333 9.34393 10.8856 9.34393 10.3333V3.99996C9.34393 3.44768 9.78329 2.99996 10.3253 2.99996ZM6.72704 5.33329H5.74571C5.20373 5.33329 4.76437 5.78101 4.76437 6.33329V10.3333C4.76437 10.8856 5.20373 11.3333 5.74571 11.3333H6.72704C7.26902 11.3333 7.70837 10.8856 7.70837 10.3333V6.33329C7.70837 5.78101 7.26902 5.33329 6.72704 5.33329ZM2.14748 7.33329H1.16615C0.624172 7.33329 0.184814 7.78101 0.184814 8.33329V10.3333C0.184814 10.8856 0.624172 11.3333 1.16615 11.3333H2.14748C2.68946 11.3333 3.12881 10.8856 3.12881 10.3333V8.33329C3.12881 7.78101 2.68946 7.33329 2.14748 7.33329Z" fill="black"/>
</svg>
