<svg width="18" height="12" viewBox="0 0 18 12" fill="none" xmlns="http://www.w3.org/2000/svg">
<path fill-rule="evenodd" clip-rule="evenodd" d="M16.6666 0.666748H15.6666C15.1143 0.666748 14.6666 1.11446 14.6666 1.66675V10.3334C14.6666 10.8857 15.1143 11.3334 15.6666 11.3334H16.6666C17.2189 11.3334 17.6666 10.8857 17.6666 10.3334V1.66675C17.6666 1.11446 17.2189 0.666748 16.6666 0.666748ZM11 3.00008H12C12.5522 3.00008 13 3.4478 13 4.00008V10.3334C13 10.8857 12.5522 11.3334 12 11.3334H11C10.4477 11.3334 9.99996 10.8857 9.99996 10.3334V4.00008C9.99996 3.4478 10.4477 3.00008 11 3.00008ZM7.33329 5.33341H6.33329C5.78101 5.33341 5.33329 5.78113 5.33329 6.33341V10.3334C5.33329 10.8857 5.78101 11.3334 6.33329 11.3334H7.33329C7.88558 11.3334 8.33329 10.8857 8.33329 10.3334V6.33341C8.33329 5.78113 7.88558 5.33341 7.33329 5.33341ZM2.66663 7.33341H1.66663C1.11434 7.33341 0.666626 7.78113 0.666626 8.33341V10.3334C0.666626 10.8857 1.11434 11.3334 1.66663 11.3334H2.66663C3.21891 11.3334 3.66663 10.8857 3.66663 10.3334V8.33341C3.66663 7.78113 3.21891 7.33341 2.66663 7.33341Z" fill="white"/>
</svg>
