<svg width="40" height="40" viewBox="0 0 40 40" fill="none" xmlns="http://www.w3.org/2000/svg">
<path d="M40 20C40 8.9543 31.0457 0 20 0C8.9543 0 0 8.9543 0 20C0 31.0457 8.9543 40 20 40C31.0457 40 40 31.0457 40 20Z" fill="white"/>
<path d="M14.3359 14.336C14.2295 14.4422 14.1451 14.5684 14.0875 14.7073C14.0299 14.8462 14.0002 14.9951 14.0002 15.1455C14.0002 15.2958 14.0299 15.4447 14.0875 15.5836C14.1451 15.7225 14.2295 15.8487 14.3359 15.955L18.3819 20.001L14.3359 24.043C14.2296 24.1493 14.1453 24.2755 14.0877 24.4144C14.0302 24.5533 14.0006 24.7021 14.0006 24.8525C14.0006 25.0028 14.0302 25.1517 14.0877 25.2906C14.1453 25.4295 14.2296 25.5557 14.3359 25.662C14.4422 25.7683 14.5684 25.8526 14.7073 25.9101C14.8462 25.9677 14.995 25.9973 15.1454 25.9973C15.2957 25.9973 15.4446 25.9677 15.5835 25.9101C15.7224 25.8526 15.8486 25.7683 15.9549 25.662L20.0009 21.616L24.0429 25.665C24.1494 25.7715 24.2758 25.856 24.415 25.9136C24.5541 25.9712 24.7033 26.0009 24.8539 26.0009C25.0045 26.0009 25.1536 25.9712 25.2928 25.9136C25.4319 25.856 25.5584 25.7715 25.6649 25.665C25.7714 25.5585 25.8559 25.432 25.9135 25.2929C25.9711 25.1537 26.0008 25.0046 26.0008 24.854C26.0008 24.7034 25.9711 24.5542 25.9135 24.4151C25.8559 24.2759 25.7714 24.1495 25.6649 24.043L21.6189 19.997L25.6649 15.951C25.879 15.7359 25.999 15.4445 25.9983 15.141C25.9977 14.8375 25.8765 14.5466 25.6614 14.3325C25.4463 14.1183 25.1549 13.9984 24.8514 13.999C24.5479 13.9997 24.257 14.1209 24.0429 14.336L19.9969 18.382L15.9539 14.336C15.8477 14.2297 15.7215 14.1454 15.5827 14.0879C15.4439 14.0304 15.2951 14.0008 15.1449 14.0008C14.9946 14.0008 14.8459 14.0304 14.707 14.0879C14.5682 14.1454 14.4421 14.2297 14.3359 14.336Z" fill="black"/>
</svg>
