<svg width="40" height="40" viewBox="0 0 40 40" fill="none" xmlns="http://www.w3.org/2000/svg">
<path d="M40 20C40 8.9543 31.0457 0 20 0C8.9543 0 0 8.9543 0 20C0 31.0457 8.9543 40 20 40C31.0457 40 40 31.0457 40 20Z" fill="white"/>
<path d="M14.3361 14.336C14.2297 14.4422 14.1453 14.5684 14.0877 14.7073C14.0301 14.8462 14.0005 14.9951 14.0005 15.1455C14.0005 15.2958 14.0301 15.4447 14.0877 15.5836C14.1453 15.7225 14.2297 15.8487 14.3361 15.955L18.3821 20.001L14.3361 24.043C14.2298 24.1493 14.1455 24.2755 14.088 24.4144C14.0304 24.5533 14.0008 24.7021 14.0008 24.8525C14.0008 25.0028 14.0304 25.1517 14.088 25.2906C14.1455 25.4295 14.2298 25.5557 14.3361 25.662C14.4424 25.7683 14.5686 25.8526 14.7075 25.9101C14.8464 25.9677 14.9953 25.9973 15.1456 25.9973C15.296 25.9973 15.4448 25.9677 15.5837 25.9101C15.7226 25.8526 15.8488 25.7683 15.9551 25.662L20.0011 21.616L24.0431 25.665C24.1496 25.7715 24.2761 25.856 24.4152 25.9136C24.5544 25.9712 24.7035 26.0009 24.8541 26.0009C25.0047 26.0009 25.1539 25.9712 25.293 25.9136C25.4322 25.856 25.5586 25.7715 25.6651 25.665C25.7716 25.5585 25.8561 25.432 25.9137 25.2929C25.9714 25.1537 26.0011 25.0046 26.0011 24.854C26.0011 24.7034 25.9714 24.5542 25.9137 24.4151C25.8561 24.2759 25.7716 24.1495 25.6651 24.043L21.6191 19.997L25.6651 15.951C25.8793 15.7359 25.9992 15.4445 25.9986 15.141C25.9979 14.8375 25.8767 14.5466 25.6616 14.3325C25.4465 14.1183 25.1552 13.9984 24.8517 13.999C24.5481 13.9997 24.2573 14.1209 24.0431 14.336L19.9971 18.382L15.9541 14.336C15.8479 14.2297 15.7218 14.1454 15.583 14.0879C15.4442 14.0304 15.2954 14.0008 15.1451 14.0008C14.9949 14.0008 14.8461 14.0304 14.7073 14.0879C14.5685 14.1454 14.4424 14.2297 14.3361 14.336Z" fill="black"/>
</svg>
