<svg width="18" height="18" viewBox="0 0 18 18" fill="none" xmlns="http://www.w3.org/2000/svg">
<path d="M3.53033 2.46967C3.23744 2.17678 2.76256 2.17678 2.46967 2.46967C2.17678 2.76256 2.17678 3.23744 2.46967 3.53033L4.28779 5.34845C3.21479 6.15553 2.27944 7.26407 1.57918 8.66459C1.47361 8.87574 1.47361 9.12427 1.57918 9.33541C3.19784 12.5727 6.07266 14.25 9 14.25C10.1664 14.25 11.3244 13.9837 12.3979 13.4586L14.4697 15.5303C14.7626 15.8232 15.2374 15.8232 15.5303 15.5303C15.8232 15.2374 15.8232 14.7626 15.5303 14.4697L3.53033 2.46967ZM11.2603 12.321C10.5257 12.6084 9.76004 12.75 9 12.75C6.77341 12.75 4.49854 11.5344 3.09724 9C3.71041 7.89102 4.49083 7.03455 5.36128 6.42194L6.96928 8.02994C6.82871 8.32367 6.75 8.65264 6.75 9.00001C6.75 10.2426 7.75736 11.25 9 11.25C9.34736 11.25 9.67634 11.1713 9.97007 11.0307L11.2603 12.321Z" fill="#2A2D34"/>
<path d="M13.9142 10.4216C14.2765 10.0051 14.6088 9.53157 14.9027 9C13.5014 6.46558 11.2266 5.25 8.99997 5.25C8.91597 5.25 8.8319 5.25173 8.74781 5.2552L7.40955 3.91693C7.93306 3.80588 8.46564 3.75 8.99997 3.75C11.9273 3.75 14.8021 5.42726 16.4208 8.66459C16.5264 8.87574 16.5264 9.12426 16.4208 9.33541C16.0128 10.1514 15.525 10.8682 14.9767 11.4841L13.9142 10.4216Z" fill="#2A2D34"/>
</svg>
