<svg width="18" height="24" viewBox="0 0 18 24" fill="none" xmlns="http://www.w3.org/2000/svg">
<g clip-path="url(#clip0_140_3477)">
<path d="M0 13.5008C0 13.0984 0 12.6963 0 12.2939C0.0125231 12.239 0.028069 12.1842 0.0367056 12.1289C0.0975937 11.7398 0.127822 11.343 0.222393 10.9621C0.647314 9.25637 1.51486 7.85767 3.08716 6.97717C4.10498 6.40715 5.19406 6.1636 6.34143 6.44731C6.99177 6.60839 7.62397 6.85496 8.25056 7.09765C8.8141 7.31572 9.35475 7.35286 9.91786 7.1037C10.2905 6.93874 10.6831 6.81912 11.0657 6.67618C12.7248 6.05651 14.3312 6.18303 15.8784 7.03244C16.5098 7.3792 17.0146 7.86804 17.4084 8.49376C15.7497 9.54656 14.9167 11.0135 15.0575 12.9978C15.1987 14.9859 16.2537 16.3194 17.9991 17.1558C17.9801 17.2262 17.9715 17.2681 17.9577 17.3083C17.3704 19.0144 16.432 20.5172 15.2682 21.8814C14.4659 22.8223 13.4558 23.2218 12.2269 22.8845C11.7998 22.7671 11.3826 22.6077 10.9689 22.4466C10.0768 22.0999 9.17295 22.0217 8.25358 22.3119C7.52465 22.5421 6.80004 22.7869 6.0737 23.0253C5.85822 23.0253 5.64273 23.0253 5.42768 23.0253C4.599 22.8064 3.96464 22.3015 3.4188 21.6637C1.70271 19.6592 0.59679 17.3666 0.172732 14.7544C0.105367 14.3382 0.0570017 13.9188 0 13.5008Z" fill="black"/>
<path d="M8.99069 6.03448C8.71821 3.47329 10.9788 1.13148 13.391 0.974289C13.4649 1.6786 13.3803 2.36565 13.1186 3.01901C12.6885 4.09426 11.9898 4.96311 11.0039 5.58063C10.3903 5.96495 9.70969 6.09709 8.99069 6.03448Z" fill="black"/>
</g>
<defs>
<clipPath id="clip0_140_3477">
<rect width="18" height="22.0514" fill="white" transform="translate(0 0.974289)"/>
</clipPath>
</defs>
</svg>
