<svg width="21" height="20" viewBox="0 0 21 20" fill="none" xmlns="http://www.w3.org/2000/svg">
<g clip-path="url(#clip0_16_444)">
<path d="M0.5 10.8598C0.5 10.3 0.5 9.7403 0.5 9.18057C0.565759 9.15239 0.539533 9.09133 0.544622 9.04475C0.760294 7.03167 1.49616 5.23153 2.79137 3.67486C5.93722 -0.106263 11.2327 -1.05663 15.4969 1.38152C19.2858 3.54764 21.2484 8.04271 20.2354 12.2869C19.5622 15.1082 17.9507 17.2505 15.453 18.7195C14.4075 19.3344 13.276 19.7219 12.0712 19.9102C12.0665 19.8753 12.0602 19.8499 12.0602 19.8245C12.0598 17.573 12.061 15.3212 12.0563 13.0697C12.0559 12.9355 12.1115 12.9272 12.2176 12.9276C12.8552 12.9312 13.4932 12.9292 14.1308 12.9292C14.4091 12.9292 14.4013 12.928 14.4412 12.6544C14.5586 11.8469 14.6741 11.039 14.8115 10.2351C14.8436 10.0472 14.79 10.0358 14.6365 10.0366C13.8298 10.0421 13.0227 10.0397 12.2156 10.0386C12.1447 10.0386 12.0539 10.0703 12.0586 9.93601C12.0817 9.23459 12.0152 8.5312 12.0966 7.83056C12.1725 7.17846 12.6559 6.71658 13.312 6.63712C13.8055 6.57723 14.2995 6.61442 14.7931 6.60503C14.9003 6.60307 14.9544 6.59407 14.9532 6.46137C14.9461 5.73255 14.9477 5.00373 14.9524 4.2749C14.9532 4.16804 14.9176 4.12225 14.8154 4.10972C13.8803 3.99465 12.944 3.86509 12.0011 3.99151C11.1537 4.10503 10.408 4.43734 9.83185 5.09493C9.21693 5.79674 8.97111 6.63869 8.94176 7.54678C8.91671 8.32023 8.93275 9.09563 8.93941 9.86986C8.94058 10.0049 8.9077 10.0444 8.76875 10.0433C8.04658 10.0358 7.32402 10.0472 6.60185 10.0346C6.4214 10.0315 6.39244 10.0875 6.394 10.2511C6.40222 11.084 6.40144 11.917 6.39439 12.7499C6.39322 12.894 6.42649 12.9351 6.57484 12.9335C7.29701 12.9249 8.01957 12.9359 8.74174 12.9253C8.91083 12.9229 8.9398 12.975 8.9398 13.1312C8.93471 15.3243 8.93628 17.5174 8.93628 19.7106C8.93628 19.7747 8.93628 19.8389 8.93628 19.9051C7.97417 19.7892 6.80304 19.4197 5.74738 18.8275C2.87788 17.218 1.1662 14.7845 0.612338 11.5389C0.573587 11.3126 0.596681 11.0758 0.5 10.8598Z" fill="#0079F9"/>
</g>
<defs>
<clipPath id="clip0_16_444">
<rect width="20" height="19.8716" fill="white" transform="translate(0.5 0.0385742)"/>
</clipPath>
</defs>
</svg>
