<svg width="21" height="21" viewBox="0 0 21 21" fill="none" xmlns="http://www.w3.org/2000/svg">
<g clip-path="url(#clip0_140_3542)">
<path d="M13.5864 15.2448C14.2191 14.764 14.7532 14.1966 15.1247 13.4876C15.1482 13.4429 15.169 13.3971 15.2101 13.3126C13.6205 13.3126 12.0602 13.3126 10.5 13.3126C10.5 11.7543 10.5 10.1964 10.5 8.63813C10.565 8.63578 10.63 8.63186 10.695 8.63186C13.6882 8.63147 16.6818 8.63147 19.6754 8.63147C20.0822 8.63147 20.2827 8.80492 20.345 9.20741C20.3959 9.53629 20.4483 9.86517 20.5004 10.1941C20.5004 10.7277 20.5004 11.2618 20.5004 11.7954C20.4632 11.8107 20.464 11.844 20.4616 11.8761C20.3935 12.7257 20.204 13.5498 19.9072 14.347C19.2831 16.0223 18.2937 17.4436 16.9179 18.5908C16.8698 18.5383 16.8239 18.4835 16.7734 18.433C15.7108 17.37 14.6486 16.3074 13.5864 15.2448Z" fill="#2B76E5"/>
<path d="M5.44614 12.526C5.73548 13.3744 6.17869 14.1277 6.82979 14.7503C7.82388 15.7005 9.00786 16.2017 10.3837 16.2471C10.4225 16.2483 10.4612 16.2522 10.5 16.2549C10.5 17.8281 10.5 19.4016 10.5 20.9748C10.2267 20.9748 9.95301 20.9748 9.67972 20.9748C9.48357 20.8808 9.26666 20.9008 9.06033 20.8679C6.3627 20.4368 4.20226 19.1123 2.54022 16.9577C2.31431 16.6648 2.09975 16.3622 1.9314 16.0302C2.00109 15.962 2.07117 15.8947 2.14008 15.8262C3.24223 14.726 4.34438 13.6262 5.44614 12.526Z" fill="#00C55F"/>
<path d="M10.5004 20.9748C10.5004 19.4016 10.5004 17.828 10.5004 16.2549C11.6284 16.2208 12.6643 15.906 13.5868 15.2448C14.649 16.3074 15.7112 17.3704 16.7726 18.4333C16.8227 18.4839 16.8689 18.5383 16.9171 18.5911C16.7448 18.7595 16.5499 18.8997 16.356 19.0402C15.0456 19.9885 13.5993 20.6102 11.9964 20.8632C11.7583 20.9008 11.5121 20.8898 11.2819 20.9751C11.0211 20.9748 10.7607 20.9748 10.5004 20.9748Z" fill="#00A967"/>
<path d="M1.93536 5.90845C2.58295 4.78398 3.43531 3.83805 4.46032 3.04834C5.95165 1.89921 7.63678 1.22461 9.50868 1.02493C9.83756 0.98969 10.1688 0.95876 10.5012 0.98186C10.5012 2.55306 10.5012 4.12426 10.5012 5.69546C9.21307 5.72091 8.06707 6.13162 7.08277 6.96949C6.34827 7.59437 5.8244 8.36646 5.50296 9.27558C5.48338 9.3304 5.46146 9.38443 5.44032 9.43885C5.38394 9.37621 5.33069 9.31043 5.27118 9.25092C4.15963 8.13624 3.0473 7.02234 1.93536 5.90845Z" fill="#FE5501"/>
<path d="M1.93532 5.90845C3.04726 7.02234 4.1592 8.13624 5.27074 9.25092C5.33025 9.31043 5.3835 9.3762 5.43988 9.43885C5.3326 9.88636 5.24294 10.3358 5.22767 10.7982C5.2081 11.3863 5.29893 11.9595 5.44615 12.526C4.34439 13.6262 3.24224 14.7264 2.14009 15.8262C2.07118 15.8951 2.0011 15.9621 1.93141 16.0302C1.38679 15.1575 1.00701 14.2155 0.771702 13.2171C0.165618 10.6444 0.586118 8.22864 1.90048 5.95347C1.90987 5.93703 1.92358 5.92333 1.93532 5.90845Z" fill="#FED701"/>
<path d="M10.5008 5.69547C10.5008 4.12427 10.5008 2.55307 10.5008 0.981868C12.0152 0.9619 13.4419 1.32171 14.8009 1.97478C15.5362 2.32794 16.212 2.7735 16.8431 3.28875C17.1665 3.55264 17.1967 3.94221 16.9011 4.23898C16.0883 5.05571 15.2716 5.86813 14.4529 6.67898C14.2023 6.92721 13.9263 6.95149 13.644 6.74554C12.9114 6.21032 12.0986 5.87596 11.2012 5.75263C10.9691 5.72092 10.7341 5.71387 10.5008 5.69547Z" fill="#FE0E01"/>
<path d="M10.5 8.6377C10.5 10.196 10.5 11.7539 10.5 13.3121C10.1551 13.2969 9.91742 13.0737 9.91624 12.7382C9.91155 11.5624 9.91155 10.3866 9.91624 9.21128C9.91742 8.87614 10.1562 8.65218 10.5 8.6377Z" fill="#1688FB"/>
</g>
<defs>
<clipPath id="clip0_140_3542">
<rect width="20" height="20.0008" fill="white" transform="translate(0.5 0.973999)"/>
</clipPath>
</defs>
</svg>
