<svg width="20" height="20" viewBox="0 0 20 20" fill="none" xmlns="http://www.w3.org/2000/svg">
<g clip-path="url(#clip0_140_3481)">
<path d="M13.0864 14.2704C13.7191 13.7896 14.2532 13.2223 14.6247 12.5132C14.6482 12.4686 14.669 12.4228 14.7101 12.3382C13.1205 12.3382 11.5602 12.3382 10 12.3382C10 10.7799 10 9.22202 10 7.66375C10.065 7.6614 10.13 7.65748 10.195 7.65748C13.1882 7.65709 16.1818 7.65709 19.1754 7.65709C19.5822 7.65709 19.7827 7.83054 19.845 8.23303C19.8959 8.56191 19.9483 8.89079 20.0004 9.21967C20.0004 9.75333 20.0004 10.2874 20.0004 10.821C19.9632 10.8363 19.964 10.8696 19.9616 10.9017C19.8935 11.7513 19.704 12.5755 19.4072 13.3726C18.7831 15.048 17.7937 16.4692 16.4179 17.6164C16.3698 17.5639 16.3239 17.5091 16.2734 17.4586C15.2108 16.3956 14.1486 15.333 13.0864 14.2704Z" fill="#2B76E5"/>
<path d="M4.94614 11.5516C5.23548 12.4001 5.67869 13.1534 6.32979 13.7759C7.32388 14.7261 8.50786 15.2273 9.88369 15.2727C9.92245 15.2739 9.96121 15.2778 9.99997 15.2805C9.99997 16.8537 9.99997 18.4272 9.99997 20.0004C9.72669 20.0004 9.45301 20.0004 9.17972 20.0004C8.98357 19.9064 8.76666 19.9264 8.56033 19.8935C5.8627 19.4624 3.70226 18.1379 2.04022 15.9833C1.81431 15.6905 1.59975 15.3878 1.4314 15.0558C1.50109 14.9877 1.57117 14.9203 1.64008 14.8518C2.74223 13.7516 3.84438 12.6518 4.94614 11.5516Z" fill="#00C55F"/>
<path d="M10.0004 20.0004C10.0004 18.4272 10.0004 16.8537 10.0004 15.2805C11.1284 15.2465 12.1643 14.9317 13.0868 14.2704C14.149 15.333 15.2112 16.396 16.2726 17.459C16.3227 17.5095 16.3689 17.5639 16.4171 17.6168C16.2448 17.7851 16.0499 17.9253 15.856 18.0659C14.5456 19.0141 13.0993 19.6359 11.4964 19.8888C11.2583 19.9264 11.0121 19.9154 10.7819 20.0008C10.5211 20.0004 10.2607 20.0004 10.0004 20.0004Z" fill="#00A967"/>
<path d="M1.43536 4.93402C2.08295 3.80956 2.93531 2.86363 3.96032 2.07391C5.45165 0.924782 7.13678 0.250181 9.00868 0.0505017C9.33756 0.0152642 9.66879 -0.0156665 10.0012 0.00743365C10.0012 1.57863 10.0012 3.14983 10.0012 4.72103C8.71307 4.74648 7.56707 5.15719 6.58277 5.99506C5.84827 6.61994 5.3244 7.39203 5.00296 8.30116C4.98338 8.35597 4.96146 8.41 4.94032 8.46442C4.88394 8.40178 4.83069 8.336 4.77118 8.27649C3.65963 7.16181 2.5473 6.04792 1.43536 4.93402Z" fill="#FE5501"/>
<path d="M1.43532 4.93402C2.54726 6.04792 3.6592 7.16181 4.77074 8.27649C4.83025 8.336 4.8835 8.40178 4.93988 8.46442C4.8326 8.91194 4.74294 9.36141 4.72767 9.82381C4.7081 10.4119 4.79893 10.9851 4.94615 11.5516C3.84439 12.6518 2.74224 13.752 1.64009 14.8518C1.57118 14.9207 1.5011 14.9877 1.43141 15.0558C0.886791 14.1831 0.50701 13.2411 0.271702 12.2427C-0.334382 9.66994 0.086118 7.25421 1.40048 4.97905C1.40987 4.9626 1.42358 4.9489 1.43532 4.93402Z" fill="#FED701"/>
<path d="M10.0008 4.72102C10.0008 3.14982 10.0008 1.57863 10.0008 0.00742655C11.5152 -0.0125413 12.9419 0.347272 14.3009 1.00034C15.0362 1.3535 15.712 1.79906 16.3431 2.31431C16.6665 2.5782 16.6967 2.96776 16.4011 3.26454C15.5883 4.08127 14.7716 4.89369 13.9529 5.70454C13.7023 5.95277 13.4263 5.97704 13.144 5.7711C12.4114 5.23588 11.5986 4.90152 10.7012 4.77819C10.4691 4.74647 10.2341 4.73943 10.0008 4.72102Z" fill="#FE0E01"/>
<path d="M10 7.66336C10 9.22164 10 10.7795 10 12.3378C9.65508 12.3225 9.41742 12.0994 9.41624 11.7638C9.41155 10.5881 9.41155 9.41231 9.41624 8.23695C9.41742 7.9018 9.65625 7.67785 10 7.66336Z" fill="#1688FB"/>
</g>
<defs>
<clipPath id="clip0_140_3481">
<rect width="20" height="20.0008" fill="white" transform="translate(0 -0.000396729)"/>
</clipPath>
</defs>
</svg>
