<svg width="20" height="20" viewBox="0 0 20 20" fill="none" xmlns="http://www.w3.org/2000/svg">
<g clip-path="url(#clip0_140_3490)">
<path d="M0 10.8854C0 10.3257 0 9.76593 0 9.2062C0.0657586 9.17802 0.0395334 9.11696 0.0446219 9.07038C0.260294 7.05731 0.996164 5.25717 2.29137 3.70049C5.43722 -0.080628 10.7327 -1.031 14.9969 1.40716C18.7858 3.57328 20.7484 8.06835 19.7354 12.3125C19.0622 15.1339 17.4507 17.2761 14.953 18.7451C13.9075 19.36 12.776 19.7475 11.5712 19.9358C11.5665 19.901 11.5602 19.8755 11.5602 19.8501C11.5598 17.5986 11.561 15.3468 11.5563 13.0954C11.5559 12.9611 11.6115 12.9529 11.7176 12.9533C12.3552 12.9568 12.9932 12.9548 13.6308 12.9548C13.9091 12.9548 13.9013 12.9537 13.9412 12.6801C14.0586 11.8726 14.1741 11.0647 14.3115 10.2607C14.3436 10.0728 14.29 10.0615 14.1365 10.0622C13.3298 10.0677 12.5227 10.0654 11.7156 10.0642C11.6447 10.0642 11.5539 10.0959 11.5586 9.96165C11.5817 9.26022 11.5152 8.55684 11.5966 7.8562C11.6725 7.20409 12.1559 6.74222 12.812 6.66276C13.3055 6.60287 13.7995 6.64005 14.2931 6.63066C14.4003 6.6287 14.4544 6.6197 14.4532 6.48701C14.4461 5.75818 14.4477 5.02936 14.4524 4.30054C14.4532 4.19368 14.4176 4.14788 14.3154 4.13536C13.3803 4.02028 12.444 3.89072 11.5011 4.01715C10.6537 4.13066 9.90802 4.46298 9.33185 5.12056C8.71693 5.82238 8.47111 6.66432 8.44176 7.57242C8.41671 8.34586 8.43275 9.12127 8.43941 9.8955C8.44058 10.0305 8.4077 10.0701 8.26875 10.0689C7.54658 10.0615 6.82402 10.0728 6.10185 10.0603C5.9214 10.0572 5.89244 10.1131 5.894 10.2767C5.90222 11.1097 5.90144 11.9426 5.89439 12.7756C5.89322 12.9196 5.92649 12.9607 6.07484 12.9591C6.79701 12.9505 7.51957 12.9615 8.24174 12.9509C8.41083 12.9486 8.4398 13.0006 8.4398 13.1568C8.43471 15.3499 8.43628 17.5431 8.43628 19.7362C8.43628 19.8004 8.43628 19.8646 8.43628 19.9307C7.47417 19.8149 6.30304 19.4454 5.24738 18.8531C2.37788 17.2436 0.666197 14.8102 0.112338 11.5645C0.073587 11.3383 0.0966808 11.1015 0 10.8854Z" fill="#0079F9"/>
</g>
<defs>
<clipPath id="clip0_140_3490">
<rect width="20" height="19.8716" fill="white" transform="translate(0 0.0641937)"/>
</clipPath>
</defs>
</svg>
