<svg width="19" height="23" viewBox="0 0 19 23" fill="none" xmlns="http://www.w3.org/2000/svg">
<g clip-path="url(#clip0_140_3538)">
<path d="M0.5 13.4751C0.5 13.0726 0.5 12.6706 0.5 12.2681C0.512523 12.2133 0.528069 12.1585 0.536706 12.1032C0.597594 11.7141 0.627822 11.3172 0.722393 10.9364C1.14731 9.23064 2.01486 7.83195 3.58716 6.95144C4.60498 6.38143 5.69406 6.13787 6.84143 6.42159C7.49177 6.58266 8.12397 6.82923 8.75056 7.07192C9.3141 7.29 9.85475 7.32714 10.4179 7.07797C10.7905 6.91301 11.1831 6.79339 11.5657 6.65046C13.2248 6.03078 14.8312 6.15731 16.3784 7.00672C17.0098 7.35348 17.5146 7.84231 17.9084 8.46803C16.2497 9.52084 15.4167 10.9878 15.5575 12.972C15.6987 14.9602 16.7537 16.2937 18.4991 17.1301C18.4801 17.2005 18.4715 17.2424 18.4577 17.2826C17.8704 18.9887 16.932 20.4915 15.7682 21.8556C14.9659 22.7966 13.9558 23.196 12.7269 22.8588C12.2998 22.7413 11.8826 22.582 11.4689 22.4209C10.5768 22.0742 9.67295 21.996 8.75358 22.2862C8.02465 22.5163 7.30004 22.7612 6.5737 22.9996C6.35822 22.9996 6.14273 22.9996 5.92768 22.9996C5.099 22.7806 4.46464 22.2758 3.9188 21.638C2.20271 19.6334 1.09679 17.3409 0.672732 14.7287C0.605367 14.3124 0.557002 13.8931 0.5 13.4751Z" fill="black"/>
<path d="M9.49069 6.0088C9.21821 3.44761 11.4788 1.10579 13.891 0.948608C13.9649 1.65292 13.8803 2.33997 13.6186 2.99333C13.1885 4.06858 12.4898 4.93743 11.5039 5.55494C10.8903 5.93927 10.2097 6.07141 9.49069 6.0088Z" fill="black"/>
</g>
<defs>
<clipPath id="clip0_140_3538">
<rect width="18" height="22.0514" fill="white" transform="translate(0.5 0.948608)"/>
</clipPath>
</defs>
</svg>
