<svg width="44" height="44" viewBox="0 0 44 44" fill="none" xmlns="http://www.w3.org/2000/svg">
<path d="M11.6667 15.3333C11.6667 14.597 12.2637 14 13.0001 14H31.6667C32.4031 14 33.0001 14.597 33.0001 15.3333C33.0001 16.0697 32.4031 16.6667 31.6667 16.6667H13.0001C12.2637 16.6667 11.6667 16.0697 11.6667 15.3333ZM11.6667 22C11.6667 21.2636 12.2637 20.6667 13.0001 20.6667H31.6667C32.4031 20.6667 33.0001 21.2636 33.0001 22C33.0001 22.7364 32.4031 23.3333 31.6667 23.3333H13.0001C12.2637 23.3333 11.6667 22.7364 11.6667 22ZM11.6667 28.6667C11.6667 27.9303 12.2637 27.3333 13.0001 27.3333H31.6667C32.4031 27.3333 33.0001 27.9303 33.0001 28.6667C33.0001 29.403 32.4031 30 31.6667 30H13.0001C12.2637 30 11.6667 29.403 11.6667 28.6667Z" fill="#0D0D0D"/>
</svg>
