<svg width="12" height="8" viewBox="0 0 12 8" fill="none" xmlns="http://www.w3.org/2000/svg">
<path fill-rule="evenodd" clip-rule="evenodd" d="M10.2667 0H9.33333C8.81787 0 8.4 0.417868 8.4 0.933333V6.53333C8.4 7.0488 8.81787 7.46667 9.33333 7.46667H10.2667C10.7821 7.46667 11.2 7.0488 11.2 6.53333V0.933333C11.2 0.417868 10.7821 0 10.2667 0ZM5.13333 1.86667H6.06667C6.58213 1.86667 7 2.28453 7 2.8V6.53333C7 7.0488 6.58213 7.46667 6.06667 7.46667H5.13333C4.61787 7.46667 4.2 7.0488 4.2 6.53333V2.8C4.2 2.28453 4.61787 1.86667 5.13333 1.86667ZM0.933333 3.26667H1.86667C2.38213 3.26667 2.8 3.68453 2.8 4.2V6.53333C2.8 7.0488 2.38213 7.46667 1.86667 7.46667H0.933333C0.417868 7.46667 0 7.0488 0 6.53333V4.2C0 3.68453 0.417868 3.26667 0.933333 3.26667Z" fill="white"/>
</svg>
