<svg width="52" height="58" viewBox="0 0 52 58" fill="none" xmlns="http://www.w3.org/2000/svg">
<path d="M17.9843 34.4426C16.4921 33.802 14.9998 33.333 13.6422 32.2692C14.8651 32.2005 15.7964 32.7839 16.8287 33.0241C15.3588 31.8002 13.788 30.7135 12.6436 29.1235C13.8553 29.9356 15.0671 30.7363 16.2789 31.5485C16.3125 31.5142 16.3462 31.4913 16.3686 31.457C15.5496 30.5876 14.7417 29.7297 13.9227 28.8604C13.9563 28.8032 13.99 28.746 14.0236 28.6888C14.3602 28.8718 14.7529 28.9862 15.0222 29.2493C16.1106 30.2902 17.154 31.3769 18.2087 32.4522C18.4892 32.7382 18.7361 33.0356 19.0502 33.3787C19.2746 33.1614 19.4429 32.9784 19.6225 32.8297C19.9366 32.5894 19.8805 32.3607 19.6898 32.0633C18.2873 29.9127 16.4247 28.2427 14.2593 26.9729C12.5987 26.0006 10.8035 25.2685 9.07557 24.4221C8.33505 24.056 7.60575 23.6671 6.86522 23.2896C6.89888 23.1981 6.92132 23.1066 6.95498 23.0151C7.50477 23.1295 8.06577 23.2324 8.73897 23.3697C7.67306 22.4431 6.47252 21.8369 5.79931 20.6587C5.83297 20.6129 5.85541 20.5557 5.88907 20.51C7.23548 21.3564 8.57068 22.2029 10.0629 23.1409C9.06436 21.7568 8.16675 20.5214 7.28036 19.286C7.32524 19.2402 7.37013 19.1945 7.42623 19.1487C7.88625 19.6063 8.36871 20.0295 8.79507 20.51C9.93952 21.814 11.0167 23.1867 12.206 24.4335C12.7558 25.0055 13.5075 25.3715 14.1583 25.8405C15.0447 26.4696 15.9198 27.1102 16.8848 27.808C16.8174 27.6021 16.795 27.4648 16.7277 27.3619C14.8764 24.1818 12.8455 21.1162 10.2649 18.4853C9.8161 18.0277 9.21022 17.696 8.62677 17.4215C7.62818 16.9639 6.5735 16.6207 5.55247 16.2204C4.93536 15.9802 4.32948 15.7056 3.90311 15.1566C3.92555 15.0879 3.94799 15.0307 3.97043 14.9621C4.85682 15.1909 5.75443 15.4311 6.64082 15.6599C4.90171 14.0584 3.0055 12.6171 1.83861 10.4666C3.42065 11.7935 5.00268 13.1204 6.5735 14.4588C6.61838 14.4245 6.66326 14.3787 6.69692 14.3444C5.84419 13.109 4.99147 11.8621 4.14996 10.6267C4.20606 10.5696 4.26216 10.5124 4.31826 10.4552C4.58754 10.6839 4.9017 10.8784 5.11488 11.1529C6.03493 12.3655 6.87644 13.6581 7.85259 14.8363C8.68288 15.8314 9.67024 16.7008 10.5342 17.6617C11.3308 18.5425 12.0601 19.4805 12.8119 20.3956C12.9241 20.5328 13.0475 20.6815 13.1597 20.8188C13.2046 20.7959 13.2495 20.7731 13.3056 20.7387C13.1597 20.3956 13.0138 20.041 12.8567 19.7092C12.1162 18.1421 11.4655 16.5063 10.5903 15.0193C9.40096 13.006 7.94235 11.1873 6.06859 9.76883C5.58613 9.40278 4.96903 9.24264 4.3968 9.00242C3.54407 8.63638 2.62403 8.39616 1.92838 7.59544C2.93819 7.35522 3.74603 8.04155 4.81194 8.21314C3.88067 7.18363 2.51182 6.80615 2.06302 5.52499C2.1079 5.45636 2.14156 5.39916 2.18644 5.33053C2.62403 5.58219 3.07283 5.84528 3.58895 6.14269C3.18503 5.4106 2.81476 4.74715 2.45572 4.07225C2.48938 4.03793 2.52304 4.00362 2.5567 3.9693C2.79233 4.16376 3.0616 4.32391 3.24113 4.55269C4.3968 6.02831 5.50759 7.53824 6.67448 8.99098C7.69551 10.2607 8.77263 11.4961 9.90586 12.6972C9.50194 11.7478 9.13168 10.7869 8.68287 9.86034C8.12187 8.68213 7.70673 7.42385 6.76424 6.47442C5.48515 5.19326 4.2285 3.90067 2.97185 2.59663C2.61281 2.21915 2.30986 1.79591 2.0518 1.31547C3.56651 2.04756 4.59876 3.37448 5.81053 4.48405C5.85541 4.44974 5.90029 4.42686 5.94517 4.39254C5.26075 2.96268 4.57632 1.54425 3.88067 0.114389C3.93677 0.0800723 4.0041 0.0343167 4.0602 0C5.14855 1.6472 6.24811 3.29441 7.33646 4.94161C7.37012 4.93017 7.415 4.91873 7.44866 4.90729C7.23548 3.72909 7.0223 2.56232 6.82034 1.38411C6.88766 1.36123 6.95498 1.33835 7.0223 1.32691C7.11206 1.56713 7.22426 1.79591 7.26914 2.04757C7.48232 3.11139 7.60575 4.19808 7.90869 5.22758C8.30139 6.53162 8.82874 7.7899 9.33364 9.04817C9.61414 9.75739 9.97318 10.4437 10.3883 11.1301C10.4332 8.9681 9.79366 6.84047 10.0405 4.67852C10.1078 4.66708 10.1639 4.65563 10.2312 4.63276C10.422 5.14751 10.6015 5.66226 10.7923 6.17701C10.8259 6.17701 10.8596 6.17701 10.8932 6.17701C11.0615 5.23902 11.2298 4.28959 11.4206 3.26009C11.9591 3.64901 11.9255 4.08369 11.8806 4.48405C11.6899 6.14269 11.4767 7.80133 11.2747 9.44854C11.2523 9.60868 11.2747 9.76883 11.3308 9.94041C11.9479 8.89947 12.1835 7.66407 13.0138 6.77183C13.0699 6.78327 13.126 6.80615 13.1709 6.81759C13.1597 6.98917 13.1821 7.17219 13.126 7.3209C12.8455 8.19026 12.565 9.04818 12.2509 9.90609C11.7347 11.3016 11.4542 12.7315 11.7011 14.2071C11.8357 14.9964 12.1948 15.7514 12.5201 16.4949C13.3392 18.3938 14.1807 20.2812 15.0447 22.1572C15.4374 23.0151 15.8862 23.8387 16.3125 24.6852C16.3799 24.6737 16.436 24.6508 16.5033 24.6394C16.4247 24.1819 16.3799 23.7129 16.2789 23.2553C16.0208 22.1572 15.7291 21.059 15.4598 19.9609C15.2017 18.9314 14.9212 17.9133 14.7081 16.8724C14.5846 16.2547 14.5622 15.6141 14.4949 14.985C14.5734 14.9621 14.6407 14.9507 14.7193 14.9278C14.9998 15.6027 15.2915 16.289 15.6281 17.1126C15.8189 15.9458 15.9872 14.9163 16.1555 13.8868C16.2116 13.8868 16.2677 13.8983 16.3125 13.8983C16.3911 15.2938 16.4696 16.7008 16.5594 18.0963C16.6043 18.1078 16.6491 18.1078 16.7052 18.1192C17.0979 17.227 17.1989 16.1861 18.1077 15.5226C18.0404 15.9344 17.9956 16.3348 17.9058 16.7466C17.5804 18.2222 17.1428 19.6864 16.9296 21.1849C16.8174 22.0085 17.0531 22.8778 17.1765 23.7243C17.3448 24.8339 17.3672 26.0235 17.8048 27.0073C18.5566 28.6888 19.5888 30.233 20.5425 31.9145C20.823 31.64 20.9801 31.4684 21.1596 31.3083C21.4289 31.0681 21.4289 30.8393 21.2943 30.5076C20.8006 29.3408 20.3293 28.1626 19.8805 26.9844C19.7459 26.6183 19.7234 26.218 19.6561 25.8291C19.7234 25.8062 19.7795 25.7719 19.8469 25.749C20.2283 26.4811 20.6211 27.2017 21.0923 28.094C21.0025 26.2866 20.5537 24.6394 21.0362 22.9808C21.687 24.0446 21.4626 25.3372 21.9114 26.6069C22.1694 25.6803 22.3938 24.8796 22.6182 24.056C23.1792 24.2162 23.1792 24.5708 23.1007 24.9368C22.8875 26.0121 22.6407 27.0873 22.4275 28.1626C22.3377 28.643 22.3041 29.1349 22.2592 29.6268C22.248 29.7412 22.3377 29.8555 22.4051 30.0729C24.8847 27.5906 27.3082 25.1656 29.7318 22.7405C28.4863 21.3221 28.0712 19.6978 28.4751 17.9248C28.6322 17.2499 28.98 16.5407 29.44 16.0373C33.771 11.2216 38.1468 6.44011 42.5115 1.64721C42.5563 1.59001 42.6237 1.55569 42.6798 1.50994C43.4315 1.94462 43.5325 2.49368 42.9939 3.12282C39.6952 6.98917 36.3853 10.8555 33.0978 14.7333C32.8734 14.9964 32.5705 15.2824 32.9295 15.6713C33.2324 15.9916 33.8271 16.0602 34.1637 15.7628C34.635 15.3281 35.0725 14.8591 35.5213 14.4016C38.6966 11.1186 41.8831 7.83565 45.0584 4.55269C45.1931 4.41542 45.294 4.25527 45.4062 4.12945C46.2477 4.587 46.3599 5.13607 45.7877 5.79953C42.5227 9.62012 39.2576 13.4522 36.0038 17.2727C35.7345 17.5816 35.3082 17.9019 35.7906 18.3709C36.1384 18.7141 36.7443 18.6569 37.1483 18.2451C39.0108 16.3233 40.8621 14.3787 42.7471 12.4684C44.6096 10.5924 46.4946 8.75076 48.4132 6.86334C49.0303 7.18363 49.1537 7.77846 48.6264 8.39616C45.3501 12.2282 42.0739 16.0717 38.7976 19.9151C38.5508 20.2011 38.0907 20.4871 38.5283 20.9675C38.8874 21.3679 39.482 21.345 39.9308 20.8989C41.3333 19.469 42.7246 18.0277 44.1159 16.5864C46.3039 14.3215 48.4918 12.0452 50.6909 9.78026C50.8256 9.643 50.9602 9.52861 51.2182 9.27695C51.4426 9.73451 51.6334 10.1234 51.8241 10.5238C50.5114 11.9651 49.2323 13.3835 47.9532 14.7905C44.9126 18.1307 41.8383 21.4365 38.8537 24.8224C37.0248 26.9043 34.1749 26.9501 32.4358 25.2114C32.3797 25.1542 32.3236 25.1198 32.2226 25.0398C32.0431 25.2571 31.8524 25.463 31.6841 25.6803C30.0684 27.6364 28.4527 29.5925 26.837 31.5256C26.5901 31.823 26.5228 32.0747 26.6575 32.4522C26.9267 33.2415 27.1287 34.0536 27.3756 34.8543C27.4204 35.0145 27.5102 35.1632 27.6336 35.3119C27.8131 34.0079 27.3307 32.6695 27.9366 31.2625C28.0936 31.8116 28.2732 32.2348 28.3293 32.6695C28.4751 33.9164 28.5312 35.1632 28.6995 36.41C28.9239 38.0687 29.2493 39.7159 30.2142 41.1343C31.0782 42.4155 31.8972 43.7424 32.8173 44.9892C33.21 45.5268 33.771 45.9501 34.2871 46.3848C35.4989 47.4028 36.7219 48.398 37.9449 49.4046C38.0571 49.4962 38.1805 49.5533 38.3488 49.6563C37.1258 48.1692 35.8916 46.7737 34.7696 45.2866C33.6476 43.811 32.3909 42.4269 31.6167 40.7111C31.6728 40.6653 31.7402 40.6081 31.7963 40.5624C32.5817 41.5118 33.3671 42.4498 34.2422 43.4907C33.6139 41.9465 33.0417 40.528 32.4695 39.0982C32.5368 39.0639 32.6041 39.041 32.6714 39.0067C33.569 40.7568 34.2983 42.6099 35.555 44.1542C35.353 42.8158 35.1511 41.4889 34.9491 40.1506C35.7233 40.7225 35.7682 41.5575 35.9477 42.324C36.1384 43.1704 36.2955 44.0284 36.4526 44.8863C36.6882 46.1446 37.1483 47.277 38.0683 48.2036C39.2913 49.4504 40.3796 50.8803 41.7148 51.9898C43.0837 53.1223 44.6545 54.0031 46.1804 54.9296C47.3698 55.6388 48.6264 56.2451 49.8494 56.8857C49.9616 56.9429 50.0626 57.023 50.1075 57.1831C49.3445 56.8628 48.5367 56.5997 47.8073 56.2108C45.8214 55.1355 43.8803 53.9573 41.8831 52.8935C39.9869 51.8869 38.0795 50.8459 36.0823 50.0681C34.9828 49.6449 33.6925 49.7249 32.4919 49.622C31.6167 49.5419 30.7416 49.5533 29.8664 49.4733C29.5635 49.4504 29.2717 49.2902 28.98 49.0958C29.945 48.5238 30.9772 48.8556 31.987 48.6725C30.5621 48.2264 29.1483 47.7803 27.7234 47.3342C27.7346 47.2656 27.7458 47.2084 27.7683 47.1397C28.2956 46.8309 28.8454 46.9796 29.3952 47.1054C29.9225 47.2198 30.4499 47.3685 31.0109 47.38C29.6869 46.5563 28.3629 45.7213 27.0389 44.8977C28.419 45.035 29.5859 45.687 30.764 46.3047C32.1329 47.0368 33.4681 47.8489 34.8369 48.5925C35.4204 48.9013 36.0487 49.1301 36.6546 49.3932C36.6882 49.3474 36.7107 49.3017 36.7443 49.2559C36.3292 48.9013 35.914 48.5582 35.4989 48.1921C32.8173 45.8128 29.7542 44.0398 26.5565 42.5184C25.7599 42.1409 24.7837 42.1409 23.8861 41.9465C23.0109 41.7634 22.1358 41.5919 21.2718 41.3745C21.0025 41.3059 20.7557 41.1114 20.4079 40.9284C21.2718 40.4022 22.0572 40.917 22.9773 40.8255C22.0236 40.3221 21.1933 39.8989 20.3293 39.4528C19.4654 40.4937 18.6127 41.5232 17.7599 42.5527C14.1022 46.991 10.4444 51.4179 6.78668 55.8562C5.87785 56.9543 4.72218 57.3318 3.36455 56.9658C1.98448 56.5883 1.21029 55.616 0.92979 54.1975C0.638067 52.7334 1.03077 51.5437 2.09668 50.4799C7.26915 45.3438 12.4079 40.1849 17.558 35.0259C17.6365 34.82 17.7824 34.6485 17.9843 34.4426ZM26.1638 32.2577C25.4457 33.1156 24.7949 33.8706 24.1778 34.6599C24.0768 34.7857 24.0768 35.0946 24.1554 35.2547C24.952 36.9019 25.9955 38.3775 27.2521 39.693C27.5887 40.0476 27.8805 40.448 28.2058 40.8026C28.6098 41.2487 29.0473 41.6605 29.4737 42.0952C29.541 42.038 29.6084 41.9922 29.6757 41.935C29.0922 40.8941 28.5088 39.8417 27.9141 38.8008C27.095 37.3595 26.2535 35.9182 25.4569 34.4654C25.311 34.2023 25.3223 33.8363 25.2549 33.516C25.3335 33.4817 25.412 33.4474 25.4906 33.413C25.9843 34.2252 26.4892 35.0374 26.9828 35.8381C27.0277 35.8152 27.0614 35.8038 27.1063 35.7809C26.8145 34.6599 26.5004 33.516 26.1638 32.2577ZM21.586 37.7941C23.7515 40.2306 26.5116 41.5804 29.2942 42.9188C27.0389 40.8483 25.1652 38.3432 22.4051 36.7875C22.1358 37.1307 21.8665 37.4624 21.586 37.7941Z" fill="white"/>
</svg>
