<svg width="51" height="58" viewBox="0 0 51 58" fill="none" xmlns="http://www.w3.org/2000/svg">
<path d="M17.1479 34.4426C15.6556 33.802 14.1634 33.333 12.8057 32.2692C14.0287 32.2005 14.96 32.7839 15.9922 33.0241C14.5224 31.8002 12.9516 30.7135 11.8071 29.1235C13.0189 29.9356 14.2307 30.7363 15.4424 31.5485C15.4761 31.5142 15.5098 31.4913 15.5322 31.457C14.7131 30.5876 13.9053 29.7297 13.0862 28.8604C13.1199 28.8032 13.1536 28.746 13.1872 28.6888C13.5238 28.8718 13.9165 28.9862 14.1858 29.2493C15.2741 30.2902 16.3176 31.3769 17.3723 32.4522C17.6528 32.7382 17.8997 33.0356 18.2138 33.3787C18.4382 33.1614 18.6065 32.9784 18.786 32.8297C19.1002 32.5894 19.0441 32.3607 18.8534 32.0633C17.4508 29.9127 15.5883 28.2427 13.4228 26.9729C11.7623 26.0006 9.96704 25.2685 8.23915 24.4221C7.49862 24.056 6.76932 23.6671 6.0288 23.2896C6.06246 23.1981 6.0849 23.1066 6.11856 23.0151C6.66834 23.1295 7.22934 23.2324 7.90255 23.3697C6.83664 22.4431 5.63609 21.8369 4.96289 20.6587C4.99655 20.6129 5.01899 20.5557 5.05265 20.51C6.39906 21.3564 7.73425 22.2029 9.22652 23.1409C8.22793 21.7568 7.33032 20.5214 6.44393 19.286C6.48881 19.2402 6.5337 19.1945 6.5898 19.1487C7.04982 19.6063 7.53228 20.0295 7.95865 20.51C9.1031 21.814 10.1802 23.1867 11.3696 24.4335C11.9193 25.0055 12.6711 25.3715 13.3219 25.8405C14.2082 26.4696 15.0834 27.1102 16.0483 27.808C15.981 27.6021 15.9586 27.4648 15.8913 27.3619C14.0399 24.1818 12.0091 21.1162 9.42848 18.4853C8.97968 18.0277 8.37379 17.696 7.79035 17.4215C6.79176 16.9639 5.73707 16.6207 4.71604 16.2204C4.09894 15.9802 3.49305 15.7056 3.06669 15.1566C3.08913 15.0879 3.11157 15.0307 3.13401 14.9621C4.02039 15.1909 4.91801 15.4311 5.80439 15.6599C4.06528 14.0584 2.16908 12.6171 1.00219 10.4666C2.58422 11.7935 4.16626 13.1204 5.73707 14.4588C5.78195 14.4245 5.82683 14.3787 5.8605 14.3444C5.00777 13.109 4.15504 11.8621 3.31353 10.6267C3.36963 10.5696 3.42573 10.5124 3.48183 10.4552C3.75112 10.6839 4.06528 10.8784 4.27846 11.1529C5.19851 12.3655 6.04001 13.6581 7.01616 14.8363C7.84645 15.8314 8.83381 16.7008 9.69776 17.6617C10.4944 18.5425 11.2237 19.4805 11.9754 20.3956C12.0876 20.5328 12.2111 20.6815 12.3233 20.8188C12.3681 20.7959 12.413 20.7731 12.4691 20.7387C12.3233 20.3956 12.1774 20.041 12.0203 19.7092C11.2798 18.1421 10.629 16.5063 9.75386 15.0193C8.56453 13.006 7.10592 11.1873 5.23217 9.76883C4.7497 9.40278 4.1326 9.24264 3.56038 9.00242C2.70765 8.63638 1.7876 8.39616 1.09196 7.59544C2.10176 7.35522 2.90961 8.04155 3.97551 8.21314C3.04425 7.18363 1.67539 6.80615 1.22659 5.52499C1.27147 5.45636 1.30514 5.39916 1.35002 5.33053C1.7876 5.58219 2.2364 5.84528 2.75253 6.14269C2.3486 5.4106 1.97834 4.74715 1.61929 4.07225C1.65295 4.03793 1.68662 4.00362 1.72028 3.9693C1.9559 4.16376 2.22518 4.32391 2.4047 4.55269C3.56037 6.02831 4.67116 7.53824 5.83805 8.99098C6.85908 10.2607 7.93621 11.4961 9.06944 12.6972C8.66551 11.7478 8.29525 10.7869 7.84645 9.86034C7.28544 8.68213 6.8703 7.42385 5.92781 6.47442C4.64872 5.19326 3.39207 3.90067 2.13542 2.59663C1.77638 2.21915 1.47344 1.79591 1.21537 1.31547C2.73009 2.04756 3.76233 3.37448 4.9741 4.48405C5.01898 4.44974 5.06387 4.42686 5.10875 4.39254C4.42432 2.96268 3.73989 1.54425 3.04425 0.114389C3.10035 0.0800723 3.16767 0.0343167 3.22377 0C4.31212 1.6472 5.41169 3.29441 6.50003 4.94161C6.5337 4.93017 6.57858 4.91873 6.61224 4.90729C6.39905 3.72909 6.18587 2.56232 5.98391 1.38411C6.05123 1.36123 6.11855 1.33835 6.18587 1.32691C6.27563 1.56713 6.38784 1.79591 6.43272 2.04757C6.6459 3.11139 6.76932 4.19808 7.07226 5.22758C7.46497 6.53162 7.99231 7.7899 8.49722 9.04817C8.77772 9.75739 9.13676 10.4437 9.5519 11.1301C9.59678 8.9681 8.95724 6.84047 9.20408 4.67852C9.2714 4.66708 9.3275 4.65563 9.39482 4.63276C9.58557 5.14751 9.76509 5.66226 9.95583 6.17701C9.98949 6.17701 10.0231 6.17701 10.0568 6.17701C10.2251 5.23902 10.3934 4.28959 10.5842 3.26009C11.1227 3.64901 11.0891 4.08369 11.0442 4.48405C10.8534 6.14269 10.6403 7.80133 10.4383 9.44854C10.4159 9.60868 10.4383 9.76883 10.4944 9.94041C11.1115 8.89947 11.3471 7.66407 12.1774 6.77183C12.2335 6.78327 12.2896 6.80615 12.3345 6.81759C12.3233 6.98917 12.3457 7.17219 12.2896 7.3209C12.0091 8.19026 11.7286 9.04818 11.4144 9.90609C10.8983 11.3016 10.6178 12.7315 10.8647 14.2071C10.9993 14.9964 11.3583 15.7514 11.6837 16.4949C12.5028 18.3938 13.3443 20.2812 14.2082 22.1572C14.6009 23.0151 15.0497 23.8387 15.4761 24.6852C15.5434 24.6737 15.5995 24.6508 15.6669 24.6394C15.5883 24.1819 15.5434 23.7129 15.4424 23.2553C15.1844 22.1572 14.8927 21.059 14.6234 19.9609C14.3653 18.9314 14.0848 17.9133 13.8716 16.8724C13.7482 16.2547 13.7258 15.6141 13.6585 14.985C13.737 14.9621 13.8043 14.9507 13.8829 14.9278C14.1634 15.6027 14.4551 16.289 14.7917 17.1126C14.9824 15.9458 15.1507 14.9163 15.319 13.8868C15.3751 13.8868 15.4312 13.8983 15.4761 13.8983C15.5546 15.2938 15.6332 16.7008 15.723 18.0963C15.7678 18.1078 15.8127 18.1078 15.8688 18.1192C16.2615 17.227 16.3625 16.1861 17.2713 15.5226C17.204 15.9344 17.1591 16.3348 17.0694 16.7466C16.744 18.2222 16.3064 19.6864 16.0932 21.1849C15.981 22.0085 16.2166 22.8778 16.3401 23.7243C16.5084 24.8339 16.5308 26.0235 16.9684 27.0073C17.7201 28.6888 18.7524 30.233 19.7061 31.9145C19.9866 31.64 20.1437 31.4684 20.3232 31.3083C20.5925 31.0681 20.5925 30.8393 20.4578 30.5076C19.9641 29.3408 19.4929 28.1626 19.0441 26.9844C18.9095 26.6183 18.887 26.218 18.8197 25.8291C18.887 25.8062 18.9431 25.7719 19.0104 25.749C19.3919 26.4811 19.7846 27.2017 20.2559 28.094C20.1661 26.2866 19.7173 24.6394 20.1998 22.9808C20.8505 24.0446 20.6261 25.3372 21.0749 26.6069C21.333 25.6803 21.5574 24.8796 21.7818 24.056C22.3428 24.2162 22.3428 24.5708 22.2643 24.9368C22.0511 26.0121 21.8042 27.0873 21.5911 28.1626C21.5013 28.643 21.4676 29.1349 21.4228 29.6268C21.4115 29.7412 21.5013 29.8555 21.5686 30.0729C24.0483 27.5906 26.4718 25.1656 28.8953 22.7405C27.6499 21.3221 27.2348 19.6978 27.6387 17.9248C27.7958 17.2499 28.1436 16.5407 28.6036 16.0373C32.9346 11.2216 37.3104 6.44011 41.675 1.64721C41.7199 1.59001 41.7872 1.55569 41.8433 1.50994C42.5951 1.94462 42.6961 2.49368 42.1575 3.12282C38.8588 6.98917 35.5489 10.8555 32.2614 14.7333C32.037 14.9964 31.734 15.2824 32.0931 15.6713C32.396 15.9916 32.9907 16.0602 33.3273 15.7628C33.7985 15.3281 34.2361 14.8591 34.6849 14.4016C37.8602 11.1186 41.0467 7.83565 44.222 4.55269C44.3566 4.41542 44.4576 4.25527 44.5698 4.12945C45.4113 4.587 45.5235 5.13607 44.9513 5.79953C41.6862 9.62012 38.4212 13.4522 35.1674 17.2727C34.8981 17.5816 34.4717 17.9019 34.9542 18.3709C35.302 18.7141 35.9079 18.6569 36.3118 18.2451C38.1744 16.3233 40.0257 14.3787 41.9107 12.4684C43.7732 10.5924 45.6582 8.75076 47.5768 6.86334C48.1939 7.18363 48.3173 7.77846 47.79 8.39616C44.5137 12.2282 41.2374 16.0717 37.9612 19.9151C37.7143 20.2011 37.2543 20.4871 37.6919 20.9675C38.0509 21.3679 38.6456 21.345 39.0944 20.8989C40.4969 19.469 41.8882 18.0277 43.2795 16.5864C45.4674 14.3215 47.6553 12.0452 49.8545 9.78026C49.9891 9.643 50.1238 9.52861 50.3818 9.27695C50.6062 9.73451 50.797 10.1234 50.9877 10.5238C49.675 11.9651 48.3959 13.3835 47.1168 14.7905C44.0761 18.1307 41.0018 21.4365 38.0173 24.8224C36.1884 26.9043 33.3385 26.9501 31.5994 25.2114C31.5433 25.1542 31.4872 25.1198 31.3862 25.0398C31.2067 25.2571 31.0159 25.463 30.8476 25.6803C29.2319 27.6364 27.6163 29.5925 26.0006 31.5256C25.7537 31.823 25.6864 32.0747 25.821 32.4522C26.0903 33.2415 26.2923 34.0536 26.5391 34.8543C26.584 35.0145 26.6738 35.1632 26.7972 35.3119C26.9767 34.0079 26.4942 32.6695 27.1001 31.2625C27.2572 31.8116 27.4367 32.2348 27.4928 32.6695C27.6387 33.9164 27.6948 35.1632 27.8631 36.41C28.0875 38.0687 28.4129 39.7159 29.3778 41.1343C30.2418 42.4155 31.0608 43.7424 31.9809 44.9892C32.3736 45.5268 32.9346 45.9501 33.4507 46.3848C34.6625 47.4028 35.8855 48.398 37.1085 49.4046C37.2207 49.4962 37.3441 49.5533 37.5124 49.6563C36.2894 48.1692 35.0552 46.7737 33.9332 45.2866C32.8112 43.811 31.5545 42.4269 30.7803 40.7111C30.8364 40.6653 30.9037 40.6081 30.9598 40.5624C31.7452 41.5118 32.5307 42.4498 33.4058 43.4907C32.7775 41.9465 32.2053 40.528 31.633 39.0982C31.7004 39.0639 31.7677 39.041 31.835 39.0067C32.7326 40.7568 33.4619 42.6099 34.7186 44.1542C34.5166 42.8158 34.3147 41.4889 34.1127 40.1506C34.8869 40.7225 34.9318 41.5575 35.1113 42.324C35.302 43.1704 35.4591 44.0284 35.6162 44.8863C35.8518 46.1446 36.3118 47.277 37.2319 48.2036C38.4549 49.4504 39.5432 50.8803 40.8784 51.9898C42.2473 53.1223 43.8181 54.0031 45.344 54.9296C46.5333 55.6388 47.79 56.2451 49.013 56.8857C49.1252 56.9429 49.2262 57.023 49.271 57.1831C48.5081 56.8628 47.7002 56.5997 46.9709 56.2108C44.985 55.1355 43.0439 53.9573 41.0467 52.8935C39.1505 51.8869 37.2431 50.8459 35.2459 50.0681C34.1463 49.6449 32.856 49.7249 31.6555 49.622C30.7803 49.5419 29.9052 49.5533 29.03 49.4733C28.727 49.4504 28.4353 49.2902 28.1436 49.0958C29.1085 48.5238 30.1408 48.8556 31.1506 48.6725C29.7256 48.2264 28.3119 47.7803 26.8869 47.3342C26.8982 47.2656 26.9094 47.2084 26.9318 47.1397C27.4592 46.8309 28.009 46.9796 28.5587 47.1054C29.0861 47.2198 29.6134 47.3685 30.1744 47.38C28.8505 46.5563 27.5265 45.7213 26.2025 44.8977C27.5826 45.035 28.7495 45.687 29.9276 46.3047C31.2964 47.0368 32.6316 47.8489 34.0005 48.5925C34.5839 48.9013 35.2123 49.1301 35.8181 49.3932C35.8518 49.3474 35.8742 49.3017 35.9079 49.2559C35.4928 48.9013 35.0776 48.5582 34.6625 48.1921C31.9809 45.8128 28.9178 44.0398 25.7201 42.5184C24.9234 42.1409 23.9473 42.1409 23.0497 41.9465C22.1745 41.7634 21.2993 41.5919 20.4354 41.3745C20.1661 41.3059 19.9193 41.1114 19.5714 40.9284C20.4354 40.4022 21.2208 40.917 22.1408 40.8255C21.1871 40.3221 20.3569 39.8989 19.4929 39.4528C18.629 40.4937 17.7762 41.5232 16.9235 42.5527C13.2658 46.991 9.608 51.4179 5.95025 55.8562C5.04143 56.9543 3.88576 57.3318 2.52813 56.9658C1.14805 56.5883 0.373866 55.616 0.0933641 54.1975C-0.198358 52.7334 0.194348 51.5437 1.26026 50.4799C6.43272 45.3438 11.5715 40.1849 16.7215 35.0259C16.8001 34.82 16.9459 34.6485 17.1479 34.4426ZM25.3274 32.2577C24.6093 33.1156 23.9585 33.8706 23.3414 34.6599C23.2404 34.7857 23.2404 35.0946 23.319 35.2547C24.1156 36.9019 25.159 38.3775 26.4157 39.693C26.7523 40.0476 27.044 40.448 27.3694 40.8026C27.7733 41.2487 28.2109 41.6605 28.6373 42.0952C28.7046 42.038 28.7719 41.9922 28.8392 41.935C28.2558 40.8941 27.6724 39.8417 27.0777 38.8008C26.2586 37.3595 25.4171 35.9182 24.6205 34.4654C24.4746 34.2023 24.4858 33.8363 24.4185 33.516C24.4971 33.4817 24.5756 33.4474 24.6542 33.413C25.1478 34.2252 25.6527 35.0374 26.1464 35.8381C26.1913 35.8152 26.225 35.8038 26.2698 35.7809C25.9781 34.6599 25.664 33.516 25.3274 32.2577ZM20.7496 37.7941C22.915 40.2306 25.6752 41.5804 28.4578 42.9188C26.2025 40.8483 24.3288 38.3432 21.5686 36.7875C21.2993 37.1307 21.0301 37.4624 20.7496 37.7941Z" fill="white"/>
</svg>
