<svg width="120" height="120" viewBox="0 0 120 120" fill="none" xmlns="http://www.w3.org/2000/svg">
<path d="M60 120C93.1371 120 120 93.1371 120 60C120 26.8629 93.1371 0 60 0C26.8629 0 0 26.8629 0 60C0 93.1371 26.8629 120 60 120Z" fill="#2A746E"/>
<path d="M52.1968 68.9926C50.2651 68.0628 48.3335 67.3821 46.5761 65.838C48.1592 65.7383 49.3647 66.5851 50.7008 66.9338C48.7982 65.1572 46.7649 63.5799 45.2835 61.2721C46.8521 62.4509 48.4206 63.6131 49.9892 64.792C50.0327 64.7421 50.0763 64.7089 50.1054 64.6591C49.0451 63.3973 47.9994 62.152 46.9392 60.8902C46.9828 60.8072 47.0264 60.7241 47.0699 60.6411C47.5056 60.9068 48.014 61.0728 48.3625 61.4547C49.7713 62.9656 51.122 64.5429 52.4872 66.1036C52.8503 66.5187 53.1698 66.9504 53.5765 67.4485C53.867 67.133 54.0848 66.8674 54.3172 66.6515C54.7239 66.3029 54.6513 65.9708 54.4044 65.5391C52.5889 62.4177 50.178 59.9936 47.3749 58.1506C45.2254 56.7393 42.9016 55.6767 40.665 54.4481C39.7064 53.9168 38.7624 53.3523 37.8039 52.8044C37.8474 52.6715 37.8765 52.5387 37.92 52.4059C38.6317 52.5719 39.3579 52.7213 40.2293 52.9206C38.8495 51.5757 37.2955 50.6957 36.4241 48.9856C36.4677 48.9192 36.4967 48.8362 36.5403 48.7697C38.2831 49.9984 40.0114 51.227 41.9431 52.5885C40.6505 50.5795 39.4886 48.7864 38.3412 46.9932C38.3993 46.9268 38.4574 46.8604 38.53 46.794C39.1255 47.4581 39.75 48.0724 40.3019 48.7697C41.7833 50.6625 43.1776 52.6549 44.7171 54.4647C45.4288 55.2949 46.4018 55.8262 47.2442 56.5069C48.3916 57.4201 49.5244 58.3499 50.7734 59.3627C50.6863 59.0638 50.6573 58.8646 50.5701 58.7151C48.1737 54.0994 45.5449 49.6497 42.2045 45.831C41.6236 45.1668 40.8393 44.6853 40.0841 44.2869C38.7915 43.6227 37.4262 43.1246 36.1046 42.5435C35.3058 42.1948 34.5215 41.7964 33.9696 40.9994C33.9987 40.8998 34.0277 40.8168 34.0568 40.7171C35.2041 41.0492 36.366 41.3979 37.5134 41.7299C35.2622 39.4055 32.8077 37.3135 31.2973 34.192C33.3451 36.118 35.3929 38.044 37.4262 39.9866C37.4843 39.9368 37.5424 39.8704 37.586 39.8206C36.4822 38.0274 35.3784 36.2176 34.2891 34.4245C34.3618 34.3415 34.4344 34.2585 34.507 34.1754C34.8556 34.5075 35.2622 34.7898 35.5382 35.1882C36.7291 36.9482 37.8184 38.8244 39.0819 40.5345C40.1567 41.979 41.4348 43.2408 42.5531 44.6355C43.5842 45.914 44.5283 47.2754 45.5014 48.6037C45.6466 48.803 45.8064 49.0188 45.9516 49.218C46.0097 49.1848 46.0678 49.1516 46.1404 49.1018C45.9516 48.6037 45.7628 48.089 45.5595 47.6075C44.6009 45.3329 43.7585 42.9586 42.6257 40.8002C41.0862 37.878 39.1981 35.238 36.7727 33.1792C36.1482 32.6479 35.3494 32.4155 34.6087 32.0668C33.5049 31.5355 32.3139 31.1868 31.4135 30.0246C32.7206 29.6759 33.7663 30.6721 35.146 30.9212C33.9406 29.4269 32.1687 28.879 31.5877 27.0194C31.6458 26.9198 31.6894 26.8368 31.7475 26.7371C32.3139 27.1024 32.8949 27.4843 33.563 27.916C33.0401 26.8534 32.5608 25.8904 32.0961 24.9108C32.1396 24.861 32.1832 24.8112 32.2268 24.7614C32.5318 25.0436 32.8803 25.2761 33.1127 25.6081C34.6086 27.75 36.0465 29.9416 37.5569 32.0502C38.8786 33.8932 40.2729 35.6863 41.7398 37.4297C41.2169 36.0516 40.7376 34.6569 40.1567 33.3121C39.4305 31.6019 38.8931 29.7756 37.6731 28.3975C36.0174 26.5379 34.3908 24.6617 32.7642 22.769C32.2994 22.221 31.9073 21.6067 31.5732 20.9094C33.5339 21.972 34.8701 23.898 36.4386 25.5085C36.4967 25.4587 36.5548 25.4255 36.6129 25.3757C35.727 23.3003 34.841 21.2414 33.9406 19.166C34.0132 19.1162 34.1003 19.0498 34.1729 19C35.5817 21.3909 37.005 23.7818 38.4138 26.1726C38.4574 26.156 38.5155 26.1394 38.5591 26.1228C38.2831 24.4127 38.0072 22.7191 37.7458 21.009C37.8329 20.9758 37.92 20.9426 38.0072 20.926C38.1234 21.2747 38.2686 21.6067 38.3267 21.972C38.6026 23.5161 38.7624 25.0934 39.1545 26.5877C39.6629 28.4805 40.3455 30.3069 40.999 32.1332C41.3621 33.1626 41.8269 34.1588 42.3643 35.155C42.4224 32.017 41.5945 28.9288 41.914 25.7908C42.0012 25.7742 42.0738 25.7576 42.1609 25.7243C42.4078 26.4715 42.6402 27.2186 42.8871 27.9658C42.9307 27.9658 42.9743 27.9658 43.0178 27.9658C43.2357 26.6043 43.4535 25.2262 43.7004 23.7319C44.3976 24.2965 44.354 24.9274 44.2959 25.5085C44.049 27.916 43.7731 30.3235 43.5116 32.7143C43.4826 32.9468 43.5116 33.1792 43.5843 33.4283C44.3831 31.9174 44.688 30.1242 45.7628 28.8292C45.8354 28.8458 45.908 28.879 45.9661 28.8956C45.9516 29.1446 45.9806 29.4103 45.908 29.6261C45.5449 30.888 45.1819 32.1332 44.7752 33.3785C44.1071 35.4041 43.744 37.4795 44.0635 39.6213C44.2378 40.767 44.7026 41.8628 45.1238 42.942C46.184 45.6981 47.2732 48.4377 48.3916 51.1606C48.8999 52.4059 49.4808 53.6013 50.0327 54.83C50.1199 54.8134 50.1925 54.7802 50.2796 54.7636C50.178 54.0994 50.1199 53.4187 49.9892 52.7545C49.6551 51.1606 49.2775 49.5667 48.9289 47.9728C48.5949 46.4785 48.2318 45.0008 47.9559 43.4899C47.7961 42.5933 47.7671 41.6635 47.6799 40.7503C47.7816 40.7171 47.8687 40.7005 47.9704 40.6673C48.3335 41.6469 48.7111 42.6431 49.1468 43.8386C49.3937 42.145 49.6116 40.6507 49.8294 39.1564C49.902 39.1564 49.9746 39.173 50.0327 39.173C50.1344 41.1986 50.2361 43.2408 50.3523 45.2665C50.4104 45.2831 50.4684 45.2831 50.5411 45.2997C51.0494 44.0046 51.1801 42.4937 52.3565 41.5307C52.2694 42.1284 52.2113 42.7095 52.0951 43.3073C51.6739 45.4491 51.1075 47.5743 50.8315 49.7493C50.6863 50.9448 50.9913 52.2066 51.1511 53.4353C51.3689 55.0458 51.398 56.7726 51.9644 58.2004C52.9375 60.6411 54.2736 62.8826 55.5081 65.3233C55.8712 64.9248 56.0746 64.6757 56.3069 64.4433C56.6555 64.0946 56.6555 63.7626 56.4812 63.2811C55.8422 61.5875 55.2322 59.8774 54.6513 58.1672C54.477 57.6359 54.4479 57.0548 54.3608 56.4903C54.4479 56.4571 54.5205 56.4073 54.6077 56.3741C55.1015 57.4367 55.6098 58.4827 56.2198 59.7778C56.1036 57.1544 55.5227 54.7636 56.1472 52.3561C56.9896 53.9002 56.6991 55.7764 57.28 57.6193C57.6141 56.2745 57.9045 55.1122 58.195 53.9168C58.9212 54.1492 58.9212 54.6639 58.8195 55.1952C58.5436 56.7559 58.2241 58.3167 57.9481 59.8774C57.8319 60.5747 57.7883 61.2887 57.7303 62.0026C57.7157 62.1686 57.8319 62.3347 57.9191 62.6501C61.1288 59.0472 64.2659 55.5273 67.403 52.0074C65.7909 49.9486 65.2535 47.5909 65.7763 45.0174C65.9797 44.0378 66.4299 43.0084 67.0254 42.2779C72.6315 35.2879 78.2957 28.3477 83.9454 21.3909C84.0035 21.3079 84.0906 21.2581 84.1632 21.1916C85.1363 21.8226 85.2671 22.6195 84.5699 23.5327C80.3 29.1446 76.0155 34.7566 71.7601 40.3851C71.4696 40.767 71.0775 41.182 71.5422 41.7465C71.9344 42.2114 72.7041 42.3111 73.1398 41.8794C73.7498 41.2484 74.3162 40.5677 74.8972 39.9036C79.0074 35.1384 83.1321 30.3733 87.2423 25.6081C87.4165 25.4089 87.5473 25.1764 87.6925 24.9938C88.7818 25.6579 88.927 26.4549 88.1863 27.4179C83.9599 32.9634 79.7335 38.5255 75.5217 44.071C75.1731 44.5193 74.6212 44.9842 75.2457 45.6649C75.696 46.163 76.4803 46.08 77.0031 45.4823C79.414 42.6929 81.8104 39.8704 84.2504 37.0976C86.6613 34.3747 89.1013 31.7015 91.5848 28.962C92.3836 29.4269 92.5434 30.2903 91.8608 31.1868C87.6199 36.749 83.379 42.3277 79.1381 47.9064C78.8186 48.3215 78.2231 48.7365 78.7895 49.4339C79.2543 50.015 80.024 49.9818 80.605 49.3343C82.4204 47.2589 84.2214 45.1668 86.0223 43.0748C88.8544 39.7874 91.6865 36.4833 94.5331 33.1958C94.7074 32.9966 94.8817 32.8306 95.2157 32.4653C95.5062 33.1294 95.7531 33.6939 96 34.2751C94.3007 36.3671 92.645 38.4259 90.9893 40.4681C87.0534 45.3163 83.074 50.1146 79.2107 55.0292C76.8433 58.051 73.1543 58.1174 70.9032 55.5937C70.8306 55.5107 70.758 55.4609 70.6272 55.3447C70.3949 55.6601 70.148 55.959 69.9301 56.2745C67.8387 59.1136 65.7473 61.9528 63.6559 64.7588C63.3364 65.1904 63.2492 65.5557 63.4235 66.1036C63.7721 67.2492 64.0335 68.4281 64.353 69.5903C64.4111 69.8228 64.5273 70.0386 64.6871 70.2544C64.9195 68.3617 64.2949 66.4191 65.0792 64.3769C65.2825 65.1738 65.5149 65.7882 65.5875 66.4191C65.7763 68.2288 65.849 70.0386 66.0668 71.8484C66.3573 74.2558 66.7785 76.6467 68.0275 78.7055C69.1458 80.5651 70.2061 82.4911 71.397 84.3008C71.9053 85.0812 72.6315 85.6955 73.2996 86.3265C74.8681 87.8042 76.4512 89.2486 78.0343 90.7097C78.1795 90.8426 78.3393 90.9256 78.5571 91.075C76.9741 88.9166 75.3765 86.891 73.9241 84.7325C72.4717 82.5907 70.8451 80.5817 69.843 78.0912C69.9156 78.0248 70.0027 77.9418 70.0753 77.8754C71.092 79.2534 72.1086 80.6149 73.2415 82.1258C72.4282 79.8844 71.6875 77.8256 70.9468 75.7501C71.0339 75.7003 71.121 75.6671 71.2082 75.6173C72.3701 78.1576 73.3141 80.8474 74.9408 83.0888C74.6793 81.1462 74.4179 79.2202 74.1565 77.2776C75.1586 78.1078 75.2167 79.3199 75.4491 80.4323C75.696 81.6609 75.8993 82.9062 76.1026 84.1514C76.4076 85.9778 77.0031 87.6215 78.194 88.9664C79.7771 90.7762 81.1859 92.8516 82.9142 94.4621C84.6861 96.1058 86.7194 97.3843 88.6946 98.7291C90.2341 99.7585 91.8608 100.639 93.4438 101.568C93.5891 101.651 93.7198 101.768 93.7779 102C92.7903 101.535 91.7446 101.153 90.8006 100.589C88.2299 99.028 85.7173 97.3179 83.1321 95.7738C80.6776 94.3127 78.2086 92.8018 75.6234 91.6727C74.2 91.0584 72.5298 91.1746 70.9758 91.0252C69.843 90.909 68.7101 90.9256 67.5773 90.8093C67.1851 90.7761 66.8075 90.5437 66.4299 90.2614C67.6789 89.4313 69.0151 89.9128 70.3222 89.6471C68.4777 88.9996 66.6478 88.3521 64.8033 87.7045C64.8178 87.6049 64.8323 87.5219 64.8614 87.4223C65.544 86.974 66.2556 87.1898 66.9673 87.3725C67.6499 87.5385 68.3325 87.7543 69.0587 87.7709C67.3449 86.5755 65.6311 85.3635 63.9173 84.168C65.7037 84.3673 67.2142 85.3137 68.7392 86.2102C70.5111 87.2728 72.2394 88.4517 74.0112 89.5309C74.7665 89.9792 75.5798 90.3112 76.3641 90.6931C76.4076 90.6267 76.4367 90.5603 76.4803 90.4939C75.9429 89.9792 75.4055 89.4811 74.8681 88.9498C71.397 85.4963 67.432 82.9228 63.2928 80.7145C62.2616 80.1666 60.9981 80.1666 59.8362 79.8844C58.7033 79.6187 57.5705 79.3697 56.4522 79.0542C56.1036 78.9546 55.7841 78.6723 55.3339 78.4067C56.4522 77.6429 57.4688 78.3901 58.6598 78.2572C57.4253 77.5267 56.3505 76.9124 55.2322 76.2649C54.1139 77.7758 53.0101 79.27 51.9063 80.7643C47.1716 87.2064 42.4369 93.6319 37.7022 100.074C36.5258 101.668 35.0298 102.216 33.2725 101.685C31.4861 101.137 30.4839 99.7253 30.1209 97.6665C29.7432 95.5413 30.2516 93.8145 31.6313 92.2704C38.3267 84.8156 44.9785 77.3275 51.6449 69.8394C51.7465 69.5405 51.9353 69.2915 52.1968 68.9926ZM62.7845 65.8214C61.855 67.0666 61.0126 68.1624 60.2138 69.3081C60.0831 69.4907 60.0831 69.939 60.1848 70.1714C61.2159 72.5623 62.5666 74.7041 64.1933 76.6135C64.629 77.1282 65.0066 77.7093 65.4278 78.224C65.9506 78.8716 66.5171 79.4693 67.069 80.1002C67.1561 80.0172 67.2432 79.9508 67.3304 79.8678C66.5751 78.3569 65.8199 76.8294 65.0502 75.3185C63.9899 73.2264 62.9007 71.1344 61.8695 69.0258C61.6807 68.6439 61.6952 68.1126 61.6081 67.6477C61.7097 67.5979 61.8114 67.5481 61.9131 67.4983C62.5521 68.6771 63.2057 69.856 63.8447 71.0182C63.9028 70.985 63.9464 70.9684 64.0045 70.9352C63.6268 69.3081 63.2202 67.6477 62.7845 65.8214ZM56.8588 73.8574C59.6619 77.3939 63.2347 79.3531 66.8366 81.2957C63.9173 78.2905 61.4919 74.6543 57.9191 72.3963C57.5705 72.8944 57.2219 73.3759 56.8588 73.8574Z" fill="white"/>
</svg>
