<svg width="52" height="58" viewBox="0 0 52 58" fill="none" xmlns="http://www.w3.org/2000/svg">
<path d="M17.9843 35.1609C16.4921 34.5203 14.9998 34.0513 13.6422 32.9875C14.8651 32.9188 15.7964 33.5022 16.8287 33.7425C15.3588 32.5185 13.788 31.4318 12.6436 29.8418C13.8553 30.6539 15.0671 31.4547 16.2789 32.2668C16.3125 32.2325 16.3462 32.2096 16.3686 32.1753C15.5496 31.306 14.7417 30.448 13.9227 29.5787C13.9563 29.5215 13.99 29.4643 14.0236 29.4071C14.3602 29.5901 14.7529 29.7045 15.0222 29.9676C16.1106 31.0086 17.154 32.0952 18.2087 33.1705C18.4892 33.4565 18.7361 33.7539 19.0502 34.0971C19.2746 33.8797 19.4429 33.6967 19.6225 33.548C19.9366 33.3078 19.8805 33.079 19.6898 32.7816C18.2873 30.6311 16.4247 28.961 14.2593 27.6913C12.5987 26.719 10.8035 25.9869 9.07557 25.1404C8.33505 24.7743 7.60575 24.3854 6.86522 24.0079C6.89888 23.9164 6.92132 23.8249 6.95498 23.7334C7.50477 23.8478 8.06577 23.9507 8.73897 24.088C7.67306 23.1615 6.47252 22.5552 5.79931 21.377C5.83297 21.3312 5.85541 21.274 5.88907 21.2283C7.23548 22.0748 8.57068 22.9212 10.0629 23.8592C9.06436 22.4751 8.16675 21.2397 7.28036 20.0043C7.32524 19.9586 7.37013 19.9128 7.42623 19.8671C7.88625 20.3246 8.36871 20.7478 8.79507 21.2283C9.93952 22.5323 11.0167 23.905 12.206 25.1518C12.7558 25.7238 13.5075 26.0898 14.1583 26.5588C15.0447 27.188 15.9198 27.8285 16.8848 28.5263C16.8174 28.3204 16.795 28.1831 16.7277 28.0802C14.8764 24.9002 12.8455 21.8345 10.2649 19.2036C9.8161 18.746 9.21022 18.4143 8.62677 18.1398C7.62818 17.6822 6.5735 17.3391 5.55247 16.9387C4.93536 16.6985 4.32948 16.4239 3.90311 15.8749C3.92555 15.8062 3.94799 15.749 3.97043 15.6804C4.85682 15.9092 5.75443 16.1494 6.64082 16.3782C4.90171 14.7767 3.0055 13.3354 1.83861 11.1849C3.42065 12.5118 5.00268 13.8388 6.5735 15.1771C6.61838 15.1428 6.66326 15.097 6.69692 15.0627C5.84419 13.8273 4.99147 12.5805 4.14996 11.3451C4.20606 11.2879 4.26216 11.2307 4.31826 11.1735C4.58754 11.4023 4.9017 11.5967 5.11488 11.8713C6.03493 13.0838 6.87644 14.3764 7.85259 15.5546C8.68288 16.5498 9.67024 17.4191 10.5342 18.38C11.3308 19.2608 12.0601 20.1988 12.8119 21.1139C12.9241 21.2512 13.0475 21.3999 13.1597 21.5371C13.2046 21.5143 13.2495 21.4914 13.3056 21.4571C13.1597 21.1139 13.0138 20.7593 12.8567 20.4276C12.1162 18.8604 11.4655 17.2247 10.5903 15.7376C9.40096 13.7244 7.94235 11.9056 6.06859 10.4872C5.58613 10.1211 4.96903 9.96096 4.3968 9.72074C3.54407 9.3547 2.62403 9.11448 1.92838 8.31376C2.93819 8.07354 3.74603 8.75988 4.81194 8.93146C3.88067 7.90196 2.51182 7.52447 2.06302 6.24332C2.1079 6.17468 2.14156 6.11749 2.18644 6.04885C2.62403 6.30051 3.07283 6.56361 3.58895 6.86102C3.18503 6.12893 2.81476 5.46547 2.45572 4.79057C2.48938 4.75626 2.52304 4.72194 2.5567 4.68762C2.79233 4.88209 3.0616 5.04223 3.24113 5.27101C4.3968 6.74663 5.50759 8.25656 6.67448 9.7093C7.69551 10.979 8.77263 12.2144 9.90586 13.4155C9.50194 12.4661 9.13168 11.5052 8.68287 10.5787C8.12187 9.40045 7.70673 8.14217 6.76424 7.19274C5.48515 5.91159 4.2285 4.61899 2.97185 3.31496C2.61281 2.93747 2.30986 2.51423 2.0518 2.0338C3.56651 2.76589 4.59876 4.0928 5.81053 5.20238C5.85541 5.16806 5.90029 5.14518 5.94517 5.11087C5.26075 3.681 4.57632 2.26258 3.88067 0.832712C3.93677 0.798395 4.0041 0.752639 4.0602 0.718323C5.14855 2.36553 6.24811 4.01273 7.33646 5.65993C7.37012 5.64849 7.415 5.63706 7.44866 5.62562C7.23548 4.44741 7.0223 3.28064 6.82034 2.10243C6.88766 2.07955 6.95498 2.05668 7.0223 2.04524C7.11206 2.28545 7.22426 2.51423 7.26914 2.76589C7.48232 3.82971 7.60575 4.9164 7.90869 5.9459C8.30139 7.24994 8.82874 8.50822 9.33364 9.7665C9.61414 10.4757 9.97318 11.162 10.3883 11.8484C10.4332 9.68643 9.79366 7.55879 10.0405 5.39684C10.1078 5.3854 10.1639 5.37396 10.2312 5.35108C10.422 5.86583 10.6015 6.38058 10.7923 6.89533C10.8259 6.89533 10.8596 6.89533 10.8932 6.89533C11.0615 5.95734 11.2298 5.00791 11.4206 3.97841C11.9591 4.36733 11.9255 4.80201 11.8806 5.20238C11.6899 6.86102 11.4767 8.51966 11.2747 10.1669C11.2523 10.327 11.2747 10.4872 11.3308 10.6587C11.9479 9.61779 12.1835 8.38239 13.0138 7.49016C13.0699 7.5016 13.126 7.52447 13.1709 7.53591C13.1597 7.7075 13.1821 7.89052 13.126 8.03922C12.8455 8.90858 12.565 9.7665 12.2509 10.6244C11.7347 12.02 11.4542 13.4498 11.7011 14.9254C11.8357 15.7147 12.1948 16.4697 12.5201 17.2132C13.3392 19.1121 14.1807 20.9995 15.0447 22.8755C15.4374 23.7334 15.8862 24.557 16.3125 25.4035C16.3799 25.392 16.436 25.3692 16.5033 25.3577C16.4247 24.9002 16.3799 24.4312 16.2789 23.9736C16.0208 22.8755 15.7291 21.7774 15.4598 20.6792C15.2017 19.6497 14.9212 18.6317 14.7081 17.5907C14.5846 16.973 14.5622 16.3324 14.4949 15.7033C14.5734 15.6804 14.6407 15.669 14.7193 15.6461C14.9998 16.321 15.2915 17.0073 15.6281 17.8309C15.8189 16.6642 15.9872 15.6347 16.1555 14.6052C16.2116 14.6052 16.2677 14.6166 16.3125 14.6166C16.3911 16.0121 16.4696 17.4191 16.5594 18.8147C16.6043 18.8261 16.6491 18.8261 16.7052 18.8376C17.0979 17.9453 17.1989 16.9044 18.1077 16.2409C18.0404 16.6527 17.9956 17.0531 17.9058 17.4649C17.5804 18.9405 17.1428 20.4047 16.9296 21.9032C16.8174 22.7268 17.0531 23.5961 17.1765 24.4426C17.3448 25.5522 17.3672 26.7418 17.8048 27.7256C18.5566 29.4071 19.5888 30.9514 20.5425 32.6329C20.823 32.3583 20.9801 32.1868 21.1596 32.0266C21.4289 31.7864 21.4289 31.5576 21.2943 31.2259C20.8006 30.0591 20.3293 28.8809 19.8805 27.7027C19.7459 27.3367 19.7234 26.9363 19.6561 26.5474C19.7234 26.5245 19.7795 26.4902 19.8469 26.4673C20.2283 27.1994 20.6211 27.92 21.0923 28.8123C21.0025 27.0049 20.5537 25.3577 21.0362 23.6991C21.687 24.7629 21.4626 26.0555 21.9114 27.3252C22.1694 26.3987 22.3938 25.5979 22.6182 24.7743C23.1792 24.9345 23.1792 25.2891 23.1007 25.6551C22.8875 26.7304 22.6407 27.8057 22.4275 28.8809C22.3377 29.3613 22.3041 29.8532 22.2592 30.3451C22.248 30.4595 22.3377 30.5739 22.4051 30.7912C24.8847 28.309 27.3082 25.8839 29.7318 23.4589C28.4863 22.0404 28.0712 20.4161 28.4751 18.6431C28.6322 17.9682 28.98 17.259 29.44 16.7557C33.771 11.9399 38.1468 7.15843 42.5115 2.36553C42.5563 2.30833 42.6237 2.27402 42.6798 2.22826C43.4315 2.66294 43.5325 3.21201 42.9939 3.84115C39.6952 7.7075 36.3853 11.5738 33.0978 15.4516C32.8734 15.7147 32.5705 16.0007 32.9295 16.3896C33.2324 16.7099 33.8271 16.7785 34.1637 16.4811C34.635 16.0465 35.0725 15.5775 35.5213 15.1199C38.6966 11.8369 41.8831 8.55398 45.0584 5.27101C45.1931 5.13374 45.294 4.9736 45.4062 4.84777C46.2477 5.30533 46.3599 5.85439 45.7877 6.51785C42.5227 10.3384 39.2576 14.1705 36.0038 17.9911C35.7345 18.2999 35.3082 18.6202 35.7906 19.0892C36.1384 19.4324 36.7443 19.3752 37.1483 18.9634C39.0108 17.0416 40.8621 15.097 42.7471 13.1867C44.6096 11.3108 46.4946 9.46909 48.4132 7.58167C49.0303 7.90196 49.1537 8.49678 48.6264 9.11448C45.3501 12.9465 42.0739 16.79 38.7976 20.6335C38.5508 20.9194 38.0907 21.2054 38.5283 21.6858C38.8874 22.0862 39.482 22.0633 39.9308 21.6172C41.3333 20.1873 42.7246 18.746 44.1159 17.3047C46.3039 15.0398 48.4918 12.7635 50.6909 10.4986C50.8256 10.3613 50.9602 10.2469 51.2182 9.99528C51.4426 10.4528 51.6334 10.8418 51.8241 11.2421C50.5114 12.6834 49.2323 14.1018 47.9532 15.5088C44.9126 18.849 41.8383 22.1548 38.8537 25.5408C37.0248 27.6226 34.1749 27.6684 32.4358 25.9297C32.3797 25.8725 32.3236 25.8382 32.2226 25.7581C32.0431 25.9754 31.8524 26.1813 31.6841 26.3987C30.0684 28.3547 28.4527 30.3108 26.837 32.244C26.5901 32.5414 26.5228 32.793 26.6575 33.1705C26.9267 33.9598 27.1287 34.7719 27.3756 35.5727C27.4204 35.7328 27.5102 35.8815 27.6336 36.0302C27.8131 34.7262 27.3307 33.3878 27.9366 31.9809C28.0936 32.5299 28.2732 32.9532 28.3293 33.3878C28.4751 34.6347 28.5312 35.8815 28.6995 37.1284C28.9239 38.787 29.2493 40.4342 30.2142 41.8526C31.0782 43.1338 31.8972 44.4607 32.8173 45.7075C33.21 46.2452 33.771 46.6684 34.2871 47.1031C35.4989 48.1212 36.7219 49.1163 37.9449 50.123C38.0571 50.2145 38.1805 50.2717 38.3488 50.3746C37.1258 48.8876 35.8916 47.492 34.7696 46.005C33.6476 44.5293 32.3909 43.1452 31.6167 41.4294C31.6728 41.3836 31.7402 41.3264 31.7963 41.2807C32.5817 42.2301 33.3671 43.1681 34.2422 44.209C33.6139 42.6648 33.0417 41.2464 32.4695 39.8165C32.5368 39.7822 32.6041 39.7593 32.6714 39.725C33.569 41.4751 34.2983 43.3283 35.555 44.8725C35.353 43.5341 35.1511 42.2072 34.9491 40.8689C35.7233 41.4408 35.7682 42.2759 35.9477 43.0423C36.1384 43.8888 36.2955 44.7467 36.4526 45.6046C36.6882 46.8629 37.1483 47.9953 38.0683 48.9219C39.2913 50.1687 40.3796 51.5986 41.7148 52.7082C43.0837 53.8406 44.6545 54.7214 46.1804 55.648C47.3698 56.3572 48.6264 56.9634 49.8494 57.604C49.9616 57.6612 50.0626 57.7413 50.1075 57.9014C49.3445 57.5811 48.5367 57.318 47.8073 56.9291C45.8214 55.8539 43.8803 54.6757 41.8831 53.6118C39.9869 52.6052 38.0795 51.5643 36.0823 50.7864C34.9828 50.3632 33.6925 50.4433 32.4919 50.3403C31.6167 50.2602 30.7416 50.2717 29.8664 50.1916C29.5635 50.1687 29.2717 50.0086 28.98 49.8141C29.945 49.2422 30.9772 49.5739 31.987 49.3909C30.5621 48.9448 29.1483 48.4986 27.7234 48.0525C27.7346 47.9839 27.7458 47.9267 27.7683 47.8581C28.2956 47.5492 28.8454 47.6979 29.3952 47.8237C29.9225 47.9381 30.4499 48.0868 31.0109 48.0983C29.6869 47.2747 28.3629 46.4396 27.0389 45.616C28.419 45.7533 29.5859 46.4053 30.764 47.023C32.1329 47.7551 33.4681 48.5673 34.8369 49.3108C35.4204 49.6197 36.0487 49.8484 36.6546 50.1115C36.6882 50.0658 36.7107 50.02 36.7443 49.9743C36.3292 49.6197 35.914 49.2765 35.4989 48.9104C32.8173 46.5311 29.7542 44.7581 26.5565 43.2367C25.7599 42.8593 24.7837 42.8593 23.8861 42.6648C23.0109 42.4818 22.1358 42.3102 21.2718 42.0929C21.0025 42.0242 20.7557 41.8298 20.4079 41.6467C21.2718 41.1205 22.0572 41.6353 22.9773 41.5438C22.0236 41.0405 21.1933 40.6172 20.3293 40.1711C19.4654 41.2121 18.6127 42.2416 17.7599 43.2711C14.1022 47.7094 10.4444 52.1362 6.78668 56.5745C5.87785 57.6726 4.72218 58.0501 3.36455 57.6841C1.98448 57.3066 1.21029 56.3343 0.92979 54.9159C0.638067 53.4517 1.03077 52.262 2.09668 51.1982C7.26915 46.0621 12.4079 40.9032 17.558 35.7443C17.6365 35.5384 17.7824 35.3668 17.9843 35.1609ZM26.1638 32.976C25.4457 33.834 24.7949 34.5889 24.1778 35.3782C24.0768 35.504 24.0768 35.8129 24.1554 35.973C24.952 37.6202 25.9955 39.0959 27.2521 40.4113C27.5887 40.7659 27.8805 41.1663 28.2058 41.5209C28.6098 41.967 29.0473 42.3788 29.4737 42.8135C29.541 42.7563 29.6084 42.7106 29.6757 42.6534C29.0922 41.6124 28.5088 40.56 27.9141 39.5191C27.095 38.0778 26.2535 36.6365 25.4569 35.1837C25.311 34.9207 25.3223 34.5546 25.2549 34.2343C25.3335 34.2 25.412 34.1657 25.4906 34.1314C25.9843 34.9435 26.4892 35.7557 26.9828 36.5564C27.0277 36.5335 27.0614 36.5221 27.1063 36.4992C26.8145 35.3782 26.5004 34.2343 26.1638 32.976ZM21.586 38.5125C23.7515 40.949 26.5116 42.2988 29.2942 43.6371C27.0389 41.5667 25.1652 39.0615 22.4051 37.5059C22.1358 37.849 21.8665 38.1807 21.586 38.5125Z" fill="white"/>
</svg>
