<svg width="141" height="156" viewBox="0 0 141 156" fill="none" xmlns="http://www.w3.org/2000/svg">
<path d="M47.4203 93.962C43.2937 92.2144 39.167 90.935 35.4126 88.0328C38.7946 87.8456 41.3699 89.4371 44.2245 90.0924C40.1599 86.7533 35.816 83.7888 32.6512 79.4511C36.0021 81.6667 39.3531 83.8512 42.7041 86.0668C42.7972 85.9732 42.8903 85.9108 42.9523 85.8172C40.6873 83.4455 38.4533 81.105 36.1883 78.7333C36.2814 78.5773 36.3745 78.4213 36.4676 78.2652C37.3984 78.7645 38.4843 79.0766 39.229 79.7944C42.2387 82.6341 45.1243 85.5987 48.0409 88.5321C48.8166 89.3123 49.4992 90.1236 50.368 91.0598C50.9885 90.4669 51.4539 89.9676 51.9504 89.5619C52.8192 88.9066 52.664 88.2824 52.1366 87.4711C48.2581 81.6043 43.1075 77.0482 37.1191 73.5843C32.527 70.9318 27.5626 68.9346 22.7843 66.6253C20.7365 65.6267 18.7197 64.5657 16.6719 63.5359C16.7649 63.2863 16.827 63.0366 16.9201 62.787C18.4404 63.099 19.9918 63.3799 21.8535 63.7543C18.9058 61.2266 15.5859 59.5727 13.7242 56.3585C13.8173 56.2337 13.8794 56.0776 13.9725 55.9528C17.6958 58.262 21.3881 60.5713 25.5148 63.1302C22.7533 59.3543 20.2711 55.984 17.8199 52.6137C17.944 52.4889 18.0681 52.3641 18.2233 52.2393C19.4954 53.4875 20.8296 54.6421 22.0086 55.9528C25.1735 59.5103 28.1521 63.2551 31.4411 66.6565C32.9614 68.2169 35.0403 69.2154 36.8399 70.4949C39.2911 72.2113 41.7112 73.9588 44.3796 75.8624C44.1935 75.3007 44.1314 74.9262 43.9452 74.6453C38.8257 65.97 33.2096 57.6067 26.0733 50.4293C24.8322 49.181 23.1566 48.276 21.5432 47.5271C18.7817 46.2788 15.8651 45.3427 13.0416 44.2505C11.3351 43.5951 9.65959 42.8462 8.48054 41.3483C8.54259 41.161 8.60464 41.005 8.6667 40.8178C11.1179 41.4419 13.6001 42.0972 16.0513 42.7213C11.242 38.3525 5.99831 34.4205 2.77143 28.5537C7.14634 32.1736 11.5213 35.7936 15.8651 39.4447C15.9892 39.3511 16.1134 39.2262 16.2065 39.1326C13.8483 35.7624 11.4902 32.3609 9.16315 28.9906C9.31829 28.8346 9.47343 28.6785 9.62857 28.5225C10.3732 29.1466 11.242 29.6771 11.8315 30.4261C14.3758 33.7339 16.7029 37.2603 19.4023 40.4745C21.6984 43.1894 24.4288 45.5611 26.8179 48.1824C29.0209 50.5853 31.0377 53.1442 33.1166 55.6407C33.4268 56.0152 33.7681 56.4209 34.0784 56.7954C34.2025 56.7329 34.3266 56.6705 34.4818 56.5769C34.0784 55.6407 33.6751 54.6733 33.2407 53.7683C31.1928 49.4931 29.3932 45.0306 26.9731 40.9738C23.6841 35.4815 19.6505 30.5197 14.4689 26.6501C13.1347 25.6515 11.4282 25.2146 9.84577 24.5593C7.48766 23.5607 4.94338 22.9054 3.01966 20.7209C5.81216 20.0656 8.04614 21.938 10.9938 22.4061C8.41847 19.5975 4.63309 18.5677 3.39198 15.0726C3.51609 14.8854 3.60919 14.7293 3.7333 14.5421C4.94338 15.2286 6.18449 15.9464 7.61176 16.7578C6.49477 14.7606 5.47084 12.9506 4.47795 11.1094C4.57103 11.0158 4.66412 10.9222 4.75721 10.8286C5.40879 11.3591 6.15345 11.796 6.64989 12.4201C9.84575 16.4457 12.9175 20.5649 16.1444 24.5281C18.9679 27.992 21.9466 31.3623 25.0804 34.6389C23.9634 32.0488 22.9395 29.4275 21.6983 26.8998C20.147 23.6855 18.9989 20.2529 16.3926 17.6627C12.8554 14.1676 9.38035 10.6413 5.90524 7.08382C4.91235 6.05401 4.0746 4.89938 3.36096 3.58872C7.5497 5.58592 10.4043 9.20584 13.7553 12.2328C13.8794 12.1392 14.0035 12.0768 14.1276 11.9832C12.2349 8.08242 10.3422 4.21284 8.41848 0.312062C8.57362 0.218444 8.75979 0.0936187 8.91493 0C11.9246 4.4937 14.9653 8.9874 17.975 13.4811C18.0681 13.4499 18.1922 13.4187 18.2853 13.3875C17.6958 10.1732 17.1062 6.9902 16.5477 3.77596C16.7339 3.71354 16.9201 3.65113 17.1062 3.61993C17.3545 4.27526 17.6647 4.89939 17.7889 5.58592C18.3784 8.4881 18.7197 11.4527 19.5574 14.2613C20.6434 17.8188 22.1017 21.2514 23.498 24.6841C24.2737 26.6189 25.2665 28.4913 26.4146 30.3637C26.5387 24.4657 24.7701 18.6613 25.4527 12.7634C25.6389 12.7322 25.794 12.7009 25.9802 12.6385C26.5077 14.0428 27.0041 15.4471 27.5316 16.8514C27.6247 16.8514 27.7177 16.8514 27.8108 16.8514C28.2762 14.2925 28.7416 11.7023 29.2691 8.89378C30.7585 9.95479 30.6654 11.1406 30.5413 12.2328C30.0138 16.7578 29.4243 21.2827 28.8658 25.7764C28.8037 26.2132 28.8658 26.6501 29.0209 27.1182C30.7274 24.2785 31.379 20.9082 33.6751 18.4741C33.8302 18.5053 33.9853 18.5677 34.1094 18.5989C34.0784 19.067 34.1405 19.5663 33.9853 19.972C33.2096 22.3437 32.434 24.6841 31.5652 27.0246C30.1379 30.8318 29.3622 34.7325 30.0448 38.7582C30.4171 40.9114 31.41 42.971 32.3098 44.9994C34.5749 50.1796 36.9019 55.3287 39.2911 60.4465C40.377 62.787 41.6181 65.0338 42.7972 67.3431C42.9834 67.3119 43.1385 67.2495 43.3247 67.2182C43.1075 65.97 42.9834 64.6905 42.7041 63.4423C41.9905 60.4465 41.1838 57.4507 40.4391 54.4549C39.7255 51.6463 38.9498 48.869 38.3602 46.0292C38.0189 44.3441 37.9569 42.5965 37.7707 40.8802C37.9879 40.8178 38.1741 40.7866 38.3913 40.7241C39.167 42.5653 39.9737 44.4377 40.9045 46.6845C41.432 43.5015 41.8974 40.6929 42.3628 37.8844C42.518 37.8844 42.6731 37.9156 42.7972 37.9156C43.0144 41.7227 43.2316 45.5611 43.4798 49.3683C43.6039 49.3995 43.728 49.3995 43.8832 49.4307C44.9691 46.9966 45.2484 44.1568 47.7616 42.3469C47.5755 43.4703 47.4514 44.5625 47.2031 45.6859C46.3033 49.7115 45.0933 53.7059 44.5037 57.794C44.1935 60.0408 44.845 62.4125 45.1863 64.7217C45.6518 67.7488 45.7138 70.9942 46.9239 73.6779C49.0028 78.2653 51.8573 82.4781 54.4947 87.0654C55.2704 86.3165 55.7047 85.8484 56.2012 85.4115C56.9459 84.7561 56.9459 84.132 56.5735 83.227C55.2083 80.044 53.9051 76.8298 52.664 73.6155C52.2917 72.6169 52.2296 71.5247 52.0435 70.4637C52.2296 70.4013 52.3848 70.3077 52.5709 70.2453C53.6259 72.2425 54.7119 74.2084 56.015 76.6425C55.7668 71.7119 54.5257 67.2182 55.8599 62.6933C57.6595 65.5955 57.0389 69.1218 58.2801 72.5857C58.9937 70.058 59.6142 67.8736 60.2348 65.6267C61.7862 66.0636 61.7862 67.031 61.569 68.0296C60.9795 70.963 60.2968 73.8964 59.7073 76.8298C59.4591 78.1404 59.366 79.4823 59.2419 80.8242C59.2109 81.1362 59.4591 81.4483 59.6453 82.0412C66.5024 75.2695 73.2044 68.6537 79.9064 62.038C76.4623 58.1684 75.3143 53.7371 76.4313 48.9002C76.8657 47.059 77.8275 45.1242 79.0997 43.7511C91.0764 30.6133 103.177 17.5691 115.247 4.49371C115.371 4.33767 115.557 4.24405 115.712 4.11923C117.791 5.30506 118.071 6.80297 116.581 8.51931C107.459 19.067 98.3058 29.6147 89.2147 40.1936C88.5942 40.9114 87.7564 41.6915 88.7493 42.7525C89.587 43.6263 91.2315 43.8136 92.1624 43.0022C93.4655 41.8164 94.6756 40.5369 95.9167 39.2887C104.698 30.3325 113.509 21.3763 122.29 12.4201C122.663 12.0456 122.942 11.6087 123.252 11.2655C125.579 12.5137 125.889 14.0116 124.307 15.8216C115.278 26.2444 106.249 36.6985 97.2509 47.1214C96.5062 47.964 95.3272 48.8378 96.6614 50.1172C97.6232 51.0534 99.2987 50.8974 100.416 49.7739C105.566 44.5313 110.686 39.2262 115.899 34.0148C121.049 28.897 126.262 23.8728 131.568 18.7237C133.274 19.5975 133.615 21.2202 132.157 22.9054C123.097 33.3595 114.037 43.8448 104.977 54.3301C104.294 55.1102 103.022 55.8904 104.232 57.201C105.225 58.2933 106.869 58.2308 108.111 57.0138C111.989 53.113 115.837 49.181 119.684 45.249C125.734 39.0702 131.785 32.8602 137.866 26.6813C138.239 26.3069 138.611 25.9948 139.324 25.3083C139.945 26.5565 140.473 27.6175 141 28.7097C137.37 32.6417 133.833 36.5113 130.295 40.3497C121.887 49.4619 113.385 58.4805 105.132 67.7175C100.074 73.3971 92.1934 73.5219 87.3841 68.7786C87.2289 68.6225 87.0738 68.5289 86.7946 68.3105C86.2981 68.9034 85.7706 69.4651 85.3052 70.058C80.8372 75.3943 76.3692 80.7305 71.9012 86.0044C71.2186 86.8158 71.0325 87.5023 71.4048 88.5321C72.1495 90.6853 72.708 92.901 73.3906 95.0854C73.5147 95.5223 73.7629 95.928 74.1042 96.3337C74.6006 92.7762 73.2664 89.125 74.9419 85.2866C75.3763 86.7845 75.8728 87.9392 76.0279 89.125C76.4313 92.5265 76.5864 95.928 77.0518 99.3295C77.6724 103.854 78.5722 108.348 81.2406 112.218C83.6297 115.713 85.8947 119.333 88.439 122.734C89.525 124.201 91.0764 125.355 92.5036 126.541C95.8546 129.319 99.2367 132.034 102.619 134.78C102.929 135.029 103.27 135.185 103.736 135.466C100.354 131.409 96.9406 127.602 93.8378 123.546C90.7351 119.52 87.26 115.744 85.119 111.063C85.2742 110.938 85.4604 110.782 85.6155 110.657C87.7874 113.247 89.9594 115.806 92.3795 118.646C90.642 114.433 89.0596 110.564 87.4771 106.663C87.6633 106.569 87.8495 106.507 88.0357 106.413C90.5179 111.188 92.5347 116.243 96.0098 120.456C95.4513 116.805 94.8928 113.185 94.3343 109.534C96.4752 111.094 96.5993 113.372 97.0957 115.463C97.6232 117.772 98.0576 120.113 98.492 122.453C99.1436 125.886 100.416 128.975 102.96 131.503C106.342 134.905 109.352 138.805 113.044 141.832C116.829 144.922 121.173 147.325 125.393 149.852C128.682 151.787 132.157 153.441 135.539 155.189C135.849 155.345 136.129 155.563 136.253 156C134.143 155.126 131.909 154.408 129.892 153.347C124.4 150.414 119.032 147.2 113.509 144.298C108.266 141.551 102.991 138.712 97.4681 136.59C94.4274 135.435 90.8592 135.654 87.5392 135.373C85.119 135.154 82.6989 135.185 80.2787 134.967C79.441 134.905 78.6343 134.468 77.8275 133.937C80.4959 132.377 83.3505 133.282 86.143 132.783C82.2024 131.566 78.2929 130.348 74.3524 129.131C74.3834 128.944 74.4145 128.788 74.4765 128.601C75.9348 127.758 77.4552 128.164 78.9756 128.507C80.4339 128.819 81.8922 129.225 83.4435 129.256C79.7823 127.009 76.121 124.731 72.4597 122.484C76.2761 122.859 79.503 124.638 82.7609 126.323C86.5463 128.32 90.2386 130.536 94.024 132.564C95.6375 133.407 97.375 134.031 99.0505 134.749C99.1436 134.624 99.2056 134.499 99.2987 134.374C98.1507 133.407 97.0027 132.47 95.8546 131.472C88.439 124.981 79.9684 120.144 71.1255 115.994C68.9226 114.964 66.2231 114.964 63.7409 114.433C61.3208 113.934 58.9006 113.466 56.5115 112.873C55.7668 112.686 55.0842 112.155 54.1223 111.656C56.5115 110.22 58.6834 111.625 61.2277 111.375C58.5903 110.002 56.2943 108.847 53.9051 107.63C51.516 110.47 49.1579 113.279 46.7998 116.087C36.6847 128.195 26.5697 140.272 16.4547 152.38C13.9414 155.376 10.7456 156.406 6.99121 155.407C3.1748 154.377 1.03388 151.725 0.258186 147.855C-0.548535 143.861 0.537444 140.615 3.48508 137.713C17.7889 123.702 31.9996 109.628 46.2413 95.5535C46.4585 94.9918 46.8618 94.5237 47.4203 93.962ZM70.0396 88.0016C68.0538 90.3421 66.2542 92.4017 64.5477 94.5549C64.2684 94.8982 64.2684 95.7407 64.4856 96.1776C66.6886 100.671 69.5741 104.697 73.0492 108.286C73.9801 109.253 74.7868 110.345 75.6866 111.313C76.8036 112.53 78.0137 113.653 79.1928 114.839C79.3789 114.683 79.5651 114.558 79.7513 114.402C78.1378 111.562 76.5244 108.691 74.8799 105.852C72.6149 101.92 70.2878 97.9876 68.0848 94.0244C67.6814 93.3066 67.7125 92.3081 67.5263 91.4343C67.7435 91.3407 67.9607 91.2471 68.1779 91.1534C69.5431 93.3691 70.9394 95.5847 72.3046 97.7691C72.4287 97.7067 72.5218 97.6755 72.6459 97.6131C71.8392 94.5549 70.9704 91.4343 70.0396 88.0016ZM57.3802 103.105C63.3686 109.752 71.0014 113.435 78.6963 117.086C72.4597 111.437 67.2781 104.603 59.6453 100.359C58.9006 101.295 58.1559 102.2 57.3802 103.105Z" fill="#F5F5F5"/>
</svg>
