<svg width="18" height="19" viewBox="0 0 18 19" fill="none" xmlns="http://www.w3.org/2000/svg">
<path d="M9.9 8.785H4.5C4.26131 8.785 4.03239 8.87982 3.8636 9.0486C3.69482 9.21738 3.6 9.4463 3.6 9.685C3.6 9.92369 3.69482 10.1526 3.8636 10.3214C4.03239 10.4902 4.26131 10.585 4.5 10.585H9.9C10.1387 10.585 10.3676 10.4902 10.5364 10.3214C10.7052 10.1526 10.8 9.92369 10.8 9.685C10.8 9.4463 10.7052 9.21738 10.5364 9.0486C10.3676 8.87982 10.1387 8.785 9.9 8.785ZM13.5 5.185H4.5C4.26131 5.185 4.03239 5.27982 3.8636 5.4486C3.69482 5.61738 3.6 5.8463 3.6 6.085C3.6 6.32369 3.69482 6.55261 3.8636 6.72139C4.03239 6.89018 4.26131 6.985 4.5 6.985H13.5C13.7387 6.985 13.9676 6.89018 14.1364 6.72139C14.3052 6.55261 14.4 6.32369 14.4 6.085C14.4 5.8463 14.3052 5.61738 14.1364 5.4486C13.9676 5.27982 13.7387 5.185 13.5 5.185ZM15.3 0.684998H2.7C1.98392 0.684998 1.29716 0.969461 0.790812 1.47581C0.284464 1.98216 0 2.66891 0 3.385V12.385C0 13.1011 0.284464 13.7878 0.790812 14.2942C1.29716 14.8005 1.98392 15.085 2.7 15.085H13.131L16.461 18.424C16.5451 18.5074 16.6448 18.5734 16.7545 18.6182C16.8641 18.663 16.9816 18.6857 17.1 18.685C17.2181 18.688 17.3352 18.6634 17.442 18.613C17.6064 18.5455 17.7471 18.4308 17.8464 18.2835C17.9457 18.1361 17.9991 17.9627 18 17.785V3.385C18 2.66891 17.7155 1.98216 17.2092 1.47581C16.7028 0.969461 16.0161 0.684998 15.3 0.684998ZM16.2 15.616L14.139 13.546C14.0549 13.4626 13.9552 13.3966 13.8455 13.3518C13.7359 13.307 13.6184 13.2843 13.5 13.285H2.7C2.4613 13.285 2.23239 13.1902 2.0636 13.0214C1.89482 12.8526 1.8 12.6237 1.8 12.385V3.385C1.8 3.1463 1.89482 2.91738 2.0636 2.7486C2.23239 2.57982 2.4613 2.485 2.7 2.485H15.3C15.5387 2.485 15.7676 2.57982 15.9364 2.7486C16.1052 2.91738 16.2 3.1463 16.2 3.385V15.616Z" fill="white"/>
</svg>
