<svg width="14" height="14" viewBox="0 0 14 14" fill="none" xmlns="http://www.w3.org/2000/svg">
<path fill-rule="evenodd" clip-rule="evenodd" d="M3.73314 6.40017V5.46684C3.73314 3.92044 4.98674 2.66684 6.53314 2.66684C8.07954 2.66684 9.33314 3.92044 9.33314 5.46684V6.40017H9.79981C10.0575 6.40017 10.2665 6.60911 10.2665 6.86684V11.5335C10.2665 11.7912 10.0575 12.0002 9.79981 12.0002H3.26647C3.00874 12.0002 2.7998 11.7912 2.7998 11.5335V6.86684C2.7998 6.60911 3.00874 6.40017 3.26647 6.40017H3.73314ZM4.66647 6.40017H8.39981V5.46684C8.39981 4.43591 7.56407 3.60017 6.53314 3.60017C5.50221 3.60017 4.66647 4.43591 4.66647 5.46684V6.40017Z" fill="black"/>
</svg>
