<svg width="14" height="14" viewBox="0 0 14 14" fill="none" xmlns="http://www.w3.org/2000/svg">
<path fill-rule="evenodd" clip-rule="evenodd" d="M13.0506 4.22148C11.267 2.69793 9.01358 1.86673 6.6572 1.86673C4.29385 1.86673 2.03423 2.70289 0.248399 4.23467L0.0967354 4.36476C-0.0259129 4.46996 -0.032953 4.65696 0.0814401 4.77104L1.13326 5.81993C1.23535 5.92174 1.3986 5.92869 1.50901 5.83592L1.63932 5.72645C3.04572 4.54487 4.81149 3.90173 6.6572 3.90173C8.49664 3.90173 10.2568 4.54047 11.6611 5.71471L11.7913 5.82362C11.9018 5.91597 12.0647 5.90885 12.1666 5.80721L13.2186 4.75817C13.3331 4.64393 13.3259 4.45662 13.2028 4.35152L13.0506 4.22148ZM6.65723 5.10517C8.142 5.10517 9.5676 5.59773 10.7289 6.5099L10.8931 6.63881C11.0239 6.74159 11.0354 6.93525 10.9176 7.0527L9.86223 8.10516C9.76462 8.20251 9.61016 8.21369 9.49947 8.13142L9.37082 8.03581C8.58645 7.45287 7.64065 7.14017 6.65723 7.14017C5.66775 7.14017 4.71642 7.45675 3.92945 8.04639L3.80067 8.14288C3.68997 8.22582 3.53494 8.2149 3.43704 8.11726L2.38203 7.06519C2.2645 6.94799 2.27566 6.75482 2.40591 6.65184L2.56911 6.52283C3.7332 5.60253 5.16528 5.10517 6.65723 5.10517ZM6.65727 8.34359C7.25413 8.34359 7.83409 8.50043 8.3451 8.79949L8.55215 8.92066C8.70912 9.01252 8.73673 9.22752 8.60803 9.35586L6.84022 11.1188C6.73163 11.227 6.55558 11.227 6.447 11.1188L4.69055 9.36719C4.56242 9.23941 4.58912 9.02551 4.74477 8.93297L4.94949 8.81124C5.4652 8.50461 6.05252 8.34359 6.65727 8.34359Z" fill="white"/>
</svg>
