<svg width="31" height="14" viewBox="0 0 31 14" fill="none" xmlns="http://www.w3.org/2000/svg">
<path opacity="0.35" fill-rule="evenodd" clip-rule="evenodd" d="M5.46712 1.86691H23.2005C24.4891 1.86691 25.5338 2.91158 25.5338 4.20025V10.2669C25.5338 11.5556 24.4891 12.6002 23.2005 12.6002H5.46712C4.17846 12.6002 3.13379 11.5556 3.13379 10.2669V4.20025C3.13379 2.91158 4.17846 1.86691 5.46712 1.86691ZM5.46718 2.80041C4.69398 2.80041 4.06718 3.42721 4.06718 4.20041V10.2671C4.06718 11.0403 4.69398 11.6671 5.46718 11.6671H23.2005C23.9737 11.6671 24.6005 11.0403 24.6005 10.2671V4.20041C24.6005 3.42721 23.9737 2.80041 23.2005 2.80041H5.46718Z" fill="white"/>
<path opacity="0.4" fill-rule="evenodd" clip-rule="evenodd" d="M26.4673 4.9469C27.2983 5.37173 27.8673 6.23628 27.8673 7.2337C27.8673 8.23113 27.2983 9.09567 26.4673 9.5205V4.9469Z" fill="white"/>
<path fill-rule="evenodd" clip-rule="evenodd" d="M5.93382 3.73373H22.7338C23.2493 3.73373 23.6672 4.1516 23.6672 4.66707V9.8004C23.6672 10.3159 23.2493 10.7337 22.7338 10.7337H5.93382C5.41836 10.7337 5.00049 10.3159 5.00049 9.8004V4.66707C5.00049 4.1516 5.41836 3.73373 5.93382 3.73373Z" fill="white"/>
</svg>
