<svg width="20" height="20" viewBox="0 0 20 20" fill="none" xmlns="http://www.w3.org/2000/svg">
<path d="M18.3332 7.5V12.5C18.3332 14.5833 17.9165 16.0417 16.9832 16.9833L11.6665 11.6667L18.1082 5.22501C18.2582 5.88334 18.3332 6.63334 18.3332 7.5Z" stroke="#161616" stroke-width="1.5" stroke-linecap="round" stroke-linejoin="round"/>
<path d="M18.1082 5.22499L5.22483 18.1083C2.71649 17.5333 1.6665 15.8 1.6665 12.5V7.49999C1.6665 3.33332 3.33317 1.66666 7.49984 1.66666H12.4998C15.7998 1.66666 17.5332 2.71666 18.1082 5.22499Z" stroke="#161616" stroke-width="1.5" stroke-linecap="round" stroke-linejoin="round"/>
<path d="M16.9834 16.9833C16.0418 17.9167 14.5834 18.3333 12.5001 18.3333H7.50011C6.63344 18.3333 5.88343 18.2583 5.2251 18.1083L11.6668 11.6667L16.9834 16.9833Z" stroke="#161616" stroke-width="1.5" stroke-linecap="round" stroke-linejoin="round"/>
<path d="M5.20022 6.65001C5.76689 4.20834 9.43356 4.20834 10.0002 6.65001C10.3252 8.08334 9.42522 9.30001 8.63355 10.05C8.05855 10.6 7.15023 10.6 6.5669 10.05C5.77523 9.30001 4.86689 8.08334 5.20022 6.65001Z" stroke="#161616" stroke-width="1.5"/>
<path d="M7.57908 7.25001H7.58657" stroke="#161616" stroke-width="2" stroke-linecap="round" stroke-linejoin="round"/>
</svg>
