<svg width="358" height="83" viewBox="0 0 358 83" fill="none" xmlns="http://www.w3.org/2000/svg">
<g filter="url(#filter0_d_140_3779)">
<path d="M4 20C4 8.9543 12.9543 0 24 0H334C345.046 0 354 8.95431 354 20V55C354 66.0457 345.046 75 334 75H24C12.9543 75 4 66.0457 4 55V20Z" fill="#2A746E"/>
<path d="M167.532 24.3528C166.797 23.632 165.646 23.632 164.91 24.3528L155.667 33.4089C155.095 33.9692 154.771 34.7489 154.771 35.5644V46.5782C154.771 48.2164 156.053 49.5446 157.634 49.5446H160.496C162.077 49.5446 163.359 48.2164 163.359 46.5782V41.6342C163.359 41.0882 163.786 40.6454 164.313 40.6454H168.13C168.657 40.6454 169.084 41.0882 169.084 41.6342V46.5782C169.084 48.2164 170.366 49.5446 171.947 49.5446H174.809C176.39 49.5446 177.672 48.2164 177.672 46.5782V35.5644C177.672 34.7489 177.348 33.9692 176.776 33.4089L167.532 24.3528Z" fill="white"/>
<path d="M216.794 23.8122H252.099V56.216H216.794V23.8122Z" fill="#2A746E"/>
<path d="M234.447 38.6639C235.61 38.6639 236.748 38.3472 237.716 37.7538C238.683 37.1603 239.438 36.3169 239.883 35.33C240.328 34.3432 240.445 33.2573 240.218 32.2097C239.991 31.1621 239.43 30.1998 238.607 29.4445C237.784 28.6892 236.736 28.1748 235.595 27.9665C234.453 27.7581 233.27 27.865 232.195 28.2738C231.12 28.6825 230.201 29.3748 229.554 30.2629C228.907 31.151 228.562 32.1952 228.562 33.2633C228.562 34.6956 229.182 36.0693 230.286 37.0821C231.389 38.0949 232.886 38.6639 234.447 38.6639Z" fill="white"/>
<path d="M243.273 52.1655C243.663 52.1655 244.037 52.0232 244.313 51.77C244.589 51.5168 244.744 51.1734 244.744 50.8153C244.744 48.3088 243.659 45.9048 241.728 44.1324C239.797 42.36 237.178 41.3642 234.447 41.3642C231.716 41.3642 229.096 42.36 227.165 44.1324C225.234 45.9048 224.149 48.3088 224.149 50.8153C224.149 51.1734 224.304 51.5168 224.58 51.77C224.856 52.0232 225.23 52.1655 225.62 52.1655H243.273Z" fill="white"/>
<path d="M296.469 52.4038C298.068 52.4038 299.404 51.3705 299.905 49.9258H293.034C293.535 51.3705 294.871 52.4038 296.469 52.4038ZM305.004 43.2181V37.5362C305.004 33.5504 302.34 30.1928 298.731 29.183C298.374 28.2687 297.501 27.6244 296.469 27.6244C295.438 27.6244 294.565 28.2687 294.208 29.183C290.599 30.194 287.935 33.5504 287.935 37.5362V43.2181L285.853 45.333C285.624 45.5647 285.496 45.8794 285.496 46.2089V47.4479C285.496 48.133 286.041 48.6869 286.715 48.6869H306.223C306.898 48.6869 307.443 48.133 307.443 47.4479V46.2089C307.443 45.8794 307.315 45.5647 307.085 45.333L305.004 43.2181Z" fill="white"/>
<path d="M85.9097 41.6819C85.9097 44.7955 85.9097 46.3523 86.5163 47.5416C87.05 48.5876 87.9015 49.4381 88.9488 49.9711C90.1395 50.5771 91.6982 50.5771 94.8155 50.5771H99.2684C102.386 50.5771 103.944 50.5771 105.135 49.9711C106.182 49.4381 107.034 48.5876 107.568 47.5416C108.174 46.3523 108.174 44.7955 108.174 41.6819V33.4136C108.174 32.3198 108.174 31.6659 108.094 31.1189C108.075 30.9859 108.051 30.8592 108.021 30.734C107.884 30.1668 107.659 29.6245 107.354 29.1271C107.01 28.566 106.529 28.0853 105.566 27.1237L103.825 25.3851C102.862 24.4235 102.381 23.9428 101.819 23.599C101.321 23.2942 100.778 23.0695 100.21 22.9333C100.085 22.9033 99.9582 22.8791 99.8251 22.8597C99.2774 22.7797 98.6228 22.7797 97.5277 22.7797H94.8155C91.6982 22.7797 90.1395 22.7797 88.9488 23.3857C87.9015 23.9187 87.05 24.7692 86.5163 25.8153C85.9097 27.0045 85.9097 28.5613 85.9097 31.6749V41.6819Z" fill="white"/>
<path d="M99.8251 22.8597V24.4476C99.8251 26.7828 99.8251 27.9504 100.28 28.8423C100.68 29.6269 101.319 30.2647 102.104 30.6645C102.997 31.1189 104.166 31.1189 106.504 31.1189L108.094 31.1189M99.8251 22.8597C99.2774 22.7797 98.6228 22.7797 97.5277 22.7797H94.8155C91.6982 22.7797 90.1395 22.7797 88.9488 23.3857C87.9015 23.9187 87.05 24.7692 86.5163 25.8153C85.9097 27.0045 85.9097 28.5613 85.9097 31.6749V41.6819C85.9097 44.7955 85.9097 46.3523 86.5163 47.5416C87.05 48.5876 87.9015 49.4381 88.9488 49.9711C90.1395 50.5771 91.6982 50.5771 94.8155 50.5771H99.2684C102.386 50.5771 103.944 50.5771 105.135 49.9711C106.182 49.4381 107.034 48.5876 107.568 47.5416C108.174 46.3523 108.174 44.7955 108.174 41.6819V33.4136C108.174 32.3198 108.174 31.6659 108.094 31.1189M99.8251 22.8597C99.9582 22.8791 100.085 22.9033 100.21 22.9333C100.778 23.0695 101.321 23.2942 101.819 23.599C102.381 23.9428 102.862 24.4235 103.825 25.3851L105.566 27.1237C106.529 28.0853 107.01 28.566 107.354 29.1271C107.659 29.6245 107.884 30.1668 108.021 30.734C108.051 30.8592 108.075 30.9859 108.094 31.1189" stroke="#2A746E" stroke-width="2" stroke-linecap="round" stroke-linejoin="round"/>
<path d="M51.82 32.4891C53.465 33.3294 54.5701 34.8847 54.5701 36.6783C54.5701 38.4719 53.465 40.0272 51.82 40.8676C52.3976 42.611 52.0711 44.505 50.8028 45.7718C49.5345 47.0386 47.6382 47.3522 45.8927 46.7877C45.0639 48.4308 43.4942 49.5346 41.6984 49.5346C39.9026 49.5346 38.3455 48.4308 37.5041 46.7877C35.7586 47.3522 33.8623 47.0386 32.594 45.7718C31.3257 44.505 31.0117 42.611 31.5894 40.8676C29.9443 40.0272 28.8267 38.4719 28.8267 36.6783C28.8267 34.8847 29.9443 33.3294 31.5894 32.4891C31.0117 30.7456 31.3257 28.8517 32.594 27.5849C33.8623 26.318 35.7586 25.9919 37.5167 26.5689C38.3455 24.9258 39.9026 23.822 41.6984 23.822C43.4942 23.822 45.0639 24.9258 45.8927 26.5689C47.6382 25.9919 49.5345 26.318 50.8028 27.5849C52.0711 28.8517 52.3976 30.7456 51.82 32.4891Z" fill="#EFAC46"/>
<path d="M37.5238 36.8733L40.3163 39.6595C41.6593 37.3138 43.518 35.3033 45.7522 33.7795L45.8731 33.6971M54.5701 36.6783C54.5701 34.8847 53.4651 33.3294 51.82 32.4891C52.3976 30.7456 52.0711 28.8517 50.8028 27.5849C49.5345 26.318 47.6382 25.9919 45.8927 26.5689C45.0639 24.9258 43.4942 23.822 41.6984 23.822C39.9026 23.822 38.3455 24.9258 37.5167 26.5689C35.7586 25.9919 33.8623 26.318 32.594 27.5849C31.3257 28.8517 31.0117 30.7456 31.5894 32.4891C29.9443 33.3294 28.8267 34.8847 28.8267 36.6783C28.8267 38.4719 29.9443 40.0272 31.5894 40.8676C31.0117 42.611 31.3257 44.505 32.594 45.7718C33.8623 47.0386 35.7586 47.3522 37.5041 46.7877C38.3455 48.4308 39.9026 49.5346 41.6984 49.5346C43.4942 49.5346 45.0639 48.4308 45.8927 46.7877C47.6382 47.3522 49.5345 47.0386 50.8028 45.7718C52.0711 44.505 52.3976 42.611 51.82 40.8676C53.4651 40.0272 54.5701 38.4719 54.5701 36.6783Z" stroke="#2A746E" stroke-width="2" stroke-linecap="round" stroke-linejoin="round"/>
</g>
<defs>
<filter id="filter0_d_140_3779" x="0" y="0" width="358" height="83" filterUnits="userSpaceOnUse" color-interpolation-filters="sRGB">
<feFlood flood-opacity="0" result="BackgroundImageFix"/>
<feColorMatrix in="SourceAlpha" type="matrix" values="0 0 0 0 0 0 0 0 0 0 0 0 0 0 0 0 0 0 127 0" result="hardAlpha"/>
<feOffset dy="4"/>
<feGaussianBlur stdDeviation="2"/>
<feComposite in2="hardAlpha" operator="out"/>
<feColorMatrix type="matrix" values="0 0 0 0 0 0 0 0 0 0 0 0 0 0 0 0 0 0 0.25 0"/>
<feBlend mode="normal" in2="BackgroundImageFix" result="effect1_dropShadow_140_3779"/>
<feBlend mode="normal" in="SourceGraphic" in2="effect1_dropShadow_140_3779" result="shape"/>
</filter>
</defs>
</svg>
