<svg width="358" height="83" viewBox="0 0 358 83" fill="none" xmlns="http://www.w3.org/2000/svg">
<g filter="url(#filter0_d_140_3656)">
<path d="M4 20C4 8.9543 12.9543 0 24 0H334C345.046 0 354 8.95431 354 20V55C354 66.0457 345.046 75 334 75H24C12.9543 75 4 66.0457 4 55V20Z" fill="#2A746E"/>
<path d="M180.532 22.3528C179.797 21.632 178.646 21.632 177.91 22.3528L168.667 31.4089C168.095 31.9692 167.771 32.7489 167.771 33.5644V44.5782C167.771 46.2164 169.053 47.5446 170.634 47.5446H173.496C175.077 47.5446 176.359 46.2164 176.359 44.5782V39.6342C176.359 39.0881 176.786 38.6454 177.313 38.6454H181.13C181.657 38.6454 182.084 39.0881 182.084 39.6342V44.5782C182.084 46.2164 183.366 47.5446 184.947 47.5446H187.809C189.39 47.5446 190.672 46.2164 190.672 44.5782V33.5644C190.672 32.7489 190.348 31.9692 189.776 31.4089L180.532 22.3528Z" fill="#EFAC46"/>
<path d="M229.794 21.8122H265.099V54.216H229.794V21.8122Z" fill="#2A746E"/>
<path d="M247.447 36.6639C248.61 36.6639 249.748 36.3472 250.716 35.7538C251.683 35.1603 252.438 34.3169 252.883 33.33C253.328 32.3432 253.445 31.2573 253.218 30.2097C252.991 29.1621 252.43 28.1998 251.607 27.4445C250.784 26.6892 249.736 26.1748 248.595 25.9664C247.453 25.7581 246.27 25.865 245.195 26.2738C244.12 26.6825 243.201 27.3747 242.554 28.2629C241.907 29.151 241.562 30.1952 241.562 31.2633C241.562 32.6956 242.182 34.0693 243.286 35.0821C244.389 36.0949 245.886 36.6639 247.447 36.6639Z" fill="white"/>
<path d="M256.273 50.1655C256.663 50.1655 257.037 50.0232 257.313 49.77C257.589 49.5168 257.744 49.1734 257.744 48.8153C257.744 46.3087 256.659 43.9048 254.728 42.1324C252.797 40.36 250.178 39.3642 247.447 39.3642C244.716 39.3642 242.096 40.36 240.165 42.1324C238.234 43.9048 237.149 46.3087 237.149 48.8153C237.149 49.1734 237.304 49.5168 237.58 49.77C237.856 50.0232 238.23 50.1655 238.62 50.1655H256.273Z" fill="white"/>
<path d="M309.469 50.4038C311.068 50.4038 312.404 49.3705 312.905 47.9258H306.034C306.535 49.3705 307.871 50.4038 309.469 50.4038ZM318.004 41.2181V35.5361C318.004 31.5504 315.34 28.1928 311.731 27.183C311.374 26.2687 310.501 25.6244 309.469 25.6244C308.438 25.6244 307.565 26.2687 307.208 27.183C303.599 28.194 300.935 31.5504 300.935 35.5361V41.2181L298.853 43.333C298.624 43.5647 298.496 43.8794 298.496 44.2089V45.4479C298.496 46.133 299.041 46.6869 299.715 46.6869H319.223C319.898 46.6869 320.443 46.133 320.443 45.4479V44.2089C320.443 43.8794 320.315 43.5647 320.085 43.333L318.004 41.2181Z" fill="white"/>
<path d="M98.9097 39.6819C98.9097 42.7955 98.9097 44.3523 99.5163 45.5416C100.05 46.5876 100.902 47.4381 101.949 47.9711C103.14 48.5771 104.698 48.5771 107.816 48.5771H112.268C115.386 48.5771 116.944 48.5771 118.135 47.9711C119.182 47.4381 120.034 46.5876 120.568 45.5416C121.174 44.3523 121.174 42.7955 121.174 39.6819V31.4136C121.174 30.3198 121.174 29.6659 121.094 29.1189C121.075 28.9859 121.051 28.8592 121.021 28.734C120.884 28.1668 120.659 27.6245 120.354 27.1271C120.01 26.566 119.529 26.0853 118.566 25.1237L116.825 23.3851C115.862 22.4235 115.381 21.9428 114.819 21.599C114.321 21.2942 113.778 21.0695 113.21 20.9333C113.085 20.9033 112.958 20.8791 112.825 20.8597C112.277 20.7797 111.623 20.7797 110.528 20.7797H107.816C104.698 20.7797 103.14 20.7797 101.949 21.3857C100.902 21.9187 100.05 22.7692 99.5163 23.8153C98.9097 25.0045 98.9097 26.5613 98.9097 29.6749V39.6819Z" fill="white"/>
<path d="M112.825 20.8597V22.4476C112.825 24.7828 112.825 25.9504 113.28 26.8423C113.68 27.6269 114.319 28.2647 115.104 28.6645C115.997 29.1189 117.166 29.1189 119.504 29.1189L121.094 29.1189M112.825 20.8597C112.277 20.7797 111.623 20.7797 110.528 20.7797H107.816C104.698 20.7797 103.14 20.7797 101.949 21.3857C100.902 21.9187 100.05 22.7692 99.5163 23.8153C98.9097 25.0045 98.9097 26.5613 98.9097 29.6749V39.6819C98.9097 42.7955 98.9097 44.3523 99.5163 45.5416C100.05 46.5876 100.902 47.4381 101.949 47.9711C103.14 48.5771 104.698 48.5771 107.816 48.5771H112.268C115.386 48.5771 116.944 48.5771 118.135 47.9711C119.182 47.4381 120.034 46.5876 120.568 45.5416C121.174 44.3523 121.174 42.7955 121.174 39.6819V31.4136C121.174 30.3198 121.174 29.6659 121.094 29.1189M112.825 20.8597C112.958 20.8791 113.085 20.9033 113.21 20.9333C113.778 21.0695 114.321 21.2942 114.819 21.599C115.381 21.9428 115.862 22.4235 116.825 23.3851L118.566 25.1237C119.529 26.0853 120.01 26.566 120.354 27.1271C120.659 27.6245 120.884 28.1668 121.021 28.734C121.051 28.8592 121.075 28.9859 121.094 29.1189" stroke="#2A746E" stroke-width="2" stroke-linecap="round" stroke-linejoin="round"/>
<path d="M64.82 30.4891C66.465 31.3294 67.5701 32.8847 67.5701 34.6783C67.5701 36.4719 66.465 38.0272 64.82 38.8676C65.3976 40.611 65.0711 42.505 63.8028 43.7718C62.5345 45.0386 60.6382 45.3522 58.8927 44.7877C58.0639 46.4308 56.4942 47.5346 54.6984 47.5346C52.9026 47.5346 51.3455 46.4308 50.5041 44.7877C48.7586 45.3522 46.8623 45.0386 45.594 43.7718C44.3257 42.505 44.0117 40.611 44.5894 38.8676C42.9443 38.0272 41.8267 36.4719 41.8267 34.6783C41.8267 32.8847 42.9443 31.3294 44.5894 30.4891C44.0117 28.7456 44.3257 26.8517 45.594 25.5849C46.8623 24.318 48.7586 23.9919 50.5167 24.5689C51.3455 22.9258 52.9026 21.822 54.6984 21.822C56.4942 21.822 58.0639 22.9258 58.8927 24.5689C60.6382 23.9919 62.5345 24.318 63.8028 25.5849C65.0711 26.8517 65.3976 28.7456 64.82 30.4891Z" fill="white"/>
<path d="M50.5238 34.8733L53.3163 37.6595C54.6593 35.3138 56.518 33.3033 58.7522 31.7795L58.8731 31.6971M67.5701 34.6783C67.5701 32.8847 66.4651 31.3294 64.82 30.4891C65.3976 28.7456 65.0711 26.8517 63.8028 25.5849C62.5345 24.318 60.6382 23.9919 58.8927 24.5689C58.0639 22.9258 56.4942 21.822 54.6984 21.822C52.9026 21.822 51.3455 22.9258 50.5167 24.5689C48.7586 23.9919 46.8623 24.318 45.594 25.5849C44.3257 26.8517 44.0117 28.7456 44.5894 30.4891C42.9443 31.3294 41.8267 32.8847 41.8267 34.6783C41.8267 36.4719 42.9443 38.0272 44.5894 38.8676C44.0117 40.611 44.3257 42.505 45.594 43.7718C46.8623 45.0386 48.7586 45.3522 50.5041 44.7877C51.3455 46.4308 52.9026 47.5346 54.6984 47.5346C56.4942 47.5346 58.0639 46.4308 58.8927 44.7877C60.6382 45.3522 62.5345 45.0386 63.8028 43.7718C65.0711 42.505 65.3976 40.611 64.82 38.8676C66.4651 38.0272 67.5701 36.4719 67.5701 34.6783Z" stroke="#2A746E" stroke-width="2" stroke-linecap="round" stroke-linejoin="round"/>
</g>
<defs>
<filter id="filter0_d_140_3656" x="0" y="0" width="358" height="83" filterUnits="userSpaceOnUse" color-interpolation-filters="sRGB">
<feFlood flood-opacity="0" result="BackgroundImageFix"/>
<feColorMatrix in="SourceAlpha" type="matrix" values="0 0 0 0 0 0 0 0 0 0 0 0 0 0 0 0 0 0 127 0" result="hardAlpha"/>
<feOffset dy="4"/>
<feGaussianBlur stdDeviation="2"/>
<feComposite in2="hardAlpha" operator="out"/>
<feColorMatrix type="matrix" values="0 0 0 0 0 0 0 0 0 0 0 0 0 0 0 0 0 0 0.25 0"/>
<feBlend mode="normal" in2="BackgroundImageFix" result="effect1_dropShadow_140_3656"/>
<feBlend mode="normal" in="SourceGraphic" in2="effect1_dropShadow_140_3656" result="shape"/>
</filter>
</defs>
</svg>
