<svg width="15" height="15" viewBox="0 0 15 15" fill="none" xmlns="http://www.w3.org/2000/svg">
<path d="M0.41953 0.421128C0.286535 0.553921 0.181027 0.711627 0.10904 0.885227C0.0370529 1.05883 0 1.24491 0 1.43284C0 1.62077 0.0370529 1.80686 0.10904 1.98046C0.181027 2.15406 0.286535 2.31177 0.41953 2.44456L5.47679 7.50127L0.41953 12.553C0.286655 12.6858 0.181253 12.8436 0.109341 13.0172C0.0374299 13.1907 0.000417812 13.3768 0.000417809 13.5647C0.000417806 13.7526 0.0374299 13.9386 0.109341 14.1122C0.181253 14.2858 0.286655 14.4435 0.41953 14.5764C0.552405 14.7093 0.710151 14.8147 0.88376 14.8866C1.05737 14.9585 1.24344 14.9955 1.43136 14.9955C1.61927 14.9955 1.80534 14.9585 1.97895 14.8866C2.15256 14.8147 2.31031 14.7093 2.44318 14.5764L7.50045 9.5197L12.5527 14.5802C12.6858 14.7133 12.8439 14.8188 13.0178 14.8909C13.1917 14.9629 13.3781 15 13.5664 15C13.7547 15 13.9411 14.9629 14.115 14.8909C14.2889 14.8188 14.447 14.7133 14.5801 14.5802C14.7132 14.4471 14.8188 14.289 14.8909 14.1151C14.9629 13.9412 15 13.7548 15 13.5666C15 13.3783 14.9629 13.1919 14.8909 13.018C14.8188 12.8441 14.7132 12.6861 14.5801 12.553L9.52285 7.49627L14.5801 2.43956C14.8478 2.17074 14.9977 1.8066 14.9969 1.42725C14.9961 1.0479 14.8446 0.684414 14.5757 0.416753C14.3069 0.149092 13.9427 -0.000816994 13.5633 3.34919e-06C13.1839 0.000823692 12.8204 0.152307 12.5527 0.421128L7.49545 5.47783L2.44194 0.421128C2.30915 0.288334 2.1515 0.182996 1.978 0.111128C1.8045 0.0392593 1.61853 0.00226857 1.43073 0.00226857C1.24293 0.00226857 1.05697 0.0392593 0.883464 0.111128C0.709961 0.182996 0.552315 0.288334 0.41953 0.421128Z" fill="white"/>
</svg>
