<svg width="18" height="18" viewBox="0 0 18 18" fill="none" xmlns="http://www.w3.org/2000/svg">
<path fill-rule="evenodd" clip-rule="evenodd" d="M8.59814 17.6622C13.2926 17.6622 17.0981 13.8565 17.0981 9.16217C17.0981 4.46783 13.2926 0.66217 8.59814 0.66217C3.90372 0.66217 0.0981445 4.46783 0.0981445 9.16217C0.0981445 13.8565 3.90372 17.6622 8.59814 17.6622ZM12.3638 5.39655C12.6763 5.7088 12.6763 6.21539 12.3638 6.52789L9.72952 9.16217L12.3638 11.7964C12.6762 12.1089 12.6762 12.6155 12.3638 12.9278C12.0514 13.2403 11.5449 13.2403 11.2325 12.9278L8.59814 10.2935L5.96384 12.9278C5.65143 13.2403 5.1449 13.2403 4.83246 12.9278C4.52005 12.6155 4.52005 12.1089 4.83246 11.7964L7.46677 9.16217L4.83246 6.52789C4.52005 6.21539 4.52005 5.7088 4.83246 5.39655C5.14487 5.08405 5.6514 5.08405 5.96384 5.39655L8.59814 8.03082L11.2325 5.39655C11.5449 5.08405 12.0514 5.08405 12.3638 5.39655Z" fill="#8E8E93"/>
</svg>
