<svg width="16" height="17" viewBox="0 0 16 17" fill="none" xmlns="http://www.w3.org/2000/svg">
<path d="M15.9512 7.035C15.8968 6.85253 15.7922 6.68903 15.6493 6.56314C15.5065 6.43725 15.3311 6.35404 15.1432 6.323L10.8282 5.668L8.90022 1.584C8.82346 1.40925 8.69748 1.26062 8.53766 1.15626C8.37784 1.05191 8.19109 0.996338 8.00022 0.996338C7.80935 0.996338 7.6226 1.05191 7.46278 1.15626C7.30296 1.26062 7.17698 1.40925 7.10022 1.584L5.17222 5.668L0.85722 6.323C0.669263 6.35382 0.493786 6.43695 0.350885 6.56287C0.207983 6.68879 0.103437 6.85242 0.0492201 7.035C-0.00924693 7.21974 -0.0167905 7.41683 0.0273844 7.6055C0.0715594 7.79417 0.165816 7.96742 0.30022 8.107L3.42322 11.287L2.68622 15.777C2.6541 15.9678 2.67434 16.1637 2.74478 16.3438C2.81522 16.524 2.93323 16.6816 3.08622 16.8C3.23497 16.9143 3.41386 16.9827 3.60093 16.9967C3.78799 17.0107 3.97508 16.9698 4.13922 16.879L8.00022 14.76L11.8602 16.88C12.0245 16.9708 12.2118 17.0117 12.399 16.9976C12.5862 16.9836 12.7653 16.9153 12.9142 16.801C13.0672 16.6826 13.1852 16.525 13.2557 16.3448C13.3261 16.1647 13.3463 15.9688 13.3142 15.778L12.5772 11.288L15.7002 8.107C15.8343 7.96719 15.9283 7.79394 15.9724 7.60535C16.0166 7.41677 16.0093 7.21979 15.9512 7.035Z" fill="#FFCC00"/>
</svg>
