<svg width="245" height="36" viewBox="0 0 245 36" fill="none" xmlns="http://www.w3.org/2000/svg">
<path d="M35.8902 13.579C35.7673 13.1689 35.5318 12.8015 35.2104 12.5186C34.889 12.2357 34.4946 12.0488 34.0722 11.979L24.3632 10.5L20.0202 1.31299C19.8465 0.922125 19.5632 0.590031 19.2046 0.356953C18.8459 0.123874 18.4274 -0.000183105 17.9997 -0.000183105C17.572 -0.000183105 17.1535 0.123874 16.7948 0.356953C16.4362 0.590031 16.1529 0.922125 15.9792 1.31299L11.6382 10.5L1.92919 11.976C1.50651 12.0451 1.11183 12.2318 0.790315 12.5148C0.468802 12.7977 0.233449 13.1655 0.111194 13.576C-0.0197178 13.9921 -0.0358632 14.4358 0.0644617 14.8604C0.164786 15.2849 0.37786 15.6745 0.681194 15.988L7.70719 23.142L6.04919 33.242C5.97733 33.6709 6.02308 34.1113 6.18155 34.5163C6.34003 34.9213 6.60531 35.2757 6.94919 35.542C7.28384 35.7995 7.68642 35.9536 8.10746 35.9854C8.52851 36.0172 8.94967 35.9253 9.31919 35.721L18.0002 30.959L26.6842 35.729C27.0541 35.9333 27.4755 36.0253 27.8969 35.9935C28.3183 35.9617 28.7212 35.8075 29.0562 35.55C29.4001 35.2837 29.6654 34.9293 29.8238 34.5243C29.9823 34.1193 30.0281 33.6789 29.9562 33.25L28.2982 23.15L35.3242 15.996C35.6269 15.6811 35.8392 15.2904 35.9388 14.8651C36.0384 14.4398 36.0216 13.9956 35.8902 13.579Z" fill="#FFCC00"/>
<path d="M87.8902 13.579C87.7673 13.1689 87.5318 12.8015 87.2104 12.5186C86.889 12.2357 86.4946 12.0488 86.0722 11.979L76.3632 10.5L72.0202 1.31299C71.8465 0.922125 71.5632 0.590031 71.2046 0.356953C70.8459 0.123874 70.4274 -0.000183105 69.9997 -0.000183105C69.572 -0.000183105 69.1535 0.123874 68.7948 0.356953C68.4362 0.590031 68.1529 0.922125 67.9792 1.31299L63.6382 10.5L53.9292 11.976C53.5065 12.0451 53.1118 12.2318 52.7903 12.5148C52.4688 12.7977 52.2334 13.1655 52.1112 13.576C51.9803 13.9921 51.9641 14.4358 52.0645 14.8604C52.1648 15.2849 52.3779 15.6745 52.6812 15.988L59.7072 23.142L58.0492 33.242C57.9773 33.6709 58.0231 34.1113 58.1816 34.5163C58.34 34.9213 58.6053 35.2757 58.9492 35.542C59.2838 35.7995 59.6864 35.9536 60.1075 35.9854C60.5285 36.0172 60.9497 35.9253 61.3192 35.721L70.0002 30.959L78.6842 35.729C79.0541 35.9333 79.4755 36.0253 79.8969 35.9935C80.3183 35.9617 80.7212 35.8075 81.0562 35.55C81.4001 35.2837 81.6654 34.9293 81.8238 34.5243C81.9823 34.1193 82.0281 33.6789 81.9562 33.25L80.2982 23.15L87.3242 15.996C87.6269 15.6811 87.8392 15.2904 87.9388 14.8651C88.0384 14.4398 88.0216 13.9956 87.8902 13.579Z" fill="#FFCC00"/>
<path d="M139.89 13.579C139.767 13.1689 139.532 12.8015 139.21 12.5186C138.889 12.2357 138.495 12.0488 138.072 11.979L128.363 10.5L124.02 1.31299C123.847 0.922125 123.563 0.590031 123.205 0.356953C122.846 0.123874 122.427 -0.000183105 122 -0.000183105C121.572 -0.000183105 121.153 0.123874 120.795 0.356953C120.436 0.590031 120.153 0.922125 119.979 1.31299L115.638 10.5L105.929 11.976C105.507 12.0451 105.112 12.2318 104.79 12.5148C104.469 12.7977 104.233 13.1655 104.111 13.576C103.98 13.9921 103.964 14.4358 104.064 14.8604C104.165 15.2849 104.378 15.6745 104.681 15.988L111.707 23.142L110.049 33.242C109.977 33.6709 110.023 34.1113 110.182 34.5163C110.34 34.9213 110.605 35.2757 110.949 35.542C111.284 35.7995 111.686 35.9536 112.107 35.9854C112.529 36.0172 112.95 35.9253 113.319 35.721L122 30.959L130.684 35.729C131.054 35.9333 131.476 36.0253 131.897 35.9935C132.318 35.9617 132.721 35.8075 133.056 35.55C133.4 35.2837 133.665 34.9293 133.824 34.5243C133.982 34.1193 134.028 33.6789 133.956 33.25L132.298 23.15L139.324 15.996C139.627 15.6811 139.839 15.2904 139.939 14.8651C140.038 14.4398 140.022 13.9956 139.89 13.579Z" fill="#FFCC00"/>
<path d="M191.89 13.579C191.767 13.1689 191.532 12.8015 191.21 12.5186C190.889 12.2357 190.495 12.0488 190.072 11.979L180.363 10.5L176.02 1.31299C175.847 0.922125 175.563 0.590031 175.205 0.356953C174.846 0.123874 174.427 -0.000183105 174 -0.000183105C173.572 -0.000183105 173.153 0.123874 172.795 0.356953C172.436 0.590031 172.153 0.922125 171.979 1.31299L167.638 10.5L157.929 11.976C157.507 12.0451 157.112 12.2318 156.79 12.5148C156.469 12.7977 156.233 13.1655 156.111 13.576C155.98 13.9921 155.964 14.4358 156.064 14.8604C156.165 15.2849 156.378 15.6745 156.681 15.988L163.707 23.142L162.049 33.242C161.977 33.6709 162.023 34.1113 162.182 34.5163C162.34 34.9213 162.605 35.2757 162.949 35.542C163.284 35.7995 163.686 35.9536 164.107 35.9854C164.529 36.0172 164.95 35.9253 165.319 35.721L174 30.959L182.684 35.729C183.054 35.9333 183.476 36.0253 183.897 35.9935C184.318 35.9617 184.721 35.8075 185.056 35.55C185.4 35.2837 185.665 34.9293 185.824 34.5243C185.982 34.1193 186.028 33.6789 185.956 33.25L184.298 23.15L191.324 15.996C191.627 15.6811 191.839 15.2904 191.939 14.8651C192.038 14.4398 192.022 13.9956 191.89 13.579Z" fill="#FFCC00"/>
<path d="M243.89 13.579C243.767 13.1689 243.532 12.8015 243.21 12.5186C242.889 12.2357 242.495 12.0488 242.072 11.979L232.363 10.5L228.02 1.31299C227.847 0.922125 227.563 0.590031 227.205 0.356953C226.846 0.123874 226.427 -0.000183105 226 -0.000183105C225.572 -0.000183105 225.153 0.123874 224.795 0.356953C224.436 0.590031 224.153 0.922125 223.979 1.31299L219.638 10.5L209.929 11.976C209.507 12.0451 209.112 12.2318 208.79 12.5148C208.469 12.7977 208.233 13.1655 208.111 13.576C207.98 13.9921 207.964 14.4358 208.064 14.8604C208.165 15.2849 208.378 15.6745 208.681 15.988L215.707 23.142L214.049 33.242C213.977 33.6709 214.023 34.1113 214.182 34.5163C214.34 34.9213 214.605 35.2757 214.949 35.542C215.284 35.7995 215.686 35.9536 216.107 35.9854C216.529 36.0172 216.95 35.9253 217.319 35.721L226 30.959L234.684 35.729C235.054 35.9333 235.476 36.0253 235.897 35.9935C236.318 35.9617 236.721 35.8075 237.056 35.55C237.4 35.2837 237.665 34.9293 237.824 34.5243C237.982 34.1193 238.028 33.6789 237.956 33.25L236.298 23.15L243.324 15.996C243.627 15.6811 243.839 15.2904 243.939 14.8651C244.038 14.4398 244.022 13.9956 243.89 13.579Z" fill="#F2F2F2"/>
</svg>
