<svg width="40" height="40" viewBox="0 0 40 40" fill="none" xmlns="http://www.w3.org/2000/svg">
<path d="M26.6666 1.66669C27.5871 1.66669 28.3333 2.41289 28.3333 3.33335V4.99835L36.6666 5.00002V15L33.2999 14.9984L37.9111 27.6589C38.1841 28.3867 38.3333 29.1752 38.3333 29.9984C38.3333 33.6804 35.3484 36.665 31.6666 36.665C28.5613 36.665 25.9518 34.5419 25.2108 31.668H18.1229C17.3824 34.5427 14.7725 36.6667 11.6666 36.6667C8.42514 36.6667 5.724 34.3534 5.12414 31.2875C4.05922 30.7317 3.33325 29.6174 3.33325 28.3334V20H18.3333C18.3333 20.8547 18.9766 21.5592 19.8056 21.6555L19.9999 21.6667H23.3333C24.1879 21.6667 24.8924 21.0234 24.9888 20.1944L24.9999 20V5.00002H19.9999V1.66669H26.6666ZM11.6666 26.6667C9.82564 26.6667 8.33325 28.159 8.33325 30C8.33325 31.841 9.82564 33.3334 11.6666 33.3334C13.5075 33.3334 14.9999 31.841 14.9999 30C14.9999 28.159 13.5075 26.6667 11.6666 26.6667ZM31.6666 26.6667C29.8256 26.6667 28.3333 28.159 28.3333 30C28.3333 31.841 29.8256 33.3334 31.6666 33.3334C33.5076 33.3334 34.9999 31.841 34.9999 30C34.9999 28.159 33.5076 26.6667 31.6666 26.6667ZM16.6666 5.00002C17.5871 5.00002 18.3333 5.74622 18.3333 6.66669V18.3334H3.33325V6.66669C3.33325 5.74622 4.07945 5.00002 4.99992 5.00002H16.6666ZM33.3333 8.33335H28.3333V11.6667H33.3333V8.33335ZM14.9999 8.33335H6.66659V10H14.9999V8.33335Z" fill="black"/>
</svg>
