<svg width="42" height="43" viewBox="0 0 42 43" fill="none" xmlns="http://www.w3.org/2000/svg">
<path d="M36.7268 14.6639C39.2829 15.9696 41 18.3862 41 21.1731C41 23.96 39.2829 26.3766 36.7268 27.6824C37.6244 30.3913 37.1171 33.3341 35.1463 35.3025C33.1756 37.2708 30.2293 37.7581 27.5171 36.8811C26.2293 39.4341 23.7902 41.1491 21 41.1491C18.2098 41.1491 15.7902 39.4341 14.4829 36.8811C11.7707 37.7581 8.82439 37.2708 6.85366 35.3025C4.88293 33.3341 4.39512 30.3913 5.29268 27.6824C2.73659 26.3766 1 23.96 1 21.1731C1 18.3862 2.73659 15.9696 5.29268 14.6639C4.39512 11.955 4.88293 9.01216 6.85366 7.0438C8.82439 5.07543 11.7707 4.56873 14.5024 5.46521C15.7902 2.91218 18.2098 1.19717 21 1.19717C23.7902 1.19717 26.2293 2.91218 27.5171 5.46521C30.2293 4.56873 33.1756 5.07543 35.1463 7.0438C37.1171 9.01216 37.6244 11.955 36.7268 14.6639Z" fill="#EFAC46"/>
<path d="M14.5136 21.4762L18.8525 25.8052C20.9393 22.1606 23.8273 19.0367 27.2988 16.669L27.4865 16.541M41 21.1731C41 18.3862 39.2829 15.9696 36.7268 14.6639C37.6244 11.955 37.1171 9.01216 35.1463 7.0438C33.1756 5.07543 30.2293 4.56873 27.5171 5.46521C26.2293 2.91218 23.7902 1.19717 21 1.19717C18.2098 1.19717 15.7902 2.91218 14.5024 5.46521C11.7707 4.56873 8.82439 5.07543 6.85366 7.0438C4.88293 9.01216 4.39512 11.955 5.29268 14.6639C2.73659 15.9696 1 18.3862 1 21.1731C1 23.96 2.73659 26.3766 5.29268 27.6824C4.39512 30.3913 4.88293 33.3341 6.85366 35.3025C8.82439 37.2708 11.7707 37.7581 14.4829 36.8811C15.7902 39.4341 18.2098 41.1491 21 41.1491C23.7902 41.1491 26.2293 39.4341 27.5171 36.8811C30.2293 37.7581 33.1756 37.2708 35.1463 35.3025C37.1171 33.3341 37.6244 30.3913 36.7268 27.6824C39.2829 26.3766 41 23.96 41 21.1731Z" stroke="#EFAC46" stroke-width="2" stroke-linecap="round" stroke-linejoin="round"/>
</svg>
