<svg width="16" height="12" viewBox="0 0 16 12" fill="none" xmlns="http://www.w3.org/2000/svg">
<path fill-rule="evenodd" clip-rule="evenodd" d="M7.88144 2.60802C10.0737 2.60811 12.1821 3.45955 13.7709 4.98635C13.8906 5.10422 14.0818 5.10274 14.1997 4.98301L15.3433 3.81635C15.403 3.75563 15.4362 3.67337 15.4358 3.58779C15.4353 3.50221 15.401 3.42036 15.3407 3.36035C11.1705 -0.679198 4.59168 -0.679198 0.42154 3.36035C0.361132 3.42032 0.326858 3.50214 0.326301 3.58772C0.325744 3.67331 0.35895 3.75558 0.418571 3.81635L1.56257 4.98301C1.68033 5.10292 1.87171 5.1044 1.99128 4.98635C3.5803 3.45945 5.68897 2.60801 7.88144 2.60802ZM7.88145 6.40368C9.08595 6.40361 10.2475 6.85614 11.1403 7.67335C11.2611 7.78933 11.4513 7.78681 11.569 7.66768L12.7114 6.50101C12.7715 6.43982 12.8049 6.3568 12.804 6.27054C12.8032 6.18427 12.7681 6.10196 12.7067 6.04202C9.98787 3.48563 5.77734 3.48563 3.05846 6.04202C2.99704 6.10196 2.962 6.18431 2.9612 6.27061C2.96039 6.3569 2.99389 6.43991 3.05417 6.50101L4.19619 7.66768C4.31391 7.78681 4.50414 7.78933 4.6249 7.67335C5.51715 6.85668 6.67774 6.40419 7.88145 6.40368ZM10.1698 8.9575C10.1715 9.04401 10.1379 9.12741 10.0768 9.18802L8.10075 11.2037C8.04282 11.2629 7.96385 11.2963 7.88145 11.2963C7.79905 11.2963 7.72007 11.2629 7.66215 11.2037L5.68579 9.18802C5.62474 9.12736 5.59115 9.04394 5.59297 8.95743C5.59478 8.87092 5.63182 8.789 5.69536 8.73102C6.95732 7.65213 8.80558 7.65213 10.0675 8.73102C10.131 8.78905 10.168 8.87099 10.1698 8.9575Z" fill="white"/>
</svg>
