<svg width="16" height="12" viewBox="0 0 16 12" fill="none" xmlns="http://www.w3.org/2000/svg">
<path fill-rule="evenodd" clip-rule="evenodd" d="M8.29483 2.60802C10.4694 2.60811 12.5607 3.45955 14.1367 4.98635C14.2554 5.10422 14.4451 5.10274 14.5619 4.98301L15.6964 3.81635C15.7555 3.75563 15.7885 3.67337 15.788 3.58779C15.7876 3.50221 15.7536 3.42036 15.6937 3.36035C11.5573 -0.679198 5.03167 -0.679198 0.895257 3.36035C0.835338 3.42032 0.801341 3.50214 0.800788 3.58772C0.800236 3.67331 0.833173 3.75558 0.892313 3.81635L2.02706 4.98301C2.14387 5.10292 2.3337 5.1044 2.4523 4.98635C4.02847 3.45945 6.12009 2.60801 8.29483 2.60802ZM8.29483 6.40368C9.48959 6.40361 10.6417 6.85614 11.5273 7.67335C11.6471 7.78933 11.8358 7.78681 11.9526 7.66768L13.0857 6.50102C13.1454 6.43982 13.1785 6.3568 13.1776 6.27054C13.1768 6.18427 13.142 6.10196 13.0811 6.04202C10.3842 3.48563 6.20773 3.48563 3.51083 6.04202C3.44991 6.10196 3.41515 6.18431 3.41435 6.27061C3.41355 6.3569 3.44678 6.43991 3.50657 6.50102L4.63936 7.66768C4.75613 7.78681 4.94482 7.78933 5.06461 7.67335C5.94964 6.85668 7.10086 6.40419 8.29483 6.40368ZM10.5647 8.9575C10.5664 9.04401 10.533 9.12741 10.4724 9.18802L8.51237 11.2037C8.45491 11.2629 8.37658 11.2963 8.29484 11.2963C8.2131 11.2963 8.13477 11.2629 8.07731 11.2037L6.11693 9.18802C6.05637 9.12736 6.02305 9.04394 6.02485 8.95743C6.02665 8.87092 6.06339 8.789 6.12641 8.73102C7.37818 7.65213 9.2115 7.65213 10.4633 8.73102C10.5262 8.78905 10.5629 8.87099 10.5647 8.9575Z" fill="black"/>
</svg>
