<svg width="16" height="12" viewBox="0 0 16 12" fill="none" xmlns="http://www.w3.org/2000/svg">
<path fill-rule="evenodd" clip-rule="evenodd" d="M7.88132 2.60802C10.0736 2.60811 12.182 3.45955 13.7708 4.98635C13.8905 5.10422 14.0817 5.10274 14.1995 4.98301L15.3432 3.81635C15.4029 3.75563 15.4361 3.67337 15.4356 3.58779C15.4351 3.50221 15.4009 3.42036 15.3406 3.36035C11.1704 -0.679198 4.59155 -0.679198 0.421417 3.36035C0.36101 3.42032 0.326736 3.50214 0.326179 3.58772C0.325622 3.67331 0.358828 3.75558 0.418449 3.81635L1.56245 4.98301C1.68021 5.10292 1.87159 5.1044 1.99116 4.98635C3.58018 3.45945 5.68885 2.60801 7.88132 2.60802ZM7.88132 6.40368C9.08582 6.40361 10.2473 6.85614 11.1402 7.67335C11.2609 7.78933 11.4512 7.78681 11.5689 7.66768L12.7112 6.50101C12.7714 6.43982 12.8048 6.3568 12.8039 6.27054C12.803 6.18427 12.768 6.10196 12.7066 6.04202C9.98774 3.48563 5.77721 3.48563 3.05834 6.04202C2.99692 6.10196 2.96188 6.18431 2.96107 6.27061C2.96027 6.3569 2.99376 6.43991 3.05405 6.50101L4.19607 7.66768C4.31379 7.78681 4.50401 7.78933 4.62478 7.67335C5.51703 6.85668 6.67762 6.40419 7.88132 6.40368ZM10.1696 8.9575C10.1714 9.04401 10.1377 9.12741 10.0767 9.18802L8.10063 11.2037C8.0427 11.2629 7.96373 11.2963 7.88133 11.2963C7.79892 11.2963 7.71995 11.2629 7.66203 11.2037L5.68567 9.18802C5.62462 9.12736 5.59103 9.04394 5.59284 8.95743C5.59465 8.87092 5.6317 8.789 5.69524 8.73102C6.9572 7.65213 8.80546 7.65213 10.0674 8.73102C10.1309 8.78905 10.1679 8.87099 10.1696 8.9575Z" fill="white"/>
</svg>
