<svg width="40" height="40" viewBox="0 0 40 40" fill="none" xmlns="http://www.w3.org/2000/svg">
<path fill-rule="evenodd" clip-rule="evenodd" d="M20 40C31.0457 40 40 31.0457 40 20C40 8.9543 31.0457 0 20 0C8.9543 0 0 8.9543 0 20C0 31.0457 8.9543 40 20 40Z" fill="#2A746E"/>
<rect x="6" y="6" width="28" height="28" fill="#FF0000" fill-opacity="0.01"/>
<path d="M17.9213 14.0742C17.636 10.7934 14.2133 9.18356 14.0685 9.11786C13.9326 9.05364 13.7802 9.03423 13.6339 9.05962C9.68253 9.71519 9.08819 12.0149 9.06429 12.1105C9.03144 12.2449 9.03741 12.3838 9.07923 12.5137C13.7922 27.1364 23.587 29.8468 26.8066 30.7383C27.0545 30.807 27.2591 30.8623 27.4144 30.9131C27.489 30.9384 27.5667 30.9489 27.6443 30.9489C27.7504 30.9489 27.8564 30.9265 27.9535 30.8817C28.052 30.8369 30.3786 29.7408 30.9476 26.1658C30.973 26.0104 30.9476 25.8492 30.8759 25.7088C30.8251 25.6102 29.6081 23.2941 26.2331 22.4757C25.9972 22.4145 25.7553 22.4772 25.5731 22.6325C24.5083 23.542 23.0374 24.5111 22.4027 24.6112C18.1482 22.531 15.7723 18.5393 15.6827 17.7822C15.6305 17.3566 16.6056 15.8618 17.7271 14.6462C17.869 14.4924 17.9407 14.2833 17.9213 14.0742Z" fill="black"/>
<mask id="mask0_163_4366" style="mask-type:luminance" maskUnits="userSpaceOnUse" x="9" y="9" width="22" height="22">
<path d="M17.9213 14.0742C17.636 10.7934 14.2133 9.18356 14.0685 9.11786C13.9326 9.05364 13.7802 9.03423 13.6339 9.05962C9.68253 9.71519 9.08819 12.0149 9.06429 12.1105C9.03144 12.2449 9.03741 12.3838 9.07923 12.5137C13.7922 27.1364 23.587 29.8468 26.8066 30.7383C27.0545 30.807 27.2591 30.8623 27.4144 30.9131C27.489 30.9384 27.5667 30.9489 27.6443 30.9489C27.7504 30.9489 27.8564 30.9265 27.9535 30.8817C28.052 30.8369 30.3786 29.7408 30.9476 26.1658C30.973 26.0104 30.9476 25.8492 30.8759 25.7088C30.8251 25.6102 29.6081 23.2941 26.2331 22.4757C25.9972 22.4145 25.7553 22.4772 25.5731 22.6325C24.5083 23.542 23.0374 24.5111 22.4027 24.6112C18.1482 22.531 15.7723 18.5393 15.6827 17.7822C15.6305 17.3566 16.6056 15.8618 17.7271 14.6462C17.869 14.4924 17.9407 14.2833 17.9213 14.0742Z" fill="white"/>
</mask>
<g mask="url(#mask0_163_4366)">
<rect x="6" y="6" width="28" height="28" fill="white"/>
</g>
</svg>
