<svg width="18" height="12" viewBox="0 0 18 12" fill="none" xmlns="http://www.w3.org/2000/svg">
<path fill-rule="evenodd" clip-rule="evenodd" d="M16.6667 0.666504H15.6667C15.1145 0.666504 14.6667 1.11422 14.6667 1.6665V10.3332C14.6667 10.8855 15.1145 11.3332 15.6667 11.3332H16.6667C17.219 11.3332 17.6667 10.8855 17.6667 10.3332V1.6665C17.6667 1.11422 17.219 0.666504 16.6667 0.666504ZM11.0001 2.99984H12.0001C12.5524 2.99984 13.0001 3.44755 13.0001 3.99984V10.3332C13.0001 10.8855 12.5524 11.3332 12.0001 11.3332H11.0001C10.4478 11.3332 10.0001 10.8855 10.0001 10.3332V3.99984C10.0001 3.44755 10.4478 2.99984 11.0001 2.99984ZM7.33341 5.33317H6.33341C5.78113 5.33317 5.33341 5.78089 5.33341 6.33317V10.3332C5.33341 10.8855 5.78113 11.3332 6.33341 11.3332H7.33341C7.8857 11.3332 8.33341 10.8855 8.33341 10.3332V6.33317C8.33341 5.78089 7.8857 5.33317 7.33341 5.33317ZM2.66675 7.33317H1.66675C1.11446 7.33317 0.666748 7.78089 0.666748 8.33317V10.3332C0.666748 10.8855 1.11446 11.3332 1.66675 11.3332H2.66675C3.21903 11.3332 3.66675 10.8855 3.66675 10.3332V8.33317C3.66675 7.78089 3.21903 7.33317 2.66675 7.33317Z" fill="white"/>
</svg>
