<svg width="18" height="12" viewBox="0 0 18 12" fill="none" xmlns="http://www.w3.org/2000/svg">
<path fill-rule="evenodd" clip-rule="evenodd" d="M16.6665 0.666656H15.6665C15.1142 0.666656 14.6665 1.11437 14.6665 1.66666V10.3333C14.6665 10.8856 15.1142 11.3333 15.6665 11.3333H16.6665C17.2188 11.3333 17.6665 10.8856 17.6665 10.3333V1.66666C17.6665 1.11437 17.2188 0.666656 16.6665 0.666656ZM10.9998 2.99999H11.9998C12.5521 2.99999 12.9998 3.44771 12.9998 3.99999V10.3333C12.9998 10.8856 12.5521 11.3333 11.9998 11.3333H10.9998C10.4476 11.3333 9.99984 10.8856 9.99984 10.3333V3.99999C9.99984 3.44771 10.4476 2.99999 10.9998 2.99999ZM7.33317 5.33332H6.33317C5.78089 5.33332 5.33317 5.78104 5.33317 6.33332V10.3333C5.33317 10.8856 5.78089 11.3333 6.33317 11.3333H7.33317C7.88546 11.3333 8.33317 10.8856 8.33317 10.3333V6.33332C8.33317 5.78104 7.88546 5.33332 7.33317 5.33332ZM2.6665 7.33332H1.6665C1.11422 7.33332 0.666504 7.78104 0.666504 8.33332V10.3333C0.666504 10.8856 1.11422 11.3333 1.6665 11.3333H2.6665C3.21879 11.3333 3.6665 10.8856 3.6665 10.3333V8.33332C3.6665 7.78104 3.21879 7.33332 2.6665 7.33332Z" fill="white"/>
</svg>
