<svg width="18" height="12" viewBox="0 0 18 12" fill="none" xmlns="http://www.w3.org/2000/svg">
<path fill-rule="evenodd" clip-rule="evenodd" d="M16.6667 0.666748H15.6667C15.1145 0.666748 14.6667 1.11446 14.6667 1.66675V10.3334C14.6667 10.8857 15.1145 11.3334 15.6667 11.3334H16.6667C17.219 11.3334 17.6667 10.8857 17.6667 10.3334V1.66675C17.6667 1.11446 17.219 0.666748 16.6667 0.666748ZM11.0001 3.00008H12.0001C12.5524 3.00008 13.0001 3.4478 13.0001 4.00008V10.3334C13.0001 10.8857 12.5524 11.3334 12.0001 11.3334H11.0001C10.4478 11.3334 10.0001 10.8857 10.0001 10.3334V4.00008C10.0001 3.4478 10.4478 3.00008 11.0001 3.00008ZM7.33341 5.33341H6.33341C5.78113 5.33341 5.33341 5.78113 5.33341 6.33341V10.3334C5.33341 10.8857 5.78113 11.3334 6.33341 11.3334H7.33341C7.8857 11.3334 8.33341 10.8857 8.33341 10.3334V6.33341C8.33341 5.78113 7.8857 5.33341 7.33341 5.33341ZM2.66675 7.33341H1.66675C1.11446 7.33341 0.666748 7.78113 0.666748 8.33341V10.3334C0.666748 10.8857 1.11446 11.3334 1.66675 11.3334H2.66675C3.21903 11.3334 3.66675 10.8857 3.66675 10.3334V8.33341C3.66675 7.78113 3.21903 7.33341 2.66675 7.33341Z" fill="white"/>
</svg>
