<svg width="44" height="44" viewBox="0 0 44 44" fill="none" xmlns="http://www.w3.org/2000/svg">
<path d="M11.667 15.3333C11.667 14.597 12.2639 14 13.0003 14H31.667C32.4034 14 33.0003 14.597 33.0003 15.3333C33.0003 16.0697 32.4034 16.6667 31.667 16.6667H13.0003C12.2639 16.6667 11.667 16.0697 11.667 15.3333ZM11.667 22C11.667 21.2636 12.2639 20.6667 13.0003 20.6667H31.667C32.4034 20.6667 33.0003 21.2636 33.0003 22C33.0003 22.7364 32.4034 23.3333 31.667 23.3333H13.0003C12.2639 23.3333 11.667 22.7364 11.667 22ZM11.667 28.6667C11.667 27.9303 12.2639 27.3333 13.0003 27.3333H31.667C32.4034 27.3333 33.0003 27.9303 33.0003 28.6667C33.0003 29.403 32.4034 30 31.667 30H13.0003C12.2639 30 11.667 29.403 11.667 28.6667Z" fill="#0D0D0D"/>
</svg>
