<svg width="42" height="48" viewBox="0 0 42 48" fill="none" xmlns="http://www.w3.org/2000/svg">
<path d="M15.4526 29.7067C14.2819 29.1914 13.1112 28.8142 12.0461 27.9584C13.0056 27.9032 13.7362 28.3725 14.546 28.5657C13.3929 27.5811 12.1606 26.7069 11.2627 25.4279C12.2134 26.0812 13.164 26.7253 14.1146 27.3787C14.1411 27.3511 14.1675 27.3327 14.1851 27.3051C13.5425 26.6057 12.9087 25.9156 12.2662 25.2162C12.2926 25.1702 12.319 25.1242 12.3454 25.0782C12.6095 25.2254 12.9175 25.3175 13.1288 25.5291C13.9826 26.3665 14.8012 27.2406 15.6286 28.1056C15.8487 28.3357 16.0423 28.5749 16.2888 28.851C16.4648 28.6761 16.5969 28.5289 16.7377 28.4093C16.9842 28.216 16.9402 28.032 16.7905 27.7928C15.6902 26.0628 14.2291 24.7193 12.5303 23.6979C11.2275 22.9158 9.81917 22.3269 8.46364 21.6459C7.88269 21.3515 7.31055 21.0386 6.72961 20.7349C6.75601 20.6613 6.77362 20.5877 6.80002 20.5141C7.23133 20.6061 7.67144 20.6889 8.19957 20.7994C7.36336 20.054 6.42153 19.5663 5.8934 18.6185C5.91981 18.5817 5.93741 18.5357 5.96382 18.4989C7.02008 19.1798 8.06754 19.8608 9.23823 20.6153C8.45484 19.5019 7.75066 18.5081 7.05528 17.5143C7.09049 17.4775 7.12571 17.4407 7.16972 17.4039C7.53061 17.772 7.9091 18.1124 8.24358 18.4989C9.14141 19.5479 9.98642 20.6521 10.9195 21.6551C11.3508 22.1152 11.9405 22.4097 12.451 22.787C13.1464 23.2931 13.833 23.8084 14.59 24.3697C14.5372 24.204 14.5195 24.0936 14.4667 24.0108C13.0144 21.4527 11.4212 18.9866 9.39667 16.8702C9.04458 16.5021 8.56926 16.2352 8.11155 16.0144C7.32815 15.6463 6.50075 15.3703 5.69975 15.0482C5.21563 14.855 4.74031 14.6341 4.40583 14.1924C4.42343 14.1372 4.44103 14.0912 4.45864 14.036C5.15401 14.22 5.85819 14.4133 6.55356 14.5973C5.18922 13.3091 3.70165 12.1496 2.78622 10.4197C4.02733 11.4871 5.26844 12.5545 6.50075 13.6311C6.53596 13.6035 6.57117 13.5667 6.59758 13.5391C5.92861 12.5453 5.25964 11.5423 4.59948 10.5485C4.64349 10.5025 4.6875 10.4565 4.73151 10.4105C4.94276 10.5945 5.18922 10.7509 5.35646 10.9718C6.07824 11.9472 6.73841 12.987 7.5042 13.9348C8.15556 14.7353 8.93015 15.4347 9.60792 16.2076C10.2329 16.9162 10.805 17.6707 11.3948 18.4069C11.4828 18.5173 11.5796 18.6369 11.6676 18.7473C11.7028 18.7289 11.7381 18.7105 11.7821 18.6829C11.6676 18.4069 11.5532 18.1216 11.43 17.8548C10.849 16.5941 10.3385 15.2783 9.65193 14.082C8.7189 12.4625 7.57462 10.9994 6.10465 9.85837C5.72615 9.56391 5.24204 9.43509 4.79312 9.24185C4.12416 8.94739 3.40238 8.75415 2.85664 8.11002C3.64884 7.91679 4.28259 8.46889 5.1188 8.60692C4.38822 7.77876 3.31435 7.4751 2.96226 6.44449C2.99747 6.38928 3.02388 6.34327 3.05909 6.28806C3.40238 6.4905 3.75446 6.70214 4.15937 6.94139C3.84249 6.35247 3.55201 5.81876 3.27034 5.27586C3.29675 5.24825 3.32316 5.22065 3.34956 5.19304C3.53441 5.34947 3.74566 5.4783 3.88649 5.66233C4.79312 6.84937 5.66454 8.06401 6.57997 9.23265C7.38097 10.2541 8.22598 11.2478 9.115 12.214C8.79812 11.4503 8.50765 10.6773 8.15556 9.93199C7.71545 8.9842 7.38977 7.97199 6.65039 7.20824C5.64694 6.17764 4.66109 5.13783 3.67525 4.08882C3.39357 3.78516 3.15591 3.44469 2.95346 3.05821C4.14176 3.64713 4.95156 4.71454 5.9022 5.60712C5.93741 5.57952 5.97262 5.56111 6.00783 5.53351C5.47089 4.38328 4.93396 3.24225 4.38822 2.09202C4.43223 2.06441 4.48505 2.02761 4.52906 2C5.38287 3.32506 6.24548 4.65013 7.0993 5.9752C7.1257 5.96599 7.16091 5.95679 7.18732 5.94759C7.02008 4.9998 6.85284 4.06121 6.6944 3.11342C6.74721 3.09502 6.80002 3.07662 6.85284 3.06741C6.92325 3.26065 7.01128 3.44469 7.04648 3.64713C7.21373 4.5029 7.31055 5.37708 7.54821 6.20524C7.85629 7.25425 8.26999 8.26645 8.66609 9.27866C8.88615 9.84917 9.16781 10.4013 9.49349 10.9534C9.5287 9.21424 9.02698 7.5027 9.22063 5.76355C9.27344 5.75435 9.31745 5.74515 9.37027 5.72675C9.5199 6.14083 9.66074 6.55491 9.81038 6.96899C9.83678 6.96899 9.86319 6.96899 9.88959 6.96899C10.0216 6.21444 10.1537 5.45069 10.3033 4.62252C10.7258 4.93539 10.6994 5.28506 10.6642 5.60712C10.5145 6.94139 10.3473 8.27566 10.1889 9.60072C10.1713 9.72955 10.1889 9.85837 10.2329 9.9964C10.717 9.15903 10.9018 8.16523 11.5532 7.44749C11.5972 7.45669 11.6412 7.4751 11.6764 7.4843C11.6676 7.62232 11.6852 7.76955 11.6412 7.88918C11.4212 8.58852 11.2011 9.27866 10.9547 9.96879C10.5498 11.0914 10.3297 12.2416 10.5234 13.4287C10.629 14.0636 10.9106 14.6709 11.1659 15.2691C11.8085 16.7966 12.4686 18.3149 13.1464 19.824C13.4545 20.5141 13.8066 21.1766 14.1411 21.8576C14.1939 21.8484 14.2379 21.83 14.2907 21.8208C14.2291 21.4527 14.1939 21.0754 14.1146 20.7073C13.9122 19.824 13.6833 18.9406 13.4721 18.0572C13.2696 17.229 13.0496 16.4101 12.8823 15.5727C12.7855 15.0758 12.7679 14.5605 12.7151 14.0544C12.7767 14.036 12.8295 14.0268 12.8911 14.0084C13.1112 14.5513 13.3401 15.1034 13.6041 15.766C13.7538 14.8274 13.8858 13.9992 14.0178 13.171C14.0618 13.171 14.1058 13.1802 14.1411 13.1802C14.2027 14.3029 14.2643 15.4347 14.3347 16.5573C14.3699 16.5665 14.4051 16.5665 14.4491 16.5757C14.7572 15.858 14.8364 15.0206 15.5494 14.4869C15.4966 14.8182 15.4614 15.1402 15.391 15.4715C15.1357 16.6585 14.7924 17.8364 14.6252 19.0418C14.5372 19.7043 14.722 20.4037 14.8188 21.0846C14.9509 21.9772 14.9685 22.9342 15.3117 23.7255C15.9015 25.0782 16.7113 26.3205 17.4595 27.6731C17.6795 27.4523 17.8028 27.3143 17.9436 27.1854C18.1549 26.9922 18.1549 26.8082 18.0492 26.5413C17.6619 25.6027 17.2922 24.6549 16.9402 23.7071C16.8345 23.4127 16.8169 23.0906 16.7641 22.7778C16.8169 22.7593 16.8609 22.7317 16.9137 22.7133C17.213 23.3023 17.5211 23.882 17.8908 24.5997C17.8204 23.1458 17.4683 21.8208 17.8468 20.4865C18.3573 21.3423 18.1813 22.3821 18.5333 23.4035C18.7358 22.6581 18.9118 22.014 19.0879 21.3515C19.528 21.4803 19.528 21.7656 19.4664 22.06C19.2991 22.925 19.1055 23.79 18.9382 24.6549C18.8678 25.0414 18.8414 25.4371 18.8062 25.8328C18.7974 25.9248 18.8678 26.0168 18.9206 26.1916C20.8659 24.1948 22.7672 22.244 24.6685 20.2933C23.6914 19.1522 23.3658 17.8456 23.6826 16.4193C23.8059 15.8764 24.0787 15.3059 24.4396 14.901C27.8373 11.027 31.2701 7.18064 34.6942 3.32507C34.7294 3.27906 34.7822 3.25145 34.8262 3.21464C35.416 3.56431 35.4952 4.006 35.0727 4.5121C32.4848 7.62233 29.8882 10.7325 27.3091 13.852C27.1331 14.0636 26.8954 14.2937 27.1771 14.6065C27.4148 14.8642 27.8813 14.9194 28.1453 14.6801C28.515 14.3305 28.8583 13.9532 29.2104 13.5851C31.7014 10.9442 34.2013 8.30326 36.6923 5.66233C36.7979 5.55191 36.8771 5.42309 36.9651 5.32186C37.6253 5.68994 37.7133 6.13163 37.2644 6.66533C34.703 9.73875 32.1415 12.8214 29.5889 15.8948C29.3777 16.1432 29.0432 16.4009 29.4217 16.7782C29.6945 17.0542 30.1698 17.0082 30.4867 16.6769C31.9479 15.131 33.4003 13.5667 34.879 12.03C36.3402 10.5209 37.819 9.03941 39.3241 7.5211C39.8083 7.77876 39.9051 8.25725 39.4914 8.75415C36.9211 11.8368 34.3509 14.9286 31.7807 18.0204C31.587 18.2505 31.2261 18.4805 31.5694 18.867C31.8511 19.189 32.3176 19.1706 32.6697 18.8118C33.7699 17.6615 34.8614 16.5021 35.9529 15.3427C37.6693 13.5207 39.3858 11.6895 41.111 9.86757C41.2166 9.75715 41.3222 9.66513 41.5247 9.46269C41.7007 9.83077 41.8504 10.1436 42 10.4657C40.9701 11.6251 39.9667 12.7662 38.9632 13.898C36.5778 16.5849 34.166 19.2442 31.8247 21.968C30.3899 23.6427 28.1541 23.6795 26.7898 22.2809C26.7458 22.2348 26.7018 22.2072 26.6226 22.1428C26.4817 22.3177 26.3321 22.4833 26.2001 22.6581C24.9325 24.2316 23.665 25.8052 22.3975 27.3603C22.2039 27.5995 22.1511 27.802 22.2567 28.1056C22.4679 28.7405 22.6264 29.3939 22.82 30.038C22.8552 30.1668 22.9256 30.2865 23.0225 30.4061C23.1633 29.3571 22.7848 28.2805 23.2601 27.1486C23.3834 27.5903 23.5242 27.9308 23.5682 28.2805C23.6826 29.2835 23.7266 30.2865 23.8587 31.2895C24.0347 32.6237 24.29 33.9488 25.047 35.0898C25.7247 36.1204 26.3673 37.1878 27.0891 38.1908C27.3972 38.6233 27.8373 38.9638 28.2422 39.3135C29.1928 40.1324 30.1522 40.933 31.1117 41.7427C31.1997 41.8164 31.2965 41.8624 31.4286 41.9452C30.4691 40.749 29.5009 39.6263 28.6207 38.4301C27.7404 37.243 26.7546 36.1296 26.1472 34.7494C26.1913 34.7125 26.2441 34.6665 26.2881 34.6297C26.9042 35.3935 27.5204 36.148 28.207 36.9854C27.714 35.7431 27.2651 34.6021 26.8162 33.4519C26.869 33.4243 26.9218 33.4059 26.9747 33.3783C27.6788 34.7862 28.251 36.2769 29.2368 37.5191C29.0784 36.4425 28.9199 35.3751 28.7615 34.2985C29.3689 34.7585 29.4041 35.4303 29.5449 36.0468C29.6945 36.7277 29.8178 37.4179 29.941 38.108C30.1258 39.1202 30.4867 40.0312 31.2085 40.7766C32.1679 41.7796 33.0218 42.9298 34.0692 43.8224C35.1431 44.7333 36.3754 45.4419 37.5725 46.1872C38.5055 46.7577 39.4914 47.2454 40.4508 47.7607C40.5388 47.8068 40.6181 47.8712 40.6533 48C40.0547 47.7424 39.421 47.5307 38.8488 47.2178C37.2908 46.3529 35.768 45.4051 34.2013 44.5493C32.7137 43.7395 31.2173 42.9022 29.6505 42.2765C28.7879 41.936 27.7757 42.0004 26.8338 41.9176C26.1472 41.8532 25.4607 41.8624 24.7741 41.798C24.5364 41.7796 24.3076 41.6507 24.0787 41.4943C24.8357 41.0342 25.6455 41.3011 26.4377 41.1538C25.3198 40.795 24.2108 40.4361 23.0929 40.0772C23.1017 40.022 23.1105 39.976 23.1281 39.9208C23.5418 39.6723 23.9731 39.792 24.4044 39.8932C24.8181 39.9852 25.2318 40.1048 25.6719 40.114C24.6333 39.4515 23.5946 38.7798 22.556 38.1172C23.6386 38.2276 24.5541 38.7521 25.4783 39.249C26.5522 39.838 27.5996 40.4913 28.6735 41.0894C29.1312 41.3379 29.6241 41.5219 30.0994 41.7335C30.1258 41.6967 30.1434 41.6599 30.1699 41.6231C29.8442 41.3379 29.5185 41.0618 29.1928 40.7673C27.0891 38.8534 24.6861 37.4271 22.1775 36.2032C21.5525 35.8996 20.7867 35.8996 20.0825 35.7431C19.396 35.5959 18.7094 35.4579 18.0316 35.2831C17.8204 35.2278 17.6267 35.0714 17.3539 34.9242C18.0316 34.5009 18.6478 34.915 19.3696 34.8414C18.6214 34.4365 17.97 34.096 17.2922 33.7371C16.6145 34.5745 15.9455 35.4027 15.2765 36.2308C12.407 39.8012 9.53751 43.3623 6.66799 46.9326C5.95501 47.816 5.04839 48.1196 3.98332 47.8252C2.90065 47.5215 2.2933 46.7393 2.07324 45.5983C1.84439 44.4205 2.15247 43.4635 2.98867 42.6077C7.04649 38.4761 11.0779 34.3261 15.1181 30.176C15.1797 30.0104 15.2941 29.8724 15.4526 29.7067ZM21.8694 27.9492C21.306 28.6393 20.7955 29.2466 20.3114 29.8816C20.2322 29.9828 20.2322 30.2312 20.2938 30.3601C20.9187 31.6851 21.7373 32.8722 22.7232 33.9304C22.9873 34.2156 23.2161 34.5377 23.4714 34.823C23.7883 35.1818 24.1315 35.5131 24.466 35.8628C24.5188 35.8168 24.5717 35.78 24.6245 35.7339C24.1668 34.8966 23.709 34.05 23.2425 33.2126C22.6 32.0532 21.9398 30.8938 21.3148 29.7251C21.2004 29.5135 21.2092 29.219 21.1564 28.9614C21.218 28.9338 21.2796 28.9062 21.3413 28.8786C21.7285 29.5319 22.1246 30.1852 22.5119 30.8294C22.5472 30.811 22.5736 30.8018 22.6088 30.7834C22.3799 29.8816 22.1334 28.9614 21.8694 27.9492ZM18.2781 32.4029C19.9769 34.3629 22.1422 35.4487 24.3252 36.5253C22.556 34.8598 21.086 32.8446 18.9206 31.5931C18.7094 31.8692 18.4981 32.136 18.2781 32.4029Z" fill="#EFAC46" fill-opacity="0.95"/>
</svg>
