<svg width="51" height="51" viewBox="0 0 51 51" fill="none" xmlns="http://www.w3.org/2000/svg">
<path d="M17.1479 30.4239C15.6556 29.8581 14.1634 29.4438 12.8057 28.5041C14.0287 28.4435 14.96 28.9588 15.9922 29.171C14.5224 28.0898 12.9516 27.1299 11.8071 25.7255C13.0189 26.4429 14.2307 27.1502 15.4424 27.8676C15.4761 27.8372 15.5098 27.817 15.5322 27.7867C14.7131 27.0188 13.9053 26.261 13.0862 25.4931C13.1199 25.4425 13.1536 25.392 13.1872 25.3415C13.5238 25.5032 13.9165 25.6042 14.1858 25.8366C15.2741 26.7561 16.3176 27.716 17.3723 28.6658C17.6528 28.9184 17.8997 29.1811 18.2138 29.4842C18.4382 29.2923 18.6065 29.1306 18.786 28.9992C19.1002 28.787 19.0441 28.585 18.8534 28.3222C17.4508 26.4226 15.5883 24.9474 13.4228 23.8258C11.7623 22.967 9.96704 22.3203 8.23915 21.5726C7.49862 21.2493 6.76932 20.9057 6.0288 20.5723C6.06246 20.4914 6.0849 20.4106 6.11856 20.3298C6.66834 20.4308 7.22934 20.5218 7.90255 20.643C6.83664 19.8246 5.63609 19.289 4.96289 18.2483C4.99655 18.2079 5.01899 18.1574 5.05265 18.1169C6.39906 18.8647 7.73425 19.6124 9.22652 20.4409C8.22793 19.2183 7.33032 18.127 6.44393 17.0358C6.48881 16.9954 6.5337 16.955 6.5898 16.9145C7.04982 17.3187 7.53228 17.6926 7.95865 18.1169C9.1031 19.2688 10.1802 20.4813 11.3696 21.5827C11.9193 22.0879 12.6711 22.4113 13.3219 22.8255C14.2082 23.3813 15.0834 23.9471 16.0483 24.5635C15.981 24.3816 15.9586 24.2603 15.8913 24.1694C14.0399 21.3604 12.0091 18.6525 9.42848 16.3285C8.97968 15.9243 8.37379 15.6313 7.79035 15.3888C6.79176 14.9846 5.73707 14.6815 4.71604 14.3278C4.09894 14.1157 3.49305 13.8732 3.06669 13.3881C3.08913 13.3275 3.11157 13.277 3.13401 13.2164C4.02039 13.4185 4.91801 13.6307 5.80439 13.8327C4.06528 12.4181 2.16908 11.145 1.00219 9.2454C2.58422 10.4175 4.16626 11.5896 5.73707 12.7718C5.78195 12.7415 5.82683 12.7011 5.86049 12.6707C5.00777 11.5795 4.15504 10.4781 3.31353 9.38686C3.36963 9.33634 3.42573 9.28582 3.48183 9.2353C3.75112 9.43738 4.06528 9.60915 4.27846 9.85166C5.19851 10.9227 6.04001 12.0645 7.01616 13.1052C7.84645 13.9843 8.83381 14.7522 9.69776 15.601C10.4944 16.379 11.2237 17.2076 11.9754 18.0159C12.0876 18.1371 12.2111 18.2685 12.3233 18.3898C12.3681 18.3695 12.413 18.3493 12.4691 18.319C12.3233 18.0159 12.1774 17.7027 12.0203 17.4096C11.2798 16.0254 10.629 14.5805 9.75386 13.2669C8.56453 11.4885 7.10592 9.88197 5.23217 8.62904C4.7497 8.30571 4.1326 8.16424 3.56038 7.95206C2.70765 7.62872 1.7876 7.41653 1.09196 6.70923C2.10176 6.49704 2.9096 7.1033 3.97551 7.25486C3.04425 6.34548 1.67539 6.01204 1.22659 4.88036C1.27147 4.81973 1.30514 4.76921 1.35002 4.70859C1.7876 4.93088 2.2364 5.16328 2.75253 5.42599C2.3486 4.77932 1.97834 4.19327 1.61929 3.59712C1.65295 3.56681 1.68662 3.53649 1.72028 3.50618C1.9559 3.67795 2.22518 3.81941 2.4047 4.0215C3.56037 5.32495 4.67116 6.65871 5.83805 7.94195C6.85908 9.06352 7.93621 10.1548 9.06944 11.2157C8.66552 10.3771 8.29525 9.52832 7.84645 8.70987C7.28544 7.66914 6.8703 6.55767 5.92781 5.71901C4.64872 4.58734 3.39207 3.44555 2.13542 2.29367C1.77638 1.96023 1.47344 1.58637 1.21537 1.16199C2.73009 1.80866 3.76233 2.98076 4.9741 3.96087C5.01898 3.93056 5.06387 3.91035 5.10875 3.88004C4.42432 2.61701 3.73989 1.36408 3.04425 0.101043C3.10035 0.0707298 3.16767 0.0303128 3.22377 0C4.31212 1.45501 5.41169 2.91003 6.50003 4.36504C6.5337 4.35494 6.57858 4.34483 6.61224 4.33473C6.39905 3.29399 6.18587 2.26336 5.98391 1.22262C6.05123 1.20241 6.11855 1.1822 6.18587 1.17209C6.27563 1.38428 6.38784 1.58637 6.43272 1.80867C6.6459 2.74836 6.76932 3.70827 7.07226 4.61765C7.46497 5.76953 7.99231 6.881 8.49722 7.99247C8.77772 8.61894 9.13676 9.22519 9.5519 9.83145C9.59678 7.92174 8.95724 6.04235 9.20408 4.13265C9.2714 4.12254 9.3275 4.11243 9.39482 4.09223C9.58557 4.54692 9.76509 5.00161 9.95583 5.4563C9.98949 5.4563 10.0231 5.4563 10.0568 5.4563C10.2251 4.62775 10.3934 3.7891 10.5842 2.87971C11.1227 3.22326 11.0891 3.60722 11.0442 3.96087C10.8534 5.42599 10.6403 6.89111 10.4383 8.34612C10.4159 8.48758 10.4383 8.62904 10.4944 8.78061C11.1115 7.86112 11.3471 6.76986 12.1774 5.98172C12.2335 5.99183 12.2896 6.01204 12.3345 6.02214C12.3233 6.1737 12.3457 6.33537 12.2896 6.46673C12.0091 7.23465 11.7286 7.99247 11.4144 8.75029C10.8983 9.98301 10.6178 11.246 10.8647 12.5495C10.9993 13.2467 11.3583 13.9136 11.6837 14.5703C12.5028 16.2477 13.3443 17.9149 14.2082 19.572C14.6009 20.3298 15.0497 21.0573 15.4761 21.805C15.5434 21.7949 15.5995 21.7747 15.6669 21.7646C15.5883 21.3604 15.5434 20.9461 15.4424 20.542C15.1844 19.572 14.8927 18.6019 14.6234 17.6319C14.3653 16.7226 14.0848 15.8233 13.8716 14.9038C13.7482 14.3582 13.7258 13.7923 13.6585 13.2366C13.737 13.2164 13.8043 13.2063 13.8829 13.1861C14.1634 13.7822 14.4551 14.3885 14.7917 15.116C14.9824 14.0853 15.1507 13.176 15.319 12.2666C15.3751 12.2666 15.4312 12.2767 15.4761 12.2767C15.5546 13.5094 15.6332 14.7522 15.723 15.9849C15.7678 15.995 15.8127 15.995 15.8688 16.0052C16.2615 15.217 16.3625 14.2975 17.2713 13.7115C17.204 14.0752 17.1591 14.4289 17.0694 14.7926C16.744 16.0961 16.3064 17.3894 16.0932 18.7131C15.981 19.4406 16.2166 20.2085 16.3401 20.9562C16.5084 21.9364 16.5308 22.9872 16.9684 23.8562C17.7201 25.3415 18.7524 26.7056 19.7061 28.1909C19.9866 27.9484 20.1437 27.7968 20.3232 27.6554C20.5925 27.4432 20.5925 27.2411 20.4578 26.9481C19.9641 25.9174 19.4929 24.8767 19.0441 23.836C18.9095 23.5126 18.887 23.159 18.8197 22.8154C18.887 22.7952 18.9431 22.7649 19.0104 22.7447C19.3919 23.3914 19.7846 24.0279 20.2559 24.8161C20.1661 23.2196 19.7173 21.7646 20.1998 20.2995C20.8505 21.2392 20.6261 22.3809 21.0749 23.5025C21.333 22.6841 21.5574 21.9768 21.7818 21.2493C22.3428 21.3907 22.3428 21.704 22.2643 22.0273C22.0511 22.9771 21.8042 23.9269 21.5911 24.8767C21.5013 25.3011 21.4676 25.7356 21.4228 26.17C21.4115 26.2711 21.5013 26.3721 21.5686 26.5641C24.0483 24.3715 26.4718 22.2294 28.8953 20.0873C27.6499 18.8343 27.2348 17.3995 27.6387 15.8334C27.7958 15.2372 28.1436 14.6108 28.6036 14.1662C32.9346 9.91228 37.3104 5.6887 41.675 1.45502C41.7199 1.40449 41.7872 1.37418 41.8433 1.33376C42.5951 1.71773 42.6961 2.20273 42.1575 2.75847C38.8588 6.17371 35.5489 9.58895 32.2614 13.0143C32.037 13.2467 31.734 13.4993 32.0931 13.8428C32.396 14.1258 32.9907 14.1864 33.3273 13.9237C33.7985 13.5397 34.2361 13.1254 34.6849 12.7213C37.8602 9.82134 41.0467 6.92142 44.222 4.0215C44.3566 3.90025 44.4576 3.75879 44.5698 3.64764C45.4113 4.05181 45.5235 4.53681 44.9513 5.12286C41.6862 8.49769 38.4212 11.8826 35.1674 15.2574C34.8981 15.5302 34.4717 15.8132 34.9542 16.2274C35.302 16.5306 35.9079 16.4801 36.3118 16.1163C38.1744 14.4188 40.0257 12.7011 41.9107 11.0136C43.7732 9.35655 45.6582 7.72976 47.5768 6.06256C48.1939 6.34548 48.3173 6.8709 47.79 7.41653C44.5137 10.8015 41.2374 14.1965 37.9612 17.5915C37.7143 17.8441 37.2543 18.0967 37.6919 18.5211C38.0509 18.8748 38.6456 18.8546 39.0944 18.4605C40.4969 17.1975 41.8882 15.9243 43.2795 14.6512C45.4674 12.6505 47.6553 10.6398 49.8545 8.63914C49.9891 8.51789 50.1238 8.41685 50.3818 8.19456C50.6062 8.59873 50.797 8.94227 50.9877 9.29592C49.675 10.5691 48.3959 11.822 47.1168 13.0648C44.0761 16.0153 41.0018 18.9354 38.0173 21.9262C36.1884 23.7652 33.3385 23.8056 31.5994 22.2698C31.5433 22.2193 31.4872 22.189 31.3862 22.1182C31.2067 22.3102 31.0159 22.4921 30.8476 22.6841C29.2319 24.4119 27.6163 26.1397 26.0006 27.8473C25.7537 28.1101 25.6864 28.3324 25.821 28.6658C26.0903 29.363 26.2923 30.0804 26.5391 30.7877C26.584 30.9291 26.6738 31.0605 26.7972 31.1919C26.9767 30.04 26.4942 28.8578 27.1001 27.6149C27.2572 28.1 27.4367 28.4738 27.4928 28.8578C27.6387 29.9591 27.6948 31.0605 27.8631 32.1619C28.0875 33.627 28.4129 35.082 29.3778 36.3349C30.2418 37.4666 31.0608 38.6387 31.9809 39.7401C32.3736 40.215 32.9346 40.5888 33.4507 40.9728C34.6625 41.8721 35.8855 42.7511 37.1085 43.6403C37.2207 43.7211 37.3441 43.7717 37.5124 43.8626C36.2894 42.5491 35.0552 41.3163 33.9332 40.0028C32.8112 38.6993 31.5545 37.4767 30.7803 35.9611C30.8364 35.9207 30.9037 35.8701 30.9598 35.8297C31.7452 36.6684 32.5307 37.4969 33.4058 38.4164C32.7775 37.0523 32.2053 35.7994 31.633 34.5364C31.7004 34.5061 31.7677 34.4858 31.835 34.4555C32.7326 36.0015 33.4619 37.6384 34.7186 39.0024C34.5166 37.8203 34.3147 36.6482 34.1127 35.466C34.8869 35.9712 34.9318 36.7088 35.1113 37.3858C35.302 38.1335 35.4591 38.8913 35.6162 39.6491C35.8518 40.7606 36.3118 41.7609 37.2319 42.5794C38.4549 43.6807 39.5432 44.9438 40.8784 45.9239C42.2473 46.9242 43.8181 47.7022 45.344 48.5207C46.5333 49.1471 47.79 49.6827 49.013 50.2485C49.1252 50.299 49.2262 50.3697 49.271 50.5112C48.5081 50.2283 47.7002 49.9959 46.9709 49.6523C44.985 48.7025 43.0439 47.6618 41.0467 46.7221C39.1505 45.8329 37.2431 44.9134 35.2459 44.2264C34.1463 43.8525 32.856 43.9232 31.6555 43.8323C30.7803 43.7616 29.9052 43.7717 29.03 43.7009C28.727 43.6807 28.4353 43.5393 28.1436 43.3675C29.1085 42.8623 30.1408 43.1553 31.1506 42.9936C29.7256 42.5996 28.3119 42.2055 26.8869 41.8114C26.8982 41.7508 26.9094 41.7003 26.9318 41.6397C27.4592 41.3669 28.009 41.4982 28.5587 41.6093C29.0861 41.7104 29.6134 41.8417 30.1744 41.8519C28.8505 41.1243 27.5265 40.3867 26.2025 39.6592C27.5826 39.7805 28.7495 40.3564 29.9276 40.902C31.2964 41.5487 32.6316 42.2661 34.0005 42.9229C34.5839 43.1957 35.2123 43.3978 35.8181 43.6302C35.8518 43.5898 35.8742 43.5494 35.9079 43.509C35.4928 43.1957 35.0776 42.8926 34.6625 42.5693C31.9809 40.4676 28.9178 38.9014 25.7201 37.5575C24.9234 37.2241 23.9473 37.2241 23.0497 37.0523C22.1745 36.8907 21.2993 36.7391 20.4354 36.5471C20.1661 36.4865 19.9193 36.3147 19.5714 36.153C20.4354 35.6883 21.2208 36.1429 22.1408 36.0621C21.1871 35.6175 20.3569 35.2437 19.4929 34.8496C18.629 35.7691 17.7762 36.6785 16.9235 37.5879C13.2658 41.5083 9.608 45.4187 5.95025 49.3391C5.04143 50.3091 3.88576 50.6426 2.52813 50.3192C1.14805 49.9858 0.373866 49.1269 0.0933641 47.874C-0.198358 46.5806 0.194348 45.5298 1.26026 44.5901C6.43272 40.0533 11.5715 35.4963 16.7215 30.9393C16.8001 30.7574 16.9459 30.6058 17.1479 30.4239ZM25.3274 28.494C24.6093 29.2518 23.9585 29.9187 23.3414 30.6159C23.2404 30.7271 23.2404 30.9999 23.319 31.1413C24.1156 32.5963 25.159 33.8998 26.4157 35.0618C26.7523 35.375 27.044 35.7287 27.3694 36.0419C27.7733 36.436 28.2109 36.7997 28.6373 37.1837C28.7046 37.1332 28.7719 37.0927 28.8392 37.0422C28.2558 36.1227 27.6724 35.1931 27.0777 34.2737C26.2586 33.0005 25.4171 31.7274 24.6205 30.4441C24.4746 30.2117 24.4858 29.8884 24.4185 29.6055C24.4971 29.5752 24.5756 29.5449 24.6542 29.5146C25.1478 30.232 25.6527 30.9494 26.1464 31.6567C26.1913 31.6364 26.225 31.6263 26.2698 31.6061C25.9781 30.6159 25.664 29.6055 25.3274 28.494ZM20.7496 33.3845C22.915 35.5367 25.6752 36.729 28.4578 37.9112C26.2025 36.0823 24.3288 33.8695 21.5686 32.4953C21.2993 32.7984 21.0301 33.0915 20.7496 33.3845Z" fill="white"/>
</svg>
