<svg width="51" height="60" viewBox="0 0 51 60" fill="none" xmlns="http://www.w3.org/2000/svg">
<path d="M17.1479 36.3141C15.6556 35.6469 14.1634 35.1584 12.8057 34.0504C14.0287 33.9789 14.96 34.5865 15.9922 34.8367C14.5224 33.5619 12.9516 32.43 11.8071 30.7739C13.0189 31.6198 14.2307 32.4538 15.4424 33.2998C15.4761 33.264 15.5098 33.2402 15.5322 33.2045C14.7131 32.299 13.9053 31.4054 13.0862 30.4999C13.1199 30.4403 13.1536 30.3807 13.1872 30.3212C13.5238 30.5118 13.9165 30.6309 14.1858 30.905C15.2741 31.9892 16.3176 33.1211 17.3723 34.241C17.6528 34.5389 17.8997 34.8486 18.2138 35.2061C18.4382 34.9797 18.6065 34.7891 18.786 34.6342C19.1002 34.384 19.0441 34.1457 18.8534 33.8359C17.4508 31.596 15.5883 29.8565 13.4228 28.534C11.7623 27.5213 9.96704 26.7588 8.23915 25.8771C7.49862 25.4958 6.76932 25.0907 6.0288 24.6976C6.06246 24.6022 6.0849 24.5069 6.11856 24.4116C6.66834 24.5308 7.22934 24.638 7.90255 24.781C6.83664 23.8159 5.63609 23.1844 4.96289 21.9572C4.99655 21.9096 5.01899 21.85 5.05265 21.8023C6.39906 22.684 7.73425 23.5657 9.22652 24.5427C8.22793 23.101 7.33032 21.8143 6.44393 20.5275C6.48881 20.4799 6.5337 20.4322 6.5898 20.3845C7.04982 20.8611 7.53228 21.3019 7.95865 21.8023C9.1031 23.1606 10.1802 24.5903 11.3696 25.889C11.9193 26.4847 12.6711 26.866 13.3219 27.3545C14.2082 28.0098 15.0834 28.677 16.0483 29.4038C15.981 29.1893 15.9586 29.0463 15.8913 28.9391C14.0399 25.6269 12.0091 22.4338 9.42848 19.6935C8.97968 19.2169 8.37379 18.8714 7.79035 18.5855C6.79176 18.1089 5.73707 17.7514 4.71604 17.3344C4.09894 17.0842 3.49305 16.7983 3.06669 16.2264C3.08913 16.1549 3.11157 16.0953 3.13401 16.0239C4.02039 16.2621 4.91801 16.5123 5.80439 16.7506C4.06528 15.0826 2.16908 13.5814 1.00219 11.3415C2.58422 12.7236 4.16626 14.1056 5.73707 15.4996C5.78195 15.4639 5.82683 15.4162 5.8605 15.3805C5.00777 14.0937 4.15504 12.795 3.31353 11.5083C3.36963 11.4487 3.42573 11.3891 3.48183 11.3296C3.75112 11.5679 4.06528 11.7704 4.27846 12.0564C5.19851 13.3193 6.04001 14.6656 7.01616 15.8928C7.84645 16.9294 8.83381 17.8349 9.69776 18.8357C10.4944 19.7531 11.2237 20.7301 11.9754 21.6832C12.0876 21.8262 12.2111 21.9811 12.3233 22.124C12.3681 22.1002 12.413 22.0764 12.4691 22.0406C12.3233 21.6832 12.1774 21.3139 12.0203 20.9683C11.2798 19.3361 10.629 17.6323 9.75386 16.0834C8.56453 13.9865 7.10592 12.0921 5.23217 10.6147C4.7497 10.2334 4.1326 10.0666 3.56038 9.81644C2.70765 9.43518 1.7876 9.18498 1.09196 8.35097C2.10176 8.10077 2.90961 8.81563 3.97551 8.99435C3.04425 7.92205 1.67539 7.52887 1.22659 6.19446C1.27147 6.12297 1.30514 6.0634 1.35002 5.99191C1.7876 6.25403 2.2364 6.52806 2.75253 6.83784C2.3486 6.07531 1.97834 5.38428 1.61929 4.68132C1.65295 4.64558 1.68662 4.60984 1.72028 4.5741C1.9559 4.77664 2.22518 4.94344 2.4047 5.18173C3.56037 6.71869 4.67116 8.29139 5.83805 9.80453C6.85908 11.127 7.93621 12.4138 9.06944 13.6648C8.66551 12.6759 8.29525 11.6751 7.84645 10.71C7.28544 9.48284 6.8703 8.17225 5.92781 7.18335C4.64872 5.84894 3.39207 4.50261 2.13542 3.14436C1.77638 2.75119 1.47344 2.31035 1.21537 1.80995C2.73009 2.57247 3.76233 3.95455 4.9741 5.11024C5.01898 5.0745 5.06387 5.05067 5.10875 5.01493C4.42432 3.52563 3.73989 2.04824 3.04425 0.558933C3.10035 0.52319 3.16767 0.475532 3.22377 0.439789C4.31212 2.15547 5.41169 3.87114 6.50003 5.58682C6.5337 5.57491 6.57858 5.56299 6.61224 5.55108C6.39905 4.32389 6.18587 3.10862 5.98391 1.88143C6.05123 1.85761 6.11855 1.83378 6.18587 1.82186C6.27563 2.07207 6.38784 2.31036 6.43272 2.57247C6.6459 3.68051 6.76932 4.81238 7.07226 5.88468C7.46497 7.24293 7.99231 8.55351 8.49722 9.8641C8.77772 10.6028 9.13676 11.3177 9.5519 12.0325C9.59678 9.7807 8.95724 7.56462 9.20408 5.31279C9.2714 5.30088 9.3275 5.28896 9.39482 5.26513C9.58557 5.80128 9.76509 6.33743 9.95583 6.87358C9.98949 6.87358 10.0231 6.87358 10.0568 6.87358C10.2251 5.89659 10.3934 4.9077 10.5842 3.8354C11.1227 4.24049 11.0891 4.69324 11.0442 5.11024C10.8534 6.83784 10.6403 8.56543 10.4383 10.2811C10.4159 10.4479 10.4383 10.6147 10.4944 10.7934C11.1115 9.70921 11.3471 8.42245 12.1774 7.49313C12.2335 7.50504 12.2896 7.52887 12.3345 7.54079C12.3233 7.7195 12.3457 7.91013 12.2896 8.06502C12.0091 8.97052 11.7286 9.8641 11.4144 10.7577C10.8983 12.2112 10.6178 13.7005 10.8647 15.2375C10.9993 16.0596 11.3583 16.846 11.6837 17.6204C12.5028 19.5982 13.3443 21.5641 14.2082 23.518C14.6009 24.4116 15.0497 25.2694 15.4761 26.1511C15.5434 26.1392 15.5995 26.1154 15.6669 26.1035C15.5883 25.6269 15.5434 25.1384 15.4424 24.6618C15.1844 23.518 14.8927 22.3742 14.6234 21.2305C14.3653 20.1582 14.0848 19.0978 13.8716 18.0136C13.7482 17.3702 13.7258 16.703 13.6585 16.0477C13.737 16.0239 13.8043 16.0119 13.8829 15.9881C14.1634 16.6911 14.4551 17.4059 14.7917 18.2638C14.9824 17.0485 15.1507 15.9762 15.319 14.9039C15.3751 14.9039 15.4312 14.9158 15.4761 14.9158C15.5546 16.3694 15.6332 17.8348 15.723 19.2884C15.7678 19.3003 15.8127 19.3003 15.8688 19.3122C16.2615 18.3829 16.3625 17.2987 17.2713 16.6077C17.204 17.0366 17.1591 17.4536 17.0694 17.8825C16.744 19.4195 16.3064 20.9445 16.0932 22.5053C15.981 23.3631 16.2166 24.2686 16.3401 25.1503C16.5084 26.306 16.5308 27.5451 16.9684 28.5697C17.7201 30.3212 18.7524 31.9296 19.7061 33.681C19.9866 33.3951 20.1437 33.2164 20.3232 33.0496C20.5925 32.7994 20.5925 32.5611 20.4578 32.2156C19.9641 31.0003 19.4929 29.7731 19.0441 28.5459C18.9095 28.1647 18.887 27.7476 18.8197 27.3426C18.887 27.3187 18.9431 27.283 19.0104 27.2592C19.3919 28.0217 19.7846 28.7723 20.2559 29.7016C20.1661 27.8191 19.7173 26.1035 20.1998 24.3759C20.8505 25.4839 20.6261 26.8302 21.0749 28.1527C21.333 27.1877 21.5574 26.3537 21.7818 25.4958C22.3428 25.6626 22.3428 26.032 22.2643 26.4132C22.0511 27.5332 21.8042 28.6531 21.5911 29.7731C21.5013 30.2735 21.4676 30.7858 21.4228 31.2981C21.4115 31.4173 21.5013 31.5364 21.5686 31.7628C24.0483 29.1774 26.4718 26.6515 28.8953 24.1257C27.6499 22.6483 27.2348 20.9564 27.6387 19.1097C27.7958 18.4067 28.1436 17.668 28.6036 17.1438C32.9346 12.1278 37.3104 7.14761 41.675 2.15547C41.7199 2.0959 41.7872 2.06015 41.8433 2.01249C42.5951 2.46524 42.6961 3.03714 42.1575 3.69243C38.8588 7.7195 35.5489 11.7466 32.2614 15.7856C32.037 16.0596 31.734 16.3575 32.0931 16.7626C32.396 17.0962 32.9907 17.1676 33.3273 16.8579C33.7985 16.4051 34.2361 15.9166 34.6849 15.4401C37.8602 12.0206 41.0467 8.60117 44.222 5.18173C44.3566 5.03876 44.4576 4.87196 44.5698 4.7409C45.4113 5.21747 45.5235 5.78937 44.9513 6.4804C41.6862 10.4598 38.4212 14.4511 35.1674 18.4306C34.8981 18.7523 34.4717 19.0859 34.9542 19.5744C35.302 19.9318 35.9079 19.8722 36.3118 19.4433C38.1744 17.4417 40.0257 15.4162 41.9107 13.4265C43.7732 11.4725 45.6582 9.55432 47.5768 7.58844C48.1939 7.92205 48.3173 8.5416 47.79 9.18498C44.5137 13.1763 41.2374 17.1796 37.9612 21.1828C37.7143 21.4807 37.2543 21.7785 37.6919 22.2789C38.0509 22.6959 38.6456 22.6721 39.0944 22.2074C40.4969 20.7181 41.8882 19.2169 43.2795 17.7157C45.4674 15.3566 47.6553 12.9857 49.8545 10.6266C49.9891 10.4836 50.1238 10.3645 50.3818 10.1024C50.6062 10.579 50.797 10.9841 50.9877 11.4011C49.675 12.9023 48.3959 14.3797 47.1168 15.8451C44.0761 19.3242 41.0018 22.7674 38.0173 26.2941C36.1884 28.4625 33.3385 28.5102 31.5994 26.6992C31.5433 26.6396 31.4872 26.6039 31.3862 26.5205C31.2067 26.7468 31.0159 26.9613 30.8476 27.1877C29.2319 29.225 27.6163 31.2624 26.0006 33.2759C25.7537 33.5857 25.6864 33.8478 25.821 34.241C26.0903 35.0631 26.2923 35.909 26.5391 36.743C26.584 36.9098 26.6738 37.0647 26.7972 37.2196C26.9767 35.8614 26.4942 34.4674 27.1001 33.0019C27.2572 33.5738 27.4367 34.0146 27.4928 34.4674C27.6387 35.7661 27.6948 37.0647 27.8631 38.3634C28.0875 40.091 28.4129 41.8067 29.3778 43.2841C30.2418 44.6185 31.0608 46.0005 31.9809 47.2992C32.3736 47.8592 32.9346 48.3 33.4507 48.7528C34.6625 49.8132 35.8855 50.8497 37.1085 51.8982C37.2207 51.9935 37.3441 52.0531 37.5124 52.1603C36.2894 50.6114 35.0552 49.1579 33.9332 47.609C32.8112 46.072 31.5545 44.6304 30.7803 42.8432C30.8364 42.7956 30.9037 42.736 30.9598 42.6883C31.7452 43.6772 32.5307 44.6542 33.4058 45.7384C32.7775 44.13 32.2053 42.6526 31.633 41.1633C31.7004 41.1275 31.7677 41.1037 31.835 41.068C32.7326 42.8909 33.4619 44.821 34.7186 46.4295C34.5166 45.0355 34.3147 43.6534 34.1127 42.2594C34.8869 42.8551 34.9318 43.7249 35.1113 44.5232C35.302 45.4048 35.4591 46.2984 35.6162 47.192C35.8518 48.5026 36.3118 49.6821 37.2319 50.6472C38.4549 51.9458 39.5432 53.4351 40.8784 54.5908C42.2473 55.7704 43.8181 56.6878 45.344 57.6529C46.5333 58.3915 47.79 59.023 49.013 59.6902C49.1252 59.7498 49.2262 59.8332 49.271 60C48.5081 59.6664 47.7002 59.3924 46.9709 58.9873C44.985 57.8673 43.0439 56.6401 41.0467 55.5321C39.1505 54.4836 37.2431 53.3994 35.2459 52.5892C34.1463 52.1484 32.856 52.2318 31.6555 52.1246C30.7803 52.0412 29.9052 52.0531 29.03 51.9697C28.727 51.9458 28.4353 51.779 28.1436 51.5765C29.1085 50.9808 30.1408 51.3263 31.1506 51.1357C29.7256 50.671 28.3119 50.2063 26.8869 49.7417C26.8982 49.6702 26.9094 49.6106 26.9318 49.5391C27.4592 49.2174 28.009 49.3723 28.5587 49.5034C29.0861 49.6225 29.6134 49.7774 30.1744 49.7893C28.8505 48.9315 27.5265 48.0617 26.2025 47.2039C27.5826 47.3469 28.7495 48.026 29.9276 48.6694C31.2964 49.4319 32.6316 50.2778 34.0005 51.0523C34.5839 51.374 35.2123 51.6122 35.8181 51.8863C35.8518 51.8386 35.8742 51.791 35.9079 51.7433C35.4928 51.374 35.0776 51.0165 34.6625 50.6353C31.9809 48.1571 28.9178 46.3103 25.7201 44.7257C24.9234 44.3325 23.9473 44.3325 23.0497 44.13C22.1745 43.9394 21.2993 43.7606 20.4354 43.5343C20.1661 43.4628 19.9193 43.2602 19.5714 43.0696C20.4354 42.5215 21.2208 43.0577 22.1408 42.9624C21.1871 42.4381 20.3569 41.9973 19.4929 41.5326C18.629 42.6169 17.7762 43.6891 16.9235 44.7614C13.2658 49.3842 9.608 53.9951 5.95025 58.6179C5.04143 59.7617 3.88576 60.1549 2.52813 59.7736C1.14805 59.3804 0.373866 58.3677 0.0933641 56.8903C-0.198358 55.3653 0.194348 54.1262 1.26026 53.0181C6.43272 47.6686 11.5715 42.2952 16.7215 36.9218C16.8001 36.7073 16.9459 36.5286 17.1479 36.3141ZM25.3274 34.0385C24.6093 34.932 23.9585 35.7184 23.3414 36.5405C23.2404 36.6716 23.2404 36.9932 23.319 37.16C24.1156 38.8757 25.159 40.4127 26.4157 41.7828C26.7523 42.1522 27.044 42.5692 27.3694 42.9385C27.7733 43.4032 28.2109 43.8321 28.6373 44.2849C28.7046 44.2253 28.7719 44.1776 28.8392 44.1181C28.2558 43.0339 27.6724 41.9377 27.0777 40.8535C26.2586 39.3523 25.4171 37.8511 24.6205 36.3379C24.4746 36.0639 24.4858 35.6827 24.4185 35.3491C24.4971 35.3133 24.5756 35.2776 24.6542 35.2418C25.1478 36.0877 25.6527 36.9337 26.1464 37.7677C26.1913 37.7438 26.225 37.7319 26.2698 37.7081C25.9781 36.5405 25.664 35.3491 25.3274 34.0385ZM20.7496 39.805C22.915 42.3428 25.6752 43.7487 28.4578 45.1427C26.2025 42.9862 24.3288 40.3769 21.5686 38.7566C21.2993 39.114 21.0301 39.4595 20.7496 39.805Z" fill="white"/>
</svg>
