<svg width="52" height="58" viewBox="0 0 52 58" fill="none" xmlns="http://www.w3.org/2000/svg">
<path d="M17.9843 34.7961C16.4921 34.1489 14.9998 33.6751 13.6422 32.6004C14.8651 32.531 15.7964 33.1204 16.8287 33.3631C15.3588 32.1265 13.788 31.0287 12.6436 29.4224C13.8553 30.2429 15.0671 31.0518 16.2789 31.8723C16.3125 31.8376 16.3462 31.8145 16.3686 31.7799C15.5496 30.9016 14.7417 30.0349 13.9227 29.1566C13.9563 29.0988 13.99 29.041 14.0236 28.9832C14.3602 29.1681 14.7529 29.2837 15.0222 29.5495C16.1106 30.6011 17.154 31.699 18.2087 32.7853C18.4892 33.0742 18.7361 33.3746 19.0502 33.7213C19.2746 33.5017 19.4429 33.3168 19.6225 33.1666C19.9366 32.9239 19.8805 32.6928 19.6898 32.3923C18.2873 30.2198 16.4247 28.5325 14.2593 27.2498C12.5987 26.2675 10.8035 25.5279 9.07557 24.6727C8.33505 24.3029 7.60575 23.91 6.86522 23.5287C6.89888 23.4362 6.92132 23.3438 6.95498 23.2513C7.50477 23.3669 8.06577 23.4709 8.73897 23.6095C7.67306 22.6735 6.47252 22.061 5.79931 20.8707C5.83297 20.8245 5.85541 20.7667 5.88907 20.7205C7.23548 21.5756 8.57068 22.4308 10.0629 23.3784C9.06436 21.9801 8.16675 20.732 7.28036 19.4839C7.32524 19.4377 7.37013 19.3915 7.42623 19.3453C7.88625 19.8075 8.36871 20.2351 8.79507 20.7205C9.93952 22.0379 11.0167 23.4246 12.206 24.6843C12.7558 25.2621 13.5075 25.6319 14.1583 26.1057C15.0447 26.7413 15.9198 27.3885 16.8848 28.0934C16.8174 27.8854 16.795 27.7467 16.7277 27.6427C14.8764 24.43 12.8455 21.333 10.2649 18.675C9.8161 18.2127 9.21022 17.8776 8.62677 17.6003C7.62818 17.138 6.5735 16.7913 5.55247 16.3869C4.93536 16.1442 4.32948 15.8668 3.90311 15.3121C3.92555 15.2428 3.94799 15.185 3.97043 15.1157C4.85682 15.3468 5.75443 15.5895 6.64082 15.8206C4.90171 14.2027 3.0055 12.7466 1.83861 10.574C3.42065 11.9146 5.00268 13.2551 6.5735 14.6072C6.61838 14.5725 6.66326 14.5263 6.69692 14.4916C5.84419 13.2435 4.99147 11.9839 4.14996 10.7358C4.20606 10.678 4.26216 10.6203 4.31826 10.5625C4.58754 10.7936 4.9017 10.9901 5.11488 11.2674C6.03493 12.4924 6.87644 13.7982 7.85259 14.9885C8.68288 15.9939 9.67024 16.8722 10.5342 17.8429C11.3308 18.7328 12.0601 19.6804 12.8119 20.6049C12.9241 20.7436 13.0475 20.8938 13.1597 21.0325C13.2046 21.0094 13.2495 20.9863 13.3056 20.9516C13.1597 20.6049 13.0138 20.2467 12.8567 19.9115C12.1162 18.3283 11.4655 16.6758 10.5903 15.1734C9.40096 13.1395 7.94235 11.3021 6.06859 9.86909C5.58613 9.49929 4.96903 9.3375 4.3968 9.09482C3.54407 8.72502 2.62403 8.48234 1.92838 7.67339C2.93819 7.43071 3.74603 8.12409 4.81194 8.29743C3.88067 7.25736 2.51182 6.87601 2.06302 5.5817C2.1079 5.51236 2.14156 5.45458 2.18644 5.38524C2.62403 5.63948 3.07283 5.90528 3.58895 6.20574C3.18503 5.46614 2.81476 4.79587 2.45572 4.11405C2.48938 4.07938 2.52304 4.04471 2.5567 4.01004C2.79233 4.2065 3.0616 4.36829 3.24113 4.59941C4.3968 6.09018 5.50759 7.61561 6.67448 9.08326C7.69551 10.366 8.77263 11.6141 9.90586 12.8275C9.50194 11.8683 9.13168 10.8976 8.68287 9.96154C8.12187 8.77124 7.70673 7.50005 6.76424 6.54087C5.48515 5.24657 4.2285 3.9407 2.97185 2.62328C2.61281 2.24193 2.30986 1.81434 2.0518 1.32898C3.56651 2.06858 4.59876 3.40911 5.81053 4.53008C5.85541 4.49541 5.90029 4.47229 5.94517 4.43763C5.26075 2.99309 4.57632 1.5601 3.88067 0.115563C3.93677 0.0808942 4.0041 0.0346689 4.0602 0C5.14855 1.66411 6.24811 3.32822 7.33646 4.99233C7.37012 4.98077 7.415 4.96922 7.44866 4.95766C7.23548 3.76736 7.0223 2.58861 6.82034 1.39831C6.88766 1.3752 6.95498 1.35209 7.0223 1.34053C7.11206 1.58322 7.22426 1.81434 7.26914 2.06858C7.48232 3.14332 7.60575 4.24117 7.90869 5.28124C8.30139 6.59865 8.82874 7.86985 9.33364 9.14104C9.61414 9.85753 9.97318 10.5509 10.3883 11.2443C10.4332 9.06015 9.79366 6.91068 10.0405 4.72653C10.1078 4.71498 10.1639 4.70342 10.2312 4.68031C10.422 5.20034 10.6015 5.72037 10.7923 6.24041C10.8259 6.24041 10.8596 6.24041 10.8932 6.24041C11.0615 5.29279 11.2298 4.33362 11.4206 3.29355C11.9591 3.68646 11.9255 4.1256 11.8806 4.53008C11.6899 6.20574 11.4767 7.8814 11.2747 9.54551C11.2523 9.7073 11.2747 9.86909 11.3308 10.0424C11.9479 8.99081 12.1835 7.74273 13.0138 6.84134C13.0699 6.85289 13.126 6.87601 13.1709 6.88756C13.1597 7.06091 13.1821 7.24581 13.126 7.39604C12.8455 8.27432 12.565 9.14104 12.2509 10.0078C11.7347 11.4176 11.4542 12.8622 11.7011 14.3529C11.8357 15.1503 12.1948 15.913 12.5201 16.6642C13.3392 18.5826 14.1807 20.4893 15.0447 22.3846C15.4374 23.2513 15.8862 24.0833 16.3125 24.9385C16.3799 24.927 16.436 24.9039 16.5033 24.8923C16.4247 24.43 16.3799 23.9562 16.2789 23.494C16.0208 22.3846 15.7291 21.2752 15.4598 20.1658C15.2017 19.1257 14.9212 18.0972 14.7081 17.0456C14.5846 16.4215 14.5622 15.7744 14.4949 15.1388C14.5734 15.1157 14.6407 15.1041 14.7193 15.081C14.9998 15.7628 15.2915 16.4562 15.6281 17.2882C15.8189 16.1095 15.9872 15.0694 16.1555 14.0294C16.2116 14.0294 16.2677 14.0409 16.3125 14.0409C16.3911 15.4508 16.4696 16.8722 16.5594 18.2821C16.6043 18.2936 16.6491 18.2936 16.7052 18.3052C17.0979 17.4038 17.1989 16.3522 18.1077 15.6819C18.0404 16.0979 17.9956 16.5024 17.9058 16.9184C17.5804 18.4092 17.1428 19.8884 16.9296 21.4023C16.8174 22.2343 17.0531 23.1126 17.1765 23.9678C17.3448 25.0888 17.3672 26.2906 17.8048 27.2845C18.5566 28.9832 19.5888 30.5433 20.5425 32.2421C20.823 31.9648 20.9801 31.7914 21.1596 31.6296C21.4289 31.3869 21.4289 31.1558 21.2943 30.8207C20.8006 29.6419 20.3293 28.4516 19.8805 27.2613C19.7459 26.8915 19.7234 26.4871 19.6561 26.0941C19.7234 26.071 19.7795 26.0364 19.8469 26.0133C20.2283 26.7529 20.6211 27.4809 21.0923 28.3823C21.0025 26.5564 20.5537 24.8923 21.0362 23.2166C21.687 24.2914 21.4626 25.5972 21.9114 26.88C22.1694 25.9439 22.3938 25.135 22.6182 24.3029C23.1792 24.4647 23.1792 24.823 23.1007 25.1928C22.8875 26.2791 22.6407 27.3653 22.4275 28.4516C22.3377 28.937 22.3041 29.4339 22.2592 29.9308C22.248 30.0464 22.3377 30.162 22.4051 30.3815C24.8847 27.8738 27.3082 25.4239 29.7318 22.9739C28.4863 21.541 28.0712 19.9 28.4751 18.1087C28.6322 17.4269 28.98 16.7104 29.44 16.2019C33.771 11.3367 38.1468 6.50621 42.5115 1.66411C42.5563 1.60633 42.6237 1.57166 42.6798 1.52543C43.4315 1.96457 43.5325 2.51928 42.9939 3.15488C39.6952 7.06091 36.3853 10.9669 33.0978 14.8845C32.8734 15.1503 32.5705 15.4392 32.9295 15.8321C33.2324 16.1557 33.8271 16.2251 34.1637 15.9246C34.635 15.4855 35.0725 15.0117 35.5213 14.5494C38.6966 11.2327 41.8831 7.91608 45.0584 4.59941C45.1931 4.46074 45.294 4.29895 45.4062 4.17183C46.2477 4.63408 46.3599 5.18879 45.7877 5.85905C42.5227 9.71886 39.2576 13.5902 36.0038 17.45C35.7345 17.762 35.3082 18.0856 35.7906 18.5594C36.1384 18.9061 36.7443 18.8483 37.1483 18.4323C39.0108 16.4909 40.8621 14.5263 42.7471 12.5964C44.6096 10.7011 46.4946 8.84058 48.4132 6.93379C49.0303 7.25736 49.1537 7.85829 48.6264 8.48234C45.3501 12.3537 42.0739 16.2366 38.7976 20.1195C38.5508 20.4084 38.0907 20.6974 38.5283 21.1827C38.8874 21.5872 39.482 21.5641 39.9308 21.1134C41.3333 19.6688 42.7246 18.2127 44.1159 16.7567C46.3039 14.4685 48.4918 12.1688 50.6909 9.88065C50.8256 9.74197 50.9602 9.62641 51.2182 9.37217C51.4426 9.83442 51.6334 10.2273 51.8241 10.6318C50.5114 12.0879 49.2323 13.5209 47.9532 14.9423C44.9126 18.3168 41.8383 21.6565 38.8537 25.0772C37.0248 27.1804 34.1749 27.2267 32.4358 25.4701C32.3797 25.4123 32.3236 25.3777 32.2226 25.2968C32.0431 25.5163 31.8524 25.7243 31.6841 25.9439C30.0684 27.92 28.4527 29.8962 26.837 31.8492C26.5901 32.1497 26.5228 32.4039 26.6575 32.7853C26.9267 33.5826 27.1287 34.4031 27.3756 35.2121C27.4204 35.3739 27.5102 35.5241 27.6336 35.6743C27.8131 34.3569 27.3307 33.0048 27.9366 31.5834C28.0936 32.1381 28.2732 32.5657 28.3293 33.0048C28.4751 34.2645 28.5312 35.5241 28.6995 36.7837C28.9239 38.4594 29.2493 40.1235 30.2142 41.5565C31.0782 42.8508 31.8972 44.1913 32.8173 45.451C33.21 45.9941 33.771 46.4217 34.2871 46.8608C35.4989 47.8894 36.7219 48.8948 37.9449 49.9117C38.0571 50.0042 38.1805 50.0619 38.3488 50.166C37.1258 48.6636 35.8916 47.2538 34.7696 45.7514C33.6476 44.2607 32.3909 42.8624 31.6167 41.1289C31.6728 41.0827 31.7402 41.0249 31.7963 40.9787C32.5817 41.9379 33.3671 42.8855 34.2422 43.9371C33.6139 42.377 33.0417 40.944 32.4695 39.4995C32.5368 39.4648 32.6041 39.4417 32.6714 39.407C33.569 41.1751 34.2983 43.0473 35.555 44.6074C35.353 43.2553 35.1511 41.9147 34.9491 40.5627C35.7233 41.1405 35.7682 41.9841 35.9477 42.7584C36.1384 43.6135 36.2955 44.4802 36.4526 45.347C36.6882 46.6182 37.1483 47.7622 38.0683 48.6983C39.2913 49.9579 40.3796 51.4025 41.7148 52.5234C43.0837 53.6675 44.6545 54.5573 46.1804 55.4934C47.3698 56.2099 48.6264 56.8224 49.8494 57.4695C49.9616 57.5273 50.0626 57.6082 50.1075 57.77C49.3445 57.4464 48.5367 57.1806 47.8073 56.7877C45.8214 55.7014 43.8803 54.5111 41.8831 53.4364C39.9869 52.4194 38.0795 51.3678 36.0823 50.582C34.9828 50.1544 33.6925 50.2353 32.4919 50.1313C31.6167 50.0504 30.7416 50.0619 29.8664 49.981C29.5635 49.9579 29.2717 49.7961 28.98 49.5997C29.945 49.0219 30.9772 49.357 31.987 49.1721C30.5621 48.7214 29.1483 48.2707 27.7234 47.82C27.7346 47.7507 27.7458 47.6929 27.7683 47.6236C28.2956 47.3115 28.8454 47.4618 29.3952 47.5889C29.9225 47.7044 30.4499 47.8547 31.0109 47.8662C29.6869 47.0342 28.3629 46.1906 27.0389 45.3585C28.419 45.4972 29.5859 46.1559 30.764 46.7799C32.1329 47.5195 33.4681 48.34 34.8369 49.0912C35.4204 49.4032 36.0487 49.6344 36.6546 49.9002C36.6882 49.8539 36.7107 49.8077 36.7443 49.7615C36.3292 49.4032 35.914 49.0565 35.4989 48.6867C32.8173 46.283 29.7542 44.4918 26.5565 42.9548C25.7599 42.5734 24.7837 42.5735 23.8861 42.377C23.0109 42.1921 22.1358 42.0187 21.2718 41.7992C21.0025 41.7298 20.7557 41.5334 20.4079 41.3485C21.2718 40.8169 22.0572 41.3369 22.9773 41.2445C22.0236 40.736 21.1933 40.3084 20.3293 39.8577C19.4654 40.9093 18.6127 41.9494 17.7599 42.9895C14.1022 47.4733 10.4444 51.9456 6.78668 56.4295C5.87785 57.5389 4.72218 57.9202 3.36455 57.5504C1.98448 57.1691 1.21029 56.1868 0.92979 54.7538C0.638067 53.2746 1.03077 52.0727 2.09668 50.998C7.26915 45.8092 12.4079 40.5973 17.558 35.3854C17.6365 35.1774 17.7824 35.0041 17.9843 34.7961ZM26.1638 32.5888C25.4457 33.4555 24.7949 34.2182 24.1778 35.0156C24.0768 35.1427 24.0768 35.4548 24.1554 35.6166C24.952 37.2807 25.9955 38.7714 27.2521 40.1004C27.5887 40.4586 27.8805 40.8631 28.2058 41.2214C28.6098 41.6721 29.0473 42.0881 29.4737 42.5272C29.541 42.4694 29.6084 42.4232 29.6757 42.3654C29.0922 41.3138 28.5088 40.2506 27.9141 39.199C27.095 37.7429 26.2535 36.2868 25.4569 34.8192C25.311 34.5534 25.3223 34.1836 25.2549 33.86C25.3335 33.8253 25.412 33.7907 25.4906 33.756C25.9843 34.5765 26.4892 35.397 26.9828 36.2059C27.0277 36.1828 27.0614 36.1712 27.1063 36.1481C26.8145 35.0156 26.5004 33.86 26.1638 32.5888ZM21.586 38.1821C23.7515 40.6435 26.5116 42.0072 29.2942 43.3593C27.0389 41.2676 25.1652 38.7368 22.4051 37.1651C22.1358 37.5118 21.8665 37.8469 21.586 38.1821Z" fill="white"/>
</svg>
