<svg width="51" height="56" viewBox="0 0 51 56" fill="none" xmlns="http://www.w3.org/2000/svg">
<path d="M17.1479 33.7299C15.6556 33.1026 14.1634 32.6433 12.8057 31.6015C14.0287 31.5343 14.96 32.1056 15.9922 32.3409C14.5224 31.1422 12.9516 30.078 11.8071 28.5209C13.0189 29.3163 14.2307 30.1004 15.4424 30.8958C15.4761 30.8622 15.5098 30.8398 15.5322 30.8062C14.7131 29.9548 13.9053 29.1146 13.0862 28.2633C13.1199 28.2072 13.1536 28.1512 13.1872 28.0952C13.5238 28.2745 13.9165 28.3865 14.1858 28.6441C15.2741 29.6635 16.3176 30.7277 17.3723 31.7808C17.6528 32.0608 17.8997 32.3521 18.2138 32.6881C18.4382 32.4753 18.6065 32.2961 18.786 32.1504C19.1002 31.9152 19.0441 31.6911 18.8534 31.3999C17.4508 29.2939 15.5883 27.6583 13.4228 26.4149C11.7623 25.4627 9.96704 24.7458 8.23915 23.9168C7.49862 23.5583 6.76932 23.1774 6.0288 22.8078C6.06246 22.7181 6.0849 22.6285 6.11856 22.5389C6.66834 22.6509 7.22934 22.7517 7.90255 22.8862C6.83664 21.9788 5.63609 21.3851 4.96289 20.2313C4.99655 20.1864 5.01899 20.1304 5.05265 20.0856C6.39906 20.9146 7.73425 21.7435 9.22652 22.6621C8.22793 21.3067 7.33032 20.0968 6.44393 18.887C6.48881 18.8422 6.5337 18.7974 6.5898 18.7526C7.04982 19.2006 7.53228 19.6151 7.95865 20.0856C9.1031 21.3627 10.1802 22.7069 11.3696 23.928C11.9193 24.4881 12.6711 24.8466 13.3219 25.3059C14.2082 25.922 15.0834 26.5493 16.0483 27.2326C15.981 27.031 15.9586 26.8966 15.8913 26.7958C14.0399 23.6815 12.0091 20.6793 9.42848 18.1028C8.97968 17.6547 8.37379 17.3299 7.79035 17.061C6.79176 16.6129 5.73707 16.2769 4.71604 15.8848C4.09894 15.6495 3.49305 15.3807 3.06669 14.843C3.08913 14.7758 3.11157 14.7197 3.13401 14.6525C4.02039 14.8766 4.91801 15.1118 5.80439 15.3359C4.06528 13.7676 2.16908 12.3561 1.00219 10.25C2.58422 11.5495 4.16626 12.849 5.73707 14.1596C5.78195 14.126 5.82683 14.0812 5.8605 14.0476C5.00777 12.8378 4.15504 11.6167 3.31353 10.4069C3.36963 10.3509 3.42573 10.2949 3.48183 10.2389C3.75112 10.4629 4.06528 10.6533 4.27846 10.9222C5.19851 12.1096 6.04001 13.3755 7.01616 14.5293C7.84645 15.5039 8.83381 16.3553 9.69776 17.2963C10.4944 18.1588 11.2237 19.0774 11.9754 19.9736C12.0876 20.108 12.2111 20.2537 12.3233 20.3881C12.3681 20.3657 12.413 20.3433 12.4691 20.3097C12.3233 19.9736 12.1774 19.6263 12.0203 19.3015C11.2798 17.7668 10.629 16.1648 9.75386 14.7085C8.56453 12.7369 7.10592 10.9558 5.23217 9.56672C4.7497 9.20824 4.1326 9.05141 3.56038 8.81616C2.70765 8.45769 1.7876 8.22245 1.09196 7.43829C2.10176 7.20304 2.90961 7.87518 3.97551 8.04321C3.04425 7.03501 1.67539 6.66534 1.22659 5.41068C1.27147 5.34347 1.30514 5.28746 1.35002 5.22024C1.7876 5.46669 2.2364 5.72435 2.75253 6.0156C2.3486 5.29866 1.97834 4.64893 1.61929 3.988C1.65295 3.95439 1.68662 3.92079 1.72028 3.88718C1.9559 4.07762 2.22518 4.23445 2.4047 4.45849C3.56037 5.90358 4.67116 7.38228 5.83805 8.80496C6.85908 10.0484 7.93621 11.2583 9.06944 12.4345C8.66551 11.5047 8.29525 10.5637 7.84645 9.65633C7.28544 8.5025 6.8703 7.27026 5.92781 6.34047C4.64872 5.08582 3.39207 3.81997 2.13542 2.54291C1.77638 2.17324 1.47344 1.75875 1.21537 1.28826C2.73009 2.0052 3.76233 3.30466 4.9741 4.39128C5.01898 4.35767 5.06387 4.33527 5.10875 4.30166C4.42432 2.90138 3.73989 1.5123 3.04425 0.112022C3.10035 0.0784157 3.16767 0.0336067 3.22377 0C4.31212 1.61312 5.41169 3.22625 6.50003 4.83937C6.5337 4.82817 6.57858 4.81697 6.61224 4.80576C6.39905 3.65193 6.18587 2.5093 5.98391 1.35547C6.05123 1.33307 6.11855 1.31066 6.18587 1.29946C6.27563 1.53471 6.38784 1.75875 6.43272 2.0052C6.6459 3.04701 6.76932 4.11122 7.07226 5.11943C7.46497 6.39648 7.99231 7.62873 8.49722 8.86097C8.77772 9.55551 9.13676 10.2276 9.5519 10.8998C9.59678 8.78256 8.95724 6.69894 9.20408 4.58172C9.2714 4.57052 9.3275 4.55931 9.39482 4.53691C9.58557 5.04101 9.76509 5.54511 9.95583 6.04921C9.98949 6.04921 10.0231 6.04921 10.0568 6.04921C10.2251 5.13063 10.3934 4.20084 10.5842 3.19264C11.1227 3.57351 11.0891 3.9992 11.0442 4.39128C10.8534 6.0156 10.6403 7.63993 10.4383 9.25305C10.4159 9.40988 10.4383 9.56672 10.4944 9.73475C11.1115 8.71535 11.3471 7.5055 12.1774 6.63173C12.2335 6.64293 12.2896 6.66533 12.3345 6.67654C12.3233 6.84457 12.3457 7.0238 12.2896 7.16943C12.0091 8.0208 11.7286 8.86097 11.4144 9.70114C10.8983 11.0678 10.6178 12.4681 10.8647 13.9132C10.9993 14.6861 11.3583 15.4255 11.6837 16.1536C12.5028 18.0132 13.3443 19.8616 14.2082 21.6987C14.6009 22.5389 15.0497 23.3455 15.4761 24.1744C15.5434 24.1632 15.5995 24.1408 15.6669 24.1296C15.5883 23.6815 15.5434 23.2222 15.4424 22.7742C15.1844 21.6987 14.8927 20.6233 14.6234 19.5479C14.3653 18.5397 14.0848 17.5427 13.8716 16.5233C13.7482 15.9184 13.7258 15.2911 13.6585 14.6749C13.737 14.6525 13.8043 14.6413 13.8829 14.6189C14.1634 15.2799 14.4551 15.952 14.7917 16.7586C14.9824 15.6159 15.1507 14.6077 15.319 13.5995C15.3751 13.5995 15.4312 13.6107 15.4761 13.6107C15.5546 14.9774 15.6332 16.3553 15.723 17.7219C15.7678 17.7331 15.8127 17.7332 15.8688 17.7444C16.2615 16.8706 16.3625 15.8512 17.2713 15.2014C17.204 15.6047 17.1591 15.9968 17.0694 16.4001C16.744 17.8452 16.3064 19.2791 16.0932 20.7466C15.981 21.5531 16.2166 22.4045 16.3401 23.2334C16.5084 24.3201 16.5308 25.4851 16.9684 26.4485C17.7201 28.0952 18.7524 29.6075 19.7061 31.2543C19.9866 30.9854 20.1437 30.8174 20.3232 30.6605C20.5925 30.4253 20.5925 30.2012 20.4578 29.8764C19.9641 28.7337 19.4929 27.5799 19.0441 26.4261C18.9095 26.0676 18.887 25.6755 18.8197 25.2947C18.887 25.2723 18.9431 25.2387 19.0104 25.2162C19.3919 25.9332 19.7846 26.6389 20.2559 27.5127C20.1661 25.7428 19.7173 24.1296 20.1998 22.5053C20.8505 23.5471 20.6261 24.813 21.0749 26.0564C21.333 25.149 21.5574 24.3649 21.7818 23.5583C22.3428 23.7151 22.3428 24.0624 22.2643 24.4209C22.0511 25.4739 21.8042 26.5269 21.5911 27.5799C21.5013 28.0504 21.4676 28.5321 21.4228 29.0138C21.4115 29.1258 21.5013 29.2379 21.5686 29.4507C24.0483 27.0198 26.4718 24.6449 28.8953 22.2701C27.6499 20.881 27.2348 19.2903 27.6387 17.5539C27.7958 16.893 28.1436 16.1984 28.6036 15.7055C32.9346 10.9894 37.3104 6.30686 41.675 1.61313C41.7199 1.55711 41.7872 1.52351 41.8433 1.4787C42.5951 1.90438 42.6961 2.44209 42.1575 3.05821C38.8588 6.84457 35.5489 10.6309 32.2614 14.4285C32.037 14.6861 31.734 14.9662 32.0931 15.3471C32.396 15.6607 32.9907 15.7279 33.3273 15.4367C33.7985 15.011 34.2361 14.5517 34.6849 14.1036C37.8602 10.8886 41.0467 7.67354 44.222 4.45849C44.3566 4.32407 44.4576 4.16723 44.5698 4.04401C45.4113 4.4921 45.5235 5.02981 44.9513 5.67954C41.6862 9.42109 38.4212 13.1738 35.1674 16.9154C34.8981 17.2178 34.4717 17.5315 34.9542 17.9908C35.302 18.3269 35.9079 18.2709 36.3118 17.8676C38.1744 15.9856 40.0257 14.0812 41.9107 12.2104C43.7732 10.3733 45.6582 8.56971 47.5768 6.72134C48.1939 7.03501 48.3173 7.61753 47.79 8.22245C44.5137 11.9752 41.2374 15.7392 37.9612 19.5031C37.7143 19.7832 37.2543 20.0632 37.6919 20.5337C38.0509 20.9258 38.6456 20.9034 39.0944 20.4665C40.4969 19.0662 41.8882 17.6547 43.2795 16.2432C45.4674 14.0252 47.6553 11.796 49.8545 9.57792C49.9891 9.44349 50.1238 9.33147 50.3818 9.08502C50.6062 9.53311 50.797 9.91398 50.9877 10.3061C49.675 11.7175 48.3959 13.1066 47.1168 14.4845C44.0761 17.7556 41.0018 20.993 38.0173 24.3089C36.1884 26.3477 33.3385 26.3925 31.5994 24.6897C31.5433 24.6337 31.4872 24.6001 31.3862 24.5217C31.2067 24.7346 31.0159 24.9362 30.8476 25.149C29.2319 27.0646 27.6163 28.9802 26.0006 30.8734C25.7537 31.1646 25.6864 31.4111 25.821 31.7808C26.0903 32.5537 26.2923 33.3491 26.5391 34.1332C26.584 34.2901 26.6738 34.4357 26.7972 34.5813C26.9767 33.3043 26.4942 31.9936 27.1001 30.6157C27.2572 31.1534 27.4367 31.5679 27.4928 31.9936C27.6387 33.2146 27.6948 34.4357 27.8631 35.6567C28.0875 37.2811 28.4129 38.8942 29.3778 40.2833C30.2418 41.5379 31.0608 42.8374 31.9809 44.0584C32.3736 44.5849 32.9346 44.9994 33.4507 45.4251C34.6625 46.4221 35.8855 47.3967 37.1085 48.3825C37.2207 48.4721 37.3441 48.5281 37.5124 48.6289C36.2894 47.1726 35.0552 45.806 33.9332 44.3497C32.8112 42.9046 31.5545 41.5491 30.7803 39.8688C30.8364 39.824 30.9037 39.768 30.9598 39.7231C31.7452 40.6529 32.5307 41.5715 33.4058 42.5909C32.7775 41.0786 32.2053 39.6895 31.633 38.2893C31.7004 38.2556 31.7677 38.2332 31.835 38.1996C32.7326 39.9136 33.4619 41.7283 34.7186 43.2406C34.5166 41.93 34.3147 40.6305 34.1127 39.3199C34.8869 39.88 34.9318 40.6977 35.1113 41.4483C35.302 42.2773 35.4591 43.1174 35.6162 43.9576C35.8518 45.1898 36.3118 46.2989 37.2319 47.2062C38.4549 48.4273 39.5432 49.8276 40.8784 50.9142C42.2473 52.0232 43.8181 52.8858 45.344 53.7932C46.5333 54.4877 47.79 55.0814 49.013 55.7087C49.1252 55.7648 49.2262 55.8432 49.271 56C48.5081 55.6863 47.7002 55.4287 46.9709 55.0478C44.985 53.9948 43.0439 52.841 41.0467 51.7992C39.1505 50.8134 37.2431 49.794 35.2459 49.0322C34.1463 48.6177 32.856 48.6961 31.6555 48.5953C30.7803 48.5169 29.9052 48.5281 29.03 48.4497C28.727 48.4273 28.4353 48.2705 28.1436 48.08C29.1085 47.5199 30.1408 47.8448 31.1506 47.6655C29.7256 47.2286 28.3119 46.7918 26.8869 46.3549C26.8982 46.2877 26.9094 46.2317 26.9318 46.1644C27.4592 45.862 28.009 46.0076 28.5587 46.1308C29.0861 46.2428 29.6134 46.3885 30.1744 46.3997C28.8505 45.5931 27.5265 44.7754 26.2025 43.9688C27.5826 44.1032 28.7495 44.7417 29.9276 45.3467C31.2964 46.0636 32.6316 46.859 34.0005 47.5871C34.5839 47.8896 35.2123 48.1136 35.8181 48.3713C35.8518 48.3265 35.8742 48.2817 35.9079 48.2369C35.4928 47.8896 35.0776 47.5535 34.6625 47.195C31.9809 44.865 28.9178 43.1286 25.7201 41.6387C24.9234 41.2691 23.9473 41.2691 23.0497 41.0786C22.1745 40.8994 21.2993 40.7313 20.4354 40.5185C20.1661 40.4513 19.9193 40.2608 19.5714 40.0816C20.4354 39.5663 21.2208 40.0704 22.1408 39.9808C21.1871 39.4879 20.3569 39.0734 19.4929 38.6365C18.629 39.6559 17.7762 40.6641 16.9235 41.6723C13.2658 46.0188 9.608 50.3541 5.95025 54.7005C5.04143 55.776 3.88576 56.1456 2.52813 55.7872C1.14805 55.4175 0.373866 54.4653 0.0933641 53.0762C-0.198358 51.6423 0.194348 50.4773 1.26026 49.4355C6.43272 44.4057 11.5715 39.3535 16.7215 34.3013C16.8001 34.0996 16.9459 33.9316 17.1479 33.7299ZM25.3274 31.5903C24.6093 32.4305 23.9585 33.1698 23.3414 33.9428C23.2404 34.066 23.2404 34.3685 23.319 34.5253C24.1156 36.1384 25.159 37.5835 26.4157 38.8718C26.7523 39.219 27.044 39.6111 27.3694 39.9584C27.7733 40.3953 28.2109 40.7986 28.6373 41.2242C28.7046 41.1682 28.7719 41.1234 28.8392 41.0674C28.2558 40.048 27.6724 39.0174 27.0777 37.998C26.2586 36.5865 25.4171 35.175 24.6205 33.7523C24.4746 33.4947 24.4858 33.1362 24.4185 32.8226C24.4971 32.789 24.5756 32.7554 24.6542 32.7217C25.1478 33.5171 25.6527 34.3125 26.1464 35.0966C26.1913 35.0742 26.225 35.063 26.2698 35.0406C25.9781 33.9428 25.664 32.8226 25.3274 31.5903ZM20.7496 37.0122C22.915 39.3983 25.6752 40.7201 28.4578 42.0308C26.2025 40.0032 24.3288 37.5499 21.5686 36.0264C21.2993 36.3625 21.0301 36.6873 20.7496 37.0122Z" fill="white"/>
</svg>
