<svg width="52" height="58" viewBox="0 0 52 58" fill="none" xmlns="http://www.w3.org/2000/svg">
<path d="M17.5914 35.3051C17.7244 35.0264 17.681 34.6636 17.3956 34.5458C16.4782 34.1672 15.5676 33.8157 14.6951 33.3106C14.3104 33.0878 14.521 32.6371 14.9498 32.7545C15.4406 32.8889 15.6533 32.402 15.261 32.0779C15.144 31.9812 15.0275 31.884 14.9118 31.7858C14.4085 31.359 14.8215 30.8875 15.3688 31.2561C15.6537 31.4479 15.9386 31.6401 16.2235 31.8329C16.2555 31.8546 16.3015 31.8492 16.3296 31.8226C16.3562 31.7975 16.3511 31.7592 16.3262 31.7324C15.5414 30.8909 14.7665 30.0597 13.9818 29.2183C13.9467 29.1806 13.9404 29.1244 13.9663 29.0799C13.9982 29.0252 14.0679 29.0059 14.1245 29.0343C14.4364 29.1906 14.7794 29.3081 15.0222 29.5477C16.1106 30.5993 17.154 31.6971 18.2087 32.7833C18.3162 32.894 18.4187 33.0063 18.5219 33.1223C18.8113 33.4475 19.2887 33.444 19.6225 33.1647C19.9366 32.922 19.8805 32.6909 19.6898 32.3904C18.2873 30.218 16.4247 28.5308 14.2593 27.2482C12.5987 26.2659 10.8035 25.5264 9.07557 24.6713C8.3786 24.3232 7.69158 23.9547 6.99577 23.5947C6.92119 23.5561 6.88605 23.4679 6.91043 23.3875C6.93453 23.3081 7.01528 23.2626 7.09655 23.2794C7.15994 23.2925 7.22359 23.3054 7.28765 23.3184C7.68171 23.398 7.89841 22.9336 7.57845 22.6902C6.90343 22.1768 6.2681 21.6643 5.83507 20.9313C5.81299 20.8939 5.81557 20.847 5.83635 20.8089C5.8643 20.7576 5.92745 20.7436 5.97675 20.7749C6.18093 20.9047 6.38493 21.0344 6.58934 21.1646C7.33302 21.638 8.17911 20.7449 7.66752 20.027C7.55671 19.8715 7.44629 19.7163 7.33606 19.5612C7.30378 19.5158 7.30597 19.4555 7.34589 19.4166C7.3886 19.375 7.45835 19.3765 7.50067 19.4185C7.93801 19.8525 8.39165 20.26 8.79507 20.7192C9.93952 22.0366 11.0167 23.4233 12.206 24.6828C12.7558 25.2606 13.5075 25.6304 14.1583 26.1042C14.9249 26.6539 15.6832 27.2122 16.4984 27.8091C16.6197 27.898 16.8094 27.7673 16.7277 27.6411C14.8764 24.4286 12.8455 21.3317 10.2649 18.6739C9.8161 18.2117 9.21022 17.8766 8.62677 17.5992C7.62818 17.137 6.5735 16.7903 5.55247 16.3859C4.95735 16.1519 4.37266 15.8856 3.94935 15.3694C3.91985 15.3335 3.91182 15.2841 3.92721 15.2402C3.95197 15.1695 4.02702 15.1295 4.09944 15.1485C4.22747 15.182 4.35571 15.2157 4.48409 15.2495C5.04932 15.3986 5.41968 14.7156 4.9885 14.3209C4.78219 14.132 4.57756 13.9416 4.37604 13.7482C3.75929 13.1561 4.29917 12.6604 4.9496 13.2153C5.47048 13.6596 5.99055 14.1048 6.50942 14.5512C6.54672 14.5833 6.60388 14.5827 6.63936 14.5486C6.67489 14.5144 6.67695 14.4615 6.64916 14.4208C5.83349 13.2267 5.01801 12.0223 4.21254 10.828C4.17607 10.7739 4.1825 10.7017 4.22794 10.6549C4.27869 10.6026 4.36132 10.5989 4.41802 10.6447C4.6623 10.8418 4.92757 11.0231 5.11488 11.2667C6.03493 12.4916 6.87644 13.7974 7.85259 14.9877C8.68288 15.993 9.67024 16.8712 10.5342 17.8419C11.3308 18.7317 12.0601 19.6792 12.8119 20.6037C12.9072 20.7215 13.0107 20.8477 13.1085 20.9681C13.1383 21.0048 13.185 21.0187 13.2266 20.9961C13.2699 20.9726 13.2915 20.9169 13.2724 20.8715C13.1376 20.5496 13.0019 20.2201 12.8567 19.9103C12.1162 18.3272 11.4655 16.6748 10.5903 15.1725C9.40096 13.1388 7.94235 11.3014 6.06859 9.86851C5.58613 9.49873 4.96903 9.33695 4.3968 9.09428C3.85657 8.86001 3.28932 8.67676 2.76923 8.36823C2.33866 8.11281 2.49657 7.58189 2.98008 7.71167C3.58956 7.87526 3.85558 7.47656 3.34755 7.1022C2.81602 6.71052 2.33687 6.29775 2.09011 5.65553C2.07232 5.60923 2.07946 5.55612 2.10564 5.51399C2.15096 5.44103 2.24482 5.41883 2.31902 5.46209C2.37275 5.49342 2.42672 5.52495 2.48105 5.55673C2.79382 5.73968 3.14644 5.39711 2.97333 5.07878C2.80705 4.77301 2.64506 4.47248 2.48541 4.1701C2.46768 4.13654 2.47361 4.09538 2.50006 4.06814C2.53201 4.03523 2.58389 4.03256 2.6198 4.06109C2.83917 4.23535 3.07745 4.38843 3.24113 4.59914C4.3968 6.08982 5.50759 7.61516 6.67448 9.08273C7.0538 9.55924 7.44085 10.031 7.83566 10.4979C8.23603 10.9715 8.95098 10.5201 8.68287 9.96095C8.12187 8.77072 7.70673 7.4996 6.76424 6.54049C5.48515 5.24626 4.2285 3.94047 2.97185 2.62313C2.62837 2.25832 2.99386 1.88153 3.38185 2.19859C4.22541 2.88791 4.9504 3.72549 5.74925 4.4728C5.78454 4.50581 5.83889 4.50867 5.87952 4.48251C5.91863 4.45734 5.93097 4.4074 5.91105 4.36536C5.25259 2.97608 4.59396 1.59713 3.92516 0.207943C3.89988 0.155431 3.91803 0.0921227 3.96677 0.0601782C4.01842 0.0263338 4.08714 0.0411973 4.12095 0.0928671C5.17926 1.71034 6.24777 3.32781 7.30588 4.94528C7.32387 4.97278 7.35818 4.98482 7.38971 4.97554C7.42369 4.96554 7.44405 4.93163 7.4378 4.89676C7.2345 3.76205 7.03138 2.63749 6.83816 1.50304C6.82786 1.4426 6.8637 1.38226 6.92243 1.36468C6.98018 1.34738 7.03742 1.38147 7.05942 1.43759C7.14096 1.64556 7.23028 1.84835 7.26914 2.06846C7.48232 3.14313 7.60575 4.24092 7.90869 5.28092C8.30139 6.59827 8.82874 7.86938 9.33364 9.1405C9.58157 9.77376 10.3201 9.57013 10.2439 8.89435C10.0907 7.53516 9.89084 6.17978 10.0314 4.81114C10.0365 4.76087 10.0743 4.72122 10.1237 4.71026C10.184 4.69686 10.2483 4.72643 10.2694 4.78449C10.4409 5.25531 10.6043 5.72612 10.7765 6.19694C10.7859 6.22283 10.8106 6.24004 10.8382 6.24004C10.87 6.24004 10.8973 6.21719 10.9029 6.18582C10.9911 5.68871 11.0795 5.18807 11.1712 4.67388C11.2853 4.03445 11.9522 3.88424 11.8806 4.52981C11.6899 6.20537 11.4767 7.88094 11.2747 9.54495C11.2479 9.73849 11.4821 9.77224 11.5672 9.59638C12.0147 8.67208 12.2866 7.66132 12.9692 6.89034C12.9966 6.85946 13.042 6.84675 13.0814 6.85917C13.1352 6.87617 13.1683 6.92796 13.1674 6.98442C13.1653 7.12783 13.1717 7.27322 13.126 7.3956C12.8455 8.27383 12.565 9.1405 12.2509 10.0072C11.7347 11.417 11.4542 12.8614 11.7011 14.3521C11.8357 15.1494 12.1948 15.9121 12.5201 16.6632C13.3392 18.5815 14.1807 20.4881 15.0447 22.3833C15.4259 23.2246 15.86 24.0332 16.2751 24.8621C16.2974 24.9066 16.3464 24.9311 16.3943 24.9177C16.4543 24.9011 16.4948 24.8412 16.485 24.7798C16.4172 24.3529 16.3718 23.9179 16.2789 23.4926C16.0208 22.3833 15.7291 21.2739 15.4598 20.1646C15.2017 19.1246 14.9212 18.0961 14.7081 17.0446C14.5918 16.4568 14.5652 15.8485 14.5062 15.2487C14.4999 15.1845 14.5401 15.1249 14.6029 15.11C14.6694 15.0942 14.739 15.1281 14.7651 15.1914C14.8105 15.3015 14.8563 15.4121 14.9025 15.5237C15.1088 16.0218 15.8466 15.937 15.9327 15.4048C16.0042 14.9635 16.0739 14.5326 16.1435 14.1022C16.1504 14.0597 16.1912 14.0293 16.234 14.0339C16.2802 14.0388 16.3146 14.0764 16.3171 14.1229C16.3929 15.4823 16.4688 16.852 16.555 18.2114C16.5576 18.2529 16.5828 18.287 16.6241 18.2921C16.6693 18.2976 16.7183 18.2743 16.7358 18.2324C16.9509 17.7151 17.081 17.1538 17.3287 16.6463C17.5296 16.2345 18.0024 16.4696 17.9058 16.9174C17.5804 18.4081 17.1428 19.8872 16.9296 21.401C16.8174 22.233 17.0531 23.1113 17.1765 23.9664C17.3448 25.0873 17.3672 26.2891 17.8048 27.2828C18.444 28.7272 19.286 30.0714 20.1101 31.4858C20.3304 31.8638 20.8346 31.9207 21.1596 31.6278C21.4289 31.3851 21.4289 31.154 21.2943 30.8189C20.8006 29.6402 20.3293 28.45 19.8805 27.2597C19.7575 26.9217 19.7281 26.5548 19.6726 26.1941C19.6636 26.1355 19.6971 26.0776 19.7508 26.0525C19.8051 26.0271 19.8672 26.0512 19.8948 26.1045C19.9442 26.1999 19.9938 26.2951 20.0437 26.3907C20.2892 26.8604 20.9337 26.6689 20.8837 26.1413C20.84 25.6802 20.8097 25.2255 20.8176 24.7738C20.8281 24.1717 21.4236 24.1131 21.5132 24.7085C21.5222 24.7685 21.5307 24.8289 21.5389 24.8894C21.6223 25.5048 22.2919 25.5007 22.4554 24.9016C22.5486 24.56 22.9882 24.3496 23.105 24.6839C23.1583 24.8364 23.1387 25.0125 23.1007 25.1913C22.8875 26.2775 22.6407 27.3637 22.4275 28.45C22.3377 28.9353 22.3041 29.4322 22.2592 29.9291C22.2383 30.1437 22.5888 30.1939 22.7404 30.0406C24.215 28.5495 25.6705 27.0779 27.1189 25.6138C28.5927 24.124 28.4125 21.7049 28.33 19.6109C28.3108 19.1231 28.3592 18.6216 28.4751 18.1077C28.6322 17.4259 28.98 16.7094 29.44 16.201C33.771 11.3361 38.1468 6.50582 42.5115 1.66401C42.5921 1.5602 42.7569 1.56738 42.8635 1.64425C43.4443 2.06297 43.485 2.57521 42.9939 3.15469C39.6952 7.06049 36.3853 10.9663 33.0978 14.8837C32.8734 15.1494 32.5705 15.4383 32.9295 15.8312C33.2324 16.1548 33.8271 16.2241 34.1637 15.9237C34.635 15.4845 35.0725 15.0108 35.5213 14.5485C38.6966 11.2321 41.8831 7.91561 45.0584 4.59914C45.283 4.36786 45.6228 4.26579 45.8551 4.48929C46.264 4.88266 46.2344 5.33547 45.7877 5.85871C42.5227 9.71829 39.2576 13.5894 36.0038 17.449C35.7345 17.761 35.3082 18.0846 35.7906 18.5583C36.1384 18.905 36.7443 18.8472 37.1483 18.4312C39.0108 16.4899 40.8621 14.5254 42.7471 12.5956C44.1815 11.1361 45.6292 9.69715 47.0954 8.24181C47.8799 7.46307 49.3399 7.63755 48.6264 8.48184C45.3501 12.353 42.0739 16.2357 38.7976 20.1184C38.5508 20.4072 38.0907 20.6961 38.5283 21.1815C38.8874 21.5859 39.482 21.5628 39.9308 21.1121C41.3333 19.6677 42.7246 18.2117 44.1159 16.7557C46.3039 14.4676 48.4918 12.1681 50.6909 9.88006C50.9415 9.62197 51.3814 9.70687 51.5376 10.0309C51.5688 10.0956 51.5996 10.1596 51.6301 10.2233C51.7484 10.47 51.7048 10.7635 51.5217 10.9668C50.3146 12.3076 49.1339 13.6294 47.9532 14.9414C44.9126 18.3157 41.8383 21.6553 38.8537 25.0757C37.0248 27.1788 34.1749 27.2251 32.4358 25.4686C32.3297 25.3593 32.1447 25.39 32.0458 25.5058C31.9219 25.6508 31.7978 25.794 31.6841 25.9424C30.0684 27.9184 28.4527 29.8944 26.837 31.8473C26.5901 32.1478 26.5228 32.402 26.6575 32.7833C26.9267 33.5807 27.1287 34.4011 27.3756 35.21C27.4299 35.4058 27.6692 35.3439 27.6743 35.1408C27.6919 34.4453 27.5921 33.739 27.6268 33.0169C27.6504 32.5258 28.2669 32.5151 28.3293 33.0029C28.4751 34.2624 28.5312 35.522 28.6995 36.7816C28.9239 38.4571 29.2493 40.1212 30.2142 41.5541C31.0782 42.8483 31.8972 44.1887 32.8173 45.4483C33.21 45.9914 33.771 46.419 34.2871 46.8581C35.4989 47.8865 36.7219 48.8919 37.9449 49.9088C38.015 49.9665 38.1039 49.8634 38.0462 49.7933C36.9231 48.4277 35.7991 47.1271 34.7696 45.7487C33.6675 44.2846 32.4355 42.9096 31.6585 41.2186C31.6335 41.1643 31.6482 41.1005 31.6938 41.062C31.75 41.0147 31.834 41.0224 31.8806 41.0792C31.9627 41.1794 32.0449 41.2796 32.1272 41.3797C32.5039 41.8382 33.2286 41.4069 33.009 40.8557C32.8411 40.4339 32.6746 40.0148 32.5083 39.595C32.4862 39.5395 32.5103 39.4767 32.5652 39.4532C32.6244 39.4278 32.6952 39.4514 32.7241 39.509C33.2292 40.5131 33.6846 41.5481 34.217 42.538C34.54 43.1388 35.2909 42.8415 35.1897 42.167C35.1011 41.5764 35.626 41.3412 35.769 41.921C35.8373 42.198 35.884 42.4813 35.9477 42.7558C36.1384 43.6109 36.2955 44.4776 36.4526 45.3443C36.6882 46.6154 37.1483 47.7594 38.0683 48.6954C39.2913 49.955 40.3796 51.3994 41.7148 52.5203C43.0837 53.6643 44.6545 54.5541 46.1804 55.4901C47.3698 56.2066 48.6264 56.819 49.8494 57.4661C49.9963 57.5418 49.8824 57.6726 49.729 57.6112C49.0816 57.3524 48.417 57.1128 47.8073 56.7844C45.8214 55.6981 43.8803 54.5079 41.8831 53.4332C39.9869 52.4163 38.0795 51.3648 36.0823 50.579C34.9828 50.1514 33.6925 50.2323 32.4919 50.1283C31.6167 50.0474 30.7416 50.059 29.8664 49.9781C29.8294 49.9753 29.7925 49.9704 29.7557 49.9636C29.3602 49.8905 29.4122 49.3647 29.8081 49.294C30.3716 49.1935 30.4276 48.6749 29.882 48.5017C29.2078 48.2877 28.5337 48.0736 27.8571 47.8595C27.7803 47.8352 27.7304 47.7596 27.7506 47.6816C27.7605 47.6432 27.7869 47.6092 27.8219 47.5906C28.3328 47.3189 28.864 47.4633 29.3952 47.5861C29.8459 47.6848 30.0117 47.2338 29.6217 46.9872C29.4776 46.896 29.3334 46.8049 29.1893 46.7137C28.6565 46.3765 28.8878 45.8296 29.4565 46.1017C29.8983 46.3131 30.3304 46.5475 30.764 46.7772C32.1329 47.5167 33.4681 48.3372 34.8369 49.0883C35.3977 49.3882 36 49.6134 36.584 49.8664C36.6252 49.8843 36.6733 49.871 36.6966 49.8326C36.7225 49.79 36.7153 49.7335 36.6775 49.701C36.2846 49.3631 35.8918 49.0338 35.4989 48.6839C32.8173 46.2803 29.7542 44.4892 26.5565 42.9523C25.7599 42.5709 24.7837 42.5709 23.8861 42.3745C23.0109 42.1896 22.1358 42.0163 21.2718 41.7967C21.2501 41.7911 21.2286 41.7847 21.2071 41.7776C20.8252 41.6501 20.8842 41.1042 21.2869 41.103C21.8018 41.1015 21.9165 40.6816 21.4599 40.4438C21.2566 40.3379 21.0553 40.2332 20.8539 40.1285C20.5481 39.9695 20.1727 40.046 19.954 40.3124C19.2179 41.2087 18.4889 42.0978 17.7599 42.9869C14.1022 47.4705 10.4444 51.9426 6.78668 56.4261C5.87785 57.5355 4.72218 57.9168 3.36455 57.547C1.98448 57.1657 1.21029 56.1835 0.92979 54.7506C0.638067 53.2715 1.03077 52.0697 2.09668 50.995C7.24709 45.8286 12.3641 40.6394 17.4921 35.45C17.5355 35.4061 17.5648 35.3608 17.5914 35.3051ZM26.8351 35.1086C26.5559 34.0524 25.1845 33.7458 24.5032 34.5998C24.3936 34.7371 24.2852 34.8748 24.1778 35.0136C24.0768 35.1407 24.0768 35.4527 24.1554 35.6145C24.952 37.2785 25.9955 38.7691 27.2521 40.098C27.5887 40.4563 27.8805 40.8607 28.2058 41.2189C28.5792 41.6355 28.9814 42.0225 29.3769 42.4255C29.4314 42.4811 29.5203 42.4859 29.5819 42.4383C29.6372 42.3955 29.6513 42.319 29.6174 42.2578C29.0534 41.2406 28.489 40.2132 27.9141 39.1967C27.095 37.7407 26.2535 36.2847 25.4569 34.8171C25.329 34.584 25.3219 34.271 25.2767 33.9793C25.2657 33.9083 25.3019 33.8373 25.3677 33.8082C25.4379 33.7772 25.5202 33.8033 25.5599 33.869C26.0187 34.63 26.4862 35.3904 26.9446 36.1412C26.9662 36.1765 27.0112 36.1896 27.049 36.1729C27.0827 36.158 27.0998 36.1207 27.0906 36.0851C27.0072 35.7623 26.9221 35.4375 26.8351 35.1086ZM21.9978 37.6781C21.7633 37.9693 21.7668 38.3887 22.0266 38.6575C22.136 38.7707 22.2468 38.8816 22.3589 38.9901C23.3708 39.9699 24.4652 38.5246 23.3041 37.7273C23.1929 37.6509 23.0803 37.5761 22.9662 37.5028C22.6494 37.2993 22.2339 37.3849 21.9978 37.6781Z" fill="white"/>
</svg>
