<svg width="52" height="57" viewBox="0 0 52 57" fill="none" xmlns="http://www.w3.org/2000/svg">
<path d="M17.9843 34.3323C16.4921 33.6937 14.9998 33.2262 13.6422 32.1658C14.8651 32.0974 15.7964 32.6789 16.8287 32.9184C15.3588 31.6983 13.788 30.6151 12.6436 29.0302C13.8553 29.8398 15.0671 30.6379 16.2789 31.4475C16.3125 31.4133 16.3462 31.3905 16.3686 31.3563C15.5496 30.4897 14.7417 29.6345 13.9227 28.7679C13.9563 28.7109 13.99 28.6539 14.0236 28.5969C14.3602 28.7794 14.7529 28.8934 15.0222 29.1556C16.1106 30.1932 17.154 31.2765 18.2087 32.3483C18.4892 32.6333 18.7361 32.9298 19.0502 33.2718C19.2746 33.0552 19.4429 32.8728 19.6225 32.7245C19.9366 32.4851 19.8805 32.257 19.6898 31.9606C18.2873 29.817 16.4247 28.1522 14.2593 26.8866C12.5987 25.9174 10.8035 25.1876 9.07558 24.3439C8.33505 23.979 7.60575 23.5913 6.86522 23.215C6.89888 23.1238 6.92132 23.0326 6.95498 22.9414C7.50477 23.0554 8.06577 23.158 8.73897 23.2949C7.67306 22.3713 6.47252 21.767 5.79931 20.5925C5.83297 20.5469 5.85541 20.4899 5.88907 20.4443C7.23548 21.2881 8.57068 22.1318 10.0629 23.0668C9.06436 21.6871 8.16675 20.4557 7.28036 19.2242C7.32524 19.1786 7.37013 19.133 7.42623 19.0874C7.88625 19.5435 8.36871 19.9654 8.79507 20.4443C9.93952 21.7441 11.0167 23.1124 12.206 24.3553C12.7558 24.9254 13.5075 25.2903 14.1583 25.7578C15.0447 26.3849 15.9198 27.0234 16.8848 27.7189C16.8174 27.5137 16.795 27.3769 16.7277 27.2743C14.8764 24.1044 12.8455 21.0486 10.2649 18.4261C9.8161 17.97 9.21022 17.6393 8.62677 17.3657C7.62818 16.9096 6.5735 16.5675 5.55247 16.1684C4.93536 15.929 4.32948 15.6553 3.90311 15.108C3.92555 15.0396 3.94799 14.9826 3.97043 14.9142C4.85682 15.1422 5.75443 15.3817 6.64082 15.6097C4.90171 14.0134 3.0055 12.5767 1.83861 10.4331C3.42065 11.7557 5.00268 13.0784 6.5735 14.4125C6.61838 14.3783 6.66326 14.3327 6.69692 14.2985C5.84419 13.067 4.99147 11.8242 4.14996 10.5927C4.20606 10.5357 4.26216 10.4787 4.31826 10.4217C4.58754 10.6497 4.9017 10.8436 5.11488 11.1172C6.03493 12.3259 6.87644 13.6143 7.85259 14.7888C8.68288 15.7808 9.67024 16.6473 10.5342 17.6051C11.3308 18.4831 12.0601 19.4181 12.8119 20.3303C12.9241 20.4671 13.0475 20.6153 13.1597 20.7521C13.2046 20.7293 13.2495 20.7065 13.3056 20.6723C13.1597 20.3303 13.0138 19.9768 12.8567 19.6461C12.1162 18.084 11.4655 16.4535 10.5903 14.9712C9.40096 12.9644 7.94235 11.1514 6.06859 9.73755C5.58613 9.37268 4.96903 9.21304 4.3968 8.97359C3.54407 8.60872 2.62403 8.36928 1.92838 7.57112C2.93819 7.33167 3.74603 8.0158 4.81194 8.18684C3.88067 7.16063 2.51182 6.78436 2.06302 5.5073C2.1079 5.43889 2.14156 5.38188 2.18644 5.31346C2.62403 5.56431 3.07283 5.82657 3.58895 6.12303C3.18503 5.39328 2.81476 4.73195 2.45572 4.05921C2.48938 4.02501 2.52304 3.9908 2.5567 3.95659C2.79233 4.15043 3.0616 4.31006 3.24113 4.53811C4.3968 6.009 5.50759 7.5141 6.67448 8.96219C7.69551 10.2278 8.77263 11.4593 9.90586 12.6565C9.50194 11.7101 9.13168 10.7524 8.68287 9.82877C8.12187 8.65433 7.70673 7.40008 6.76424 6.45369C5.48515 5.17664 4.2285 3.88818 2.97185 2.58832C2.61281 2.21204 2.30986 1.79016 2.0518 1.31126C3.56651 2.04101 4.59876 3.36367 5.81053 4.46969C5.85541 4.43549 5.90029 4.41268 5.94517 4.37848C5.26075 2.95319 4.57632 1.53931 3.88067 0.114023C3.93677 0.079816 4.0041 0.0342068 4.0602 0C5.14855 1.64193 6.24811 3.28386 7.33646 4.92579C7.37012 4.91438 7.415 4.90298 7.44866 4.89158C7.23548 3.71715 7.0223 2.55411 6.82034 1.37968C6.88766 1.35687 6.95498 1.33407 7.0223 1.32267C7.11206 1.56211 7.22426 1.79016 7.26914 2.04101C7.48232 3.10142 7.60575 4.18464 7.90869 5.21084C8.30139 6.5107 8.82874 7.76495 9.33364 9.0192C9.61414 9.72614 9.97318 10.4103 10.3883 11.0944C10.4332 8.93939 9.79367 6.81857 10.0405 4.66353C10.1078 4.65213 10.1639 4.64073 10.2313 4.61792C10.422 5.13103 10.6015 5.64413 10.7923 6.15723C10.8259 6.15723 10.8596 6.15723 10.8932 6.15723C11.0615 5.22224 11.2298 4.27585 11.4206 3.24965C11.9591 3.63733 11.9255 4.07061 11.8806 4.46969C11.6899 6.12303 11.4767 7.77635 11.2747 9.41828C11.2523 9.57791 11.2747 9.73755 11.3308 9.90858C11.9479 8.87098 12.1835 7.63953 13.0138 6.75015C13.0699 6.76155 13.126 6.78436 13.1709 6.79576C13.1597 6.96679 13.1821 7.14923 13.126 7.29746C12.8455 8.16403 12.565 9.0192 12.2509 9.87437C11.7347 11.2655 11.4542 12.6907 11.7011 14.1616C11.8357 14.9484 12.1948 15.7009 12.5201 16.4421C13.3392 18.3349 14.1807 20.2162 15.0447 22.0862C15.4374 22.9414 15.8862 23.7623 16.3125 24.6061C16.3799 24.5947 16.436 24.5719 16.5033 24.5605C16.4247 24.1044 16.3799 23.6369 16.2789 23.1808C16.0208 22.0862 15.7291 20.9916 15.4598 19.897C15.2017 18.8708 14.9212 17.856 14.7081 16.8184C14.5846 16.2026 14.5622 15.5641 14.4949 14.937C14.5734 14.9142 14.6407 14.9028 14.7193 14.88C14.9998 15.5527 15.2915 16.2368 15.6281 17.0578C15.8189 15.8948 15.9872 14.8686 16.1555 13.8424C16.2116 13.8424 16.2677 13.8538 16.3125 13.8538C16.3911 15.2448 16.4696 16.6473 16.5594 18.0384C16.6043 18.0498 16.6491 18.0498 16.7052 18.0612C17.0979 17.1718 17.1989 16.1342 18.1077 15.4729C18.0404 15.8834 17.9956 16.2825 17.9058 16.6929C17.5804 18.1638 17.1428 19.6233 16.9296 21.117C16.8174 21.938 17.0531 22.8046 17.1765 23.6483C17.3448 24.7544 17.3672 25.9402 17.8048 26.9208C18.5566 28.5969 19.5888 30.1362 20.5425 31.8124C20.823 31.5387 20.9801 31.3677 21.1596 31.208C21.4289 30.9686 21.4289 30.7405 21.2943 30.4099C20.8006 29.2468 20.3293 28.0724 19.8805 26.898C19.7459 26.5331 19.7234 26.134 19.6561 25.7463C19.7234 25.7235 19.7795 25.6893 19.8469 25.6665C20.2283 26.3963 20.6211 27.1146 21.0923 28.004C21.0025 26.2024 20.5537 24.5605 21.0362 22.9072C21.687 23.9676 21.4626 25.2561 21.9114 26.5217C22.1694 25.5981 22.3938 24.8 22.6182 23.979C23.1792 24.1386 23.1792 24.4921 23.1007 24.857C22.8875 25.9288 22.6407 27.0006 22.4275 28.0724C22.3377 28.5513 22.3041 29.0416 22.2592 29.5319C22.248 29.6459 22.3377 29.76 22.405 29.9766C24.8847 27.5023 27.3082 25.085 29.7318 22.6677C28.4863 21.2538 28.0712 19.6347 28.4751 17.8674C28.6322 17.1946 28.98 16.4877 29.44 15.986C33.771 11.1856 38.1468 6.41949 42.5115 1.64193C42.5563 1.58492 42.6237 1.55071 42.6798 1.5051C43.4315 1.93839 43.5325 2.4857 42.9939 3.11282C39.6952 6.96679 36.3853 10.8208 33.0978 14.6861C32.8734 14.9484 32.5705 15.2334 32.9295 15.6211C33.2324 15.9404 33.8271 16.0088 34.1637 15.7123C34.635 15.2791 35.0725 14.8116 35.5213 14.3555C38.6966 11.083 41.8831 7.81056 45.0584 4.53811C45.1931 4.40128 45.294 4.24165 45.4062 4.11622C46.2477 4.57231 46.3599 5.11962 45.7877 5.78096C42.5227 9.58932 39.2576 13.4091 36.0038 17.2174C35.7345 17.5253 35.3082 17.8446 35.7906 18.3121C36.1384 18.6541 36.7443 18.5971 37.1482 18.1866C39.0108 16.2711 40.8621 14.3327 42.7471 12.4285C44.6096 10.5585 46.4946 8.72274 48.4132 6.84137C49.0303 7.16063 49.1537 7.75355 48.6264 8.36928C45.3501 12.189 42.0739 16.0202 38.7976 19.8514C38.5508 20.1364 38.0907 20.4215 38.5283 20.9004C38.8874 21.2995 39.482 21.2767 39.9308 20.832C41.3333 19.4067 42.7246 17.97 44.1159 16.5333C46.3039 14.2757 48.4918 12.0066 50.6909 9.74895C50.8255 9.61212 50.9602 9.4981 51.2182 9.24725C51.4426 9.70334 51.6334 10.091 51.8241 10.4901C50.5114 11.9268 49.2323 13.3407 47.9532 14.7431C44.9126 18.0726 41.8383 21.3679 38.8537 24.7429C37.0248 26.8182 34.1749 26.8638 32.4358 25.1306C32.3797 25.0736 32.3236 25.0394 32.2226 24.9596C32.0431 25.1762 31.8524 25.3815 31.6841 25.5981C30.0684 27.5479 28.4527 29.4977 26.837 31.4247C26.5901 31.7211 26.5228 31.972 26.6575 32.3483C26.9267 33.135 27.1287 33.9446 27.3756 34.7427C27.4204 34.9024 27.5102 35.0506 27.6336 35.1988C27.8131 33.899 27.3307 32.5649 27.9366 31.1624C28.0936 31.7097 28.2732 32.1316 28.3293 32.5649C28.4751 33.8078 28.5312 35.0506 28.6995 36.2935C28.9239 37.9468 29.2493 39.5887 30.2142 41.0026C31.0782 42.2797 31.8972 43.6023 32.8173 44.8452C33.21 45.3811 33.771 45.803 34.2871 46.2362C35.4989 47.251 36.7219 48.243 37.9449 49.2464C38.0571 49.3377 38.1805 49.3947 38.3488 49.4973C37.1258 48.015 35.8916 46.6239 34.7696 45.1416C33.6476 43.6707 32.3909 42.2911 31.6167 40.5807C31.6728 40.5351 31.7402 40.4781 31.7963 40.4325C32.5817 41.3789 33.3671 42.3139 34.2423 43.3515C33.6139 41.8122 33.0417 40.3983 32.4695 38.973C32.5368 38.9388 32.6041 38.916 32.6714 38.8818C33.569 40.6263 34.2983 42.4735 35.555 44.0128C35.353 42.6787 35.1511 41.3561 34.9491 40.022C35.7233 40.5921 35.7682 41.4245 35.9477 42.1884C36.1384 43.0322 36.2955 43.8874 36.4526 44.7425C36.6882 45.9968 37.1483 47.1256 38.0683 48.0492C39.2913 49.2921 40.3796 50.7173 41.7148 51.8234C43.0837 52.9522 44.6545 53.8302 46.1804 54.7537C47.3698 55.4607 48.6264 56.065 49.8494 56.7035C49.9616 56.7605 50.0626 56.8404 50.1075 57C49.3445 56.6807 48.5367 56.4185 47.8073 56.0308C45.8214 54.959 43.8803 53.7846 41.8831 52.7241C39.9869 51.7207 38.0795 50.6831 36.0823 49.9078C34.9828 49.4859 33.6925 49.5657 32.4919 49.4631C31.6167 49.3833 30.7416 49.3947 29.8664 49.3149C29.5635 49.2921 29.2717 49.1324 28.98 48.9386C29.945 48.3685 30.9772 48.6991 31.987 48.5167C30.5621 48.072 29.1483 47.6273 27.7234 47.1826C27.7346 47.1142 27.7458 47.0572 27.7683 46.9888C28.2956 46.6809 28.8454 46.8292 29.3952 46.9546C29.9225 47.0686 30.4499 47.2168 31.0109 47.2282C29.6869 46.4073 28.3629 45.5749 27.0389 44.7539C28.419 44.8908 29.5859 45.5407 30.764 46.1564C32.1329 46.8862 33.4681 47.6957 34.8369 48.4369C35.4204 48.7447 36.0487 48.9728 36.6546 49.235C36.6882 49.1894 36.7107 49.1438 36.7443 49.0982C36.3292 48.7447 35.914 48.4027 35.4989 48.0378C32.8173 45.6661 29.7542 43.8988 26.5565 42.3823C25.7599 42.006 24.7837 42.006 23.8861 41.8122C23.0109 41.6297 22.1358 41.4587 21.2718 41.242C21.0025 41.1736 20.7557 40.9798 20.4079 40.7974C21.2718 40.2728 22.0572 40.786 22.9773 40.6947C22.0236 40.193 21.1933 39.7712 20.3293 39.3265C19.4654 40.3641 18.6127 41.3903 17.7599 42.4165C14.1022 46.8406 10.4444 51.2532 6.78668 55.6773C5.87785 56.7719 4.72218 57.1482 3.36455 56.7834C1.98448 56.4071 1.21029 55.4379 0.92979 54.024C0.638067 52.5645 1.03077 51.3787 2.09668 50.3183C7.26915 45.1986 12.4079 40.0562 17.558 34.9138C17.6365 34.7085 17.7824 34.5375 17.9843 34.3323ZM26.1638 32.1544C25.4457 33.0096 24.7949 33.7621 24.1778 34.5489C24.0768 34.6743 24.0768 34.9822 24.1554 35.1418C24.952 36.7838 25.9955 38.2546 27.2521 39.5659C27.5887 39.9194 27.8805 40.3185 28.2058 40.6719C28.6098 41.1166 29.0473 41.5271 29.4737 41.9604C29.541 41.9034 29.6084 41.8578 29.6757 41.8008C29.0922 40.7632 28.5088 39.7141 27.9141 38.6765C27.095 37.2398 26.2535 35.8032 25.4569 34.3551C25.311 34.0928 25.3223 33.7279 25.2549 33.4087C25.3335 33.3745 25.412 33.3403 25.4906 33.3061C25.9843 34.1156 26.4892 34.9252 26.9828 35.7233C27.0277 35.7005 27.0614 35.6891 27.1063 35.6663C26.8145 34.5489 26.5004 33.4087 26.1638 32.1544ZM21.586 37.6731C23.7515 40.1018 26.5116 41.4473 29.2942 42.7814C27.0389 40.7175 25.1652 38.2204 22.405 36.6697C22.1358 37.0118 21.8665 37.3425 21.586 37.6731Z" fill="white"/>
</svg>
