<svg width="18" height="19" viewBox="0 0 18 19" fill="none" xmlns="http://www.w3.org/2000/svg">
<path d="M9.9 8.78506H4.5C4.26131 8.78506 4.03239 8.87988 3.8636 9.04866C3.69482 9.21744 3.6 9.44636 3.6 9.68506C3.6 9.92375 3.69482 10.1527 3.8636 10.3215C4.03239 10.4902 4.26131 10.5851 4.5 10.5851H9.9C10.1387 10.5851 10.3676 10.4902 10.5364 10.3215C10.7052 10.1527 10.8 9.92375 10.8 9.68506C10.8 9.44636 10.7052 9.21744 10.5364 9.04866C10.3676 8.87988 10.1387 8.78506 9.9 8.78506V8.78506ZM13.5 5.18506H4.5C4.26131 5.18506 4.03239 5.27988 3.8636 5.44866C3.69482 5.61745 3.6 5.84636 3.6 6.08506C3.6 6.32375 3.69482 6.55267 3.8636 6.72145C4.03239 6.89024 4.26131 6.98506 4.5 6.98506H13.5C13.7387 6.98506 13.9676 6.89024 14.1364 6.72145C14.3052 6.55267 14.4 6.32375 14.4 6.08506C14.4 5.84636 14.3052 5.61745 14.1364 5.44866C13.9676 5.27988 13.7387 5.18506 13.5 5.18506V5.18506ZM15.3 0.685059H2.7C1.98392 0.685059 1.29716 0.969522 0.790812 1.47587C0.284464 1.98222 0 2.66897 0 3.38506V12.3851C0 13.1011 0.284464 13.7879 0.790812 14.2942C1.29716 14.8006 1.98392 15.0851 2.7 15.0851H13.131L16.461 18.4241C16.5451 18.5075 16.6448 18.5735 16.7545 18.6183C16.8641 18.663 16.9816 18.6857 17.1 18.6851C17.2181 18.6881 17.3352 18.6634 17.442 18.6131C17.6064 18.5455 17.7471 18.4309 17.8464 18.2835C17.9457 18.1362 17.9991 17.9627 18 17.7851V3.38506C18 2.66897 17.7155 1.98222 17.2092 1.47587C16.7028 0.969522 16.0161 0.685059 15.3 0.685059ZM16.2 15.6161L14.139 13.5461C14.0549 13.4626 13.9552 13.3967 13.8455 13.3519C13.7359 13.3071 13.6184 13.2844 13.5 13.2851H2.7C2.4613 13.2851 2.23239 13.1902 2.0636 13.0215C1.89482 12.8527 1.8 12.6238 1.8 12.3851V3.38506C1.8 3.14636 1.89482 2.91745 2.0636 2.74866C2.23239 2.57988 2.4613 2.48506 2.7 2.48506H15.3C15.5387 2.48506 15.7676 2.57988 15.9364 2.74866C16.1052 2.91745 16.2 3.14636 16.2 3.38506V15.6161Z" fill="white"/>
</svg>
