<svg width="322" height="207" viewBox="0 0 322 207" fill="none" xmlns="http://www.w3.org/2000/svg">
<g filter="url(#filter0_d_217_4423)">
<path d="M294 7.13623H28C18.0589 7.13623 10 14.8168 10 24.2912V176.779C10 186.254 18.0589 193.934 28 193.934H294C303.941 193.934 312 186.254 312 176.779V24.2912C312 14.8168 303.941 7.13623 294 7.13623Z" fill="white"/>
<path d="M294 7.61279H28C18.335 7.61279 10.5 15.08 10.5 24.2912V176.779C10.5 185.991 18.335 193.458 28 193.458H294C303.665 193.458 311.5 185.991 311.5 176.779V24.2912C311.5 15.08 303.665 7.61279 294 7.61279Z" stroke="#EDEDED"/>
</g>
<defs>
<filter id="filter0_d_217_4423" x="0" y="0.112793" width="322" height="206.845" filterUnits="userSpaceOnUse" color-interpolation-filters="sRGB">
<feFlood flood-opacity="0" result="BackgroundImageFix"/>
<feColorMatrix in="SourceAlpha" type="matrix" values="0 0 0 0 0 0 0 0 0 0 0 0 0 0 0 0 0 0 127 0" result="hardAlpha"/>
<feOffset dy="3"/>
<feGaussianBlur stdDeviation="5"/>
<feColorMatrix type="matrix" values="0 0 0 0 0 0 0 0 0 0 0 0 0 0 0 0 0 0 0.039 0"/>
<feBlend mode="normal" in2="BackgroundImageFix" result="effect1_dropShadow_217_4423"/>
<feBlend mode="normal" in="SourceGraphic" in2="effect1_dropShadow_217_4423" result="shape"/>
</filter>
</defs>
</svg>
