<svg width="31" height="14" viewBox="0 0 31 14" fill="none" xmlns="http://www.w3.org/2000/svg">
<path opacity="0.35" fill-rule="evenodd" clip-rule="evenodd" d="M5.46712 1.8667H23.2005C24.4891 1.8667 25.5338 2.91137 25.5338 4.20003V10.2667C25.5338 11.5554 24.4891 12.6 23.2005 12.6H5.46712C4.17846 12.6 3.13379 11.5554 3.13379 10.2667V4.20003C3.13379 2.91137 4.17846 1.8667 5.46712 1.8667ZM5.46718 2.8002C4.69398 2.8002 4.06718 3.427 4.06718 4.2002V10.2669C4.06718 11.0401 4.69398 11.6669 5.46718 11.6669H23.2005C23.9737 11.6669 24.6005 11.0401 24.6005 10.2669V4.2002C24.6005 3.427 23.9737 2.8002 23.2005 2.8002H5.46718Z" fill="white"/>
<path opacity="0.4" fill-rule="evenodd" clip-rule="evenodd" d="M26.4673 4.94678C27.2983 5.37161 27.8673 6.23615 27.8673 7.23358C27.8673 8.23101 27.2983 9.09555 26.4673 9.52038V4.94678Z" fill="white"/>
<path fill-rule="evenodd" clip-rule="evenodd" d="M5.93382 3.7334H22.7338C23.2493 3.7334 23.6672 4.15127 23.6672 4.66673V9.80007C23.6672 10.3155 23.2493 10.7334 22.7338 10.7334H5.93382C5.41836 10.7334 5.00049 10.3155 5.00049 9.80007V4.66673C5.00049 4.15127 5.41836 3.7334 5.93382 3.7334Z" fill="white"/>
</svg>
