<svg width="14" height="14" viewBox="0 0 14 14" fill="none" xmlns="http://www.w3.org/2000/svg">
<path fill-rule="evenodd" clip-rule="evenodd" d="M3.73314 6.39984V5.4665C3.73314 3.92011 4.98674 2.6665 6.53314 2.6665C8.07954 2.6665 9.33314 3.92011 9.33314 5.4665V6.39984H9.79981C10.0575 6.39984 10.2665 6.60877 10.2665 6.8665V11.5332C10.2665 11.7909 10.0575 11.9998 9.79981 11.9998H3.26647C3.00874 11.9998 2.7998 11.7909 2.7998 11.5332V6.8665C2.7998 6.60877 3.00874 6.39984 3.26647 6.39984H3.73314ZM4.66647 6.39984H8.39981V5.4665C8.39981 4.43557 7.56407 3.59984 6.53314 3.59984C5.50221 3.59984 4.66647 4.43557 4.66647 5.4665V6.39984Z" fill="black"/>
</svg>
