<svg width="14" height="14" viewBox="0 0 14 14" fill="none" xmlns="http://www.w3.org/2000/svg">
<path fill-rule="evenodd" clip-rule="evenodd" d="M13.0506 4.22145C11.267 2.6979 9.01358 1.8667 6.6572 1.8667C4.29385 1.8667 2.03423 2.70286 0.248399 4.23464L0.0967354 4.36473C-0.0259129 4.46993 -0.032953 4.65693 0.0814401 4.77101L1.13326 5.8199C1.23535 5.92171 1.3986 5.92866 1.50901 5.83589L1.63932 5.72642C3.04572 4.54484 4.81149 3.9017 6.6572 3.9017C8.49664 3.9017 10.2568 4.54044 11.6611 5.71467L11.7913 5.82359C11.9018 5.91594 12.0647 5.90882 12.1666 5.80718L13.2186 4.75814C13.3331 4.6439 13.3259 4.45659 13.2028 4.35149L13.0506 4.22145ZM6.65723 5.10514C8.142 5.10514 9.5676 5.5977 10.7289 6.50987L10.8931 6.63878C11.0239 6.74156 11.0354 6.93522 10.9176 7.05267L9.86223 8.10513C9.76462 8.20248 9.61016 8.21366 9.49947 8.13139L9.37082 8.03578C8.58645 7.45283 7.64065 7.14014 6.65723 7.14014C5.66775 7.14014 4.71642 7.45672 3.92945 8.04636L3.80067 8.14285C3.68997 8.22579 3.53494 8.21487 3.43704 8.11723L2.38203 7.06516C2.2645 6.94796 2.27566 6.75478 2.40591 6.65181L2.56911 6.5228C3.7332 5.6025 5.16528 5.10514 6.65723 5.10514ZM6.65727 8.34356C7.25413 8.34356 7.83409 8.50039 8.3451 8.79946L8.55215 8.92063C8.70912 9.01249 8.73673 9.22749 8.60803 9.35583L6.84022 11.1187C6.73163 11.227 6.55558 11.227 6.447 11.1187L4.69055 9.36716C4.56242 9.23938 4.58912 9.02548 4.74477 8.93294L4.94949 8.81121C5.4652 8.50458 6.05252 8.34356 6.65727 8.34356Z" fill="white"/>
</svg>
