<svg width="20" height="20" viewBox="0 0 20 20" fill="none" xmlns="http://www.w3.org/2000/svg">
<path d="M18.3332 7.50009V12.5001C18.3332 14.5834 17.9165 16.0418 16.9832 16.9834L11.6665 11.6668L18.1082 5.2251C18.2582 5.88343 18.3332 6.63343 18.3332 7.50009Z" stroke="#161616" stroke-width="1.5" stroke-linecap="round" stroke-linejoin="round"/>
<path d="M18.1082 5.22484L5.22483 18.1082C2.71649 17.5332 1.6665 15.7998 1.6665 12.4998V7.49984C1.6665 3.33317 3.33317 1.6665 7.49984 1.6665H12.4998C15.7998 1.6665 17.5332 2.71651 18.1082 5.22484Z" stroke="#161616" stroke-width="1.5" stroke-linecap="round" stroke-linejoin="round"/>
<path d="M16.9834 16.9832C16.0418 17.9165 14.5834 18.3332 12.5001 18.3332H7.50011C6.63344 18.3332 5.88343 18.2582 5.2251 18.1082L11.6668 11.6665L16.9834 16.9832Z" stroke="#161616" stroke-width="1.5" stroke-linecap="round" stroke-linejoin="round"/>
<path d="M5.20022 6.6501C5.76689 4.20843 9.43356 4.20843 10.0002 6.6501C10.3252 8.08343 9.42522 9.3001 8.63355 10.0501C8.05855 10.6001 7.15023 10.6001 6.5669 10.0501C5.77523 9.3001 4.86689 8.08343 5.20022 6.6501Z" stroke="#161616" stroke-width="1.5"/>
<path d="M7.57908 7.25016H7.58657" stroke="#161616" stroke-width="2" stroke-linecap="round" stroke-linejoin="round"/>
</svg>
