<svg width="25" height="7" viewBox="0 0 25 7" fill="none" xmlns="http://www.w3.org/2000/svg">
<path d="M12.3169 6.83706C13.7807 6.83706 14.9674 5.52023 14.9674 3.89583C14.9674 2.27143 13.7807 0.95459 12.3169 0.95459C10.853 0.95459 9.66634 2.27143 9.66634 3.89583C9.66634 5.52023 10.853 6.83706 12.3169 6.83706Z" fill="#706C6C"/>
<path d="M21.5938 6.83706C23.0577 6.83706 24.2444 5.52023 24.2444 3.89583C24.2444 2.27143 23.0577 0.95459 21.5938 0.95459C20.13 0.95459 18.9433 2.27143 18.9433 3.89583C18.9433 5.52023 20.13 6.83706 21.5938 6.83706Z" fill="#706C6C"/>
<path d="M3.03995 6.83706C4.50381 6.83706 5.69051 5.52023 5.69051 3.89583C5.69051 2.27143 4.50381 0.95459 3.03995 0.95459C1.5761 0.95459 0.389404 2.27143 0.389404 3.89583C0.389404 5.52023 1.5761 6.83706 3.03995 6.83706Z" fill="#706C6C"/>
</svg>
