<svg width="358" height="83" viewBox="0 0 358 83" fill="none" xmlns="http://www.w3.org/2000/svg">
<g filter="url(#filter0_d_38_1212)">
<path d="M4 20C4 8.9543 12.9543 0 24 0H334C345.046 0 354 8.95431 354 20V55C354 66.0457 345.046 75 334 75H24C12.9543 75 4 66.0457 4 55V20Z" fill="#2A746E"/>
<path d="M167.532 24.3526C166.797 23.6318 165.646 23.6318 164.91 24.3526L155.667 33.4087C155.095 33.9691 154.771 34.7487 154.771 35.5642V46.578C154.771 48.2162 156.053 49.5444 157.634 49.5444H160.496C162.077 49.5444 163.359 48.2162 163.359 46.578V41.634C163.359 41.088 163.786 40.6452 164.313 40.6452H168.13C168.657 40.6452 169.084 41.088 169.084 41.634V46.578C169.084 48.2162 170.366 49.5444 171.947 49.5444H174.809C176.39 49.5444 177.672 48.2162 177.672 46.578V35.5642C177.672 34.7487 177.348 33.9691 176.776 33.4087L167.532 24.3526Z" fill="white"/>
<path d="M216.794 23.812H252.099V56.2158H216.794V23.812Z" fill="#2A746E"/>
<path d="M234.447 38.6637C235.61 38.6637 236.748 38.347 237.716 37.7536C238.683 37.1601 239.438 36.3167 239.883 35.3298C240.328 34.343 240.445 33.2571 240.218 32.2095C239.991 31.1619 239.43 30.1996 238.607 29.4443C237.784 28.689 236.736 28.1746 235.595 27.9663C234.453 27.7579 233.27 27.8648 232.195 28.2736C231.12 28.6823 230.201 29.3746 229.554 30.2627C228.907 31.1508 228.562 32.195 228.562 33.2631C228.562 34.6954 229.182 36.0691 230.286 37.0819C231.389 38.0947 232.886 38.6637 234.447 38.6637Z" fill="white"/>
<path d="M243.273 52.1653C243.663 52.1653 244.037 52.023 244.313 51.7698C244.589 51.5166 244.744 51.1732 244.744 50.8151C244.744 48.3086 243.659 45.9046 241.728 44.1322C239.797 42.3598 237.178 41.364 234.447 41.364C231.716 41.364 229.096 42.3598 227.165 44.1322C225.234 45.9046 224.149 48.3086 224.149 50.8151C224.149 51.1732 224.304 51.5166 224.58 51.7698C224.856 52.023 225.23 52.1653 225.62 52.1653H243.273Z" fill="white"/>
<path d="M296.469 52.4039C298.068 52.4039 299.404 51.3706 299.905 49.9259H293.034C293.535 51.3706 294.871 52.4039 296.469 52.4039ZM305.004 43.2182V37.5362C305.004 33.5505 302.34 30.1929 298.731 29.1831C298.374 28.2688 297.501 27.6245 296.469 27.6245C295.438 27.6245 294.565 28.2688 294.208 29.1831C290.599 30.1941 287.935 33.5505 287.935 37.5362V43.2182L285.853 45.3331C285.624 45.5648 285.496 45.8795 285.496 46.209V47.448C285.496 48.1331 286.041 48.687 286.715 48.687H306.223C306.898 48.687 307.443 48.1331 307.443 47.448V46.209C307.443 45.8795 307.315 45.5648 307.085 45.3331L305.004 43.2182Z" fill="white"/>
<path d="M85.9097 41.682C85.9097 44.7956 85.9097 46.3524 86.5163 47.5416C87.05 48.5877 87.9015 49.4382 88.9488 49.9712C90.1395 50.5771 91.6982 50.5771 94.8155 50.5771H99.2684C102.386 50.5771 103.944 50.5771 105.135 49.9712C106.182 49.4382 107.034 48.5877 107.568 47.5416C108.174 46.3524 108.174 44.7956 108.174 41.682V33.4136C108.174 32.3198 108.174 31.666 108.094 31.119C108.075 30.986 108.051 30.8593 108.021 30.7341C107.884 30.1668 107.659 29.6245 107.354 29.1271C107.01 28.5661 106.529 28.0853 105.566 27.1238L103.825 25.3851C102.862 24.4236 102.381 23.9428 101.819 23.599C101.321 23.2942 100.778 23.0696 100.21 22.9334C100.085 22.9033 99.9582 22.8792 99.8251 22.8597C99.2774 22.7798 98.6228 22.7798 97.5277 22.7798H94.8155C91.6982 22.7798 90.1395 22.7798 88.9488 23.3857C87.9015 23.9187 87.05 24.7692 86.5163 25.8153C85.9097 27.0045 85.9097 28.5613 85.9097 31.6749V41.682Z" fill="#EFAC46"/>
<path d="M99.8251 22.8597V24.4476C99.8251 26.7828 99.8251 27.9504 100.28 28.8423C100.68 29.6269 101.319 30.2648 102.104 30.6645C102.997 31.119 104.166 31.119 106.504 31.119L108.094 31.119M99.8251 22.8597C99.2774 22.7798 98.6228 22.7798 97.5277 22.7798H94.8155C91.6982 22.7798 90.1395 22.7798 88.9488 23.3857C87.9015 23.9187 87.05 24.7692 86.5163 25.8153C85.9097 27.0045 85.9097 28.5613 85.9097 31.6749V41.682C85.9097 44.7956 85.9097 46.3524 86.5163 47.5416C87.05 48.5877 87.9015 49.4382 88.9488 49.9712C90.1395 50.5771 91.6982 50.5771 94.8155 50.5771H99.2684C102.386 50.5771 103.944 50.5771 105.135 49.9712C106.182 49.4382 107.034 48.5877 107.568 47.5416C108.174 46.3524 108.174 44.7956 108.174 41.682V33.4136C108.174 32.3198 108.174 31.666 108.094 31.119M99.8251 22.8597C99.9582 22.8792 100.085 22.9033 100.21 22.9334C100.778 23.0696 101.321 23.2942 101.819 23.599C102.381 23.9428 102.862 24.4236 103.825 25.3851L105.566 27.1238C106.529 28.0853 107.01 28.5661 107.354 29.1271C107.659 29.6245 107.884 30.1668 108.021 30.7341C108.051 30.8593 108.075 30.986 108.094 31.119" stroke="#2A746E" stroke-width="2" stroke-linecap="round" stroke-linejoin="round"/>
<path d="M51.82 32.4893C53.465 33.3296 54.5701 34.8849 54.5701 36.6785C54.5701 38.4721 53.465 40.0274 51.82 40.8678C52.3976 42.6112 52.0711 44.5052 50.8028 45.772C49.5345 47.0388 47.6382 47.3524 45.8927 46.788C45.0639 48.431 43.4942 49.5348 41.6984 49.5348C39.9026 49.5348 38.3455 48.431 37.5041 46.788C35.7586 47.3524 33.8623 47.0388 32.594 45.772C31.3257 44.5052 31.0117 42.6112 31.5894 40.8678C29.9443 40.0274 28.8267 38.4721 28.8267 36.6785C28.8267 34.8849 29.9443 33.3296 31.5894 32.4893C31.0117 30.7458 31.3257 28.8519 32.594 27.5851C33.8623 26.3183 35.7586 25.9922 37.5167 26.5691C38.3455 24.926 39.9026 23.8223 41.6984 23.8223C43.4942 23.8223 45.0639 24.926 45.8927 26.5691C47.6382 25.9922 49.5345 26.3183 50.8028 27.5851C52.0711 28.8519 52.3976 30.7458 51.82 32.4893Z" fill="white"/>
<path d="M37.5238 36.8736L40.3163 39.6597C41.6593 37.314 43.518 35.3035 45.7522 33.7797L45.8731 33.6973M54.5701 36.6785C54.5701 34.8849 53.4651 33.3296 51.82 32.4893C52.3976 30.7458 52.0711 28.8519 50.8028 27.5851C49.5345 26.3183 47.6382 25.9922 45.8927 26.5691C45.0639 24.926 43.4942 23.8223 41.6984 23.8223C39.9026 23.8223 38.3455 24.926 37.5167 26.5691C35.7586 25.9922 33.8623 26.3183 32.594 27.5851C31.3257 28.8519 31.0117 30.7458 31.5894 32.4893C29.9443 33.3296 28.8267 34.8849 28.8267 36.6785C28.8267 38.4721 29.9443 40.0274 31.5894 40.8678C31.0117 42.6112 31.3257 44.5052 32.594 45.772C33.8623 47.0388 35.7586 47.3524 37.5041 46.788C38.3455 48.431 39.9026 49.5348 41.6984 49.5348C43.4942 49.5348 45.0639 48.431 45.8927 46.788C47.6382 47.3524 49.5345 47.0388 50.8028 45.772C52.0711 44.5052 52.3976 42.6112 51.82 40.8678C53.4651 40.0274 54.5701 38.4721 54.5701 36.6785Z" stroke="#2A746E" stroke-width="2" stroke-linecap="round" stroke-linejoin="round"/>
</g>
<defs>
<filter id="filter0_d_38_1212" x="0" y="0" width="358" height="83" filterUnits="userSpaceOnUse" color-interpolation-filters="sRGB">
<feFlood flood-opacity="0" result="BackgroundImageFix"/>
<feColorMatrix in="SourceAlpha" type="matrix" values="0 0 0 0 0 0 0 0 0 0 0 0 0 0 0 0 0 0 127 0" result="hardAlpha"/>
<feOffset dy="4"/>
<feGaussianBlur stdDeviation="2"/>
<feComposite in2="hardAlpha" operator="out"/>
<feColorMatrix type="matrix" values="0 0 0 0 0 0 0 0 0 0 0 0 0 0 0 0 0 0 0.25 0"/>
<feBlend mode="normal" in2="BackgroundImageFix" result="effect1_dropShadow_38_1212"/>
<feBlend mode="normal" in="SourceGraphic" in2="effect1_dropShadow_38_1212" result="shape"/>
</filter>
</defs>
</svg>
