<svg width="358" height="83" viewBox="0 0 358 83" fill="none" xmlns="http://www.w3.org/2000/svg">
<g filter="url(#filter0_d_66_2839)">
<path d="M4 20C4 8.9543 12.9543 0 24 0H334C345.046 0 354 8.95431 354 20V55C354 66.0457 345.046 75 334 75H24C12.9543 75 4 66.0457 4 55V20Z" fill="#2A746E"/>
<path d="M180.532 22.3526C179.797 21.6318 178.646 21.6318 177.91 22.3526L168.667 31.4087C168.095 31.9691 167.771 32.7487 167.771 33.5642V44.578C167.771 46.2162 169.053 47.5444 170.634 47.5444H173.496C175.077 47.5444 176.359 46.2162 176.359 44.578V39.634C176.359 39.088 176.786 38.6452 177.313 38.6452H181.13C181.657 38.6452 182.084 39.088 182.084 39.634V44.578C182.084 46.2162 183.366 47.5444 184.947 47.5444H187.809C189.39 47.5444 190.672 46.2162 190.672 44.578V33.5642C190.672 32.7487 190.348 31.9691 189.776 31.4087L180.532 22.3526Z" fill="#EFAC46"/>
<path d="M229.794 21.812H265.099V54.2158H229.794V21.812Z" fill="#2A746E"/>
<path d="M247.447 36.6637C248.61 36.6637 249.748 36.347 250.716 35.7536C251.683 35.1601 252.438 34.3167 252.883 33.3298C253.328 32.343 253.445 31.2571 253.218 30.2095C252.991 29.1619 252.43 28.1996 251.607 27.4443C250.784 26.689 249.736 26.1746 248.595 25.9663C247.453 25.7579 246.27 25.8648 245.195 26.2736C244.12 26.6823 243.201 27.3746 242.554 28.2627C241.907 29.1508 241.562 30.195 241.562 31.2631C241.562 32.6954 242.182 34.0691 243.286 35.0819C244.389 36.0947 245.886 36.6637 247.447 36.6637Z" fill="white"/>
<path d="M256.273 50.1653C256.663 50.1653 257.037 50.023 257.313 49.7698C257.589 49.5166 257.744 49.1732 257.744 48.8151C257.744 46.3085 256.659 43.9046 254.728 42.1322C252.797 40.3598 250.178 39.364 247.447 39.364C244.716 39.364 242.096 40.3598 240.165 42.1322C238.234 43.9046 237.149 46.3085 237.149 48.8151C237.149 49.1732 237.304 49.5166 237.58 49.7698C237.856 50.023 238.23 50.1653 238.62 50.1653H256.273Z" fill="white"/>
<path d="M309.469 50.4039C311.068 50.4039 312.404 49.3706 312.905 47.9259H306.034C306.535 49.3706 307.871 50.4039 309.469 50.4039ZM318.004 41.2182V35.5362C318.004 31.5505 315.34 28.1929 311.731 27.1831C311.374 26.2688 310.501 25.6245 309.469 25.6245C308.438 25.6245 307.565 26.2688 307.208 27.1831C303.599 28.1941 300.935 31.5505 300.935 35.5362V41.2182L298.853 43.3331C298.624 43.5648 298.496 43.8795 298.496 44.209V45.448C298.496 46.1331 299.041 46.687 299.715 46.687H319.223C319.898 46.687 320.443 46.1331 320.443 45.448V44.209C320.443 43.8795 320.315 43.5648 320.085 43.3331L318.004 41.2182Z" fill="white"/>
<path d="M98.9097 39.682C98.9097 42.7956 98.9097 44.3524 99.5163 45.5416C100.05 46.5877 100.902 47.4382 101.949 47.9712C103.14 48.5771 104.698 48.5771 107.816 48.5771H112.268C115.386 48.5771 116.944 48.5771 118.135 47.9712C119.182 47.4382 120.034 46.5877 120.568 45.5416C121.174 44.3524 121.174 42.7956 121.174 39.682V31.4136C121.174 30.3198 121.174 29.666 121.094 29.119C121.075 28.986 121.051 28.8593 121.021 28.7341C120.884 28.1668 120.659 27.6245 120.354 27.1271C120.01 26.5661 119.529 26.0853 118.566 25.1238L116.825 23.3851C115.862 22.4236 115.381 21.9428 114.819 21.599C114.321 21.2942 113.778 21.0696 113.21 20.9334C113.085 20.9033 112.958 20.8792 112.825 20.8597C112.277 20.7798 111.623 20.7798 110.528 20.7798H107.816C104.698 20.7798 103.14 20.7798 101.949 21.3857C100.902 21.9187 100.05 22.7692 99.5163 23.8153C98.9097 25.0045 98.9097 26.5613 98.9097 29.6749V39.682Z" fill="white"/>
<path d="M112.825 20.8597V22.4476C112.825 24.7828 112.825 25.9504 113.28 26.8423C113.68 27.6269 114.319 28.2648 115.104 28.6645C115.997 29.119 117.166 29.119 119.504 29.119L121.094 29.119M112.825 20.8597C112.277 20.7798 111.623 20.7798 110.528 20.7798H107.816C104.698 20.7798 103.14 20.7798 101.949 21.3857C100.902 21.9187 100.05 22.7692 99.5163 23.8153C98.9097 25.0045 98.9097 26.5613 98.9097 29.6749V39.682C98.9097 42.7956 98.9097 44.3524 99.5163 45.5416C100.05 46.5877 100.902 47.4382 101.949 47.9712C103.14 48.5771 104.698 48.5771 107.816 48.5771H112.268C115.386 48.5771 116.944 48.5771 118.135 47.9712C119.182 47.4382 120.034 46.5877 120.568 45.5416C121.174 44.3524 121.174 42.7956 121.174 39.682V31.4136C121.174 30.3198 121.174 29.666 121.094 29.119M112.825 20.8597C112.958 20.8792 113.085 20.9033 113.21 20.9334C113.778 21.0696 114.321 21.2942 114.819 21.599C115.381 21.9428 115.862 22.4236 116.825 23.3851L118.566 25.1238C119.529 26.0853 120.01 26.5661 120.354 27.1271C120.659 27.6245 120.884 28.1668 121.021 28.7341C121.051 28.8593 121.075 28.986 121.094 29.119" stroke="#2A746E" stroke-width="2" stroke-linecap="round" stroke-linejoin="round"/>
<path d="M64.82 30.4893C66.4651 31.3296 67.5701 32.8849 67.5701 34.6785C67.5701 36.4721 66.4651 38.0274 64.82 38.8678C65.3976 40.6112 65.0711 42.5052 63.8028 43.772C62.5345 45.0388 60.6382 45.3524 58.8927 44.788C58.0639 46.431 56.4942 47.5348 54.6984 47.5348C52.9026 47.5348 51.3455 46.431 50.5041 44.788C48.7586 45.3524 46.8623 45.0388 45.594 43.772C44.3257 42.5052 44.0117 40.6112 44.5894 38.8678C42.9443 38.0274 41.8267 36.4721 41.8267 34.6785C41.8267 32.8849 42.9443 31.3296 44.5894 30.4893C44.0117 28.7458 44.3257 26.8519 45.594 25.5851C46.8623 24.3183 48.7586 23.9922 50.5167 24.5691C51.3455 22.926 52.9026 21.8223 54.6984 21.8223C56.4942 21.8223 58.0639 22.926 58.8927 24.5691C60.6382 23.9922 62.5345 24.3183 63.8028 25.5851C65.0711 26.8519 65.3976 28.7458 64.82 30.4893Z" fill="white"/>
<path d="M50.5238 34.8736L53.3163 37.6597C54.6593 35.314 56.518 33.3035 58.7522 31.7797L58.8731 31.6973M67.5701 34.6785C67.5701 32.8849 66.4651 31.3296 64.82 30.4893C65.3976 28.7458 65.0711 26.8519 63.8028 25.5851C62.5345 24.3183 60.6382 23.9922 58.8927 24.5691C58.0639 22.926 56.4942 21.8223 54.6984 21.8223C52.9026 21.8223 51.3455 22.926 50.5167 24.5691C48.7586 23.9922 46.8623 24.3183 45.594 25.5851C44.3257 26.8519 44.0117 28.7458 44.5894 30.4893C42.9443 31.3296 41.8267 32.8849 41.8267 34.6785C41.8267 36.4721 42.9443 38.0274 44.5894 38.8678C44.0117 40.6112 44.3257 42.5052 45.594 43.772C46.8623 45.0388 48.7586 45.3524 50.5041 44.788C51.3455 46.431 52.9026 47.5348 54.6984 47.5348C56.4942 47.5348 58.0639 46.431 58.8927 44.788C60.6382 45.3524 62.5345 45.0388 63.8028 43.772C65.0711 42.5052 65.3976 40.6112 64.82 38.8678C66.4651 38.0274 67.5701 36.4721 67.5701 34.6785Z" stroke="#2A746E" stroke-width="2" stroke-linecap="round" stroke-linejoin="round"/>
</g>
<defs>
<filter id="filter0_d_66_2839" x="0" y="0" width="358" height="83" filterUnits="userSpaceOnUse" color-interpolation-filters="sRGB">
<feFlood flood-opacity="0" result="BackgroundImageFix"/>
<feColorMatrix in="SourceAlpha" type="matrix" values="0 0 0 0 0 0 0 0 0 0 0 0 0 0 0 0 0 0 127 0" result="hardAlpha"/>
<feOffset dy="4"/>
<feGaussianBlur stdDeviation="2"/>
<feComposite in2="hardAlpha" operator="out"/>
<feColorMatrix type="matrix" values="0 0 0 0 0 0 0 0 0 0 0 0 0 0 0 0 0 0 0.25 0"/>
<feBlend mode="normal" in2="BackgroundImageFix" result="effect1_dropShadow_66_2839"/>
<feBlend mode="normal" in="SourceGraphic" in2="effect1_dropShadow_66_2839" result="shape"/>
</filter>
</defs>
</svg>
