<svg width="358" height="83" viewBox="0 0 358 83" fill="none" xmlns="http://www.w3.org/2000/svg">
<g filter="url(#filter0_d_217_4399)">
<path d="M4 20C4 8.9543 12.9543 0 24 0H334C345.046 0 354 8.95431 354 20V55C354 66.0457 345.046 75 334 75H24C12.9543 75 4 66.0457 4 55V20Z" fill="#2A746E"/>
<path d="M167.532 24.3528C166.797 23.6321 165.646 23.6321 164.91 24.3528L155.667 33.409C155.095 33.9693 154.771 34.7489 154.771 35.5645V46.5782C154.771 48.2165 156.053 49.5447 157.634 49.5447H160.496C162.077 49.5447 163.359 48.2165 163.359 46.5782V41.6342C163.359 41.0882 163.786 40.6455 164.313 40.6455H168.13C168.657 40.6455 169.084 41.0882 169.084 41.6342V46.5782C169.084 48.2165 170.366 49.5447 171.947 49.5447H174.809C176.39 49.5447 177.672 48.2165 177.672 46.5782V35.5645C177.672 34.7489 177.348 33.9693 176.776 33.409L167.532 24.3528Z" fill="white"/>
<path d="M216.794 23.8123H252.099V56.216H216.794V23.8123Z" fill="#2A746E"/>
<path d="M234.447 38.664C235.61 38.664 236.748 38.3472 237.716 37.7538C238.683 37.1604 239.438 36.3169 239.883 35.3301C240.328 34.3432 240.445 33.2574 240.218 32.2097C239.991 31.1621 239.43 30.1998 238.607 29.4445C237.784 28.6892 236.736 28.1749 235.595 27.9665C234.453 27.7581 233.27 27.8651 232.195 28.2738C231.12 28.6826 230.201 29.3748 229.554 30.2629C228.907 31.1511 228.562 32.1952 228.562 33.2634C228.562 34.6957 229.182 36.0694 230.286 37.0822C231.389 38.095 232.886 38.664 234.447 38.664Z" fill="white"/>
<path d="M243.273 52.1655C243.663 52.1655 244.037 52.0233 244.313 51.7701C244.589 51.5169 244.744 51.1735 244.744 50.8154C244.744 48.3088 243.659 45.9049 241.728 44.1325C239.797 42.36 237.178 41.3643 234.447 41.3643C231.716 41.3643 229.096 42.36 227.165 44.1325C225.234 45.9049 224.149 48.3088 224.149 50.8154C224.149 51.1735 224.304 51.5169 224.58 51.7701C224.856 52.0233 225.23 52.1655 225.62 52.1655H243.273Z" fill="white"/>
<path d="M296.469 52.4039C298.068 52.4039 299.404 51.3706 299.905 49.9259H293.034C293.535 51.3706 294.871 52.4039 296.469 52.4039ZM305.004 43.2182V37.5362C305.004 33.5505 302.34 30.1929 298.731 29.1831C298.374 28.2688 297.501 27.6245 296.469 27.6245C295.438 27.6245 294.565 28.2688 294.208 29.1831C290.599 30.1941 287.935 33.5505 287.935 37.5362V43.2182L285.853 45.3331C285.624 45.5648 285.496 45.8795 285.496 46.209V47.448C285.496 48.1331 286.041 48.687 286.715 48.687H306.223C306.898 48.687 307.443 48.1331 307.443 47.448V46.209C307.443 45.8795 307.315 45.5648 307.085 45.3331L305.004 43.2182Z" fill="white"/>
<path d="M85.9097 41.682C85.9097 44.7956 85.9097 46.3524 86.5163 47.5416C87.05 48.5877 87.9015 49.4382 88.9488 49.9712C90.1395 50.5771 91.6982 50.5771 94.8155 50.5771H99.2684C102.386 50.5771 103.944 50.5771 105.135 49.9712C106.182 49.4382 107.034 48.5877 107.568 47.5416C108.174 46.3524 108.174 44.7956 108.174 41.682V33.4136C108.174 32.3198 108.174 31.666 108.094 31.119C108.075 30.986 108.051 30.8593 108.021 30.7341C107.884 30.1668 107.659 29.6245 107.354 29.1271C107.01 28.5661 106.529 28.0853 105.566 27.1238L103.825 25.3851C102.862 24.4236 102.381 23.9428 101.819 23.599C101.321 23.2942 100.778 23.0696 100.21 22.9334C100.085 22.9033 99.9582 22.8792 99.8251 22.8597C99.2774 22.7798 98.6228 22.7798 97.5277 22.7798H94.8155C91.6982 22.7798 90.1395 22.7798 88.9488 23.3857C87.9015 23.9187 87.05 24.7692 86.5163 25.8153C85.9097 27.0045 85.9097 28.5613 85.9097 31.6749V41.682Z" fill="white"/>
<path d="M99.8251 22.8597V24.4476C99.8251 26.7828 99.8251 27.9504 100.28 28.8423C100.68 29.6269 101.319 30.2648 102.104 30.6645C102.997 31.119 104.166 31.119 106.504 31.119L108.094 31.119M99.8251 22.8597C99.2774 22.7798 98.6228 22.7798 97.5277 22.7798H94.8155C91.6982 22.7798 90.1395 22.7798 88.9488 23.3857C87.9015 23.9187 87.05 24.7692 86.5163 25.8153C85.9097 27.0045 85.9097 28.5613 85.9097 31.6749V41.682C85.9097 44.7956 85.9097 46.3524 86.5163 47.5416C87.05 48.5877 87.9015 49.4382 88.9488 49.9712C90.1395 50.5771 91.6982 50.5771 94.8155 50.5771H99.2684C102.386 50.5771 103.944 50.5771 105.135 49.9712C106.182 49.4382 107.034 48.5877 107.568 47.5416C108.174 46.3524 108.174 44.7956 108.174 41.682V33.4136C108.174 32.3198 108.174 31.666 108.094 31.119M99.8251 22.8597C99.9582 22.8792 100.085 22.9033 100.21 22.9334C100.778 23.0696 101.321 23.2942 101.819 23.599C102.381 23.9428 102.862 24.4236 103.825 25.3851L105.566 27.1238C106.529 28.0853 107.01 28.5661 107.354 29.1271C107.659 29.6245 107.884 30.1668 108.021 30.7341C108.051 30.8593 108.075 30.986 108.094 31.119" stroke="#2A746E" stroke-width="2" stroke-linecap="round" stroke-linejoin="round"/>
<path d="M51.82 32.489C53.4651 33.3294 54.5701 34.8847 54.5701 36.6783C54.5701 38.4719 53.4651 40.0272 51.82 40.8676C52.3976 42.611 52.0711 44.5049 50.8028 45.7718C49.5345 47.0386 47.6382 47.3521 45.8927 46.7877C45.0639 48.4308 43.4942 49.5346 41.6984 49.5346C39.9026 49.5346 38.3455 48.4308 37.5041 46.7877C35.7586 47.3521 33.8623 47.0386 32.594 45.7718C31.3257 44.5049 31.0117 42.611 31.5894 40.8676C29.9443 40.0272 28.8267 38.4719 28.8267 36.6783C28.8267 34.8847 29.9443 33.3294 31.5894 32.489C31.0117 30.7456 31.3257 28.8516 32.594 27.5848C33.8623 26.318 35.7586 25.9919 37.5167 26.5689C38.3455 24.9258 39.9026 23.822 41.6984 23.822C43.4942 23.822 45.0639 24.9258 45.8927 26.5689C47.6382 25.9919 49.5345 26.318 50.8028 27.5848C52.0711 28.8516 52.3976 30.7456 51.82 32.489Z" fill="#EFAC46"/>
<path d="M37.5238 36.8733L40.3163 39.6594C41.6593 37.3138 43.518 35.3033 45.7522 33.7795L45.8731 33.6971M54.5701 36.6783C54.5701 34.8847 53.4651 33.3294 51.82 32.489C52.3976 30.7456 52.0711 28.8516 50.8028 27.5848C49.5345 26.318 47.6382 25.9919 45.8927 26.5689C45.0639 24.9258 43.4942 23.822 41.6984 23.822C39.9026 23.822 38.3455 24.9258 37.5167 26.5689C35.7586 25.9919 33.8623 26.318 32.594 27.5848C31.3257 28.8516 31.0117 30.7456 31.5894 32.489C29.9443 33.3294 28.8267 34.8847 28.8267 36.6783C28.8267 38.4719 29.9443 40.0272 31.5894 40.8676C31.0117 42.611 31.3257 44.5049 32.594 45.7718C33.8623 47.0386 35.7586 47.3521 37.5041 46.7877C38.3455 48.4308 39.9026 49.5346 41.6984 49.5346C43.4942 49.5346 45.0639 48.4308 45.8927 46.7877C47.6382 47.3521 49.5345 47.0386 50.8028 45.7718C52.0711 44.5049 52.3976 42.611 51.82 40.8676C53.4651 40.0272 54.5701 38.4719 54.5701 36.6783Z" stroke="#2A746E" stroke-width="2" stroke-linecap="round" stroke-linejoin="round"/>
</g>
<defs>
<filter id="filter0_d_217_4399" x="0" y="0" width="358" height="83" filterUnits="userSpaceOnUse" color-interpolation-filters="sRGB">
<feFlood flood-opacity="0" result="BackgroundImageFix"/>
<feColorMatrix in="SourceAlpha" type="matrix" values="0 0 0 0 0 0 0 0 0 0 0 0 0 0 0 0 0 0 127 0" result="hardAlpha"/>
<feOffset dy="4"/>
<feGaussianBlur stdDeviation="2"/>
<feComposite in2="hardAlpha" operator="out"/>
<feColorMatrix type="matrix" values="0 0 0 0 0 0 0 0 0 0 0 0 0 0 0 0 0 0 0.25 0"/>
<feBlend mode="normal" in2="BackgroundImageFix" result="effect1_dropShadow_217_4399"/>
<feBlend mode="normal" in="SourceGraphic" in2="effect1_dropShadow_217_4399" result="shape"/>
</filter>
</defs>
</svg>
