<svg width="20" height="20" viewBox="0 0 20 20" fill="none" xmlns="http://www.w3.org/2000/svg">
<path d="M10.0999 10.6502C10.0416 10.6419 9.9666 10.6419 9.89994 10.6502C8.43327 10.6002 7.2666 9.40023 7.2666 7.92523C7.2666 6.41689 8.48327 5.19189 9.99993 5.19189C11.5083 5.19189 12.7333 6.41689 12.7333 7.92523C12.7249 9.40023 11.5666 10.6002 10.0999 10.6502Z" stroke="#292D32" stroke-width="1.5" stroke-linecap="round" stroke-linejoin="round"/>
<path d="M15.6166 16.1498C14.1333 17.5081 12.1666 18.3331 9.99997 18.3331C7.8333 18.3331 5.86663 17.5081 4.3833 16.1498C4.46663 15.3665 4.96663 14.5998 5.8583 13.9998C8.14163 12.4831 11.875 12.4831 14.1416 13.9998C15.0333 14.5998 15.5333 15.3665 15.6166 16.1498Z" stroke="#292D32" stroke-width="1.5" stroke-linecap="round" stroke-linejoin="round"/>
<path d="M10.0001 18.3332C14.6025 18.3332 18.3334 14.6022 18.3334 9.99984C18.3334 5.39746 14.6025 1.6665 10.0001 1.6665C5.39771 1.6665 1.66675 5.39746 1.66675 9.99984C1.66675 14.6022 5.39771 18.3332 10.0001 18.3332Z" stroke="#292D32" stroke-width="1.5" stroke-linecap="round" stroke-linejoin="round"/>
</svg>
