<svg width="18" height="18" viewBox="0 0 18 18" fill="none" xmlns="http://www.w3.org/2000/svg">
<path fill-rule="evenodd" clip-rule="evenodd" d="M8.59863 17.4468C13.2931 17.4468 17.0986 13.6411 17.0986 8.94678C17.0986 4.25244 13.2931 0.446777 8.59863 0.446777C3.90421 0.446777 0.0986328 4.25244 0.0986328 8.94678C0.0986328 13.6411 3.90421 17.4468 8.59863 17.4468ZM12.3643 5.18115C12.6768 5.49341 12.6768 6 12.3643 6.3125L9.73001 8.94678L12.3643 11.5811C12.6767 11.8936 12.6767 12.4001 12.3643 12.7124C12.0519 13.0249 11.5454 13.0249 11.2329 12.7124L8.59863 10.0781L5.96432 12.7124C5.65192 13.0249 5.14539 13.0249 4.83295 12.7124C4.52054 12.4001 4.52054 11.8936 4.83295 11.5811L7.46725 8.94678L4.83295 6.3125C4.52054 6 4.52054 5.49341 4.83295 5.18115C5.14536 4.86865 5.65189 4.86865 5.96432 5.18115L8.59863 7.81543L11.2329 5.18115C11.5454 4.86865 12.0519 4.86865 12.3643 5.18115Z" fill="#8E8E93"/>
</svg>
