<svg width="16" height="17" viewBox="0 0 16 17" fill="none" xmlns="http://www.w3.org/2000/svg">
<path d="M15.9512 7.03476C15.8968 6.85229 15.7922 6.68879 15.6493 6.5629C15.5065 6.43701 15.3311 6.3538 15.1432 6.32276L10.8282 5.66776L8.90022 1.58376C8.82346 1.409 8.69748 1.26038 8.53766 1.15602C8.37784 1.05166 8.19109 0.996094 8.00022 0.996094C7.80935 0.996094 7.6226 1.05166 7.46278 1.15602C7.30296 1.26038 7.17698 1.409 7.10022 1.58376L5.17222 5.66776L0.85722 6.32276C0.669263 6.35357 0.493786 6.4367 0.350885 6.56263C0.207983 6.68855 0.103437 6.85217 0.0492201 7.03476C-0.00924693 7.2195 -0.0167905 7.41659 0.0273844 7.60526C0.0715594 7.79392 0.165816 7.96718 0.30022 8.10676L3.42322 11.2868L2.68622 15.7768C2.6541 15.9675 2.67434 16.1634 2.74478 16.3436C2.81522 16.5237 2.93323 16.6814 3.08622 16.7998C3.23497 16.9141 3.41386 16.9824 3.60093 16.9965C3.78799 17.0105 3.97508 16.9696 4.13922 16.8788L8.00022 14.7598L11.8602 16.8798C12.0245 16.9705 12.2118 17.0114 12.399 16.9974C12.5862 16.9834 12.7653 16.915 12.9142 16.8008C13.0672 16.6824 13.1852 16.5247 13.2557 16.3446C13.3261 16.1644 13.3463 15.9685 13.3142 15.7778L12.5772 11.2878L15.7002 8.10676C15.8343 7.96695 15.9283 7.79369 15.9724 7.60511C16.0166 7.41653 16.0093 7.21954 15.9512 7.03476V7.03476Z" fill="#FFCC00"/>
</svg>
