<svg width="40" height="40" viewBox="0 0 40 40" fill="none" xmlns="http://www.w3.org/2000/svg">
<path d="M26.6666 1.6665C27.5871 1.6665 28.3333 2.4127 28.3333 3.33317V4.99817L36.6666 4.99984V14.9998L33.2999 14.9982L37.9111 27.6587C38.1841 28.3865 38.3333 29.175 38.3333 29.9982C38.3333 33.6802 35.3484 36.6648 31.6666 36.6648C28.5613 36.6648 25.9518 34.5417 25.2108 31.6678H18.1229C17.3824 34.5425 14.7725 36.6665 11.6666 36.6665C8.42514 36.6665 5.724 34.3532 5.12414 31.2873C4.05922 30.7315 3.33325 29.6172 3.33325 28.3332V19.9998H18.3333C18.3333 20.8545 18.9766 21.559 19.8056 21.6553L19.9999 21.6665H23.3333C24.1879 21.6665 24.8924 21.0232 24.9888 20.1942L24.9999 19.9998V4.99984H19.9999V1.6665H26.6666ZM11.6666 26.6665C9.82563 26.6665 8.33325 28.1588 8.33325 29.9998C8.33325 31.8408 9.82563 33.3332 11.6666 33.3332C13.5075 33.3332 14.9999 31.8408 14.9999 29.9998C14.9999 28.1588 13.5075 26.6665 11.6666 26.6665ZM31.6666 26.6665C29.8256 26.6665 28.3333 28.1588 28.3333 29.9998C28.3333 31.8408 29.8256 33.3332 31.6666 33.3332C33.5076 33.3332 34.9999 31.8408 34.9999 29.9998C34.9999 28.1588 33.5076 26.6665 31.6666 26.6665ZM16.6666 4.99984C17.5871 4.99984 18.3333 5.74604 18.3333 6.6665V18.3332H3.33325V6.6665C3.33325 5.74604 4.07945 4.99984 4.99992 4.99984H16.6666ZM33.3333 8.33317H28.3333V11.6665H33.3333V8.33317ZM14.9999 8.33317H6.66659V9.99984H14.9999V8.33317Z" fill="black"/>
</svg>
