<svg width="42" height="43" viewBox="0 0 42 43" fill="none" xmlns="http://www.w3.org/2000/svg">
<path d="M36.7268 14.664C39.2829 15.9697 41 18.3863 41 21.1732C41 23.9601 39.2829 26.3767 36.7268 27.6825C37.6244 30.3914 37.1171 33.3342 35.1463 35.3026C33.1756 37.2709 30.2293 37.7581 27.5171 36.8812C26.2293 39.4342 23.7902 41.1492 21 41.1492C18.2098 41.1492 15.7902 39.4342 14.4829 36.8812C11.7707 37.7581 8.82439 37.2709 6.85366 35.3026C4.88293 33.3342 4.39512 30.3914 5.29268 27.6825C2.73659 26.3767 1 23.9601 1 21.1732C1 18.3863 2.73659 15.9697 5.29268 14.664C4.39512 11.9551 4.88293 9.01225 6.85366 7.04389C8.82439 5.07553 11.7707 4.56882 14.5024 5.4653C15.7902 2.91228 18.2098 1.19727 21 1.19727C23.7902 1.19727 26.2293 2.91228 27.5171 5.4653C30.2293 4.56882 33.1756 5.07553 35.1463 7.04389C37.1171 9.01225 37.6244 11.9551 36.7268 14.664Z" fill="#EFAC46"/>
<path d="M14.5136 21.4763L18.8525 25.8053C20.9393 22.1607 23.8273 19.0368 27.2988 16.6691L27.4865 16.5411M41 21.1732C41 18.3863 39.2829 15.9697 36.7268 14.664C37.6244 11.9551 37.1171 9.01225 35.1463 7.04389C33.1756 5.07553 30.2293 4.56882 27.5171 5.4653C26.2293 2.91228 23.7902 1.19727 21 1.19727C18.2098 1.19727 15.7902 2.91228 14.5024 5.4653C11.7707 4.56882 8.82439 5.07553 6.85366 7.04389C4.88293 9.01225 4.39512 11.9551 5.29268 14.664C2.73659 15.9697 1 18.3863 1 21.1732C1 23.9601 2.73659 26.3767 5.29268 27.6825C4.39512 30.3914 4.88293 33.3342 6.85366 35.3026C8.82439 37.2709 11.7707 37.7581 14.4829 36.8812C15.7902 39.4342 18.2098 41.1492 21 41.1492C23.7902 41.1492 26.2293 39.4342 27.5171 36.8812C30.2293 37.7581 33.1756 37.2709 35.1463 35.3026C37.1171 33.3342 37.6244 30.3914 36.7268 27.6825C39.2829 26.3767 41 23.9601 41 21.1732Z" stroke="#EFAC46" stroke-width="2" stroke-linecap="round" stroke-linejoin="round"/>
</svg>
