<svg width="30" height="30" viewBox="0 0 30 30" fill="none" xmlns="http://www.w3.org/2000/svg">
<rect width="30" height="30" rx="4" fill="#722900"/>
<path d="M3.9358 0C1.75544 0 0 1.75544 0 3.9358V26.0642C0 28.2446 1.75544 30 3.9358 30H26.0642C28.2446 30 30 28.2446 30 26.0642V3.9358C30 1.75544 28.2446 0 26.0642 0H3.9358ZM21.5725 5.25002C21.755 5.24874 21.9372 5.31731 22.076 5.45638L24.544 7.92431C24.8217 8.20202 24.8185 8.65204 24.5369 8.93357L22.3737 11.097L21.8722 10.5958L19.4045 8.1279L18.9031 7.62647L21.0663 5.46322C21.2071 5.32243 21.3901 5.25131 21.5725 5.25002ZM18.2347 8.29483L21.7053 11.7654L9.9055 23.5647C8.48864 23.9549 7.26526 24.2984 5.7235 24.726C5.37849 24.822 5.17792 24.6214 5.27392 24.2764C5.68407 22.8012 6.00188 21.6642 6.43514 20.0944L18.2347 8.29483ZM17.8887 9.78778L7.72905 19.9474L8.29348 20.512L18.4531 10.3524L17.8887 9.78778ZM7.0768 20.7137L6.55201 22.6725L7.3029 23.4234L9.26169 22.8984L7.0768 20.7137Z" fill="white"/>
</svg>
