<svg width="31" height="30" viewBox="0 0 31 30" fill="none" xmlns="http://www.w3.org/2000/svg">
<rect x="0.5" width="30" height="30" rx="4" fill="#722900"/>
<path d="M4.4358 0C2.25544 0 0.5 1.75544 0.5 3.9358V26.0642C0.5 28.2446 2.25544 30 4.4358 30H26.5642C28.7446 30 30.5 28.2446 30.5 26.0642V3.9358C30.5 1.75544 28.7446 0 26.5642 0H4.4358ZM22.0725 5.25002C22.255 5.24874 22.4372 5.31731 22.576 5.45638L25.044 7.92431C25.3217 8.20202 25.3185 8.65204 25.0369 8.93357L22.8737 11.097L22.3722 10.5958L19.9045 8.1279L19.4031 7.62647L21.5663 5.46322C21.7071 5.32243 21.8901 5.25131 22.0725 5.25002ZM18.7347 8.29483L22.2053 11.7654L10.4055 23.5647C8.98864 23.9549 7.76526 24.2984 6.2235 24.7259C5.87849 24.822 5.67792 24.6214 5.77392 24.2764C6.18407 22.8012 6.50188 21.6642 6.93514 20.0944L18.7347 8.29483ZM18.3887 9.78777L8.22905 19.9474L8.79348 20.512L18.9531 10.3524L18.3887 9.78777ZM7.5768 20.7137L7.05201 22.6725L7.8029 23.4234L9.76169 22.8984L7.5768 20.7137Z" fill="white"/>
</svg>
