<svg width="25" height="26" viewBox="0 0 25 26" fill="none" xmlns="http://www.w3.org/2000/svg">
<path d="M4.74663 1.5C3.23888 1.5 2 2.73888 2 4.24663V8.82854C2 10.3363 3.23888 11.5841 4.74663 11.5841H9.33561C10.8434 11.5841 12.0822 10.3363 12.0822 8.82854V4.24663C12.0822 2.73888 10.8434 1.5 9.33561 1.5L4.74663 1.5ZM16.6644 1.5C15.1566 1.5 13.9178 2.73888 13.9178 4.24663V8.82854C13.9178 10.3363 15.1566 11.5841 16.6644 11.5841L21.2534 11.5842C22.7611 11.5842 24 10.3364 24 8.82869V4.24678C24 2.73903 22.7611 1.50015 21.2534 1.50015L16.6644 1.5ZM4.74663 13.4178C3.23888 13.4178 2 14.6566 2 16.1644V20.7534C2 22.2611 3.23888 23.5 4.74663 23.5H9.33561C10.8434 23.5 12.0822 22.2611 12.0822 20.7534V16.1644C12.0822 14.6566 10.8434 13.4178 9.33561 13.4178H4.74663ZM16.6644 13.4178C15.1566 13.4178 13.9178 14.6566 13.9178 16.1644V20.7534C13.9178 22.2611 15.1566 23.5 16.6644 23.5H21.2534C22.7611 23.5 24 22.2611 24 20.7534V16.1644C24 14.6566 22.7611 13.4178 21.2534 13.4178H16.6644Z" fill="white"/>
</svg>
