<svg width="22" height="26" viewBox="0 0 22 26" fill="none" xmlns="http://www.w3.org/2000/svg">
<path d="M0.428711 4.07617H21.5715V6.17999H0.428711V4.07617Z" fill="#F60621"/>
<path d="M2.48047 2.55078H19.5565V4.6546H2.48047V2.55078Z" fill="#F60621"/>
<path d="M6.86279 0.5H14.9624V1.90241H6.86279V0.5Z" fill="#F60621"/>
<path d="M13.6299 1.63965H14.9621V3.46275H13.6299V1.63965Z" fill="#F60621"/>
<path d="M6.86279 1.42871H8.19497V3.25181H6.86279V1.42871Z" fill="#F60621"/>
<path d="M1.32324 6.75879L4.37375 25.5001H17.7325L20.783 6.75879H1.32324ZM8.09073 22.4757C8.09073 22.9385 7.71213 23.3172 7.24917 23.3172H6.23256C5.76976 23.3172 5.37161 22.9393 5.34767 22.4771L4.69752 9.78193C4.67357 9.3195 5.03333 8.94127 5.49576 8.94127H7.24862C7.71142 8.94127 8.09019 9.31988 8.09019 9.78283L8.09036 22.4753L8.09073 22.4757ZM12.5264 22.4757C12.5264 22.9385 12.1478 23.3172 11.6849 23.3172H10.3523C9.88953 23.3172 9.51077 22.9386 9.51077 22.4757V9.78324C9.51077 9.32044 9.88937 8.94168 10.3523 8.94168H11.6849C12.1477 8.94168 12.5264 9.32028 12.5264 9.78324V22.4757ZM16.7242 22.4769C16.7002 22.9393 16.3021 23.3171 15.8393 23.3171H14.8227C14.3599 23.3171 13.9811 22.9385 13.9811 22.4755L13.9813 9.78353C13.9813 9.32073 14.3599 8.94196 14.8229 8.94196H16.5757C17.0385 8.94196 17.3979 9.32022 17.374 9.78262L16.7242 22.4769Z" fill="#F60621"/>
</svg>
