<svg width="23" height="26" viewBox="0 0 23 26" fill="none" xmlns="http://www.w3.org/2000/svg">
<path d="M0.927734 4.07617H22.0705V6.17999H0.927734V4.07617Z" fill="#F60621"/>
<path d="M2.97852 2.55078H20.0546V4.6546H2.97852V2.55078Z" fill="#F60621"/>
<path d="M7.36133 0.5H15.4609V1.90241H7.36133V0.5Z" fill="#F60621"/>
<path d="M14.1289 1.63965H15.4611V3.46275H14.1289V1.63965Z" fill="#F60621"/>
<path d="M7.36133 1.42871H8.6935V3.25181H7.36133V1.42871Z" fill="#F60621"/>
<path d="M1.82227 6.75879L4.87277 25.5001H18.2315L21.282 6.75879H1.82227ZM8.58975 22.4757C8.58975 22.9385 8.21115 23.3172 7.74819 23.3172H6.73158C6.26878 23.3172 5.87063 22.9393 5.84669 22.4771L5.19654 9.78193C5.17259 9.3195 5.53236 8.94127 5.99478 8.94127H7.74765C8.21044 8.94127 8.58921 9.31988 8.58921 9.78283L8.58939 22.4753L8.58975 22.4757ZM13.0254 22.4757C13.0254 22.9385 12.6468 23.3172 12.1839 23.3172H10.8514C10.3886 23.3172 10.0098 22.9386 10.0098 22.4757V9.78324C10.0098 9.32044 10.3884 8.94168 10.8514 8.94168H12.1839C12.6467 8.94168 13.0254 9.32028 13.0254 9.78324V22.4757ZM17.2232 22.4769C17.1993 22.9393 16.8011 23.3171 16.3383 23.3171H15.3217C14.8589 23.3171 14.4802 22.9385 14.4802 22.4755L14.4803 9.78353C14.4803 9.32073 14.8589 8.94196 15.3219 8.94196H17.0748C17.5376 8.94196 17.8969 9.32022 17.873 9.78262L17.2232 22.4769Z" fill="#F60621"/>
</svg>
