<svg width="25" height="26" viewBox="0 0 25 26" fill="none" xmlns="http://www.w3.org/2000/svg">
<path d="M12.9129 12.2759C14.0115 10.8565 16.9231 6.90734 16.9231 4.92584C16.9238 3.75225 16.4583 2.62654 15.6287 1.79647C14.799 0.966253 13.6737 0.5 12.5001 0.5C11.3265 0.5 10.2012 0.966253 9.37149 1.79647C8.54197 2.6265 8.07646 3.7522 8.07715 4.92584C8.07715 6.90762 10.9888 10.8565 12.0873 12.2759C12.1862 12.4036 12.3385 12.4785 12.5001 12.4785C12.6617 12.4785 12.814 12.4036 12.9129 12.2759ZM9.77195 4.92584C9.77195 4.20222 10.0593 3.50825 10.5709 2.99666C11.0826 2.48502 11.7765 2.19767 12.5001 2.19767C13.2237 2.19749 13.9177 2.48502 14.4293 2.99666C14.9409 3.5083 15.2283 4.20226 15.2283 4.92584C15.2283 5.64946 14.9409 6.34343 14.4293 6.85502C13.9177 7.36666 13.2237 7.65401 12.5001 7.65401C11.7765 7.65419 11.0825 7.36666 10.5709 6.85502C10.0593 6.34338 9.77181 5.64941 9.77195 4.92584Z" fill="#023668"/>
<path d="M24.835 12.0843C24.0769 11.5474 23.2718 11.0802 22.4294 10.6882C21.8392 10.4175 21.2211 10.2124 20.5861 10.0766C19.1184 9.76345 17.5966 9.81225 16.1521 10.2185C15.3542 11.4509 14.5223 12.5594 14.0572 13.1605H14.057C13.6842 13.6423 13.1093 13.9242 12.5001 13.9242C11.8909 13.9242 11.316 13.6423 10.9432 13.1605C10.478 12.5594 9.64602 11.4509 8.84833 10.2185C7.40363 9.81225 5.88181 9.76345 4.41417 10.0766C3.77909 10.2124 3.16105 10.4175 2.57081 10.6882C1.72847 11.0802 0.923377 11.5473 0.165242 12.0843C0.120062 12.1161 0.0929539 12.168 0.0927734 12.2233V25.2485V25.2484C0.0927734 25.3143 0.131086 25.3741 0.190905 25.4016C0.250725 25.4293 0.321024 25.4197 0.371082 25.3769C1.79265 24.1682 3.95583 23.4023 6.29616 23.4023C8.65782 23.4023 10.8402 24.1823 12.261 25.4104C12.3982 25.5292 12.6017 25.5292 12.7389 25.4104C14.1599 24.1821 16.3421 23.4023 18.7037 23.4023C21.0441 23.4023 23.2073 24.1684 24.6288 25.3769C24.6789 25.4197 24.7492 25.4293 24.809 25.4016C24.8688 25.3741 24.9071 25.3143 24.9071 25.2484V12.2231C24.9069 12.1678 24.8798 12.1159 24.8346 12.0841L24.835 12.0843ZM11.1185 20.6141C11.0027 20.8006 10.8203 20.9361 10.6082 20.9934C10.3962 21.0507 10.1705 21.0252 9.97639 20.9224C7.49546 19.6044 5.16166 19.591 2.88036 20.883L2.88054 20.8831C2.69114 20.991 2.46795 21.0237 2.2556 20.9748C2.04307 20.9258 1.85693 20.7987 1.73387 20.6188H1.73315C1.59653 20.4182 1.5499 20.1697 1.60484 19.9331C1.6596 19.6967 1.81086 19.4941 2.02194 19.3741C4.82797 17.7808 7.76845 17.7849 10.7853 19.3863V19.3864C10.9986 19.4988 11.1556 19.6949 11.2189 19.9277C11.282 20.1604 11.2456 20.4091 11.1186 20.6141L11.1185 20.6141ZM11.1185 16.1134C11.0027 16.2999 10.8202 16.4356 10.6082 16.4927C10.3962 16.5498 10.1703 16.5244 9.97639 16.4212C7.49565 15.1032 5.16166 15.0905 2.88036 16.3825C2.69078 16.4902 2.46777 16.5229 2.25542 16.4739C2.04307 16.425 1.85675 16.2979 1.73369 16.1181H1.73297C1.59635 15.9175 1.5499 15.669 1.60466 15.4325C1.65942 15.1961 1.81068 14.9935 2.02176 14.8735C4.82779 13.2796 7.76826 13.2842 10.7852 14.8856V14.8858C10.9254 14.9599 11.0429 15.0708 11.1247 15.2067C11.2064 15.3427 11.2498 15.4983 11.2498 15.6569C11.2496 15.8185 11.2041 15.9766 11.1184 16.1134L11.1185 16.1134ZM19.1172 12.237C19.3846 12.237 19.6413 12.3432 19.8305 12.5323C20.0197 12.7215 20.1261 12.9779 20.1261 13.2456C20.1261 13.513 20.0201 13.7696 19.8308 13.9589C19.6418 14.1481 19.3852 14.2543 19.1177 14.2545C18.8503 14.2545 18.5936 14.1484 18.4044 13.9592C18.2152 13.7702 18.1088 13.5136 18.1088 13.2461C18.1088 12.9786 18.215 12.722 18.4041 12.5328C18.5931 12.3436 18.8497 12.2373 19.1172 12.237ZM21.3024 20.8333H18.0849C17.8275 20.8333 17.5899 20.6962 17.4612 20.4734C17.3326 20.2503 17.3326 19.9758 17.4612 19.753C17.5899 19.5302 17.8276 19.3928 18.0849 19.3928H18.9731V16.1274H18.0849C17.8275 16.1274 17.5899 15.9901 17.4612 15.7672C17.3326 15.5444 17.3326 15.2697 17.4612 15.0469C17.5899 14.8241 17.8276 14.6867 18.0849 14.6867H19.6696C19.867 14.6867 20.0564 14.7651 20.1961 14.9047C20.3358 15.0442 20.4142 15.2334 20.4142 15.4309V19.3929H21.3024C21.5596 19.3929 21.7974 19.5302 21.9261 19.753C22.0547 19.9759 22.0547 20.2504 21.9261 20.4734C21.7974 20.6962 21.5596 20.8333 21.3024 20.8333Z" fill="#023668"/>
</svg>
