<svg width="25" height="26" viewBox="0 0 25 26" fill="none" xmlns="http://www.w3.org/2000/svg">
<path d="M12.9139 12.2759C14.0125 10.8565 16.9241 6.90734 16.9241 4.92584C16.9248 3.75225 16.4592 2.62654 15.6297 1.79647C14.8 0.966253 13.6747 0.5 12.5011 0.5C11.3275 0.5 10.2022 0.966253 9.37246 1.79647C8.54294 2.6265 8.07743 3.7522 8.07813 4.92584C8.07813 6.90762 10.9897 10.8565 12.0883 12.2759C12.1872 12.4036 12.3395 12.4785 12.5011 12.4785C12.6627 12.4785 12.815 12.4036 12.9139 12.2759ZM9.77293 4.92584C9.77293 4.20222 10.0603 3.50825 10.5719 2.99666C11.0836 2.48502 11.7775 2.19767 12.5011 2.19767C13.2247 2.19749 13.9187 2.48502 14.4303 2.99666C14.9419 3.5083 15.2293 4.20226 15.2293 4.92584C15.2293 5.64946 14.9419 6.34343 14.4303 6.85502C13.9186 7.36666 13.2247 7.65401 12.5011 7.65401C11.7775 7.65419 11.0835 7.36666 10.5719 6.85502C10.0603 6.34338 9.77279 5.64941 9.77293 4.92584Z" fill="#023668"/>
<path d="M24.836 12.0843C24.0778 11.5474 23.2727 11.0802 22.4304 10.6882C21.8402 10.4175 21.2221 10.2124 20.587 10.0766C19.1194 9.76345 17.5976 9.81225 16.1531 10.2185C15.3552 11.4509 14.5233 12.5594 14.0582 13.1605H14.058C13.6852 13.6423 13.1103 13.9242 12.5011 13.9242C11.8919 13.9242 11.317 13.6423 10.9442 13.1605C10.479 12.5594 9.647 11.4509 8.84931 10.2185C7.40461 9.81225 5.88279 9.76345 4.41514 10.0766C3.78007 10.2124 3.16202 10.4175 2.57178 10.6882C1.72945 11.0802 0.924353 11.5473 0.166219 12.0843C0.121039 12.1161 0.0939304 12.168 0.09375 12.2233V25.2485V25.2484C0.09375 25.3143 0.132063 25.3741 0.191882 25.4016C0.251701 25.4293 0.322 25.4197 0.372058 25.3769C1.79362 24.1682 3.95681 23.4023 6.29714 23.4023C8.6588 23.4023 10.8412 24.1823 12.262 25.4104C12.3992 25.5292 12.6027 25.5292 12.7398 25.4104C14.1608 24.1821 16.343 23.4023 18.7047 23.4023C21.045 23.4023 23.2083 24.1684 24.6298 25.3769C24.6798 25.4197 24.7501 25.4293 24.81 25.4016C24.8698 25.3741 24.9081 25.3143 24.9081 25.2484V12.2231C24.9079 12.1678 24.8808 12.1159 24.8356 12.0841L24.836 12.0843ZM11.1195 20.6141C11.0037 20.8006 10.8213 20.9361 10.6092 20.9934C10.3972 21.0507 10.1715 21.0252 9.97737 20.9224C7.49644 19.6044 5.16263 19.591 2.88133 20.883L2.88151 20.8831C2.69212 20.991 2.46893 21.0237 2.25657 20.9748C2.04405 20.9258 1.85791 20.7987 1.73485 20.6188H1.73413C1.5975 20.4182 1.55088 20.1697 1.60582 19.9331C1.66058 19.6967 1.81184 19.4941 2.02292 19.3741C4.82895 17.7808 7.76942 17.7849 10.7863 19.3863V19.3864C10.9996 19.4988 11.1566 19.6949 11.2199 19.9277C11.2829 20.1604 11.2466 20.4091 11.1196 20.6141L11.1195 20.6141ZM11.1195 16.1134C11.0037 16.2999 10.8211 16.4356 10.6092 16.4927C10.3972 16.5498 10.1713 16.5244 9.97737 16.4212C7.49662 15.1032 5.16263 15.0905 2.88133 16.3825C2.69176 16.4902 2.46875 16.5229 2.25639 16.4739C2.04405 16.425 1.85772 16.2979 1.73467 16.1181H1.73395C1.59732 15.9175 1.55088 15.669 1.60564 15.4325C1.6604 15.1961 1.81166 14.9935 2.02274 14.8735C4.82877 13.2796 7.76924 13.2842 10.7861 14.8856V14.8858C10.9264 14.9599 11.0439 15.0708 11.1257 15.2067C11.2074 15.3427 11.2508 15.4983 11.2508 15.6569C11.2506 15.8185 11.205 15.9766 11.1194 16.1134L11.1195 16.1134ZM19.1182 12.237C19.3856 12.237 19.6422 12.3432 19.8315 12.5323C20.0207 12.7215 20.1271 12.9779 20.1271 13.2456C20.1271 13.513 20.021 13.7696 19.8318 13.9589C19.6428 14.1481 19.3862 14.2543 19.1187 14.2545C18.8512 14.2545 18.5946 14.1484 18.4054 13.9592C18.2162 13.7702 18.1097 13.5136 18.1097 13.2461C18.1097 12.9786 18.216 12.722 18.405 12.5328C18.5941 12.3436 18.8507 12.2373 19.1182 12.237ZM21.3034 20.8333H18.0859C17.8285 20.8333 17.5909 20.6962 17.4622 20.4734C17.3335 20.2503 17.3335 19.9758 17.4622 19.753C17.5909 19.5302 17.8285 19.3928 18.0859 19.3928H18.9741V16.1274H18.0859C17.8285 16.1274 17.5909 15.9901 17.4622 15.7672C17.3335 15.5444 17.3335 15.2697 17.4622 15.0469C17.5909 14.8241 17.8285 14.6867 18.0859 14.6867H19.6706C19.8679 14.6867 20.0573 14.7651 20.197 14.9047C20.3367 15.0442 20.4152 15.2334 20.4152 15.4309V19.3929H21.3034C21.5606 19.3929 21.7984 19.5302 21.927 19.753C22.0557 19.9759 22.0557 20.2504 21.927 20.4734C21.7984 20.6962 21.5605 20.8333 21.3034 20.8333Z" fill="#023668"/>
</svg>
