<svg width="32" height="30" viewBox="0 0 32 30" fill="none" xmlns="http://www.w3.org/2000/svg">
<path d="M27.7052 24.3764C29.8333 21.7135 30.9968 18.4085 31.006 14.9999C30.9696 11.0445 29.3867 7.25987 26.5959 4.45703C23.8049 1.65381 20.0274 0.0538861 16.0728 0C13.0139 0.00324217 10.0281 0.932983 7.50847 2.66685C4.98853 4.4004 3.05298 6.857 1.95661 9.71226C0.809362 12.7589 0.68416 16.0959 1.60022 19.2196C2.51629 22.3436 4.42369 25.0847 7.03435 27.0292C9.64508 28.9741 12.8177 30.0165 16.073 29.9998C18.3079 29.9846 20.5114 29.4721 22.5234 28.4994C24.5356 27.5268 26.3058 26.1182 27.7059 24.3761L27.7052 24.3764ZM16.0022 27.413C12.69 27.3788 9.52569 26.0356 7.20042 23.6763C4.87502 21.3172 3.57792 18.1337 3.59184 14.8208C3.6709 11.5589 5.01893 8.45641 7.3495 6.17289C9.68014 3.88937 12.8096 2.60473 16.0721 2.59202V8.43643C18.3948 8.46885 20.5276 9.72682 21.6796 11.744C22.8319 13.7611 22.8319 16.2371 21.6796 18.2544C20.5276 20.2715 18.3948 21.5295 16.0721 21.5619V27.4076L16.0022 27.413Z" fill="black"/>
<path d="M9.43164 14.9999C9.4471 16.7491 10.1541 18.4211 11.3982 19.6509C12.6421 20.8805 14.3224 21.568 16.0716 21.5633V8.43655C14.3224 8.43181 12.6421 9.11938 11.3982 10.3489C10.1542 11.5787 9.44709 13.2507 9.43164 15V14.9999Z" fill="black"/>
</svg>
