<svg width="16" height="22" viewBox="0 0 16 22" fill="none" xmlns="http://www.w3.org/2000/svg">
<path d="M12.9658 4.97755C12.9658 7.72661 10.7374 9.9551 7.98829 9.9551C5.23915 9.9551 3.01074 7.72653 3.01074 4.97755C3.01074 2.22865 5.23915 0 7.98829 0C10.7374 0 12.9658 2.22857 12.9658 4.97755Z" fill="white"/>
<path d="M15.5355 15.9515C15.2578 13.5669 13.4983 11.6916 11.2525 11.1592L9.02992 16.7386L8.54366 12.7103H8.86777C9.053 12.7103 9.21497 12.5481 9.21497 12.3631V11.2749C9.21497 11.0897 9.05283 10.9277 8.86777 10.9277H7.1083C6.92307 10.9277 6.7611 11.0899 6.7611 11.2749V12.3631C6.7611 12.5483 6.92324 12.7103 7.1083 12.7103H7.43242L6.94615 16.7386L4.72354 11.1592C2.47802 11.6916 0.718552 13.5668 0.440942 15.9515L0.0242993 19.4473C-0.114584 20.6049 0.741952 21.6467 1.89952 21.7393C2.08475 21.7624 2.29307 21.7624 2.50142 21.7857C6.3677 22.0867 10.2571 22.0635 14.1003 21.7626C15.2578 21.6701 16.1144 20.6281 15.9755 19.4706L15.5355 15.9515Z" fill="white"/>
</svg>
