<svg width="23" height="26" viewBox="0 0 23 26" fill="none" xmlns="http://www.w3.org/2000/svg">
<path d="M0.928711 4.07617H22.0715V6.17999H0.928711V4.07617Z" fill="#F60621"/>
<path d="M2.98047 2.55078H20.0565V4.6546H2.98047V2.55078Z" fill="#F60621"/>
<path d="M7.3623 0.5H15.4619V1.90241H7.3623V0.5Z" fill="#F60621"/>
<path d="M14.1299 1.63965H15.4621V3.46275H14.1299V1.63965Z" fill="#F60621"/>
<path d="M7.3623 1.42871H8.69448V3.25181H7.3623V1.42871Z" fill="#F60621"/>
<path d="M1.82324 6.75879L4.87375 25.5001H18.2325L21.283 6.75879H1.82324ZM8.59073 22.4757C8.59073 22.9385 8.21213 23.3172 7.74917 23.3172H6.73256C6.26976 23.3172 5.87161 22.9393 5.84767 22.4771L5.19752 9.78193C5.17357 9.3195 5.53333 8.94127 5.99576 8.94127H7.74862C8.21142 8.94127 8.59019 9.31988 8.59019 9.78283L8.59036 22.4753L8.59073 22.4757ZM13.0264 22.4757C13.0264 22.9385 12.6478 23.3172 12.1849 23.3172H10.8523C10.3895 23.3172 10.0108 22.9386 10.0108 22.4757V9.78324C10.0108 9.32044 10.3894 8.94168 10.8523 8.94168H12.1849C12.6477 8.94168 13.0264 9.32028 13.0264 9.78324V22.4757ZM17.2242 22.4769C17.2002 22.9393 16.8021 23.3171 16.3393 23.3171H15.3227C14.8599 23.3171 14.4811 22.9385 14.4811 22.4755L14.4813 9.78353C14.4813 9.32073 14.8599 8.94196 15.3229 8.94196H17.0757C17.5385 8.94196 17.8979 9.32022 17.874 9.78262L17.2242 22.4769Z" fill="#F60621"/>
</svg>
