<svg width="30" height="30" viewBox="0 0 30 30" fill="none" xmlns="http://www.w3.org/2000/svg">
<path d="M15.0047 4.75876e-06C11.8516 -0.00250645 8.77818 0.988917 6.22091 2.83309C3.66389 4.67733 1.75375 7.28015 0.761477 10.2716C-0.230538 13.2634 -0.253882 16.4918 0.694906 19.498C1.64369 22.5041 3.51616 25.1343 6.0463 27.0149C8.63341 28.9528 11.7792 30 15.0121 30C18.2449 30 21.3904 28.9528 23.9779 27.0149C26.5015 25.1296 28.3675 22.4978 29.311 19.4928C30.2548 16.488 30.2284 13.2624 29.2354 10.2736C28.2426 7.28452 26.3337 4.6837 23.7795 2.83952C21.2252 0.995539 18.1553 0.00212613 15.0047 0.00013326L15.0047 4.75876e-06ZM15.0047 5.99995C16.1987 5.99995 17.3437 6.47406 18.1877 7.31807C19.032 8.16183 19.5063 9.30644 19.5063 10.5C19.5063 11.6935 19.032 12.8381 18.1877 13.6819C17.3437 14.5259 16.1987 15 15.0047 15C13.8108 15 12.6658 14.5259 11.8217 13.6819C10.9774 12.8381 10.5032 11.6935 10.5032 10.5C10.5067 9.30766 10.9822 8.16511 11.8255 7.3218C12.669 6.47882 13.812 6.00342 15.0047 5.99995ZM15.0047 27.0003C11.9034 26.9973 8.92364 25.7929 6.69164 23.6401C7.58166 21.4114 9.32878 19.6327 11.5416 18.7023C13.7545 17.7716 16.2482 17.7671 18.4644 18.6897C20.6805 19.6121 22.4339 21.3847 23.3322 23.6101C21.1055 25.7838 18.1165 27.0005 15.0043 27.0002L15.0047 27.0003Z" fill="white"/>
</svg>
