<svg width="51" height="60" viewBox="0 0 51 60" fill="none" xmlns="http://www.w3.org/2000/svg">
<path d="M17.1479 36.1392C15.6556 35.4671 14.1634 34.975 12.8057 33.8588C14.0287 33.7868 14.96 34.3989 15.9922 34.6509C14.5224 33.3667 12.9516 32.2264 11.8071 30.5581C13.0189 31.4103 14.2307 32.2504 15.4424 33.1026C15.4761 33.0666 15.5098 33.0426 15.5322 33.0066C14.7131 32.0944 13.9053 31.1942 13.0862 30.2821C13.1199 30.222 13.1536 30.162 13.1872 30.102C13.5238 30.2941 13.9165 30.4141 14.1858 30.6901C15.2741 31.7824 16.3176 32.9226 17.3723 34.0508C17.6528 34.3509 17.8997 34.6629 18.2138 35.023C18.4382 34.795 18.6065 34.6029 18.786 34.4469C19.1002 34.1948 19.0441 33.9548 18.8534 33.6427C17.4508 31.3863 15.5883 29.6339 13.4228 28.3017C11.7623 27.2815 9.96704 26.5133 8.23915 25.6251C7.49862 25.241 6.76932 24.833 6.0288 24.4369C6.06246 24.3409 6.0849 24.2448 6.11856 24.1488C6.66834 24.2689 7.22934 24.3769 7.90255 24.5209C6.83664 23.5487 5.63609 22.9126 4.96289 21.6763C4.99655 21.6283 5.01899 21.5683 5.05265 21.5203C6.39906 22.4085 7.73425 23.2967 9.22652 24.2809C8.22793 22.8286 7.33032 21.5323 6.44393 20.236C6.48881 20.188 6.5337 20.14 6.5898 20.092C7.04982 20.5721 7.53228 21.0162 7.95865 21.5203C9.1031 22.8886 10.1802 24.3289 11.3696 25.6371C11.9193 26.2373 12.6711 26.6213 13.3219 27.1134C14.2082 27.7736 15.0834 28.4457 16.0483 29.1778C15.981 28.9618 15.9586 28.8178 15.8913 28.7097C14.0399 25.3731 12.0091 22.1564 9.42848 19.3959C8.97968 18.9158 8.37379 18.5677 7.79035 18.2797C6.79176 17.7996 5.73707 17.4395 4.71604 17.0194C4.09894 16.7674 3.49305 16.4793 3.06669 15.9032C3.08913 15.8312 3.11157 15.7712 3.13401 15.6991C4.02039 15.9392 4.91801 16.1912 5.80439 16.4313C4.06528 14.751 2.16908 13.2386 1.00219 10.9822C2.58422 12.3745 4.16626 13.7668 5.73707 15.171C5.78195 15.135 5.82683 15.087 5.86049 15.051C5.00777 13.7548 4.15504 12.4465 3.31353 11.1502C3.36963 11.0902 3.42573 11.0302 3.48183 10.9702C3.75112 11.2102 4.06528 11.4143 4.27846 11.7023C5.19851 12.9746 6.04001 14.3309 7.01616 15.5671C7.84645 16.6113 8.83381 17.5235 9.69776 18.5317C10.4944 19.4559 11.2237 20.4401 11.9754 21.4003C12.0876 21.5443 12.2111 21.7003 12.3233 21.8444C12.3681 21.8204 12.413 21.7964 12.4691 21.7603C12.3233 21.4003 12.1774 21.0282 12.0203 20.6801C11.2798 19.0358 10.629 17.3195 9.75386 15.7592C8.56453 13.6467 7.10592 11.7383 5.23217 10.2501C4.7497 9.86598 4.1326 9.69794 3.56038 9.44589C2.70765 9.06181 1.7876 8.80976 1.09196 7.9696C2.10176 7.71755 2.9096 8.43769 3.97551 8.61772C3.04425 7.53751 1.67539 7.14143 1.22659 5.79716C1.27147 5.72515 1.30514 5.66513 1.35002 5.59312C1.7876 5.85717 2.2364 6.13323 2.75253 6.44529C2.3486 5.67714 1.97834 4.981 1.61929 4.27285C1.65295 4.23685 1.68662 4.20084 1.72028 4.16483C1.9559 4.36887 2.22518 4.53691 2.4047 4.77696C3.56037 6.32527 4.67116 7.90958 5.83805 9.43389C6.85908 10.7662 7.93621 12.0624 9.06944 13.3227C8.66552 12.3265 8.29525 11.3183 7.84645 10.3461C7.28544 9.10982 6.8703 7.78956 5.92781 6.79336C4.64872 5.44909 3.39207 4.09282 2.13542 2.72455C1.77638 2.32847 1.47344 1.88438 1.21537 1.38028C2.73009 2.14843 3.76233 3.54071 4.9741 4.70494C5.01898 4.66893 5.06387 4.64493 5.10875 4.60892C4.42432 3.10862 3.73989 1.62032 3.04425 0.120024C3.10035 0.0840168 3.16767 0.0360072 3.22377 0C4.31212 1.72835 5.41169 3.45669 6.50003 5.18504C6.5337 5.17304 6.57858 5.16103 6.61224 5.14903C6.39905 3.91279 6.18587 2.68854 5.98391 1.45229C6.05123 1.42829 6.11855 1.40428 6.18587 1.39228C6.27563 1.64433 6.38784 1.88438 6.43272 2.14843C6.6459 3.26466 6.76932 4.40488 7.07226 5.4851C7.46497 6.85337 7.99231 8.17363 8.49722 9.4939C8.77772 10.238 9.13676 10.9582 9.5519 11.6783C9.59678 9.40988 8.95724 7.17744 9.20408 4.90898C9.2714 4.89698 9.3275 4.88498 9.39482 4.86097C9.58557 5.40108 9.76509 5.94119 9.95583 6.4813C9.98949 6.4813 10.0231 6.4813 10.0568 6.4813C10.2251 5.4971 10.3934 4.5009 10.5842 3.42068C11.1227 3.82877 11.0891 4.28486 11.0442 4.70494C10.8534 6.44529 10.6403 8.18564 10.4383 9.91398C10.4159 10.082 10.4383 10.2501 10.4944 10.4301C11.1115 9.33787 11.3471 8.04161 12.1774 7.10542C12.2335 7.11742 12.2896 7.14143 12.3345 7.15343C12.3233 7.33347 12.3457 7.5255 12.2896 7.68154C12.0091 8.59372 11.7286 9.4939 11.4144 10.3941C10.8983 11.8584 10.6178 13.3587 10.8647 14.907C10.9993 15.7351 11.3583 16.5273 11.6837 17.3075C12.5028 19.2999 13.3443 21.2803 14.2082 23.2486C14.6009 24.1488 15.0497 25.013 15.4761 25.9012C15.5434 25.8892 15.5995 25.8652 15.6669 25.8532C15.5883 25.3731 15.5434 24.881 15.4424 24.4009C15.1844 23.2486 14.8927 22.0964 14.6234 20.9442C14.3653 19.864 14.0848 18.7958 13.8716 17.7035C13.7482 17.0554 13.7258 16.3833 13.6585 15.7231C13.737 15.6991 13.8043 15.6871 13.8829 15.6631C14.1634 16.3713 14.4551 17.0914 14.7917 17.9556C14.9824 16.7313 15.1507 15.6511 15.319 14.5709C15.3751 14.5709 15.4312 14.5829 15.4761 14.5829C15.5546 16.0472 15.6332 17.5235 15.723 18.9878C15.7678 18.9998 15.8127 18.9998 15.8688 19.0118C16.2615 18.0756 16.3625 16.9834 17.2713 16.2873C17.204 16.7193 17.1591 17.1394 17.0694 17.5715C16.744 19.1198 16.3064 20.6561 16.0932 22.2284C15.981 23.0926 16.2166 24.0048 16.3401 24.893C16.5084 26.0572 16.5308 27.3055 16.9684 28.3377C17.7201 30.102 18.7524 31.7223 19.7061 33.4867C19.9866 33.1986 20.1437 33.0186 20.3232 32.8506C20.5925 32.5985 20.5925 32.3585 20.4578 32.0104C19.9641 30.7862 19.4929 29.5499 19.0441 28.3137C18.9095 27.9296 18.887 27.5095 18.8197 27.1014C18.887 27.0774 18.9431 27.0414 19.0104 27.0174C19.3919 27.7856 19.7846 28.5417 20.2559 29.4779C20.1661 27.5815 19.7173 25.8532 20.1998 24.1128C20.8505 25.229 20.6261 26.5853 21.0749 27.9176C21.333 26.9454 21.5574 26.1052 21.7818 25.241C22.3428 25.4091 22.3428 25.7812 22.2643 26.1652C22.0511 27.2935 21.8042 28.4217 21.5911 29.5499C21.5013 30.054 21.4676 30.5701 21.4228 31.0862C21.4115 31.2062 21.5013 31.3263 21.5686 31.5543C24.0483 28.9498 26.4718 26.4053 28.8953 23.8608C27.6499 22.3725 27.2348 20.6681 27.6387 18.8078C27.7958 18.0996 28.1436 17.3555 28.6036 16.8274C32.9346 11.7744 37.3104 6.75735 41.675 1.72835C41.7199 1.66834 41.7872 1.63233 41.8433 1.58432C42.5951 2.04041 42.6961 2.61653 42.1575 3.27666C38.8588 7.33347 35.5489 11.3903 32.2614 15.4591C32.037 15.7351 31.734 16.0352 32.0931 16.4433C32.396 16.7794 32.9907 16.8514 33.3273 16.5393C33.7985 16.0832 34.2361 15.5911 34.6849 15.111C37.8602 11.6663 41.0467 8.22165 44.222 4.77696C44.3566 4.63293 44.4576 4.46489 44.5698 4.33287C45.4113 4.81296 45.5235 5.38908 44.9513 6.08522C41.6862 10.094 38.4212 14.1148 35.1674 18.1236C34.8981 18.4477 34.4717 18.7838 34.9542 19.2759C35.302 19.6359 35.9079 19.5759 36.3118 19.1438C38.1744 17.1274 40.0257 15.087 41.9107 13.0826C43.7732 11.1142 45.6582 9.18184 47.5768 7.20144C48.1939 7.53751 48.3173 8.16163 47.79 8.80976C44.5137 12.8306 41.2374 16.8634 37.9612 20.8962C37.7143 21.1962 37.2543 21.4963 37.6919 22.0004C38.0509 22.4205 38.6456 22.3965 39.0944 21.9284C40.4969 20.4281 41.8882 18.9158 43.2795 17.4035C45.4674 15.027 47.6553 12.6385 49.8545 10.2621C49.9891 10.118 50.1238 9.998 50.3818 9.73395C50.6062 10.214 50.797 10.6221 50.9877 11.0422C49.675 12.5545 48.3959 14.0428 47.1168 15.5191C44.0761 19.0238 41.0018 22.4925 38.0173 26.0452C36.1884 28.2296 33.3385 28.2777 31.5994 26.4533C31.5433 26.3933 31.4872 26.3573 31.3862 26.2733C31.2067 26.5013 31.0159 26.7173 30.8476 26.9454C29.2319 28.9978 27.6163 31.0502 26.0006 33.0786C25.7537 33.3907 25.6864 33.6547 25.821 34.0508C26.0903 34.879 26.2923 35.7311 26.5391 36.5713C26.584 36.7393 26.6738 36.8954 26.7972 37.0514C26.9767 35.6831 26.4942 34.2789 27.1001 32.8026C27.2572 33.3787 27.4367 33.8228 27.4928 34.2789C27.6387 35.5871 27.6948 36.8954 27.8631 38.2036C28.0875 39.944 28.4129 41.6723 29.3778 43.1606C30.2418 44.5049 31.0608 45.8972 31.9809 47.2054C32.3736 47.7695 32.9346 48.2136 33.4507 48.6697C34.6625 49.7379 35.8855 50.7822 37.1085 51.8384C37.2207 51.9344 37.3441 51.9944 37.5124 52.1024C36.2894 50.5421 35.0552 49.0778 33.9332 47.5175C32.8112 45.9692 31.5545 44.5169 30.7803 42.7165C30.8364 42.6685 30.9037 42.6085 30.9598 42.5605C31.7452 43.5567 32.5307 44.5409 33.4058 45.6331C32.7775 44.0128 32.2053 42.5245 31.633 41.0242C31.7004 40.9882 31.7677 40.9642 31.835 40.9282C32.7326 42.7645 33.4619 44.7089 34.7186 46.3293C34.5166 44.925 34.3147 43.5327 34.1127 42.1284C34.8869 42.7285 34.9318 43.6047 35.1113 44.4089C35.302 45.2971 35.4591 46.1972 35.6162 47.0974C35.8518 48.4177 36.3118 49.6059 37.2319 50.5781C38.4549 51.8864 39.5432 53.3867 40.8784 54.5509C42.2473 55.7391 43.8181 56.6633 45.344 57.6355C46.5333 58.3797 47.79 59.0158 49.013 59.6879C49.1252 59.7479 49.2262 59.832 49.271 60C48.5081 59.6639 47.7002 59.3879 46.9709 58.9798C44.985 57.8516 43.0439 56.6153 41.0467 55.4991C39.1505 54.4429 37.2431 53.3507 35.2459 52.5345C34.1463 52.0904 32.856 52.1744 31.6555 52.0664C30.7803 51.9824 29.9052 51.9944 29.03 51.9104C28.727 51.8864 28.4353 51.7183 28.1436 51.5143C29.1085 50.9142 30.1408 51.2622 31.1506 51.0702C29.7256 50.6021 28.3119 50.134 26.8869 49.6659C26.8982 49.5939 26.9094 49.5339 26.9318 49.4619C27.4592 49.1378 28.009 49.2939 28.5587 49.4259C29.0861 49.5459 29.6134 49.7019 30.1744 49.7139C28.8505 48.8498 27.5265 47.9736 26.2025 47.1094C27.5826 47.2534 28.7495 47.9376 29.9276 48.5857C31.2964 49.3539 32.6316 50.206 34.0005 50.9862C34.5839 51.3103 35.2123 51.5503 35.8181 51.8264C35.8518 51.7784 35.8742 51.7303 35.9079 51.6823C35.4928 51.3103 35.0776 50.9502 34.6625 50.5661C31.9809 48.0696 28.9178 46.2092 25.7201 44.6129C24.9234 44.2168 23.9473 44.2168 23.0497 44.0128C22.1745 43.8208 21.2993 43.6407 20.4354 43.4127C20.1661 43.3407 19.9193 43.1366 19.5714 42.9446C20.4354 42.3925 21.2208 42.9326 22.1408 42.8366C21.1871 42.3085 20.3569 41.8644 19.4929 41.3963C18.629 42.4885 17.7762 43.5687 16.9235 44.6489C13.2658 49.3059 9.608 53.9508 5.95025 58.6077C5.04143 59.7599 3.88576 60.156 2.52813 59.772C1.14805 59.3759 0.373866 58.3557 0.0933641 56.8674C-0.198358 55.3311 0.194348 54.0828 1.26026 52.9666C6.43272 47.5775 11.5715 42.1644 16.7215 36.7513C16.8001 36.5353 16.9459 36.3553 17.1479 36.1392ZM25.3274 33.8468C24.6093 34.7469 23.9585 35.5391 23.3414 36.3673C23.2404 36.4993 23.2404 36.8234 23.319 36.9914C24.1156 38.7197 25.159 40.268 26.4157 41.6483C26.7523 42.0204 27.044 42.4405 27.3694 42.8126C27.7733 43.2807 28.2109 43.7127 28.6373 44.1688C28.7046 44.1088 28.7719 44.0608 28.8392 44.0008C28.2558 42.9086 27.6724 41.8044 27.0777 40.7121C26.2586 39.1998 25.4171 37.6875 24.6205 36.1632C24.4746 35.8872 24.4858 35.5031 24.4185 35.167C24.4971 35.131 24.5756 35.095 24.6542 35.059C25.1478 35.9112 25.6527 36.7633 26.1464 37.6035C26.1913 37.5795 26.225 37.5675 26.2698 37.5435C25.9781 36.3673 25.664 35.167 25.3274 33.8468ZM20.7496 39.6559C22.915 42.2124 25.6752 43.6287 28.4578 45.033C26.2025 42.8606 24.3288 40.232 21.5686 38.5997C21.2993 38.9598 21.0301 39.3079 20.7496 39.6559Z" fill="#2A746E"/>
</svg>
