<svg width="30" height="30" viewBox="0 0 30 30" fill="none" xmlns="http://www.w3.org/2000/svg">
<path d="M22.25 13.75V9.50001C22.25 5.3751 18.8749 2 14.75 2C10.6251 2 7.25 5.3751 7.25 9.50001V13.75C6.49996 15.125 6 16.6249 6 18.25C6 23.125 9.87505 27 14.75 27C19.625 27 23.5 23.1249 23.5 18.25C23.5 16.6251 23.0001 15.125 22.25 13.75ZM14.75 4.49996C17.5001 4.49996 19.75 6.74987 19.75 9.49997V11.1249C16.7501 8.99979 12.75 8.99979 9.75001 11.1249V9.49997C9.75001 6.74987 11.9999 4.49996 14.75 4.49996ZM16 19.125V20.7499C16 21.4999 15.5001 21.9999 14.75 21.9999C14 21.9999 13.5 21.4999 13.5 20.7499V19.125C12.75 18.7501 12.25 17.875 12.25 16.9999C12.25 15.6248 13.375 14.4999 14.75 14.4999C16.1251 14.4999 17.25 15.6248 17.25 16.9999C17.25 17.875 16.7501 18.7499 16 19.125Z" fill="#999999"/>
</svg>
