<svg width="30" height="30" viewBox="0 0 30 30" fill="none" xmlns="http://www.w3.org/2000/svg">
<path d="M21.5474 7.17325C21.5474 10.4721 18.8734 13.1463 15.5744 13.1463C12.2754 13.1463 9.60132 10.472 9.60132 7.17325C9.60132 3.87458 12.2754 1.2002 15.5744 1.2002C18.8734 1.2002 21.5474 3.87448 21.5474 7.17325Z" fill="white"/>
<path d="M24.6312 20.342C24.2979 17.4805 22.1866 15.2302 19.4916 14.5912L16.8245 21.2866L16.241 16.4525H16.6299C16.8522 16.4525 17.0465 16.2579 17.0465 16.0359V14.7301C17.0465 14.5078 16.852 14.3135 16.6299 14.3135H14.5185C14.2963 14.3135 14.1019 14.508 14.1019 14.7301V16.0359C14.1019 16.2581 14.2965 16.4525 14.5185 16.4525H14.9075L14.324 21.2866L11.6568 14.5912C8.96219 15.2301 6.85084 17.4804 6.5177 20.342L6.01773 24.537C5.85107 25.9261 6.87892 27.1762 8.268 27.2874C8.49028 27.3151 8.74026 27.3151 8.99027 27.343C13.6298 27.7042 18.2971 27.6763 22.9089 27.3153C24.298 27.2043 25.3258 25.954 25.1592 24.5649L24.6312 20.342Z" fill="white"/>
</svg>
