<svg width="22" height="16" viewBox="0 0 22 16" fill="none" xmlns="http://www.w3.org/2000/svg">
<path d="M14.2991 0.771589C14.1631 0.608569 13.9649 0.510284 13.7528 0.500782C13.5408 0.491131 13.3345 0.571157 13.1844 0.721259C13.0344 0.87136 12.9542 1.07758 12.9639 1.28959C12.9735 1.50175 13.0718 1.69996 13.2348 1.83581L18.6647 7.27171L0.717667 7.27171C0.456806 7.28566 0.221473 7.4328 0.094982 7.66129C-0.0316607 7.88963 -0.0316607 8.16714 0.094982 8.3956C0.221476 8.6241 0.456799 8.77123 0.717667 8.78503H18.6647L13.2265 14.2149C13.0896 14.3583 13.0133 14.5488 13.0133 14.747C13.0133 14.9452 13.0896 15.1358 13.2265 15.2791C13.3675 15.4206 13.5589 15.5 13.7586 15.5C13.9583 15.5 14.1498 15.4206 14.2907 15.2791L21.0166 8.55319V8.55333C21.1612 8.41407 21.243 8.22195 21.243 8.02122C21.243 7.82034 21.1612 7.62822 21.0166 7.48911L14.2991 0.771589Z" fill="#999999"/>
</svg>
