<svg width="22" height="16" viewBox="0 0 22 16" fill="none" xmlns="http://www.w3.org/2000/svg">
<path d="M7.70094 15.2284C7.83694 15.3914 8.03515 15.4897 8.24715 15.4992C8.45917 15.5089 8.66555 15.4288 8.81564 15.2787C8.96559 15.1286 9.04577 14.9224 9.03612 14.7104C9.02647 14.4982 8.92818 14.3 8.76516 14.1642L3.33534 8.72829L21.2823 8.72829C21.5432 8.71434 21.7785 8.5672 21.905 8.33871C22.0317 8.11037 22.0317 7.83286 21.905 7.6044C21.7785 7.3759 21.5432 7.22877 21.2823 7.21497L3.33534 7.21497L8.77352 1.78514C8.91041 1.64173 8.98673 1.45124 8.98673 1.25303C8.98673 1.05483 8.91041 0.864211 8.77352 0.720922C8.63248 0.579429 8.4411 0.5 8.24141 0.5C8.04172 0.5 7.8502 0.579429 7.7093 0.720922L0.983408 7.44681V7.44667C0.838799 7.58593 0.756992 7.77805 0.756992 7.97878C0.756992 8.17966 0.838799 8.37178 0.983408 8.51089L7.70094 15.2284Z" fill="#EEEEEE"/>
</svg>
