<svg width="10" height="10" viewBox="0 0 10 10" fill="none" xmlns="http://www.w3.org/2000/svg">
<path d="M9.78111 9.81038C9.65919 9.93223 9.49367 10.0005 9.32131 10H9.31953C9.14645 10 8.98065 9.93074 8.85894 9.80775L5.10676 6.03223C5.07855 6.00394 5.04021 5.98805 5.00024 5.98805C4.96027 5.98805 4.92193 6.00394 4.89372 6.03223L1.14099 9.80775C1.01936 9.93067 0.853697 9.99985 0.680827 9.99992H0.679046C0.506325 10 0.340584 9.93152 0.218314 9.80953C0.0960428 9.68754 0.027203 9.52201 0.0268564 9.3493C0.0265714 9.17651 0.0948333 9.01077 0.216672 8.8883L3.9756 5.10584C4.03367 5.0472 4.03367 4.95272 3.9756 4.89408L0.216672 1.11163C0.0948279 0.989141 0.0265645 0.823399 0.0268564 0.65062C0.0272127 0.4779 0.0960446 0.312377 0.218314 0.1904C0.340585 0.0684129 0.506322 -5.46903e-05 0.679046 3.2778e-08H0.680827C0.853903 3.2778e-08 1.01971 0.0692594 1.14141 0.192242L4.89359 3.96777C4.92181 3.99606 4.96014 4.01195 5.00011 4.01195C5.04009 4.01195 5.07842 3.99606 5.10664 3.96777L8.85936 0.192242C8.98099 0.0693287 9.14666 0.000145964 9.31953 7.30002e-05H9.32138H9.32131C9.49403 1.75084e-06 9.65977 0.0684768 9.78204 0.190473C9.90431 0.312459 9.97315 0.477988 9.9735 0.650693C9.97378 0.823485 9.90552 0.989228 9.78368 1.1117L6.02476 4.89416C5.96668 4.9528 5.96668 5.04728 6.02476 5.10592L9.78368 8.88837C9.90545 9.01114 9.9735 9.17709 9.973 9.34996C9.97258 9.52282 9.90353 9.68841 9.78111 9.81038Z" fill="black"/>
</svg>
