<svg width="10" height="10" viewBox="0 0 10 10" fill="none" xmlns="http://www.w3.org/2000/svg">
<path d="M9.7816 9.81038C9.65968 9.93223 9.49416 10.0005 9.3218 10H9.32002C9.14694 10 8.98113 9.93074 8.85943 9.80775L5.10725 6.03223C5.07904 6.00394 5.0407 5.98805 5.00073 5.98805C4.96076 5.98805 4.92242 6.00394 4.89421 6.03223L1.14148 9.80775C1.01985 9.93067 0.854185 9.99985 0.681315 9.99992H0.679534C0.506813 10 0.341072 9.93152 0.218802 9.80953C0.0965311 9.68754 0.0276913 9.52201 0.0273447 9.3493C0.0270597 9.17651 0.0953216 9.01077 0.217161 8.8883L3.97609 5.10584C4.03416 5.0472 4.03416 4.95272 3.97609 4.89408L0.217161 1.11163C0.0953161 0.989141 0.0270528 0.823399 0.0273447 0.65062C0.0277009 0.4779 0.0965329 0.312377 0.218802 0.1904C0.341074 0.0684129 0.50681 -5.46903e-05 0.679534 3.2778e-08H0.681315C0.854391 3.2778e-08 1.0202 0.0692594 1.1419 0.192242L4.89408 3.96777C4.9223 3.99606 4.96063 4.01195 5.0006 4.01195C5.04058 4.01195 5.07891 3.99606 5.10713 3.96777L8.85985 0.192242C8.98148 0.0693287 9.14715 0.000145964 9.32002 7.30002e-05H9.32187H9.3218C9.49452 1.75084e-06 9.66026 0.0684768 9.78253 0.190473C9.9048 0.312459 9.97364 0.477988 9.97398 0.650693C9.97427 0.823485 9.90601 0.989228 9.78417 1.1117L6.02524 4.89416C5.96717 4.9528 5.96717 5.04728 6.02524 5.10592L9.78417 8.88837C9.90594 9.01114 9.97399 9.17709 9.97349 9.34996C9.97307 9.52282 9.90402 9.68841 9.7816 9.81038Z" fill="black"/>
</svg>
