<svg width="10" height="10" viewBox="0 0 10 10" fill="none" xmlns="http://www.w3.org/2000/svg">
<path d="M9.78062 9.81038C9.6587 9.93223 9.49318 10.0005 9.32082 10H9.31904C9.14596 10 8.98016 9.93074 8.85845 9.80775L5.10628 6.03223C5.07806 6.00394 5.03973 5.98805 4.99975 5.98805C4.95978 5.98805 4.92144 6.00394 4.89323 6.03223L1.1405 9.80775C1.01887 9.93067 0.853209 9.99985 0.680339 9.99992H0.678557C0.505837 10 0.340095 9.93152 0.217826 9.80953C0.0955545 9.68754 0.0267147 9.52201 0.0263681 9.3493C0.0260831 9.17651 0.0943451 9.01077 0.216184 8.8883L3.97511 5.10584C4.03318 5.0472 4.03318 4.95272 3.97511 4.89408L0.216184 1.11163C0.0943396 0.989141 0.0260763 0.823399 0.0263681 0.65062C0.0267244 0.4779 0.0955563 0.312377 0.217826 0.1904C0.340097 0.0684129 0.505833 -5.46903e-05 0.678557 3.2778e-08H0.680339C0.853415 3.2778e-08 1.01922 0.0692594 1.14092 0.192242L4.8931 3.96777C4.92132 3.99606 4.95965 4.01195 4.99962 4.01195C5.0396 4.01195 5.07793 3.99606 5.10615 3.96777L8.85887 0.192242C8.9805 0.0693287 9.14617 0.000145964 9.31904 7.30002e-05H9.32089H9.32082C9.49354 1.75084e-06 9.65928 0.0684768 9.78155 0.190473C9.90382 0.312459 9.97266 0.477988 9.97301 0.650693C9.97329 0.823485 9.90503 0.989228 9.78319 1.1117L6.02427 4.89416C5.9662 4.9528 5.9662 5.04728 6.02427 5.10592L9.78319 8.88837C9.90497 9.01114 9.97301 9.17709 9.97252 9.34996C9.97209 9.52282 9.90304 9.68841 9.78062 9.81038Z" fill="black"/>
</svg>
