<svg width="32" height="32" viewBox="0 0 32 32" fill="none" xmlns="http://www.w3.org/2000/svg">
<path d="M3.99967 11.9993C5.47243 11.9993 6.66634 10.8054 6.66634 9.33268C6.66634 7.85992 5.47243 6.66602 3.99967 6.66602C2.52691 6.66602 1.33301 7.85992 1.33301 9.33268C1.33301 10.8054 2.52691 11.9993 3.99967 11.9993Z" stroke="#B4CD93" stroke-width="1.5" stroke-miterlimit="10" stroke-linecap="round" stroke-linejoin="round"/>
<path d="M27.9997 11.9993C29.4724 11.9993 30.6663 10.8054 30.6663 9.33268C30.6663 7.85992 29.4724 6.66602 27.9997 6.66602C26.5269 6.66602 25.333 7.85992 25.333 9.33268C25.333 10.8054 26.5269 11.9993 27.9997 11.9993Z" stroke="#B4CD93" stroke-width="1.5" stroke-miterlimit="10" stroke-linecap="round" stroke-linejoin="round"/>
<path d="M25.3333 9.33301H20" stroke="#B4CD93" stroke-width="1.5" stroke-miterlimit="10" stroke-linecap="round" stroke-linejoin="round"/>
<path d="M11.9993 9.33301H6.66602" stroke="#B4CD93" stroke-width="1.5" stroke-miterlimit="10" stroke-linecap="round" stroke-linejoin="round"/>
<path d="M9.99967 22V24.6667C9.99967 25.48 9.50634 26.1866 8.81301 26.48C8.55967 26.6 8.29301 26.6667 7.99967 26.6667H5.33301C4.22634 26.6667 3.33301 25.7733 3.33301 24.6667V22C3.33301 20.8933 4.22634 20 5.33301 20H7.99967C9.10634 20 9.99967 20.8933 9.99967 22Z" stroke="#B4CD93" stroke-width="1.5" stroke-miterlimit="10" stroke-linecap="round" stroke-linejoin="round"/>
<path d="M28.6667 22V24.6667C28.6667 25.7733 27.7733 26.6667 26.6667 26.6667H24C23.7067 26.6667 23.44 26.6 23.1867 26.48C22.4933 26.1866 22 25.48 22 24.6667V22C22 20.8933 22.8933 20 24 20H26.6667C27.7733 20 28.6667 20.8933 28.6667 22Z" stroke="#B4CD93" stroke-width="1.5" stroke-miterlimit="10" stroke-linecap="round" stroke-linejoin="round"/>
<path d="M20 7.33301V11.333C20 12.4263 19.0933 13.333 18 13.333H14C12.9067 13.333 12 12.4263 12 11.333V7.33301C12 6.23967 12.9067 5.33301 14 5.33301H18C19.0933 5.33301 20 6.23967 20 7.33301Z" stroke="#B4CD93" stroke-width="1.5" stroke-miterlimit="10" stroke-linecap="round" stroke-linejoin="round"/>
<path d="M20 10.3066C23.16 11.9066 25.3333 15.3467 25.3333 19.3333C25.3333 19.56 25.32 19.7733 25.2933 20" stroke="#B4CD93" stroke-width="1.5" stroke-miterlimit="10" stroke-linecap="round" stroke-linejoin="round"/>
<path d="M6.70602 20C6.67935 19.7733 6.66602 19.56 6.66602 19.3333C6.66602 15.3467 8.83935 11.9066 11.9993 10.3066" stroke="#B4CD93" stroke-width="1.5" stroke-miterlimit="10" stroke-linecap="round" stroke-linejoin="round"/>
</svg>
