<svg width="32" height="32" viewBox="0 0 32 32" fill="none" xmlns="http://www.w3.org/2000/svg">
<path d="M4.00016 11.9993C5.47292 11.9993 6.66683 10.8054 6.66683 9.33268C6.66683 7.85992 5.47292 6.66602 4.00016 6.66602C2.5274 6.66602 1.3335 7.85992 1.3335 9.33268C1.3335 10.8054 2.5274 11.9993 4.00016 11.9993Z" stroke="#B4CD93" stroke-width="1.5" stroke-miterlimit="10" stroke-linecap="round" stroke-linejoin="round"/>
<path d="M28.0002 11.9993C29.4729 11.9993 30.6668 10.8054 30.6668 9.33268C30.6668 7.85992 29.4729 6.66602 28.0002 6.66602C26.5274 6.66602 25.3335 7.85992 25.3335 9.33268C25.3335 10.8054 26.5274 11.9993 28.0002 11.9993Z" stroke="#B4CD93" stroke-width="1.5" stroke-miterlimit="10" stroke-linecap="round" stroke-linejoin="round"/>
<path d="M25.3333 9.33301H20" stroke="#B4CD93" stroke-width="1.5" stroke-miterlimit="10" stroke-linecap="round" stroke-linejoin="round"/>
<path d="M12.0003 9.33301H6.66699" stroke="#B4CD93" stroke-width="1.5" stroke-miterlimit="10" stroke-linecap="round" stroke-linejoin="round"/>
<path d="M10.0002 22V24.6667C10.0002 25.48 9.50683 26.1866 8.8135 26.48C8.56016 26.6 8.2935 26.6667 8.00016 26.6667H5.3335C4.22683 26.6667 3.3335 25.7733 3.3335 24.6667V22C3.3335 20.8933 4.22683 20 5.3335 20H8.00016C9.10683 20 10.0002 20.8933 10.0002 22Z" stroke="#B4CD93" stroke-width="1.5" stroke-miterlimit="10" stroke-linecap="round" stroke-linejoin="round"/>
<path d="M28.6667 22V24.6667C28.6667 25.7733 27.7733 26.6667 26.6667 26.6667H24C23.7067 26.6667 23.44 26.6 23.1867 26.48C22.4933 26.1866 22 25.48 22 24.6667V22C22 20.8933 22.8933 20 24 20H26.6667C27.7733 20 28.6667 20.8933 28.6667 22Z" stroke="#B4CD93" stroke-width="1.5" stroke-miterlimit="10" stroke-linecap="round" stroke-linejoin="round"/>
<path d="M20 7.33301V11.333C20 12.4263 19.0933 13.333 18 13.333H14C12.9067 13.333 12 12.4263 12 11.333V7.33301C12 6.23967 12.9067 5.33301 14 5.33301H18C19.0933 5.33301 20 6.23967 20 7.33301Z" stroke="#B4CD93" stroke-width="1.5" stroke-miterlimit="10" stroke-linecap="round" stroke-linejoin="round"/>
<path d="M20 10.3066C23.16 11.9066 25.3333 15.3467 25.3333 19.3333C25.3333 19.56 25.32 19.7733 25.2933 20" stroke="#B4CD93" stroke-width="1.5" stroke-miterlimit="10" stroke-linecap="round" stroke-linejoin="round"/>
<path d="M6.70699 20C6.68033 19.7733 6.66699 19.56 6.66699 19.3333C6.66699 15.3467 8.84033 11.9066 12.0003 10.3066" stroke="#B4CD93" stroke-width="1.5" stroke-miterlimit="10" stroke-linecap="round" stroke-linejoin="round"/>
</svg>
