<svg width="32" height="32" viewBox="0 0 32 32" fill="none" xmlns="http://www.w3.org/2000/svg">
<path d="M4.00065 11.9993C5.47341 11.9993 6.66732 10.8054 6.66732 9.33268C6.66732 7.85992 5.47341 6.66602 4.00065 6.66602C2.52789 6.66602 1.33398 7.85992 1.33398 9.33268C1.33398 10.8054 2.52789 11.9993 4.00065 11.9993Z" stroke="#B4CD93" stroke-width="1.5" stroke-miterlimit="10" stroke-linecap="round" stroke-linejoin="round"/>
<path d="M28.0007 11.9993C29.4734 11.9993 30.6673 10.8054 30.6673 9.33268C30.6673 7.85992 29.4734 6.66602 28.0007 6.66602C26.5279 6.66602 25.334 7.85992 25.334 9.33268C25.334 10.8054 26.5279 11.9993 28.0007 11.9993Z" stroke="#B4CD93" stroke-width="1.5" stroke-miterlimit="10" stroke-linecap="round" stroke-linejoin="round"/>
<path d="M25.3333 9.33301H20" stroke="#B4CD93" stroke-width="1.5" stroke-miterlimit="10" stroke-linecap="round" stroke-linejoin="round"/>
<path d="M12.0013 9.33301H6.66797" stroke="#B4CD93" stroke-width="1.5" stroke-miterlimit="10" stroke-linecap="round" stroke-linejoin="round"/>
<path d="M10.0007 22V24.6667C10.0007 25.48 9.50732 26.1866 8.81398 26.48C8.56065 26.6 8.29398 26.6667 8.00065 26.6667H5.33398C4.22732 26.6667 3.33398 25.7733 3.33398 24.6667V22C3.33398 20.8933 4.22732 20 5.33398 20H8.00065C9.10732 20 10.0007 20.8933 10.0007 22Z" stroke="#B4CD93" stroke-width="1.5" stroke-miterlimit="10" stroke-linecap="round" stroke-linejoin="round"/>
<path d="M28.6667 22V24.6667C28.6667 25.7733 27.7733 26.6667 26.6667 26.6667H24C23.7067 26.6667 23.44 26.6 23.1867 26.48C22.4933 26.1866 22 25.48 22 24.6667V22C22 20.8933 22.8933 20 24 20H26.6667C27.7733 20 28.6667 20.8933 28.6667 22Z" stroke="#B4CD93" stroke-width="1.5" stroke-miterlimit="10" stroke-linecap="round" stroke-linejoin="round"/>
<path d="M20 7.33301V11.333C20 12.4263 19.0933 13.333 18 13.333H14C12.9067 13.333 12 12.4263 12 11.333V7.33301C12 6.23967 12.9067 5.33301 14 5.33301H18C19.0933 5.33301 20 6.23967 20 7.33301Z" stroke="#B4CD93" stroke-width="1.5" stroke-miterlimit="10" stroke-linecap="round" stroke-linejoin="round"/>
<path d="M20 10.3066C23.16 11.9066 25.3333 15.3467 25.3333 19.3333C25.3333 19.56 25.32 19.7733 25.2933 20" stroke="#B4CD93" stroke-width="1.5" stroke-miterlimit="10" stroke-linecap="round" stroke-linejoin="round"/>
<path d="M6.70797 20C6.6813 19.7733 6.66797 19.56 6.66797 19.3333C6.66797 15.3467 8.8413 11.9066 12.0013 10.3066" stroke="#B4CD93" stroke-width="1.5" stroke-miterlimit="10" stroke-linecap="round" stroke-linejoin="round"/>
</svg>
